<svg xmlns="http://www.w3.org/2000/svg" viewBox="0 0 189.11 110.06"><defs><style>.cls-1{fill:#fff;stroke:#5b5b5b;}.cls-1,.cls-2,.cls-5,.cls-6{stroke-miterlimit:10;}.cls-2,.cls-4{fill:#5b5b5b;}.cls-2,.cls-6{stroke:#fff;}.cls-3{fill:#f2f2f2;}.cls-5{fill:none;stroke:#adadad;stroke-width:1.2px;}.cls-6{fill:#e2d53b;}</style></defs><g id="Layer_2" data-name="Layer 2"><g id="tooltip"><rect class="cls-1" x="0.5" y="0.5" width="141.97" height="93.02"/><path class="cls-2" d="M128.32,47.35a27,27,0,1,0,27,27A27,27,0,0,0,128.32,47.35Z"/><polygon class="cls-3" points="139.85 65.06 137.57 62.78 128.32 72.03 119.06 62.78 116.78 65.06 126.04 74.31 116.78 83.57 119.06 85.85 128.32 76.6 137.57 85.85 139.85 83.57 130.6 74.31 139.85 65.06"/><polygon class="cls-4" points="138.27 6.12 137.48 5.32 134.25 8.55 131.02 5.32 130.22 6.12 133.45 9.35 130.22 12.58 131.02 13.37 134.25 10.14 137.48 13.37 138.27 12.58 135.04 9.35 138.27 6.12"/><line class="cls-5" x1="141.98" y1="18.36" x2="1.03" y2="18.36"/><polygon class="cls-6" points="165.69 76.07 188.61 78.96 188.61 73.17 165.69 76.07"/><polygon class="cls-6" points="159.49 61.09 177.74 46.93 173.64 42.84 159.49 61.09"/><polygon class="cls-6" points="159.49 91.05 173.64 109.3 177.74 105.21 159.49 91.05"/></g></g></svg>