<svg xmlns="http://www.w3.org/2000/svg" viewBox="0 0 228.14 106.03"><defs><style>.cls-1{fill:#5b5b5b;}.cls-2{fill:#fff;}.cls-3,.cls-4,.cls-6{fill:none;stroke-miterlimit:10;}.cls-3{stroke:#5b5b5b;}.cls-4{stroke:#e7ce17;stroke-width:2.08px;}.cls-5{fill:#e7ce17;}.cls-6{stroke:#adadad;}</style></defs><g id="Layer_2" data-name="Layer 2"><g id="tooltip"><rect class="cls-1" x="117.91" y="101.84" width="110.23" height="4.2" rx="2.1"/><rect class="cls-1" y="101.84" width="110.23" height="4.2" rx="2.1"/><rect class="cls-2" x="123.85" y="91.34" width="98.71" height="12.39"/><rect class="cls-2" x="6.56" y="36.43" width="98.71" height="67.3"/><polygon class="cls-1" points="101.97 41.22 100.95 40.2 96.82 44.33 92.69 40.2 91.67 41.22 95.8 45.35 91.67 49.48 92.69 50.5 96.82 46.37 100.95 50.5 101.97 49.48 97.84 45.35 101.97 41.22"/><polyline class="cls-3" points="6.7 103.73 6.7 36.22 105.77 36.22 105.77 103.73"/><polyline class="cls-3" points="123.17 103.73 123.17 90.92 222.24 90.92 222.24 103.73"/><line class="cls-4" x1="173" y1="79.24" x2="172.89" y2="46.41"/><path class="cls-5" d="M173,88.55c1.61-4.39,4.36-9.83,7.29-13.21L173,78l-7.34-2.63C168.6,78.75,171.39,84.17,173,88.55Z"/><polygon class="cls-1" points="206.93 103.72 208.97 103.72 210.84 101.85 212.71 103.72 214.75 103.72 211.86 100.83 215.99 96.7 214.97 95.68 210.84 99.81 206.71 95.68 205.69 96.7 209.82 100.83 206.93 103.72"/><line class="cls-4" x1="172.89" y1="33.99" x2="172.89" y2="43.99"/><line class="cls-4" x1="172.89" y1="20.15" x2="172.89" y2="28.15"/><line class="cls-4" x1="172.89" y1="10.09" x2="172.89" y2="16.09"/><line class="cls-4" x1="172.89" y1="4.03" x2="172.89" y2="8.03"/><line class="cls-4" x1="172.89" x2="172.89" y2="2"/><line class="cls-6" x1="105.25" y1="54.36" x2="7.19" y2="54.36"/></g></g></svg>