<svg xmlns="http://www.w3.org/2000/svg" xmlns:xlink="http://www.w3.org/1999/xlink" viewBox="0 0 252.64 190.67"><defs><style>.cls-1{fill:#f2f2f2;}.cls-1,.cls-14,.cls-2{stroke:#8e98a7;}.cls-1,.cls-10,.cls-12,.cls-14,.cls-15,.cls-16,.cls-18,.cls-2,.cls-21,.cls-22,.cls-8,.cls-9{stroke-miterlimit:10;}.cls-1,.cls-2{stroke-width:2.63px;}.cls-10,.cls-12,.cls-16,.cls-2,.cls-21,.cls-22,.cls-5,.cls-6,.cls-8{fill:none;}.cls-3,.cls-4{fill:#592349;}.cls-3{opacity:0.15;isolation:isolate;}.cls-5,.cls-6,.cls-8{stroke:#622262;}.cls-5,.cls-6{stroke-miterlimit:47.96;}.cls-5{stroke-width:0.69px;}.cls-6{stroke-width:0.81px;}.cls-7{fill:#622262;}.cls-8{stroke-width:1.02px;}.cls-9{fill:#f6f7f8;stroke:#646565;stroke-width:2px;}.cls-10,.cls-16{stroke:#05778c;}.cls-10,.cls-12{stroke-width:3px;}.cls-10{stroke-dasharray:3.21 3.98;}.cls-11,.cls-14,.cls-18{fill:#fff;}.cls-12{stroke:#0f0f0f;}.cls-13{fill:#80598e;}.cls-14{stroke-width:1.45px;}.cls-15,.cls-17{fill:#05778c;}.cls-15,.cls-18{stroke:#fff;}.cls-15{stroke-width:1.25px;}.cls-16{stroke-width:2.66px;}.cls-18{stroke-width:5.21px;}.cls-19{fill:#e7ce17;}.cls-20{fill:#515151;}.cls-21,.cls-22{stroke:#5b5b5b;}.cls-21{stroke-width:1.04px;}.cls-22{stroke-width:0.52px;}.cls-23{fill:#2d2d2d;}.cls-24{fill:url(#linear-gradient);}</style><linearGradient id="linear-gradient" x1="157.44" y1="182.43" x2="148.81" y2="170.06" gradientUnits="userSpaceOnUse"><stop offset="0" stop-opacity="0.3"/><stop offset="1" stop-opacity="0"/></linearGradient></defs><g id="Layer_2" data-name="Layer 2"><g id="Layer_4" data-name="Layer 4"><path class="cls-1" d="M58.78,57.63l-20.1,59.2a2.29,2.29,0,0,0,1.43,2.91l39.58,13.44a2.29,2.29,0,0,0,2.9-1.44l16-47.13L88.78,65.4l-27.1-9.2A2.28,2.28,0,0,0,58.78,57.63Z"/><path class="cls-2" d="M98.36,85.32,85,80.78a1.66,1.66,0,0,1-1-2.1L88.48,65.3"/><path class="cls-1" d="M1.55,81,29.06,137.1a2.28,2.28,0,0,0,3.06,1.05l37.54-18.39a2.3,2.3,0,0,0,1-3.06L48.81,72,28.3,65.3,2.6,77.89A2.28,2.28,0,0,0,1.55,81Z"/><path class="cls-2" d="M49.14,72.67,36.45,78.89a1.66,1.66,0,0,1-2.22-.76L28,65.44"/><path class="cls-1" d="M21.35,59.83l4.51,62.36a2.29,2.29,0,0,0,2.45,2.12l41.69-3a2.29,2.29,0,0,0,2.12-2.45L68.53,69.2,52,55.32,23.46,57.38A2.29,2.29,0,0,0,21.35,59.83Z"/><path class="cls-3" d="M37.88,87.71,58,86.12l-.31-4a1,1,0,0,0-1.13-1l-19.1,1.5Z"/><path class="cls-4" d="M37.52,86.87h20a.56.56,0,0,1,.56.56v5a0,0,0,0,1,0,0H37.52a0,0,0,0,1,0,0V86.87A0,0,0,0,1,37.52,86.87Z" transform="translate(-6.88 4.02) rotate(-4.5)"/><path class="cls-5" d="M56.46,81.42,34.71,83.13a1.05,1.05,0,0,0-1.08,1.28L35.09,103c.07.89.61,1,1.26.91l21.75-1.71c.65-.06,1.17-.2,1.1-1.1L57.74,82.51A1.06,1.06,0,0,0,56.46,81.42Z"/><line class="cls-6" x1="33.9" y1="88.24" x2="58.07" y2="86.34"/><line class="cls-6" x1="34.32" y1="93.6" x2="58.5" y2="91.7"/><line class="cls-6" x1="34.75" y1="99.11" x2="58.93" y2="97.21"/><line class="cls-6" x1="45.72" y1="103.5" x2="44.06" y2="82.4"/><line class="cls-6" x1="39.14" y1="104.01" x2="37.48" y2="82.91"/><line class="cls-6" x1="52.57" y1="102.96" x2="50.9" y2="81.71"/><path class="cls-2" d="M68.58,70,54.49,71a1.67,1.67,0,0,1-1.78-1.54l-1-14.09"/><path class="cls-1" d="M75.92,73.32l-25.27,57.2a2.29,2.29,0,0,0,1.17,3l38.24,16.9a2.3,2.3,0,0,0,3-1.17l20.11-45.53-8.07-20L78.94,72.15A2.3,2.3,0,0,0,75.92,73.32Z"/><polygon class="cls-7" points="90.41 117.64 90.87 106.77 83.55 110.56 81.99 106.08 74.22 109.88 90.41 117.64"/><path class="cls-8" d="M88.71,122.57l-17.14-8.21a2.4,2.4,0,0,1-1.13-3.2L77.18,97.1A2.39,2.39,0,0,1,80.38,96l17.14,8.21a3,3,0,0,1,1.42,3.55l-7,13.71A2.39,2.39,0,0,1,88.71,122.57Z"/><circle class="cls-7" cx="80.49" cy="101.79" r="2.01"/><path class="cls-2" d="M112.89,104.41,100,98.7a1.66,1.66,0,0,1-.84-2.18l5.71-12.93"/><rect class="cls-9" x="119.11" y="24.44" width="104.74" height="73.33" rx="4.83"/><rect class="cls-10" x="128.39" y="33.94" width="85.59" height="54.34" rx="3.76"/><path class="cls-11" d="M31.29,188.06A124.76,124.76,0,0,1,14.87,152l.44-21.1c1.17-5.86,6.09-6.34,6.09-6.34l5.43,11,.21-11.2.69-16.25s2.51-5.51,7.19-5.79,8.65,4,8.65,4S43.37,95,52,95.66s7.85,11.75,7.85,11.75,2-4.27,8.93-3.35c8.83,1.19,6.91,15.8,6.91,15.8s6.56-3.83,10.36-3,5.79,7.26,5.79,7.26l.09,29.39c-2.25,14.09-5.49,26.15-10.42,34.79Z"/><path class="cls-12" d="M31.06,188.6c-7.21-9.85-12.69-21.95-16.19-36.65V131a6.05,6.05,0,0,1,3.93-6c.48-.22.59-.23,2.36-1"/><path class="cls-12" d="M75.8,136V124.16a8,8,0,0,1,8-8h0a8,8,0,0,1,8,8V153c-1.68,17.72-5.44,28.19-9.75,35.63H29.9"/><path class="cls-12" d="M27.66,142.92v-33a8,8,0,0,1,8-8h0a8,8,0,0,1,8,8v.77"/><path class="cls-12" d="M43.57,125.34V103a8,8,0,0,1,8-8h0a8,8,0,0,1,8,8v7.74"/><path class="cls-12" d="M59.62,131.48V111.74a8,8,0,0,1,8-8h0a8,8,0,0,1,8,8V124"/><path class="cls-11" d="M59.48,86.48c6.2-22.69,13.39-42.7,25-56.44,10.22-12,24.08-19.17,41-20.3,19.67.62,30,14.88,35.93,31.88l-14.49-2.53c8.56,9,16,21.12,24.14,34a194.72,194.72,0,0,1,15.46-39.21,83.41,83.41,0,0,1-14.65,6.62S163.29-1.84,125.29.06c-23.75,1.19-38,12-47.81,24.47C57.33,50.16,59.48,86.48,59.48,86.48Z"/><path class="cls-13" d="M59.48,86.48a103.74,103.74,0,0,1,10.66-44A84,84,0,0,1,83.2,23.61,69.2,69.2,0,0,1,101.42,9.43,57.06,57.06,0,0,1,112.24,5a49.91,49.91,0,0,1,11.62-1.88,43.14,43.14,0,0,1,11.8,1.17,40.42,40.42,0,0,1,11,4.53A46.43,46.43,0,0,1,163,25.88a73.65,73.65,0,0,1,8,22l-5.08,1a69.61,69.61,0,0,0-7-20.66,42,42,0,0,0-14.39-15.72,36.13,36.13,0,0,0-9.81-4.26A39.24,39.24,0,0,0,124,7a50,50,0,0,0-21,5.38A66.14,66.14,0,0,0,85.07,25.39a82.53,82.53,0,0,0-13.26,18,96.69,96.69,0,0,0-8.48,20.83A119.63,119.63,0,0,0,59.48,86.48Z"/><path class="cls-13" d="M170.27,66.39c-4.12-8.1-10.68-18-17.11-23.85L167.93,46l13.58-6.76C176.58,46.45,172.43,57.56,170.27,66.39Z"/></g><g id="tooltip"><path class="cls-14" d="M244.52,144.69C254.5,142.3,255.68,122,240,124c0-6.77-6.88-13.81-18.05-10.12-10-14.13-31.89-6.13-30.2,9.8-13.81,3.7-11,20.32,1.69,21Z"/><path class="cls-11" d="M166.71,94.2v32.4c0,5.46,4.21,10.35,9.67,10.35H191l-1.42,4.79,15.9-8.38-15.9-7.72,1.49,5.31-14.46-.34c-1.71,0-3.54-2.4-3.5-4.12V94.57Z"/><path class="cls-11" d="M219.45,132l-.07,32.39c0,5.47-4.2,10.35-9.67,10.35H180.14L182,181.5c-5.92-4.33-13.33-8.74-18.89-10.51,6.05-1.25,10.05-2.88,18.47-8.18l-1.5,5.95,29.37-.34c1.72,0,3.54-2.4,3.5-4.11l.07-31.92Z"/><circle class="cls-15" cx="169.85" cy="87.74" r="5.58"/><circle class="cls-15" cx="216.17" cy="137.83" r="5.58"/><path class="cls-16" d="M169.86,86.69c0,8.63,0,26.37,0,39.88a7.35,7.35,0,0,0,7.36,7.36h19"/><path class="cls-17" d="M202.36,133.82a39.61,39.61,0,0,0-11.25,6.37l2.27-6.37-2.27-6.38a39.54,39.54,0,0,0,11.25,6.38"/><path class="cls-17" d="M217.56,137c-.24,3-.25,5.91-.23,8.86l0,8.87,0,8.86c0,.38,0,.72,0,1.13a8.94,8.94,0,0,1-.11,1.27,8.36,8.36,0,0,1-.8,2.43,8.51,8.51,0,0,1-3.51,3.62,8.87,8.87,0,0,1-2.4.88,12.38,12.38,0,0,1-2.43.17H203.7l-8.86,0-17.74.13V170.6l17.74.13,8.86,0,4.44,0a10.07,10.07,0,0,0,2-.12,7.15,7.15,0,0,0,1.75-.62,6.43,6.43,0,0,0,2.58-2.64,6.15,6.15,0,0,0,.59-1.77,5.75,5.75,0,0,0,.09-.93c0-.33,0-.73,0-1.09V145.87c0-3,0-5.92-.26-8.88Z"/><polygon class="cls-18" points="131.51 160.31 126.09 153.29 141.69 146.24 146.96 152.6 152.19 146.31 167.93 153.18 162.33 160.31 167.71 166.96 162.26 169.58 162.33 180.7 147.58 187.9 146.41 188.01 131.47 180.88 131.36 169.69 126.02 167.25 131.51 160.31"/><polygon class="cls-19" points="141.51 147 127.06 153.47 132.28 160.27 127.27 166.92 132.17 169.35 132.17 180.37 146.92 187.38 161.44 180.26 161.65 169.24 166.7 166.85 161.6 160.38 166.75 153.45 152.44 147 146.98 153.09 141.51 147"/><path class="cls-17" d="M168.58,171.82a39.56,39.56,0,0,1,11.24,6.37l-2.26-6.37,2.26-6.38a39.48,39.48,0,0,1-11.24,6.38"/><polygon class="cls-20" points="146.92 167.34 132.28 160.27 146.98 153.09 161.51 160.11 146.92 167.34"/><polygon class="cls-21" points="146.54 152.99 141.51 147 127.06 153.47 132.17 159.93 146.54 152.99"/><polygon class="cls-21" points="161.78 159.93 166.89 153.47 152.44 147 147.42 152.99 161.78 159.93"/><polygon class="cls-21" points="147.23 167.33 152.26 173.31 166.7 166.85 161.6 160.38 147.23 167.33"/><polygon class="cls-21" points="146.54 167.46 141.51 173.45 127.06 166.98 132.17 160.52 146.54 167.46"/><polyline class="cls-21" points="161.65 169.24 161.65 180.37 147.28 187.31 146.54 187.31 132.17 180.37 132.17 169.35"/><line class="cls-22" x1="146.92" y1="167.34" x2="146.92" y2="187.18"/><polygon class="cls-23" points="146.87 153.43 146.78 166.94 160.98 160.11 146.87 153.43"/><polygon class="cls-24" points="147.19 186.82 147.2 168.08 152.14 173.96 162.16 169.45 162.17 180.69 161.72 180.88 147.42 187.82 147.19 186.82"/><polygon class="cls-11" points="129.09 166.27 132.59 161.84 145.66 167.66 132.34 161.16 127.89 166.78 141.35 172.79 129.09 166.27"/><polygon class="cls-11" points="133.48 179.47 133.48 170.44 132.7 170.07 132.7 180.05 146.61 186.77 133.48 179.47"/></g></g></svg>