<svg xmlns="http://www.w3.org/2000/svg" xmlns:xlink="http://www.w3.org/1999/xlink" viewBox="0 0 190.83 135.3"><defs><style>.cls-1{fill:#a5b1b7;}.cls-2{fill:#818789;}.cls-3{fill:#8a9396;}.cls-4{fill:#bbdcb0;}.cls-5{fill:#8ea586;}.cls-6{fill:#d4eacc;}.cls-7{fill:#e7ce17;}.cls-8{fill:#f4e9a2;}.cls-9{fill:#baaf2c;}.cls-10{fill:#a184af;}.cls-11{fill:#c6b2d9;}.cls-12{fill:#776684;}.cls-13{fill:#498096;}.cls-14{fill:#8aa2b3;}.cls-15{fill:#566f7c;}.cls-16{fill:#666;}.cls-17,.cls-18{fill:none;stroke:#666;stroke-miterlimit:10;}.cls-17{stroke-width:0.55px;}.cls-18{stroke-width:0.88px;}.cls-19{fill:url(#linear-gradient);}.cls-20{fill:url(#linear-gradient-2);}.cls-21{fill:url(#linear-gradient-3);}</style><linearGradient id="linear-gradient" x1="19.56" y1="108.6" x2="40.96" y2="111.45" gradientUnits="userSpaceOnUse"><stop offset="0" stop-opacity="0.6"/><stop offset="0.97" stop-opacity="0"/></linearGradient><linearGradient id="linear-gradient-2" x1="56.62" y1="124.13" x2="85.69" y2="128.01" xlink:href="#linear-gradient"/><linearGradient id="linear-gradient-3" x1="134.78" y1="103.28" x2="142.7" y2="117.91" gradientUnits="userSpaceOnUse"><stop offset="0.03" stop-opacity="0.6"/><stop offset="0.97" stop-opacity="0"/></linearGradient></defs><g id="Layer_2" data-name="Layer 2"><g id="tooltip"><path class="cls-1" d="M6.31,57.66a2.65,2.65,0,0,0-2.13,2.92l.94,12.85,1.77,3.42L83,126.6c2,1.65,4.15,1.8,6.55.31l73.17-40,.35-1.79.21-14.64-1.73-3L79.14,26.1Z"/><polygon class="cls-2" points="86.1 127.78 85.83 113.54 162.65 70.46 162.81 86 89.11 127.17 86.1 127.78"/><path class="cls-3" d="M77.34,95.1l11.75-6.32c1.47-1.2,3-.63,4.65.59L104,96.32l-13,7.91a3,3,0,0,1-2.57,0L77.36,96.92C76.58,96.28,76.43,95.67,77.34,95.1Z"/><path class="cls-2" d="M77.11,95l12.27-6.47a2.7,2.7,0,0,1,2.7,0c-.8.11-1.15.53-1.08,1.23l.08,10.89a2.26,2.26,0,0,0-1.43.34l-3,1.82L77.2,96.87C76.54,96.39,76.34,95.8,77.11,95Z"/><path class="cls-4" d="M122.38,41l0,16.43L113,52.79l-12.15,6.47L101,84l10.39,6.82a3.29,3.29,0,0,0,2.56.34l12.3-6.78.25-10.29,7.47,5.15a2.76,2.76,0,0,0,3.1-.28l11.68-6.7-.42-30-1.17-2.67L135,32.45,124.19,37.4C123,38,122.47,39.23,122.38,41Z"/><path class="cls-5" d="M113.06,66.92l3.67-1.53,6.41-3.08c1.16-.91,2.16-.83,3,.44l.09,21.61-12.13,6.82-1.68-.06-.66-22.73A2.37,2.37,0,0,1,113.06,66.92Z"/><path class="cls-5" d="M135.1,46.3l3.67-1.53,6.41-3.08c1.16-.91,2.16-.83,3,.44l.48,30.11-12.27,7a2.1,2.1,0,0,1-1.4.3l-.11-1.78-1.08-30A2.37,2.37,0,0,1,135.1,46.3Z"/><path class="cls-6" d="M101.07,61.55l.29,22.8,4.54,2.89-2.79-3.45-.52-21.52L108,64.72c-1.06-1-4.57-4.81-4.57-4.81l8.18-4.32c1.45-.88,2.61-1.05,5.95.17-.94-.79-3.87-2.8-5.3-1.83l-9.62,4.44C101.37,58.91,100.93,60,101.07,61.55Z"/><path class="cls-6" d="M123,41.51l.19,16.62,1.74.88-.4-16.77L130,44.69c-1.05-1-4.57-4.81-4.57-4.81l8.19-4.33c1.45-.87,2.61-1,5.94.17-.93-.79-3.86-2.8-5.29-1.82l-9.62,4.44C123.31,38.88,122.87,40,123,41.51Z"/><path class="cls-7" d="M78.73,48.75l20.49-3.5.85,23.84L92.8,80.74,78.48,71.6,78,50.25C77.75,49.36,78,48.88,78.73,48.75Z"/><path class="cls-8" d="M81.42,50a2.18,2.18,0,0,1,1-.29l16.21-4.3L79.47,48.6c-1,.1-1.7.09-1.52,1.39l.81,21.49,3.07,2.08-.84-3-.35-18.38,6.9,2.61Z"/><polygon class="cls-9" points="91.73 57.84 92.57 80.29 100.07 69.09 99.22 45.25 91.73 57.84"/><path class="cls-7" d="M54.2,69.5l22.22-2.72.9,14.65L70.13,93.26,54.56,83.44,53.42,71C53.22,70.11,53.51,69.63,54.2,69.5Z"/><path class="cls-8" d="M76.32,67,54.37,69.53c-.72,0-1,.51-.74,1.39l.89,12L57,84.46l-.62-11.12,8.8,3.06-7.93-5.58c1.4-.2,7.77-1.1,9.91-1.5C69.54,68.86,76.32,67,76.32,67Z"/><polygon class="cls-9" points="76.32 66.96 68.79 78.97 69.74 92.7 77.21 81.58 76.32 66.96"/><path class="cls-7" d="M99.61,28.5l.92-.66,19.85-3.31c.51-.06.81.37,1,1l.63,32.33L113.14,53l-12.53,5.94Z"/><path class="cls-8" d="M100.14,29.27l.66,29.36,2.23-1L102.81,30A2.2,2.2,0,0,1,104.62,29l16.21-4.3-19.17,3.2C100.63,28,100,28,100.14,29.27Z"/><polygon class="cls-9" points="113.95 35.9 114.61 53.61 122.28 57.51 121.49 24.73 113.95 35.9"/><path class="cls-10" d="M40.39,59c.58-3.12,3.24-5.24,9.22-5.75,5.47-.07,9.67,1.16,11.46,4.84l.38,10.25-7.41,1-.85.9.34,7.23C49,79.32,44.78,78.65,40.9,74.85Z"/><path class="cls-11" d="M44.53,61.73c-2.21-2.76-2.46-5.26,1-7.27-3.64.49-5.87,2.85-3.66,5.72A5,5,0,0,0,44.53,61.73Z"/><path class="cls-12" d="M53.49,69.29l0,8.25a8.53,8.53,0,0,1-4.18,1l-.2-13.68a2.59,2.59,0,0,0-.82-1.81c5.58.45,10.34-.59,12.74-5l.42,10.08Z"/><path class="cls-11" d="M41.2,60.27A7.63,7.63,0,0,1,42,63.11l.27,11.58a1.35,1.35,0,0,1-.59,1,8.28,8.28,0,0,0,3.08,1.72,3.24,3.24,0,0,1-.3-1.86l-.2-11.9a2,2,0,0,1,.35-1.23A11.14,11.14,0,0,1,41.2,60.27Z"/><path class="cls-10" d="M62.52,36.52c.88-3.48,4.39-5.1,9.83-5.33,5,0,8.62,1.43,10.43,4.69l.69,1.29.34,10.27L78.1,48.56l-.52,1.36L78,65.09c-5.41,2.09-10.45,1.65-14.86-3.28Z"/><path class="cls-12" d="M70.75,41.3a2.34,2.34,0,0,1,1.19,2L72,63.22a2.51,2.51,0,0,1-2,2.57,12.61,12.61,0,0,0,7.74-.55l-.39-15.79,1.21-.92,5.31-1-.43-10.12L83,36.12a5.53,5.53,0,0,1-3.46,3.69,12.07,12.07,0,0,1-3.13,1A22.17,22.17,0,0,1,70.75,41.3Z"/><path class="cls-11" d="M67.12,40c-2.33-2.89-2.81-5.5.84-7.6-3.82.51-6.15,3-3.83,6A5.87,5.87,0,0,0,67.12,40Z"/><path class="cls-11" d="M63.41,38.5a8,8,0,0,1,.8,3l.27,20.16a1.39,1.39,0,0,1-.62,1.06,8.75,8.75,0,0,0,3.24,1.8,3.48,3.48,0,0,1-.32-2L66.58,42a2.66,2.66,0,0,1,.51-1.45A12.07,12.07,0,0,1,63.41,38.5Z"/><path class="cls-10" d="M105.6,26.66l-5.07.9-1.18.89.13,16.47L85.13,47.07l-.61-27.22.41-3.14c3.66-6.66,17.59-6.33,20.59.73Z"/><path class="cls-12" d="M92.88,22.45a3.47,3.47,0,0,1,1.2,2.67V45.68L98.93,45l.91.34-.61-16.66,1.2-.93,5.47-1-.21-8.1-.38-1.32A5.7,5.7,0,0,1,101.66,21a12.89,12.89,0,0,1-3.13,1A22.63,22.63,0,0,1,92.88,22.45Z"/><path class="cls-11" d="M89.14,21.18c-2.32-2.9-2.59-5.52,1.07-7.62-3.82.5-6.16,3-3.84,6A5.21,5.21,0,0,0,89.14,21.18Z"/><path class="cls-11" d="M85.65,19.65a8.3,8.3,0,0,1,.81,3l.21,24.12,2.21-.3L88.82,23.2a2.09,2.09,0,0,1,.37-1.29A11.52,11.52,0,0,1,85.65,19.65Z"/><path class="cls-13" d="M65.21,28.14C65.42,28.09,65,6.36,65,6.36a1.35,1.35,0,0,1,1-1.61L74.85.51,88.41,7.89c.4.18.23.63.3,1.15l0,4.22s-2.83,1.56-3.81,3.45,0,6.1,0,6.1L85.26,33l-.13,14.09-1.32.37V37.07l-1.39-2.39-4.52-3-3.71-.28a23.36,23.36,0,0,0-8.53,1Z"/><path class="cls-14" d="M75.85,1.16l1.87,1.05-2.14-.68a.54.54,0,0,0-.52,0l-7.57,4c-.11.06-.14.15-.06.3l6.73,5.29-7.37-4c-.17,0-.3,0-.34.21l0,18.4c0,1.22-.82,6.61-.82,6.61l-.17-5.05-.21-.48L64.87,5.92a1.28,1.28,0,0,1,.83-1.23L67.21,4,74.58.39Z"/><path class="cls-15" d="M78,13.28,77.9,31.64A10.56,10.56,0,0,1,83,35.34l.65,3.39.15,8.71,1.32-.37-.44-14-.14-15.16c.54-2.46,1.68-4.54,4-5L88.5,8.15l-1.74.79Z"/><path class="cls-16" d="M65.21,27.44a2.51,2.51,0,0,1-.19-1l0-1L64.9,23.3l-.16-4.15c-.12-2.76-.2-5.53-.27-8.29l-.12-4.15a2.87,2.87,0,0,1,.14-1.22,2.4,2.4,0,0,1,.82-1.11,3.2,3.2,0,0,1,.56-.32l.47-.21,1-.43c2.5-1.16,5-2.26,7.59-3.34h0l.2-.08.17.1,8.94,5.06,2.24,1.26,1.12.63.55.32a4.13,4.13,0,0,1,.61.38,1,1,0,0,1,.32.78v.64l0,1.29L89,13h-.55l0-2.57,0-1.29V8.52a.46.46,0,0,0-.14-.37,5.62,5.62,0,0,0-.49-.28l-.57-.31L86.15,7,83.89,5.72l-9-4.91h.37c-2.46,1.27-4.93,2.5-7.43,3.68l-.94.44-.47.23a1.69,1.69,0,0,0-.33.19,1.42,1.42,0,0,0-.48,1.36l.09,4.14c.06,2.76.12,5.52.15,8.28l0,4.14,0,2.07v1a2.7,2.7,0,0,1-.14,1Z"/><path class="cls-16" d="M66.34,6c1,.51,1.89,1.06,2.84,1.6L72,9.21c1.89,1.08,3.75,2.18,5.59,3.33h0l0,0a.45.45,0,0,0,.34.13.82.82,0,0,0,.43-.16l0,0h0c1.33-.68,2.72-1.26,4.1-1.86s2.75-1.21,4.18-1.71c-1.25.85-2.57,1.58-3.86,2.34S80.31,12.82,79,13.49l.06,0a1.91,1.91,0,0,1-1,.38,1.57,1.57,0,0,1-1.09-.42l.06.05C75.18,12.27,73.4,11,71.63,9.78L69,7.89C68.1,7.26,67.21,6.65,66.34,6Z"/><path class="cls-16" d="M77.93,15.23a5.19,5.19,0,0,1,.29,2v2l0,4,0,4,0,2a5.31,5.31,0,0,1-.21,2,5.53,5.53,0,0,1-.22-2l0-2-.07-4v-6A5.37,5.37,0,0,1,77.93,15.23Z"/><path class="cls-13" d="M20.38,58.81c.21-.06-.33-12.69-.33-12.69a1.36,1.36,0,0,1,1-1.61L30,40.27l12.88,7.45a1.19,1.19,0,0,1,.68,1.05l-.11,5.48a7.42,7.42,0,0,0-2.82,2.84C39.6,59,40,62.58,40,62.58l-7.08,3.77L20.58,58.88Z"/><path class="cls-14" d="M31.14,41.38l-8.08,3.84c-.89.25-.65,1-.3,1.89-.79-.32-1.2-.29-1.36.51l.08,9.51a2.05,2.05,0,0,0,.85,2l1.45,1.72-3.4-2,.12-.56-.35-12.1A1.27,1.27,0,0,1,21,44.92l1.52-.68,7.36-3.62Z"/><path class="cls-15" d="M32.86,53.07l0,13.47,7.27-4L40,59.19a5.71,5.71,0,0,1,3.54-4.92V48l-1.15.62Z"/><path class="cls-13" d="M42.26,47.34c.2-.05-.27-21.79-.27-21.79a1.35,1.35,0,0,1,1-1.61l8.88-4.24,13,7.25c.4.18.47.74.53,1.25l-.11,4.48a21,21,0,0,0-2.82,3.84C61.54,38.41,62,42,62,42l.35,10.17-3.66,2.47-3.92-1.52-4.25-.47Z"/><path class="cls-14" d="M53.08,20.5l2.19,1.15L52.54,21a.47.47,0,0,0-.42,0l-7.69,3.78c-.1.06-.13.15,0,.3l7,5.44-7.77-4.28a.27.27,0,0,0-.34.21l-.05,18.43a3.25,3.25,0,0,0,.87,2.35l2,2.53-1.92-1.18-.4-.17-1.63-1.86.12-.55-.15-20.7A1.25,1.25,0,0,1,42.92,24l1.52-.67,7.36-3.63Z"/><path class="cls-15" d="M55.13,32.68,54.6,53.55l3.9.81,3.8-2.18-.37-13.56c.34-2.32,1.39-5,3.54-5.85l-.18-5.43Z"/><path class="cls-16" d="M42,47a3.39,3.39,0,0,1-.2-1.36l0-1.37-.08-2.74L41.46,36l-.29-10.95v.05a1.59,1.59,0,0,1,1-1.61l1.23-.59,2.46-1.16,4.92-2.3,0,0a2.26,2.26,0,0,1,1.11-.32,1.65,1.65,0,0,1,1.16.49l-.11-.08c4.26,2.46,8.54,4.87,12.76,7.38h0l.14.08v.16l-.08,4.95h-.55l.08-4.95.14.25h0c-4.37-2.26-8.67-4.62-13-6.93l0,0-.06-.06a.63.63,0,0,0-.44-.18,1.3,1.3,0,0,0-.58.2h0l-4.94,2.31-2.48,1.13-1.23.57a.57.57,0,0,0-.37.55V25l.26,11,.1,5.48.06,2.74,0,1.37a3.39,3.39,0,0,1-.13,1.37Z"/><path class="cls-16" d="M43.08,25.08c2,1.1,4,2.29,6,3.45L55,32l-.54,0c1.59-.72,3.21-1.4,4.81-2.08s3.21-1.39,4.88-2c-1.48,1-3,1.76-4.57,2.58S56.46,32.21,54.9,33l-.28.15L54.36,33l-5.65-3.92C46.82,27.74,44.92,26.46,43.08,25.08Z"/><path class="cls-16" d="M55,32.5a15.12,15.12,0,0,1,.06,2.33l0,2.32L55,41.8l-.1,4.65-.06,2.32a9.61,9.61,0,0,1-.18,2.33,10.75,10.75,0,0,1-.16-2.33l0-2.32-.06-4.65v-7a15,15,0,0,1,.09-2.32Z"/><path class="cls-16" d="M20.38,58.81A1,1,0,0,1,20,58L20,57.25l-.09-1.56-.12-3.14c-.08-2.09-.11-4.18-.23-6.27v0A2.1,2.1,0,0,1,19.71,45a1.92,1.92,0,0,1,1.11-.85l-.05,0c1.56-.74,3.11-1.49,4.69-2.18l2.36-1.05L29,40.37l.62-.27a.86.86,0,0,1,.91.16l-.06,0c1.07.58,2.17,1.11,3.22,1.72l3.18,1.78,6.36,3.56h0a1.21,1.21,0,0,1,.65.68,1.53,1.53,0,0,1,.06.87v0c-.06.87-.09,1.74-.12,2.61l0,1.3a9.41,9.41,0,0,0,0,1.3l-.54,0a8,8,0,0,0,.08-1.3l0-1.3c0-.87,0-1.73,0-2.6h0v0a.77.77,0,0,0-.42-.88h0l-6.39-3.52-3.19-1.76c-1.07-.57-2.1-1.22-3.16-1.82l0,0,0,0c-.09-.08-.14-.09-.28,0l-.56.27-1.16.57-2.33,1.13c-1.55.77-3.12,1.48-4.69,2.2h-.05a1.14,1.14,0,0,0-.7.48,1.43,1.43,0,0,0-.12.89v0h0c.05,2.09.19,4.18.28,6.27l.13,3.13,0,1.57V58A1,1,0,0,1,20.38,58.81Z"/><path class="cls-16" d="M37.17,44.08c-.09-.32,0-.23,0-.29l.14-.09.29-.17c.2-.11.39-.22.59-.31l1.21-.59,1.21-.56a5,5,0,0,1,1.28-.43l.15.33a4.67,4.67,0,0,1-1.14.7c-.4.2-.81.4-1.21.58l-1.22.55c-.21.1-.42.18-.62.26l-.32.11-.16,0C37.35,44.21,37.35,44.35,37.17,44.08Z"/><path class="cls-16" d="M21.25,45.8a12.18,12.18,0,0,0,2.89,2.06l3.14,1.75,3.11,1.77,1.56.87.19.1.14.06a1.7,1.7,0,0,0,.35.06,4.17,4.17,0,0,0,.79,0l-.13,0c1.48-.72,3-1.39,4.49-2s3-1.33,4.59-1.84c-1.39.91-2.85,1.65-4.31,2.43s-2.91,1.53-4.39,2.23l-.07,0h-.06a4.19,4.19,0,0,1-1,0,2.64,2.64,0,0,1-.53-.11l-.28-.12L31.54,53,30,52.08c-1-.64-2-1.28-3-1.94l-3-2A9.2,9.2,0,0,1,21.25,45.8Z"/><path class="cls-16" d="M32.86,54.23a4.14,4.14,0,0,1,.22,1.54V57.3l0,3.06q0,3.06-.07,6.12L33,67l-.4-.24c-2.08-1.25-4.15-2.53-6.21-3.82l-3.07-2a18.06,18.06,0,0,1-3-2.12,17.49,17.49,0,0,1,3.23,1.71l3.12,1.87c2.07,1.27,4.14,2.55,6.19,3.85l-.42.23c0-2,0-4.08,0-6.12l.07-3.06,0-1.53A3.89,3.89,0,0,1,32.86,54.23Z"/><line class="cls-17" x1="40.01" y1="62.58" x2="32.88" y2="66.63"/><path class="cls-16" d="M54.36,62.76a15.7,15.7,0,0,1-5.67.58,14.71,14.71,0,0,1-5.59-1.49,6.5,6.5,0,0,1-2.32-1.93,3.29,3.29,0,0,1-.38-3.16,5.48,5.48,0,0,1,2.06-2.32,11.87,11.87,0,0,1,2.69-1.29,16.8,16.8,0,0,1,5.79-.84,17.69,17.69,0,0,1,5.75,1.08,9.72,9.72,0,0,1,2.6,1.47A4.43,4.43,0,0,1,61,57.43a3.28,3.28,0,0,1-1,2.86,6.45,6.45,0,0,1-2.49,1.46,8,8,0,0,0,2.1-1.81,2.75,2.75,0,0,0,.62-2.35,3.62,3.62,0,0,0-1.51-2,9.38,9.38,0,0,0-2.4-1.17,16.82,16.82,0,0,0-5.38-.84,19.51,19.51,0,0,0-5.39.71,9.77,9.77,0,0,0-2.45,1.06,4.37,4.37,0,0,0-1.74,1.78,2.29,2.29,0,0,0,.21,2.24,5.59,5.59,0,0,0,1.94,1.72,14.36,14.36,0,0,0,5.26,1.58A25,25,0,0,0,54.36,62.76Z"/><path class="cls-16" d="M40.83,57.2a10.61,10.61,0,0,0-.28,2.08c0,.66.1,1.46.14,2.19.11,1.48.22,3,.28,4.45s.17,3,.2,4.45,0,3,0,4.47l-.54,0c-.21-1.48-.36-3-.46-4.45s-.18-3-.27-4.45-.13-3-.18-4.46c0-.76-.08-1.44,0-2.27A5.69,5.69,0,0,1,40.33,57Z"/><path class="cls-16" d="M76.4,40.82a15.7,15.7,0,0,1-5.67.58,14.53,14.53,0,0,1-5.59-1.49A6.39,6.39,0,0,1,62.82,38a3.28,3.28,0,0,1-.38-3.15A5.45,5.45,0,0,1,64.5,32.5a11.87,11.87,0,0,1,2.69-1.29A16.8,16.8,0,0,1,73,30.37a17.69,17.69,0,0,1,5.75,1.08,9.72,9.72,0,0,1,2.6,1.47A4.43,4.43,0,0,1,83,35.49a3.28,3.28,0,0,1-1,2.86,6.45,6.45,0,0,1-2.49,1.46A8,8,0,0,0,81.63,38a2.71,2.71,0,0,0,.62-2.35,3.65,3.65,0,0,0-1.51-2,9.38,9.38,0,0,0-2.4-1.17A16.52,16.52,0,0,0,73,31.69a19.15,19.15,0,0,0-5.4.7,9.77,9.77,0,0,0-2.45,1.06,4.37,4.37,0,0,0-1.74,1.78,2.29,2.29,0,0,0,.21,2.24,5.63,5.63,0,0,0,2,1.72,14.06,14.06,0,0,0,5.25,1.58A24.45,24.45,0,0,0,76.4,40.82Z"/><path class="cls-16" d="M98.64,21.93a15.7,15.7,0,0,1-5.67.58A14.71,14.71,0,0,1,87.38,21a6.58,6.58,0,0,1-2.32-1.93,3.29,3.29,0,0,1-.38-3.16,5.5,5.5,0,0,1,2.07-2.32,11.47,11.47,0,0,1,2.69-1.29,16.8,16.8,0,0,1,5.79-.84A17.74,17.74,0,0,1,101,12.56,9.82,9.82,0,0,1,103.57,14a4.43,4.43,0,0,1,1.7,2.57,3.27,3.27,0,0,1-1,2.86,6.58,6.58,0,0,1-2.49,1.46,8.15,8.15,0,0,0,2.09-1.81,2.71,2.71,0,0,0,.62-2.35,3.57,3.57,0,0,0-1.51-2,9.07,9.07,0,0,0-2.4-1.17,16.53,16.53,0,0,0-5.37-.84,20,20,0,0,0-5.4.7,10.52,10.52,0,0,0-2.45,1.07,4.28,4.28,0,0,0-1.73,1.78,2.26,2.26,0,0,0,.2,2.24,5.63,5.63,0,0,0,2,1.72A14.36,14.36,0,0,0,93,21.88,25,25,0,0,0,98.64,21.93Z"/><path class="cls-16" d="M62.87,35.26a10.94,10.94,0,0,0-.25,1.59,12.48,12.48,0,0,0,0,1.61l.15,3.4q.16,3.39.27,6.78c.07,2.26.16,4.53.18,6.79s0,4.53,0,6.79l-.55,0c-.19-2.25-.35-4.51-.45-6.77S62.07,51,62,48.69s-.15-4.52-.19-6.79l-.08-3.39v-.86a5.4,5.4,0,0,1,.08-.91,6,6,0,0,1,.59-1.69Z"/><path class="cls-16" d="M85.07,16.36a11.51,11.51,0,0,0-.28,1.81c0,.57,0,1.22.06,1.87L85,23.9q.17,3.86.25,7.72c.15,5.14.26,10.29.16,15.45h-.54c-.38-5.14-.56-10.28-.69-15.42Q84,27.81,84,23.94l-.07-3.86a14.87,14.87,0,0,1,0-2,5.67,5.67,0,0,1,.62-1.93Z"/><path class="cls-17" d="M60.17,56.42a6,6,0,0,1,1.16,3c0,1.3.28,9.36.28,9.36"/><path class="cls-17" d="M82.42,34.68a6,6,0,0,1,1.15,3c0,1.3.26,9.65.26,9.65"/><path class="cls-17" d="M104.46,15.28a6,6,0,0,1,1.15,3c0,1.3.22,8,.22,8"/><path class="cls-16" d="M77.05,81.36c-.2-1.22-.17-2.38-.25-3.56l-.15-3.53-.31-7.06v0a.53.53,0,0,0-.07-.24s0,0,0,0a.31.31,0,0,0-.11,0h-.07l-22,2.84h-.05c-.23,0-.19,0-.25.12a1.84,1.84,0,0,0,0,.68l.13,1.77L54.18,76l.52,7.07-.24-.4,15.87,10-.73.16,3.64-5.73,1.83-2.87A23.8,23.8,0,0,1,77.05,81.36Zm.53.14a21.42,21.42,0,0,1-1.65,3l-1.8,3L70.5,93.37l-.28.45-.45-.29-15.87-10-.22-.15,0-.26-.48-7.07-.24-3.53-.12-1.77a2.59,2.59,0,0,1,.07-1.08,1.07,1.07,0,0,1,.48-.6,1.44,1.44,0,0,1,.66-.17H54l22-2.71h-.07a1.31,1.31,0,0,1,.42,0,.84.84,0,0,1,.5.22,1.3,1.3,0,0,1,.31.74h0v0l.25,7.18.13,3.59A32.61,32.61,0,0,1,77.58,81.5Z"/><path class="cls-16" d="M55.28,71c1.27.59,2.49,1.27,3.71,1.94l3.65,2c1.22.67,2.42,1.37,3.62,2.06l1.78,1a1.19,1.19,0,0,0,1.16-.42v0l0,0c1-1.56,2.08-3.09,3.15-4.61L74,70.74c.55-.75,1.07-1.52,1.64-2.26-.42.83-.9,1.63-1.35,2.44l-1.39,2.43C72,75,71,76.57,70,78.15l0-.05A1.9,1.9,0,0,1,69,79a1.77,1.77,0,0,1-1.41,0l-1.8-1.09c-1.18-.74-2.37-1.47-3.54-2.23l-3.51-2.27C57.57,72.62,56.4,71.87,55.28,71Z"/><path class="cls-16" d="M69.77,92.32a9.43,9.43,0,0,1-.49-3.23l-.21-3.25c-.11-2.18-.23-4.35-.27-6.52.29,2.15.5,4.32.71,6.48l.27,3.25A9.45,9.45,0,0,1,69.77,92.32Z"/><path class="cls-16" d="M99.81,69c-.22-2-.18-3.91-.26-5.87l-.16-5.84-.32-11.67v0c0-.19-.07-.22-.08-.21a.29.29,0,0,0-.15,0l-.33.06-1.39.24-2.79.49-5.57,1-5.57,1-2.79.49L79,48.93c-.51.08-.87.17-.9.3a3.64,3.64,0,0,0,0,1.16l.07,1.41.12,2.83.25,5.65L79,71.58l-.24-.41L92,79.73l0,0,0,0a.59.59,0,0,0,.87-.07.52.52,0,0,0,.08-.11l.12-.19.24-.39.48-.77,1.93-3.09,1.94-3.09A24.85,24.85,0,0,1,99.81,69Zm.52.14a22.56,22.56,0,0,1-1.75,3.23l-1.91,3.19-1.91,3.2-.49.8L94,80l-.12.2c-.06.08-.12.18-.19.26a1.68,1.68,0,0,1-1.17.58,1.62,1.62,0,0,1-1.24-.45l.08.06L78.2,72,78,71.89v-.27l-.45-11.3-.22-5.65-.11-2.82-.06-1.41a3.65,3.65,0,0,1,.15-1.64,1.36,1.36,0,0,1,.83-.65c.3-.08.53-.1.76-.15l1.39-.23L83,47.29l5.57-.95,5.58-1L97,44.91l1.39-.24.36-.06a1.2,1.2,0,0,1,.55,0,.93.93,0,0,1,.49.42,1.56,1.56,0,0,1,.15.5v0l.26,11.79.12,5.89C100.31,65.25,100.45,67.24,100.33,69.16Z"/><path class="cls-16" d="M121.91,58.05c-.18-1.43-.15-2.87-.2-4.3l-.1-4.31-.2-8.61-.2-8.61-.1-4.3,0-2.16a2.56,2.56,0,0,0-.09-.88c-.08-.18-.19-.23-.45-.23h.06l-13,2.23L101,28c-.28.05-.56.09-.75.14a.52.52,0,0,0-.2.1s0,0,0,.08a2.59,2.59,0,0,0,0,.65l0,.83.11,3.31.4,13.22.16,6.62.07,3.31a19.31,19.31,0,0,1-.09,3.31l-.54,0a18.4,18.4,0,0,1-.29-3.3L99.73,53l-.24-6.61L99.1,33.14,99,29.84,99,29A3.2,3.2,0,0,1,99,28a1.12,1.12,0,0,1,.4-.59,1.7,1.7,0,0,1,.54-.27c.34-.09.61-.12.87-.17l6.53-1.08,13.05-2.16h.06a1.42,1.42,0,0,1,.75.16,1.27,1.27,0,0,1,.55.6,2,2,0,0,1,.15.68v.56l0,2.15.08,4.3.16,8.62.16,8.61.08,4.3c0,1.44.1,2.87,0,4.31Z"/><path class="cls-16" d="M79.34,49.92c2.18,1,4.21,2.33,6.3,3.52s4.16,2.41,6.22,3.65l-.68.15,3.37-4.8c1.13-1.59,2.23-3.21,3.43-4.76-.93,1.73-2,3.39-3,5.07l-3,5-.25.42-.43-.27c-2-1.29-4-2.61-6-3.94S81.25,51.4,79.34,49.92Z"/><path class="cls-16" d="M91.87,57.5a35.18,35.18,0,0,1,.27,4.7l.12,4.71c.08,3.14.15,6.28.19,9.42-.26-3.13-.47-6.27-.67-9.4l-.31-4.7a35.25,35.25,0,0,1-.15-4.71Z"/><path class="cls-16" d="M101,28.51c2.37,1.09,4.61,2.41,6.92,3.62L111.33,34,113,35a2.3,2.3,0,0,0,.67.32s0,0,.12,0a2.11,2.11,0,0,0,.26-.26l0,0c1-1.5,2-3,3.09-4.43l1.58-2.19c.54-.72,1.05-1.46,1.62-2.17-.42.8-.89,1.57-1.33,2.36l-1.36,2.33c-.91,1.56-1.82,3.11-2.79,4.62v0l0,0a2.44,2.44,0,0,1-.42.44,1.18,1.18,0,0,1-.78.25,2.86,2.86,0,0,1-1.1-.47l-1.67-1-3.31-2.06C105.36,31.35,103.12,30,101,28.51Z"/><path class="cls-16" d="M114.26,53.2a26.49,26.49,0,0,1-.21-4.17L114,44.85c0-2.78-.07-5.56-.06-8.35.21,2.78.38,5.56.54,8.34l.24,4.16a26.51,26.51,0,0,1,.09,4.18Z"/><path class="cls-16" d="M40.86,69.82a4.16,4.16,0,0,0-.08,4.28,5.63,5.63,0,0,0,1.53,1.67,11.48,11.48,0,0,0,2,1.22,10.78,10.78,0,0,0,4.52,1.25,9.63,9.63,0,0,0,4.56-.93l.28.47A9.41,9.41,0,0,1,48.81,79,11.63,11.63,0,0,1,44,77.71a8.31,8.31,0,0,1-3.88-3.22,4.4,4.4,0,0,1-.57-2.56,5.08,5.08,0,0,1,.91-2.43Z"/><path class="cls-16" d="M62.85,60a1.75,1.75,0,0,0,.28,1.87,6.32,6.32,0,0,0,1.66,1.5A23.07,23.07,0,0,0,69,65.45a10.6,10.6,0,0,0,4.55.6A15,15,0,0,0,78,65l.24.49a13.84,13.84,0,0,1-4.7,1.3,11.4,11.4,0,0,1-4.88-.57A19.4,19.4,0,0,1,64.33,64a6.15,6.15,0,0,1-1.8-1.76,2.28,2.28,0,0,1-.11-2.62Z"/><path class="cls-16" d="M40,62.87l-.13.81-7.42,4.63-14.64-10a.61.61,0,0,1,0-1l2.27-1.11.1,2.27,12.5,8.11Z"/><path class="cls-16" d="M100.91,84.37a3,3,0,0,1-.37-1.66L100.48,81l-.11-3.33L100.14,71l-.21-6.66L99.84,61a4.21,4.21,0,0,1,.28-2,2.77,2.77,0,0,1,1.6-1.51l-.07,0,5-2.39c1.67-.79,3.34-1.6,5-2.38l0,0a3.22,3.22,0,0,1,1.57-.41,3.19,3.19,0,0,1,1.55.44L117,54.17l4.37,2.54,4.4,2.56a3,3,0,0,1,1.1,1.16,3.67,3.67,0,0,1,.35,1.49l0,2.55-.12,10.14c-.08,3.38-.12,6.76-.36,10.14h-.55c-.2-3.37-.2-6.75-.25-10.12V62A1.68,1.68,0,0,0,125,60.4l-4.37-2.51-4.4-2.52-2.18-1.25a1.6,1.6,0,0,0-1.71,0h0c-1.67.82-3.35,1.59-5,2.39l-5,2.37,0,0h0c-.7.23-1,1-.93,2l.08,3.34.15,6.68.12,6.67L101.7,81l0,1.67a3.06,3.06,0,0,1-.28,1.68Z"/><path class="cls-16" d="M113.06,66.92a27.36,27.36,0,0,1,3-1.71c1-.55,2.06-1,3.09-1.57s2.07-1,3.14-1.45a10.93,10.93,0,0,1,1.67-.57,1.44,1.44,0,0,1,1.6.51,1.27,1.27,0,0,0-.73-.38,1.87,1.87,0,0,0-.81.1,12.45,12.45,0,0,0-1.51.82c-1,.57-2.06,1-3.1,1.54s-2.09,1-3.15,1.43A29.32,29.32,0,0,1,113.06,66.92Z"/><path class="cls-16" d="M101.79,60.25c.81.38,1.54.87,2.3,1.32s1.51.92,2.26,1.4,1.47,1,2.16,1.51,1.37,1.12,2,1.71h0a2.42,2.42,0,0,1,.94,1,2.62,2.62,0,0,1,.22,1.31,3.13,3.13,0,0,0-.42-1.19,2.49,2.49,0,0,0-.93-.77h0c-.78-.43-1.54-.87-2.29-1.34s-1.44-1-2.15-1.54-1.39-1.09-2.07-1.65S102.42,60.89,101.79,60.25Z"/><path class="cls-16" d="M111.92,69.62c.27,1.83.24,3.66.35,5.49s.12,3.66.18,5.49l.08,5.49v2.74a16.87,16.87,0,0,1-.11,2.75,16.89,16.89,0,0,1-.23-2.74l-.12-2.74-.17-5.49c0-1.83-.08-3.66-.08-5.49S111.74,71.46,111.92,69.62Z"/><path class="cls-16" d="M101.17,82.88a7.86,7.86,0,0,1-.8.73l0,0s-.05.07,0,0a.24.24,0,0,0,0-.2s.08,0,.24.15l.9.55,1.79,1.1,3.59,2.21,3.55,2.26,1.75,1.11a1.74,1.74,0,0,0,1.47.12,2.48,2.48,0,0,0,.38-.17l.46-.24.93-.5,1.85-1L121,87l3.73-2,1.86-1,.91-.48.11-.07a.29.29,0,0,0,0,.21c.08.11,0-.06-.16-.12l0,0a10.05,10.05,0,0,1-1.1-.63l.21-.51a9.54,9.54,0,0,1,1.22.35h0l0,0a1.12,1.12,0,0,1,.59.58.69.69,0,0,1-.17.69,1.74,1.74,0,0,1-.31.24l-.93.54-1.83,1-3.65,2.08-3.68,2.05-1.84,1-.92.51-.46.25a2.77,2.77,0,0,1-.58.26,3,3,0,0,1-2.58-.23l-1.8-1.16-3.54-2.27-3.51-2.33L100.93,85l-.88-.58a1.51,1.51,0,0,1-.54-.53.8.8,0,0,1,0-.71,1,1,0,0,1,.34-.35l0,0a8.05,8.05,0,0,1,1-.41Z"/><path class="cls-16" d="M77,95.49a.79.79,0,0,0-.25.54.37.37,0,0,0,.05.22l.29.18,1.75,1.1,3.51,2.19,3.51,2.19L87.6,103l.88.55a2.64,2.64,0,0,0,.75.4,2.07,2.07,0,0,0,1.58-.24l1.79-1,3.59-2.07,7.16-4.14.44-.26.11-.07a.3.3,0,0,0-.05.22c0,.14.06.12,0,.09l-.14-.1-.43-.28-1.73-1.15-3.45-2.28-3.46-2.29-1.73-1.14-.86-.57a1.58,1.58,0,0,0-.72-.31,2.17,2.17,0,0,0-.8,0,3.47,3.47,0,0,0-.82.35l-1.82,1-3.64,1.94Zm-.5-.74,7.27-4,3.64-2,1.82-1a3.41,3.41,0,0,1,2.32-.52,2.61,2.61,0,0,1,1.17.49l.86.58,1.71,1.15,3.43,2.29,3.43,2.3,1.72,1.15.43.29.28.2a.87.87,0,0,1,.3.53.77.77,0,0,1-.26.67,1.61,1.61,0,0,1-.3.22l-.46.26-7.14,4.17-3.58,2.08-1.78,1.05a3.19,3.19,0,0,1-2.41.33,3.68,3.68,0,0,1-1.07-.55L87,103.9l-1.74-1.12-3.48-2.23L78.3,98.32,76.55,97.2a1.8,1.8,0,0,1-.53-.43,1.33,1.33,0,0,1-.2-.77A1.68,1.68,0,0,1,76.49,94.75Z"/><path class="cls-16" d="M94,102.21a16.27,16.27,0,0,1-1.76-1,2.22,2.22,0,0,0-1.86-.28,10.1,10.1,0,0,0-1.78.93,13.49,13.49,0,0,1-1.82.92,14.87,14.87,0,0,1,1.71-1.13l.88-.51a3,3,0,0,1,.95-.43,2.38,2.38,0,0,1,2,.32A14,14,0,0,1,94,102.21Z"/><path class="cls-16" d="M122.54,58.56a3.83,3.83,0,0,1-.19-1.33l0-1.33-.09-2.66L122,47.92l-.17-5.31,0-1.33c0-.45-.06-.86,0-1.41a3.46,3.46,0,0,1,.47-1.6,2.74,2.74,0,0,1,1.38-1.13l-.06,0c1.65-.85,3.32-1.64,5-2.44l5-2.37-.05,0a3.2,3.2,0,0,1,1.94-.42,4.05,4.05,0,0,1,1.72.68l2.62,1.5,5.24,3,2.65,1.53a3.09,3.09,0,0,1,1.32,1.51,4.74,4.74,0,0,1,.25,1.77V60.16l0,6.06v3a13.57,13.57,0,0,1-.21,3h-.55a13.38,13.38,0,0,1-.28-3l-.07-3-.1-6.06-.3-12.11-.14-6a3.37,3.37,0,0,0-.17-1.22,1.5,1.5,0,0,0-.66-.7l-2.61-1.5-5.26-3L136.38,34a2.48,2.48,0,0,0-1.06-.47,1.51,1.51,0,0,0-1,.21h0l-5,2.39c-1.68.79-3.35,1.59-5,2.33l-.06,0h0a1.5,1.5,0,0,0-1,1.43c0,.33,0,.81,0,1.25v16a3.83,3.83,0,0,1-.14,1.34Z"/><path class="cls-16" d="M135,46.5a27.28,27.28,0,0,1,3-1.7c1-.54,2.07-1,3.1-1.55s2.09-1,3.15-1.43a12.38,12.38,0,0,1,1.65-.59,1.44,1.44,0,0,1,1.6.49,1.38,1.38,0,0,0-1.55-.31,11,11,0,0,0-1.52.79c-1,.56-2.05,1.07-3.09,1.56s-2.09,1-3.15,1.45A25.74,25.74,0,0,1,135,46.5Z"/><path class="cls-16" d="M123.73,39.84A14.82,14.82,0,0,1,126,41.2c.74.48,1.47,1,2.2,1.48,1.43,1,3,1.93,4.3,3.08h0a2.33,2.33,0,0,1,.94,1,2.61,2.61,0,0,1,.21,1.31,3.35,3.35,0,0,0-.44-1.18,2.45,2.45,0,0,0-.92-.77h0c-1.53-.88-2.9-2-4.34-3-.72-.51-1.43-1-2.13-1.57A15.65,15.65,0,0,1,123.73,39.84Z"/><path class="cls-16" d="M133.86,49.21a21.38,21.38,0,0,1,.36,3.56l.16,3.58.25,7.14.24,7.15.09,3.58a16.52,16.52,0,0,1-.11,3.58,16.57,16.57,0,0,1-.36-3.57l-.16-3.57-.25-7.15-.24-7.15-.09-3.57A21.46,21.46,0,0,1,133.86,49.21Z"/><path class="cls-17" d="M126.67,74.45l7.45,4.85a2.12,2.12,0,0,0,2.47,0l13-7.46c.51-.28.51-.49,0-.81l-.37-.15"/><path class="cls-16" d="M77.08,79,79.23,79c.43,0,.56.23.48.6L70.85,93.81c-.38.69-.92.71-1.57.26L53,83.56c-.32-.28-.27-.51.08-.68l.74-.46.2.81,16.13,10,7.19-11.83Z"/><path class="cls-16" d="M100.75,66.54h-.59l.24,2.39L93.21,80.77l-15.09-9.3-.21-.81-.73.45c-.35.18-.4.4-.08.68l15.26,9.79c.65.45,1.2.43,1.57-.26l6.8-10.92A19.91,19.91,0,0,1,100.75,66.54Z"/><path class="cls-16" d="M43.81,48.33a9.41,9.41,0,0,1,1.7.94l1.64,1c1.1.68,2.2,1.36,3.28,2.06l-.47.74c-1.09-.69-2.17-1.4-3.24-2.12l-1.61-1.08a9.15,9.15,0,0,1-1.56-1.16Z"/><line class="cls-18" x1="58.64" y1="54.65" x2="62.6" y2="52.22"/><path class="cls-16" d="M92.83,89.16a4.81,4.81,0,0,0-.78-.27.9.9,0,0,0-.67.06c-.12.11-.14.28-.1.59a7.85,7.85,0,0,1,0,.84l-.08,3.37L91,100.47l-.16-6.72-.08-3.37a7.85,7.85,0,0,1,0-.84c0-.23,0-.72.4-.93a1.09,1.09,0,0,1,1,0A2.54,2.54,0,0,1,92.83,89.16Z"/><path class="cls-16" d="M19.9,51.47,6.12,58.11a2.22,2.22,0,0,0-1.12,1,2.77,2.77,0,0,0-.18,1.45L5,64.34,5.36,72v.1a4.31,4.31,0,0,0,.49,2.16,4,4,0,0,0,1.37,1.67l0,0h0l77.18,50.72h0a5.53,5.53,0,0,0,1.35.6,2.93,2.93,0,0,0,1.35,0,13.22,13.22,0,0,0,2.91-1.4l6-3.33,12-6.68,24-13.34,24-13.34L162,85.92c.15-.11.19-.16.22-.22a1.29,1.29,0,0,0,.06-.41V83.62l0-3.43,0-6.86V70A2.41,2.41,0,0,0,161,67.88l.07,0c-2-1.15-4.13-2.23-6.21-3.31L151.78,63l-1.54-.86-.76-.43a.91.91,0,0,1-.59-.79l.25-.49a.91.91,0,0,1,1,0l.79.38,1.59.75,3.15,1.58c2.08,1.07,4.17,2.15,6.29,3.15l.07,0a4.74,4.74,0,0,1,1.6,1.42,4.24,4.24,0,0,1,.7,2.11c0,1.25,0,2.31,0,3.48l0,6.86v5.19a3,3,0,0,1-.28,1.26,2.8,2.8,0,0,1-.93,1c-.33.22-.61.34-.85.48l-.75.41-1.51.82L157,91l-24.11,13.1-24.11,13.1-12,6.55-6,3.28c-.5.28-1,.53-1.51.83a6.85,6.85,0,0,1-1.73.78,3.82,3.82,0,0,1-2,0,6,6,0,0,1-1.75-.82h0L6.5,77.14l0,0a4.08,4.08,0,0,1-1.19-1,6.57,6.57,0,0,1-.79-1.25A5.74,5.74,0,0,1,3.94,72v.1L3.5,64.44l-.2-3.82a3.72,3.72,0,0,1,.49-2.26A3.75,3.75,0,0,1,5.6,57l14.07-6Z"/><path class="cls-13" d="M1.35,81.72,10.49,75a2.14,2.14,0,0,1,2.61-.25l12.46,4.37a1.22,1.22,0,0,1,1,1.34l.61,25.13-9.9,8.18a1.88,1.88,0,0,1-1.8.08l-13.52-4.4c-.59-.07-.87-.59-.92-1.41L.28,83.39A2.1,2.1,0,0,1,1.35,81.72Z"/><path class="cls-15" d="M14.49,87.78c2.11.43,6-3,11.25-7.55.3-.26.09-.92.09-.92s.52.44.58.39l.73,24.85a1.61,1.61,0,0,1-.67,1.71l-10.26,8-2.06-.77a2.08,2.08,0,0,0,1.88-1.8l-.51-22A2.08,2.08,0,0,0,14.49,87.78Z"/><path class="cls-14" d="M2.33,109.71A1.84,1.84,0,0,1,1,108.52L.4,83.14a1.94,1.94,0,0,1,1-1.42l9.61-7a2.08,2.08,0,0,1,2,0l3.78,1.47-4-.78a2.58,2.58,0,0,0-1.6.66l-8,6c-.2.23-.15.42.13.56,0,0,4.22,1.69,5.38,2.09A40.38,40.38,0,0,1,12.9,87a47.32,47.32,0,0,1-4.78-.64A60.84,60.84,0,0,0,2,85.81c-.31,0-.44.14-.43.47Z"/><path class="cls-16" d="M15.52,89.7c.27,1.82.24,3.65.35,5.48s.12,3.66.18,5.49l.08,5.49v2.74a16.87,16.87,0,0,1-.11,2.75,16.79,16.79,0,0,1-.23-2.74l-.12-2.74-.18-5.49c0-1.83-.07-3.66-.08-5.49S15.34,91.53,15.52,89.7Z"/><path class="cls-17" d="M1.12,81.79l9.66-7.08a1.58,1.58,0,0,1,1.69-.25l13.32,4.61a1.06,1.06,0,0,1,.8,1l.58,25a.94.94,0,0,1-.42,1l-9.51,7.7a1.34,1.34,0,0,1-1.67.27L1.72,109.53a.92.92,0,0,1-.76-1L.28,83.39A1.53,1.53,0,0,1,1.12,81.79Z"/><path class="cls-16" d="M1.85,83.41a12.63,12.63,0,0,1,4,.91l3.85,1.27,3.84,1.31.48.16a1.94,1.94,0,0,0,.43.12,4,4,0,0,0,.92.06A2.87,2.87,0,0,0,17,86.7l0,0h0l4.36-3.33a46.85,46.85,0,0,1,4.45-3.2,52.2,52.2,0,0,1-4.15,3.58l-4.25,3.46,0,0a3.41,3.41,0,0,1-2.08.79,4.53,4.53,0,0,1-1.1,0,3.7,3.7,0,0,1-.55-.14l-.48-.16L9.4,86.36,5.56,85.07A12.58,12.58,0,0,1,1.85,83.41Z"/><path class="cls-16" d="M49.61,91A11.79,11.79,0,0,1,52,92.26l2.29,1.45,4.58,2.91L68,102.45l9.12,5.88,4.56,2.94c.75.48,1.55,1,2.25,1.44a2.08,2.08,0,0,0,2.15-.09l19-10.41,9.56-5.15,4.78-2.58,2.39-1.28A12.86,12.86,0,0,1,124.34,92a14.56,14.56,0,0,1-2.3,1.45l-2.36,1.33L115,97.47l-9.44,5.35-19,10.58a3.16,3.16,0,0,1-1.47.48,2.88,2.88,0,0,1-1.54-.37c-.85-.51-1.54-1-2.32-1.49l-4.54-3-9.08-5.94-9-6L54,94.1l-2.26-1.5A11.45,11.45,0,0,1,49.61,91Z"/><path class="cls-16" d="M10.45,57.11c-.13.2-.34.21-.51.32l-.54.26q-.54.27-1.05.57A17.44,17.44,0,0,0,6.4,59.62h0l.12-.23A3.72,3.72,0,0,0,8,61.46c.7.6,1.48,1,2.28,1.61L15,66.39,24.43,73l9.44,6.67L38.59,83,41,84.7l1.18.83a5.27,5.27,0,0,1,1.11,1A4.63,4.63,0,0,1,42,85.79l-1.2-.8-2.4-1.61-4.81-3.21L24,73.73l-9.58-6.46L9.6,64c-.4-.28-.8-.52-1.22-.82a9.14,9.14,0,0,1-1.13-1A6.38,6.38,0,0,1,6.32,61a2.66,2.66,0,0,1-.39-1.59l0-.16.11-.07h0a17.5,17.5,0,0,1,2.12-1.19c.37-.17.74-.33,1.12-.48l.56-.21C10.06,57.2,10.22,57.07,10.45,57.11Z"/><path class="cls-4" d="M39.68,116.92l.25-11.11c0-.72.07-1.37.64-1.43l14.75-4.44,11.29,10.54v13a1.25,1.25,0,0,1-.73,1.56l-13.3,5.23a2,2,0,0,1-2.37-.61l-9.7-10.56A3.7,3.7,0,0,1,39.68,116.92Z"/><path class="cls-6" d="M40,106l-.57,11.83,8,8.36-5.94-8.48a1.08,1.08,0,0,1-.29-.91l.22-8.38c0-.33.12-.53.41-.38l2.45,2.21,4.32,3.44c-.58-.55-2.43-3.25-3.8-5.18-.54-.75-1.42-1.88-2-2.52s.19-.75.19-.75l11.18-3.41,4,1.17L55,100l-13.67,3.9C40,104.48,39.83,104.45,40,106Z"/><path class="cls-5" d="M52.49,115.94l11.87-3.82c1.13-.44,1.74-.35,1.8.52l-.07,11.55-14.73,6.73V117.64A2.46,2.46,0,0,1,52.49,115.94Z"/><path class="cls-16" d="M52.49,115.94a2.57,2.57,0,0,1-1,.34,1.27,1.27,0,0,1-1-.33c-.51-.46-1-.93-1.45-1.39-1-.92-1.87-1.9-2.8-2.85l-2.79-2.86a19,19,0,0,1-2.6-3,18.08,18.08,0,0,1,2.95,2.71c.93,1,1.82,1.94,2.76,2.88s1.9,1.88,2.76,2.9l1.31,1.49a1.19,1.19,0,0,0,.83.36A3.24,3.24,0,0,0,52.49,115.94Z"/><path class="cls-16" d="M66,112.05a1.86,1.86,0,0,0-1.49.14c-.49.19-1,.4-1.49.56-1,.35-2,.66-3,1l-3,1a11.54,11.54,0,0,1-3.1.76,11.53,11.53,0,0,1,3-1.21l3-1c1-.34,2-.7,3-1,.51-.16,1-.27,1.55-.4A1.73,1.73,0,0,1,66,112.05Z"/><path class="cls-16" d="M40.34,105.64l0,7.11,0,3.63a4.31,4.31,0,0,0,.13,1.55,6.87,6.87,0,0,0,1,1.29L51,130.14l-.07-.07a.87.87,0,0,0,.5.23c.19,0,.27,0,.64-.19l2-.85,3.9-1.69c2.61-1.14,5.22-2.25,7.81-3.4l.08,0c.08-.06,0,0,0-.07a1.13,1.13,0,0,0,0-.23v-.45l0-1.85.05-3.7,0-3.7,0-1.85v-.46c0-.13,0-.27,0-.39a1.83,1.83,0,0,0-.14-.6.57.57,0,0,0-.12-.18l-.29-.29-.65-.65-1.31-1.31c-.88-.87-1.77-1.71-2.67-2.56l-5.4-5v0l-.08-.09c-.16-.19-.16-.19-.36-.2a4.77,4.77,0,0,0-.91.24l-2.16.63-4.3,1.27-4.3,1.25-2.16.62a2.53,2.53,0,0,0-.63.23,1.66,1.66,0,0,0-.18.75Zm-1.05.07v-.23a2.39,2.39,0,0,1,.19-1.42,1.6,1.6,0,0,1,.69-.6,3.4,3.4,0,0,1,.6-.24l2.15-.63,4.3-1.28,4.3-1.25,2.15-.63.54-.16a3,3,0,0,1,.72-.13,1.64,1.64,0,0,1,.89.19,1.92,1.92,0,0,1,.64.58l-.09-.1,5.39,5c.9.84,1.8,1.68,2.73,2.5l1.38,1.22.7.61a5,5,0,0,1,.38.35,2.18,2.18,0,0,1,.4.57,4.89,4.89,0,0,1,.35,2.19v1.84l0,3.69,0,3.69,0,1.85a3.61,3.61,0,0,0,0,.47,2.52,2.52,0,0,1-.09.69,1.9,1.9,0,0,1-.43.76,1.79,1.79,0,0,1-.75.45l.08,0c-2.62,1.09-5.22,2.21-7.83,3.32l-3.91,1.66-2,.83a2.85,2.85,0,0,1-1.4.31,2.35,2.35,0,0,1-1.4-.62l0,0,0,0L40.55,120l-.58-.7a3,3,0,0,1-.62-.88,4.67,4.67,0,0,1-.26-2l.07-3.63Z"/><path class="cls-16" d="M52,116.34a6.22,6.22,0,0,0-.58,1.7v0c.1,2,.09,3.94.11,5.92v3a17.28,17.28,0,0,1-.15,3,17.31,17.31,0,0,1-.18-3l0-3c0-2,0-3.94.06-5.92h0a4.64,4.64,0,0,1,.26-.9A1.81,1.81,0,0,1,52,116.34Z"/><path class="cls-19" d="M16.17,114.48l22.9,2.78.22-11.69-.07-.58-11.81-1.68,0,1.79a1.18,1.18,0,0,1-.47,1.15L17.44,114A1.53,1.53,0,0,1,16.17,114.48Z"/><path class="cls-20" d="M52.05,131.81l28.68,3.49,3.44-7.22L67.66,117.31l0,2.51-.12,4.09a1.88,1.88,0,0,1-1.3,1.87Z"/><path class="cls-21" d="M190.83,90.41,163.9,86.94a2.86,2.86,0,0,1-.72.71L125.39,108.2,90.26,127.28A18.27,18.27,0,0,1,88,128.49l-2.47.18,1.09.3L112.38,132a9.5,9.5,0,0,0,6.85-1.47Z"/></g></g></svg>