<svg xmlns="http://www.w3.org/2000/svg" xmlns:xlink="http://www.w3.org/1999/xlink" viewBox="0 0 170.52 139.17"><defs><style>.cls-1{fill:#fff;}.cls-2,.cls-3{fill:#592349;}.cls-2{opacity:0.15;isolation:isolate;}.cls-14,.cls-4,.cls-5,.cls-6{fill:none;}.cls-4,.cls-5,.cls-6{stroke:#adadad;stroke-miterlimit:47.96;}.cls-4{stroke-width:2.28px;}.cls-5{stroke-width:2.68px;}.cls-6{stroke-width:2.12px;}.cls-7{fill:url(#linear-gradient);}.cls-8{fill:#f2e179;}.cls-9{fill:#bca415;}.cls-10{fill:#e7ce17;}.cls-11{fill:#da5863;}.cls-12{fill:#ed8894;}.cls-13{fill:#333;}.cls-14{stroke:#622262;stroke-miterlimit:10;stroke-width:2.87px;}</style><linearGradient id="linear-gradient" x1="68.41" y1="89.87" x2="151.17" y2="43.89" gradientUnits="userSpaceOnUse"><stop offset="0" stop-opacity="0.4"/><stop offset="1" stop-opacity="0"/></linearGradient></defs><g id="Layer_2" data-name="Layer 2"><g id="tooltip"><rect class="cls-1" y="34.46" width="170.5" height="104.71" rx="5.31"/><path class="cls-2" d="M19.77,56.75H162.49V43.45A3.55,3.55,0,0,0,158.86,40H19.77Z"/><polygon class="cls-3" points="18.88 93.67 18.88 111.17 163.6 111.17 163.6 93.79 18.88 93.67"/><polygon class="cls-3" points="72.38 76.08 72.13 94.07 163.6 94.07 163.6 76.69 72.38 76.08"/><path class="cls-4" d="M159.7,40.78H10.5c-2.17,0-3.93,1-3.93,4v84.77c0,3,1.76,3.33,3.93,3.33H159.7c2.16,0,3.92-.34,3.92-3.33V44.73C163.6,41.74,161.86,40.78,159.7,40.78Z"/><line class="cls-5" x1="6.77" y1="93.71" x2="163.19" y2="93.71"/><line class="cls-5" x1="6.77" y1="112.06" x2="163.19" y2="112.06"/><line class="cls-6" x1="47.43" y1="132.89" x2="47.43" y2="41.26"/><line class="cls-6" x1="19.7" y1="132.97" x2="19.7" y2="41.75"/><line class="cls-6" x1="72.38" y1="133.04" x2="72.38" y2="40.84"/><line class="cls-6" x1="106.26" y1="133.12" x2="106.26" y2="40.98"/><line class="cls-6" x1="125.37" y1="133.27" x2="125.37" y2="40.84"/><line class="cls-6" x1="148.12" y1="133.42" x2="148.12" y2="40.98"/><line class="cls-5" x1="6.47" y1="57.49" x2="162.89" y2="57.49"/><line class="cls-5" x1="6.47" y1="75.32" x2="162.89" y2="75.32"/><path class="cls-7" d="M61.11,87.54l43-.38,66.4-40.58,0-6.42c-.37-6.74-5.76-5.51-9.13-5.74-2-.14-24.14.09-24.14.09L76,74Z"/><path class="cls-1" d="M144.78,13.91,134.47,3.71l-.19-.16a14.55,14.55,0,0,0-18.91-.12L64.5,54.49,58.13,90.68l36.35-6.21,47.37-47.65C150,29.91,151,22,144.78,13.91Z"/><rect class="cls-8" x="85.76" y="15.78" width="33.93" height="60.27" transform="translate(62.55 -59.19) rotate(45)"/><rect class="cls-9" x="99.67" y="21.54" width="17.63" height="60.27" transform="translate(68.32 -61.57) rotate(45)"/><rect class="cls-10" x="95.21" y="15.78" width="15.03" height="60.27" transform="translate(62.55 -59.19) rotate(45)"/><path class="cls-11" d="M112.8,12.72l7.33-6.28c2.65-2.26,5.89-2.07,9.42-.69L142.25,18a12.21,12.21,0,0,1,1.39,10l-7,7.47Z"/><path class="cls-12" d="M137.87,16.37c1.87,3,2.75,6.31,1.45,8.86l-4.85,4.69L128,27.65l6.42,6,7.32-7.39A10.51,10.51,0,0,0,137.87,16.37Z"/><polygon class="cls-13" points="73.86 82.73 65.8 74.67 64.06 84.69 73.86 82.73"/><path class="cls-14" d="M92.48,80.71l49.37-49.39a10.36,10.36,0,0,0,0-14.66l-9.71-9.72a10.36,10.36,0,0,0-14.66,0L68.1,56.32,63,85.8Z"/><line class="cls-14" x1="112.64" y1="13.27" x2="135.61" y2="36.23"/><line class="cls-14" x1="69.78" y1="55.75" x2="92.74" y2="78.71"/></g></g></svg>