<svg xmlns="http://www.w3.org/2000/svg" viewBox="0 0 337.12 183.03"><defs><style>.cls-1{fill:#fff;}.cls-2{fill:#a3a3a3;}.cls-3{fill:#b5b5b5;}.cls-4{fill:#eaeaea;}.cls-5{fill:#cecece;}.cls-6{fill:gray;}.cls-17,.cls-7{fill:#9a5ba1;}.cls-8{fill:#592248;}.cls-9{fill:#878787;}.cls-10{fill:#e5e5e5;}.cls-11{fill:#7925a0;}.cls-12{fill:#aa30d8;}.cls-13,.cls-14,.cls-21,.cls-22,.cls-23{fill:none;}.cls-13,.cls-22{stroke:#aa30d8;}.cls-13,.cls-14,.cls-15,.cls-16,.cls-17,.cls-21,.cls-22,.cls-23{stroke-miterlimit:10;}.cls-14{stroke:gray;}.cls-15{fill:#e7ce17;}.cls-15,.cls-16,.cls-17{stroke:#f2f2f2;stroke-width:0.52px;}.cls-16{fill:#bbdcb0;}.cls-18{fill:#f2f2f2;}.cls-19{fill:#606060;}.cls-20{fill:#444;}.cls-21{stroke:#592248;}.cls-22{stroke-width:0.5px;}.cls-23{stroke:#9a5ba1;}.cls-24{fill:#7c7c7c;}</style></defs><g id="Layer_2" data-name="Layer 2"><g id="Layer_3" data-name="Layer 3"><rect class="cls-1" width="337.12" height="182.65"/><polygon class="cls-2" points="66.62 58.99 66.88 45.91 73.39 36.61 83.53 35.02 95.72 40.14 98.51 46.65 98.37 59.72 83.78 77.51 81.62 77.3 66.62 58.99"/><path class="cls-3" d="M77.08,37.43a25.29,25.29,0,0,0-4.52,5.5,31.32,31.32,0,0,0-3.21,8.54A33.87,33.87,0,0,0,69,59.2L66.62,59l-.53-10.46,5.24-9,3.34-3.07Z"/><path class="cls-4" d="M42,87.42a17.64,17.64,0,0,0-6.14,9.35,51,51,0,0,0-1.46,15.53l-.42,3-.23,4.24.32,3.35-2.51,8.69S27.66,142,29.12,150.05c1.39,7.72,6.65,9.91,6.65,9.91,6.6,1.79,11.89.89,14.83-4.89.78,3,.61,6.78.33,10.65l-6.6,16.75H111.5l-3-8.75-3.59-8.28.75-12.18,6.25,8.07,6.35,0,4.37-2.07,4.26-6a38.28,38.28,0,0,0,0-17.79l-2.76-10.94.6-9.94-.1-16.33-2.14-5.49L87.65,83.23l-1.19-6.76-7-.28L75,82.75Z"/><path class="cls-5" d="M175.65,20.75l.09,42.74-60.18,1,0,6.07,1.84-1,.51,1.1,0,2.94,1.43,5.5,1.26,6.8,1.66,5,.1,2.39c2.31,4.11,2.72,11.23,1.86,22.37l-.23,9.39,4.18,22.52A33.69,33.69,0,0,1,124,158.75a9.37,9.37,0,0,1-6.39,2.48l-2.34,1.05-3.39-.39-4.77-4.63-1.37-2.49-.79,5.53.32,6.61,3.19,7,3,9.12,170.92-.56V130.05l20-3.91L260.81,126l0-51.54-31.52.37L229,19.72,176.35,20Z"/><path class="cls-2" d="M282.7,129l-.31,53.49h24.54l0-56.4s-.76-.52-3.2-.45S280.24,128,280.24,128C281.13,128.28,282.61,128.3,282.7,129Z"/><path class="cls-6" d="M174.14,125.52,306,125h-.07a1.25,1.25,0,0,1,1.26.51,1.84,1.84,0,0,1,.25,1.12v12.61l0,14.41-.07,14.4,0,7.2v5.41a3,3,0,0,1-.32,1.8,3,3,0,0,1-.32-1.8v-5.4l0-7.2-.06-14.4v-27a1.22,1.22,0,0,0-.08-.61c-.06-.08-.14-.12-.34-.1H306l-131.85.35Z"/><path class="cls-6" d="M174,127.75l40.52,0,40.52.14,20.26.07,5.07,0h1.3a1.46,1.46,0,0,1,.92.35,1.41,1.41,0,0,1,.42.92c0,1,0,1.72,0,2.58v48.12a4.14,4.14,0,0,1-.55,2.54,4.2,4.2,0,0,1-.54-2.54V131.82c0-.82,0-1.74,0-2.48a.56.56,0,0,0-.06-.22.82.82,0,0,0-.26-.05h-1.23l-5.06,0L255,129l-40.52-.14L174,128.53Z"/><polygon class="cls-7" points="292.46 127.89 292.77 140.16 296.65 140 296.56 127.68 295.63 126.63 291.58 126.72 292.46 127.89"/><path class="cls-8" d="M248.33,127.12a48.34,48.34,0,0,1,7.11-.3l7.12,0h14.23l14.23.06h.44a4.86,4.86,0,0,1,.52,0,1.15,1.15,0,0,1,.68.32,1.2,1.2,0,0,1,.34.63,4.63,4.63,0,0,1,0,1v.88l0,3.56-.07,7.11-.55-.5,4.24-.38-.46.5.08-12.27v-.1c.1-.26-.31-.7-.63-.66h-5.78l-7.71,0-15.42.06-30.84.12-61.68.24v-1l61.66-.24,30.83-.11,15.41-.06,7.71,0,3.86,0h1.92a1.62,1.62,0,0,1,1.24.53,1.51,1.51,0,0,1,.41,1.33v-.1L297.15,140v.46l-.46,0-4.23.37-.55,0v-.55l.07-7.12,0-3.57v-.89a4.52,4.52,0,0,0,0-.76c-.07-.17,0-.14-.18-.18H291l-14.23-.1-14.24-.16-7.12-.09A47.06,47.06,0,0,1,248.33,127.12Z"/><path class="cls-6" d="M128.19,154.19a18.57,18.57,0,0,1,5.68-.52h5.68l11.37,0,22.74,0,22.74.09,11.37.05,5.68,0a34,34,0,0,1,5.69.33,32,32,0,0,1-5.69.35l-5.68,0-11.37.07-22.74.14H133.87A18.87,18.87,0,0,1,128.19,154.19Z"/><path class="cls-3" d="M71.77,54.75a4.88,4.88,0,0,1,.08-2.58A3.6,3.6,0,0,1,75,50.41l.28,2.27s-1.8-.18-2.37.52A19.06,19.06,0,0,0,71.77,54.75Z"/><path class="cls-9" d="M84.76,51.63a8.12,8.12,0,0,0-1.19,2.58L83.12,59,85,58.68l.3-3.21c.74-1.4,1.34-1.82,3.3-2.48l0-2.76S85.81,50.43,84.76,51.63Z"/><path class="cls-10" d="M71.77,54.75a3.37,3.37,0,0,1,3.46-2A3.92,3.92,0,0,1,78.7,55.4l-.26.15A14.15,14.15,0,0,1,71.79,55Z"/><path class="cls-10" d="M92.2,55.06a3.4,3.4,0,0,0-3.47-2,3.91,3.91,0,0,0-3.46,2.64l.25.16a14.39,14.39,0,0,0,6.65-.51Z"/></g><g id="tooltip"><polygon class="cls-2" points="228.98 19.72 229.35 74.23 252.65 73.89 252.79 24.47 228.98 19.72"/><polygon class="cls-5" points="110.28 14.23 109.95 63.3 133.77 63.42 133.92 9.33 110.28 14.23"/><polygon class="cls-11" points="52.7 59.3 81.56 59.77 80.53 109.47 49.63 109.82 52.7 59.3"/><path class="cls-2" d="M50.33,66.33l2,.88-.58,4.1-1.93,7.86-.63,3.26,5.32-2.77,3.78-1.48,6-2.27c1.18,1.78,1,2.89-2.37,4.85L57.6,82.7l-3.37,1.7-2.42,1.51,2.31-.44a6,6,0,0,1,3.44,0l4.31.14,4.89-.39a2.24,2.24,0,0,1-.18,3.07l-5.82,1.07-6,0-2.11,1.17,6.68.16,2,.68,2.54.22-.24,1.54-1.54.78-5.44.21-2.67,0c-.1.63-2.47.7-2.47.7l-.84,1.29s2.76,8.4-.52,11.75a219,219,0,0,0,2,33.82c-.4,4.85-1.1,8.74-2.53,12s-5.89,5.44-5.89,5.44l-4.92-.28-3.94-4.11c-2.23-3.54-6.15-15.21.3-23l4.07-14.61L42,103.64,42.21,87l2.36-4.28,1.81-5.06,2.88-7.48L50,69.14Z"/><path class="cls-9" d="M62.43,93.25s-7.31-.32-9,0a13.19,13.19,0,0,0-3.65,1.32,5.34,5.34,0,0,0-1.07,2.13s1.57,4.27,1.43,6.9a10.69,10.69,0,0,1-1.66,4l-.82,15.71s3,14.82,2.58,20.3a27.53,27.53,0,0,1-3.64,12,21.63,21.63,0,0,1-3.23,3.68,10.21,10.21,0,0,0,5.18-4,21.64,21.64,0,0,0,3.4-11c.28-4.5-2-20.66-2-20.66l.11-15.66a7.19,7.19,0,0,0,1.76-3.81l-1.24-7.94L51.5,95,54,94.19,62.53,94Z"/><path class="cls-9" d="M46.81,86.91c.56-.46,5.14-3.17,7.81-4.6,1.89-1,6.69-2.35,8-3.32a13.89,13.89,0,0,0,2.12-2l.17,1-2.64,2.27L54.67,84l-3.89,2.51-4.64,1.45A2,2,0,0,1,46.81,86.91Z"/><path class="cls-3" d="M51.53,66.89l-5,14.57-1.08,3L52,80.81l9.35-3.73s-7.47,3.77-9,4.58-7.33,4.82-7.33,4.82a1.53,1.53,0,0,0-.5,1,2.47,2.47,0,0,0,.19,1l.58.06c-1,.4-1.67,1.36-1.57,1.88a8.76,8.76,0,0,1,4.06-2.69,29.92,29.92,0,0,1,7.05-2.37l8.18.46s-.33.47-2.13.59c-1.13.08-4.87,0-4.87,0a3.48,3.48,0,0,0-2.29.31s-4.67,1.38-6,1.92A18.34,18.34,0,0,0,44.33,91l2-.16a5.83,5.83,0,0,0-1.68,2.65l4.8-2.28,3.93-.53,6,.2,2,.65-3.05-.21-4.76,0a19.21,19.21,0,0,0-4.37.68,29.64,29.64,0,0,0-3.83,2.14l-.83,5.79-.35,5s-7.89,30.73-8.38,36.24-.34,12.07-.34,12.07a28.52,28.52,0,0,1-1.3-12.7c.33-5.17,2.18-12.54,4.41-20.46L42,103.64l.24-6.43.13-9.74,2.35-4.67L46,79l3.75-8.56,1-3.84Z"/><path class="cls-12" d="M50.75,86.27a17.73,17.73,0,0,1,2.72-1.75l2.8-1.59c.93-.53,1.92-1,2.88-1.44l2.9-1.41,0,0a14.39,14.39,0,0,0,2.3-1.84,1.23,1.23,0,0,0,.3-.5,1.58,1.58,0,0,0,0-.61,4.51,4.51,0,0,0-.53-1.29h0l.42.13c-4.1,1.72-8.24,3.3-12.36,5l0,0c-1.11.63-2.2,1.27-3.32,1.87l-1.68.9a8.11,8.11,0,0,1-1.75.78A8,8,0,0,1,47,83.31l1.6-1c1.07-.68,2.16-1.32,3.24-2h0l0,0c4.13-1.63,8.23-3.33,12.39-4.9l.27-.1.14.24h0A5.07,5.07,0,0,1,65.28,77a2.26,2.26,0,0,1,0,.9,1.9,1.9,0,0,1-.46.8,12.88,12.88,0,0,1-2.47,1.93h0L59.4,82c-1,.46-2,.86-2.91,1.37l-2.83,1.53A17.64,17.64,0,0,1,50.75,86.27Z"/><path class="cls-12" d="M48.76,96.73l.79-.32a6.4,6.4,0,0,0,.74-.38,3.55,3.55,0,0,0,.94-1.28h0l0-.1.13,0c.81-.28,1.64-.5,2.46-.75H54l8.58-.13h-.09a2.74,2.74,0,0,0,1-.87,2,2,0,0,0,.15-1.29h0l.22.15-2.23-.13a4.4,4.4,0,0,1-1.14-.2c-.37-.1-.72-.22-1.08-.34h0l.08,0c-1.68-.12-3.37-.25-5-.31-.8,0-1.67.11-2.5.17l-2.52.26h0l-1.79-.46,1.84.11h0l2.51-.31a23.63,23.63,0,0,1,2.56-.24c1.7,0,3.38.11,5.08.18h.09c.33.13.68.25,1,.35a3.75,3.75,0,0,0,1,.2l2.21.18H64l.07.13h0a2,2,0,0,1,.26.91,1.85,1.85,0,0,1-.22,1,2.14,2.14,0,0,1-.67.7,2.46,2.46,0,0,1-.83.36l-.06,0h0L54,94.53h.09c-.83.21-1.66.45-2.5.64l.18-.13h0a4,4,0,0,1-1.3,1.25,5.76,5.76,0,0,1-.84.26C49.31,96.61,49,96.68,48.76,96.73Z"/><path class="cls-12" d="M46.14,87.91a18.49,18.49,0,0,1,2.16-.81l2.16-.84,2.15-.84A8.45,8.45,0,0,1,53.75,85a9.67,9.67,0,0,1,1.2-.19h0l5.89.33c1,0,2,.1,2.91.08L66.73,85h.13l.08.09a2.33,2.33,0,0,1,.45.83,2.41,2.41,0,0,1,.12.92,2.11,2.11,0,0,1-.25.92,2.29,2.29,0,0,1-.63.73l0,0h0a24.74,24.74,0,0,1-2.89.79,15.59,15.59,0,0,1-3,.39c-2,0-4,0-5.93-.13h0l.17,0q-.76.34-1.56.66a12.67,12.67,0,0,1-1.59.6,12.08,12.08,0,0,1,1.41-1c.48-.3,1-.6,1.44-.88l.07,0h.11c1.95.12,3.92.21,5.87.16a14.71,14.71,0,0,0,2.88-.34A24.46,24.46,0,0,0,66.39,88l-.06,0a1.74,1.74,0,0,0,.46-.54,1.49,1.49,0,0,0,.2-.68,2,2,0,0,0-.08-.74,1.91,1.91,0,0,0-.34-.65l.21.08h0l-2.94.39a29.62,29.62,0,0,1-3,0c-2-.07-3.94-.15-5.91-.3H55a8.37,8.37,0,0,0-1.1.17,7.18,7.18,0,0,0-1,.35l-2.18.82c-.73.27-1.44.55-2.18.81A6.08,6.08,0,0,1,46.14,87.91Z"/><path class="cls-12" d="M48.87,82.13l1.31-5.62h0c.56-1.79,1.13-3.59,1.51-5.41a14,14,0,0,0,.2-2.75c0-.42-.06-1-.27-1.11a4.47,4.47,0,0,0-1.19-.53h0l.36-.23c-.1.73-.21,1.46-.34,2.19-.07.36-.15.73-.25,1.1a6.69,6.69,0,0,1-.42,1.06l-1.87,4a34,34,0,0,0-1.65,4c-.46,1.38-.88,2.78-1.3,4.18h0l0,.07,0,.06c-.49.73-1,1.49-1.39,2.25a8.31,8.31,0,0,0-1,2.28,43.29,43.29,0,0,0-.1,5.25l.07,10.74v.11c-.83,3.75-1.61,7.5-2.46,11.26s-1.82,7.46-2.8,11.18-2.29,7.33-2.62,11.15a31.14,31.14,0,0,0-.53,5.69c0,.95,0,1.9.08,2.84a10.65,10.65,0,0,1,0,2.88,5.37,5.37,0,0,1-.77-2.82,20.33,20.33,0,0,1,0-2.92c.12-1.93.32-3.85.52-5.77.14-1,.29-1.89.46-2.86s.44-1.88.66-2.82c.41-1.88,1-3.72,1.45-5.57.93-3.72,1.8-7.46,2.66-11.19s1.55-7.51,2.33-11.27v.11l0-10.71c0-.89,0-1.78,0-2.68a16.23,16.23,0,0,1,.14-2.77,9.3,9.3,0,0,1,1.15-2.61c.46-.78,1-1.54,1.46-2.29l-.06.13h0c.45-1.4.91-2.79,1.4-4.18a36,36,0,0,1,1.78-4.07l2-3.93a6,6,0,0,0,.41-1c.1-.34.18-.69.26-1,.15-.71.28-1.43.39-2.15l0-.32.3.09h0a5.16,5.16,0,0,1,1.37.64,1,1,0,0,1,.3.38,2.19,2.19,0,0,1,.11.4,6.58,6.58,0,0,1,.07.74,14.71,14.71,0,0,1-.22,2.88c-.41,1.87-1,3.66-1.54,5.46v0l-1.32,5.62Z"/><path class="cls-12" d="M50.72,96c.51.25.4.6.52.91s.14.64.2,1c.12.64.2,1.29.31,1.93l.7,3.86v.09a7.51,7.51,0,0,1-.5,2.49,4.75,4.75,0,0,1-1.61,2h0l.12-.23a104.56,104.56,0,0,0-.21,13.6c.14,2.26.27,4.53.5,6.79s.52,4.5.9,6.74a54.82,54.82,0,0,1,.91,6.82,25.87,25.87,0,0,1-.8,6.86,18.36,18.36,0,0,1-2.52,6.45,10.36,10.36,0,0,1-5.47,4.26h-.09l-4.92-.22h-.11l-.09-.07a24.62,24.62,0,0,1-3.7-3.66,14.13,14.13,0,0,1-2.41-4.63,30.6,30.6,0,0,1-1.19-5c-.13-.86-.23-1.71-.31-2.57s-.19-1.72-.18-2.6v0a16.19,16.19,0,0,1,1.53-5.19A23.5,23.5,0,0,1,35.22,131l.4.3A27.56,27.56,0,0,0,33,135.78a15.1,15.1,0,0,0-1.26,5v-.05a35.69,35.69,0,0,0,.33,5.05,28.7,28.7,0,0,0,1.06,4.95,13.42,13.42,0,0,0,2.28,4.41A24,24,0,0,0,39,158.65l-.2-.07h0l4.91.34h-.08a10.14,10.14,0,0,0,5-4.1,14.71,14.71,0,0,0,1.46-3,33.55,33.55,0,0,0,.9-3.24,25.14,25.14,0,0,0,.78-6.67,53.67,53.67,0,0,0-.89-6.71,104,104,0,0,1-1.34-13.63,110.1,110.1,0,0,1,.22-13.71v-.13l.12-.1h0a4.22,4.22,0,0,0,1.22-1.78,6.86,6.86,0,0,0,.29-2.19v.09L50.9,99.9c-.09-.65-.22-1.29-.3-1.94,0-.32-.08-.65-.11-1S50.3,96.35,50.72,96Z"/><path class="cls-12" d="M45.34,88.54l-1.16.24c-.37.09-.76.15-.9.38a2,2,0,0,0-.23,1,3.79,3.79,0,0,0,.18,1h0l0,.09v0l-.39,1.64-.22-1.67,0,.12h0a3.36,3.36,0,0,1-.19-1.26,2.1,2.1,0,0,1,.44-1.26,1.66,1.66,0,0,1,1.25-.39A6,6,0,0,1,45.34,88.54Z"/><path class="cls-12" d="M45.12,91.68l-1,1.12.12-.12h0a2.59,2.59,0,0,0-.33.81,3.68,3.68,0,0,0-.13.94A6.8,6.8,0,0,0,44,96.37a7,7,0,0,1-.62-1.92,5.15,5.15,0,0,1,0-1,3.26,3.26,0,0,1,.24-1.09h0l.08-.11h0Z"/><polyline class="cls-13" points="51.27 81.07 52.42 59.02 81.86 59.51 80.53 109.47 50.4 109.19"/><polygon class="cls-2" points="133.92 9.33 133.77 63.42 175.63 63.49 175.67 20.19 187.25 19.77 186.79 10.93 174.86 10.54 133.92 9.33"/><path class="cls-7" d="M120,11.74l.4,11.32,4.18-.52L124,11.25l2.51-1-.72-.42-5.31,1.1C120.12,10.89,120,11.24,120,11.74Z"/><path class="cls-14" d="M109.77,60.91,110,14.37c0-.4.13-.68.55-.66L120,11.9"/><polygon class="cls-11" points="84.28 59.77 83.16 109.63 112.42 110.58 115.02 61.35 84.28 59.77"/><rect class="cls-15" x="89.72" y="69.62" width="10.3" height="7.38" rx="1.16" transform="matrix(1, 0.04, -0.04, 1, 2.99, -3.72)"/><rect class="cls-16" x="101.4" y="70.08" width="10.3" height="7.38" rx="1.16" transform="translate(3.02 -4.18) rotate(2.28)"/><rect class="cls-17" x="89.36" y="78.72" width="10.3" height="7.38" rx="1.16" transform="translate(3.35 -3.69) rotate(2.28)"/><rect class="cls-18" x="101.04" y="79.18" width="10.3" height="7.38" rx="1.16" transform="translate(3.38 -4.16) rotate(2.28)"/><path class="cls-2" d="M117.27,69.11l-2,1.31.21,3.54.84,8.3.2,3.51-5.07-3.21-7.76-.69-5.51-.47c-.55,2.86,1.82,3.75,5.54,3.74l.61.43,2.64.76,2.51.35,2.09,1.74-1.88-.28a1.9,1.9,0,0,0-1.87-.09l-5.53,2.09-5.6,1A2.24,2.24,0,0,0,98.79,94l5.49-1.12,3.91-1,3,.85-6.3,1.43-4.5,1.11-.35.79,1.81,1.12,7.26-1,2,1.2a6.46,6.46,0,0,0,.76,1.88s-.35,9,1.54,13.34a322.32,322.32,0,0,1-8.19,31.72c0,4.87.34,9,1.47,11.58a17.28,17.28,0,0,0,5.76,5.3l3,.75,4.84-3.72c1.77-4.77,3-11.83,4-19.54l-1.12-17.81-1.3-9.91.32-20.6-2.35-9.1L118,73.07l.07-2.18Z"/><path class="cls-3" d="M112.88,100.56l.26,7.16,1.7,5-.31,1.11s-1.33,14.55-2.67,19-4.35,9.06-4.67,12.66a52.81,52.81,0,0,0,0,7.9c.3,2.49,2.6,5.21,4.7,7.49-2.8-1.66-5.05-3.78-5.91-7.07a39.51,39.51,0,0,1-.51-9.26c.42-4.15,4-13.64,4-13.64l3.7-16.5.16-1.86L112,108.3l-.34-6.81.11-1.53.11-.74-.69-2a3.09,3.09,0,0,1-2-1.24l-7.24.87,2.2-.84,5.23-.93c.39.91,1.79.86,3.27,1l1,3.66Z"/><path class="cls-9" d="M116.64,74.71l2.76,11.45-1.07,1.45-7-4.91-9-.91-3.21-.21,2.77,1s7.84,1.39,8.74,1.83,5.49,4.07,6.56,4.86A5.56,5.56,0,0,1,118.77,91l-1.28.16-7.79-3a2.6,2.6,0,0,0-2,0l-.88.27,1.79.77.75.09s6.72,2.49,7.43,2.84a7.41,7.41,0,0,1,1.61,1.29l-1.1.33-2.72-.63-3.54-.41-7.85,1.88.31.51,7.24-1.31,2.36.89,3.21,1.46,1.53,15.35s-.56,20.65-.91,30.21a76.55,76.55,0,0,1-2.19,16.15l-2.3,3.31c1.94.39,5.62-.8,7.82-3,4-9.82,3.22-13.42,3.65-20.61l-.72-16.74-1.3-9.91.32-20.6L118.1,73.66l-.26-2.51-.36-1.87s-.79.23-1,1.5A26.2,26.2,0,0,0,116.64,74.71Z"/><polyline class="cls-13" points="115.24 85.42 115.02 61.35 83.95 59.58 82.63 109.4 112.84 110.47"/><path class="cls-12" d="M120.65,88.7a4.72,4.72,0,0,1-1.31-.2h0l0,0a53.5,53.5,0,0,1-4.84-3.15l-2.37-1.66-.29-.21-.26-.16a2.52,2.52,0,0,0-.57-.23,4.89,4.89,0,0,0-.66-.1l-.72-.09c-1.9-.24-3.82-.55-5.7-.73s-3.84-.39-5.76-.62h0l.27-.2a3.45,3.45,0,0,0,0,1.89,2.83,2.83,0,0,0,1.36,1.28,6.57,6.57,0,0,0,1.91.56,8.43,8.43,0,0,0,1,.06,3.28,3.28,0,0,1,1,0,1.73,1.73,0,0,1-1,.31,6.25,6.25,0,0,1-1.06,0,6,6,0,0,1-2.07-.55A3.21,3.21,0,0,1,98,83.4a3.68,3.68,0,0,1-.07-2.2l0-.21.24,0h0c1.91.16,3.83.29,5.74.4s3.85.38,5.77.6l.71.09a5,5,0,0,1,.77.12,3.39,3.39,0,0,1,.77.29l.36.22.29.21L115,84.57c1.59,1.08,3.16,2.2,4.64,3.43l-.06,0A4.35,4.35,0,0,1,120.65,88.7Z"/><path class="cls-12" d="M103.44,84.49a7.4,7.4,0,0,1,.71.65c.1.09.25.25.27.23l.46.13c.61.16,1.23.31,1.84.44a16.87,16.87,0,0,0,1.84.32,2.77,2.77,0,0,0,.86,0,3.59,3.59,0,0,0,.65-.48.81.81,0,0,1-.51,1,3.41,3.41,0,0,1-1,.06,11.27,11.27,0,0,1-1.93-.32c-.62-.17-1.23-.37-1.84-.57l-.46-.15a1,1,0,0,1-.43-.4A2.91,2.91,0,0,1,103.44,84.49Z"/><path class="cls-12" d="M109.83,86.48a10.84,10.84,0,0,1,1.06.8A10.42,10.42,0,0,0,112,88c.75.46,1.54.89,2.33,1.29l-.19.46a11,11,0,0,1-2.48-1.21,9.9,9.9,0,0,1-1.11-.85A1.68,1.68,0,0,1,109.83,86.48Z"/><path class="cls-12" d="M117.49,91.12l-1-.32c-.33-.12-.67-.24-1-.38l-2-.8a38.38,38.38,0,0,0-4-1.35h0a2.75,2.75,0,0,0-1.78.11l-1.88.67L102,90.38h0l-5.25,1,.18-.16A2,2,0,0,0,97.21,93a2.93,2.93,0,0,0,1.76.73H98.9l4.6-1.07c1.52-.33,3-.81,4.51-1.29h0l.08,0,.07,0,5.2,1.53h-.06l1.3.21-1.3.21h-.06L108,91.87h.15c-1.51.48-3,1-4.56,1.3L99,94.24h-.08a5,5,0,0,1-1.1-.26,2.52,2.52,0,0,1-1-.64,2.1,2.1,0,0,1-.48-1.1,2.93,2.93,0,0,1,.1-1.17l0-.13.15,0,5.26-1h0l3.76-1.34,1.88-.67a3.26,3.26,0,0,1,2.12-.11h0A25.83,25.83,0,0,1,113.73,89c.67.27,1.32.57,2,.9a10.72,10.72,0,0,1,.93.54Z"/><path class="cls-12" d="M120.65,92.56,120,92c-.21-.2-.46-.34-.65-.5a1.5,1.5,0,0,0-.72-.33,3.17,3.17,0,0,0-.87-.07,2.77,2.77,0,0,1,1.84,0,2.29,2.29,0,0,1,.64.68A6.09,6.09,0,0,1,120.65,92.56Z"/><path class="cls-12" d="M112.19,96.7l-.92.69,0,0h-.1a3.2,3.2,0,0,1-1.29-.12,1.07,1.07,0,0,1-.36-.2,1.52,1.52,0,0,1-.25-.26,3.27,3.27,0,0,1-.35-.56h0l.25.12-7.24,1.09h-.09l-.07,0a5.06,5.06,0,0,1-1.76-1,1.17,1.17,0,0,1-.34-.57,1.09,1.09,0,0,1,.1-.69,1.54,1.54,0,0,1,.93-.73h0c.69-.14,1.37-.29,2.06-.42s1.39-.23,2.08-.32h0c.94-.2,1.88-.38,2.83-.54s1.89-.35,2.85-.45c-.91.34-1.83.59-2.76.86s-1.84.53-2.77.77h0c-.69.11-1.37.22-2,.39s-1.36.3-2,.44h0a.87.87,0,0,0-.49.36.35.35,0,0,0,0,.2.44.44,0,0,0,.14.19,4.36,4.36,0,0,0,1.45.78h-.16l7.27-.87.17,0,.08.14h0a5.2,5.2,0,0,0,.37.43,1.45,1.45,0,0,0,.19.17.38.38,0,0,0,.17.08c.32.09.73.14,1.11.22l-.11,0Z"/><path class="cls-12" d="M111.3,97l.35.92a3.91,3.91,0,0,0,.41.82,2.58,2.58,0,0,0,.7.5,3.81,3.81,0,0,1,.87.55,2,2,0,0,1-1.06-.08,2,2,0,0,1-1-.57,3.35,3.35,0,0,1-.5-1,5.82,5.82,0,0,1-.24-1Z"/><path class="cls-12" d="M117.32,93.75a1.82,1.82,0,0,1,1.32.66,1.34,1.34,0,0,1,.23.8,5.68,5.68,0,0,1-.05.72,18.64,18.64,0,0,1-.63,2.68c.08-.91.17-1.82.17-2.71a4.51,4.51,0,0,0,0-.65.87.87,0,0,0-.2-.47A7.7,7.7,0,0,0,117.32,93.75Z"/><path class="cls-12" d="M121,93.68a1.06,1.06,0,0,1,.23.92,2,2,0,0,1-.33.89,2.12,2.12,0,0,1-.23-.92A1,1,0,0,1,121,93.68Z"/><path class="cls-12" d="M115.05,70.41a13.19,13.19,0,0,1,1.27-1.19,2.44,2.44,0,0,1,.43-.25,1.13,1.13,0,0,1,.54,0,.77.77,0,0,1,.52.31,1.42,1.42,0,0,1,.23.46,7.68,7.68,0,0,1,.18,1.76c0,.58,0,1.15,0,1.72h0v-.1a37.84,37.84,0,0,1,1.68,6c.33,2,.73,4.06,1.14,6.09v0l1.62,5.06v.1l.23,5.21v0h0l-.56,15.4v0L123.1,122v0a120.14,120.14,0,0,1,1.49,12.27,67.51,67.51,0,0,1-.18,12.39,36.87,36.87,0,0,1-1.14,6.14,19.91,19.91,0,0,1-2.53,5.8,8.67,8.67,0,0,1-2.39,2.25,7.84,7.84,0,0,1-3.08,1.26,8.19,8.19,0,0,1-1.65,0l-.78-.09-.37-.05-.19,0h-.09l-.19,0a2.88,2.88,0,0,1-.83-.48c-.22-.17-.43-.34-.63-.52a14.53,14.53,0,0,1-1.11-1.11c-.71-.77-1.37-1.58-2-2.4-.32-.41-.62-.83-.9-1.27a6.37,6.37,0,0,1-.68-1.45,25.31,25.31,0,0,1-1-6.15,25,25,0,0,1,.36-6.26,51.5,51.5,0,0,1,2-5.89,45.4,45.4,0,0,0,1.9-5.78c.49-2,.93-4,1.36-6l2.53-12h0l0,.29a15.86,15.86,0,0,1-1.27-3.08,14.62,14.62,0,0,1-.62-3.28,43.34,43.34,0,0,1,.09-6.55h0v-.11l0,0,.39-.51.44.23-.17.61,0-.15h0c0,2.14.1,4.31.29,6.41a17.91,17.91,0,0,0,.6,3.07c.29,1,.61,2,1,3l.06.16,0,.13h0q-1.08,6.06-2.32,12.1c-.41,2-.82,4-1.3,6a45.47,45.47,0,0,1-2,5.91,52.49,52.49,0,0,0-2.07,5.73,24.21,24.21,0,0,0-.64,6,20.9,20.9,0,0,0,.74,6,6.23,6.23,0,0,0,.6,1.34c.29.41.6.81.93,1.19a19.83,19.83,0,0,0,2.16,2.14c.39.32.78.64,1.18.93l.6.42a1.69,1.69,0,0,0,.52.25l1.43.16a8.61,8.61,0,0,0,1.42.05,6.85,6.85,0,0,0,2.57-1.07,7.52,7.52,0,0,0,2.06-2,18.81,18.81,0,0,0,2.32-5.46,38.38,38.38,0,0,0,1.09-6,99.74,99.74,0,0,0-.9-24.39v0h0L121.5,111v0l.56-15.4v0l-.23-5.2,0,.1-1.55-5.08v0c-.38-2-.76-4.07-1.06-6.13a41.5,41.5,0,0,0-1.51-6l0,0v0h0c0-.56,0-1.13,0-1.69a7.77,7.77,0,0,0-.16-1.63c-.08-.25-.18-.41-.34-.42a.73.73,0,0,0-.6.22,10,10,0,0,0-1.22,1.14Z"/><path class="cls-9" d="M78.86,61.58A14.22,14.22,0,0,1,86.7,62a1.41,1.41,0,0,1-.07,2.37,12.07,12.07,0,0,0-7.82-.53A1.26,1.26,0,0,1,78.86,61.58Z"/><path class="cls-9" d="M78.86,67.58A14.22,14.22,0,0,1,86.7,68a1.41,1.41,0,0,1-.07,2.37,12.07,12.07,0,0,0-7.82-.53A1.26,1.26,0,0,1,78.86,67.58Z"/><path class="cls-9" d="M78.44,73.6a14.13,14.13,0,0,1,7.84.42,1.41,1.41,0,0,1-.07,2.37,12,12,0,0,0-7.81-.53A1.26,1.26,0,0,1,78.44,73.6Z"/><path class="cls-9" d="M78.35,79.79a14.13,14.13,0,0,1,7.84.42,1.41,1.41,0,0,1-.07,2.37A12.14,12.14,0,0,0,78.3,82,1.25,1.25,0,0,1,78.35,79.79Z"/><path class="cls-9" d="M77.91,85.6a14.1,14.1,0,0,1,7.83.42,1.4,1.4,0,0,1-.07,2.37,12,12,0,0,0-7.81-.53A1.26,1.26,0,0,1,77.91,85.6Z"/><path class="cls-9" d="M77.58,91.55a14.22,14.22,0,0,1,7.84.42,1.42,1.42,0,0,1-.07,2.38,12.07,12.07,0,0,0-7.82-.54A1.26,1.26,0,0,1,77.58,91.55Z"/><path class="cls-9" d="M77.26,97.65a14.1,14.1,0,0,1,7.83.42,1.41,1.41,0,0,1-.07,2.37,12.11,12.11,0,0,0-7.81-.54A1.25,1.25,0,0,1,77.26,97.65Z"/><path class="cls-9" d="M77.12,103.6A14.1,14.1,0,0,1,85,104a1.41,1.41,0,0,1-.07,2.37,12,12,0,0,0-7.81-.53A1.26,1.26,0,0,1,77.12,103.6Z"/><path class="cls-12" d="M71.77,54.75a1.76,1.76,0,0,1,.48-1,3.57,3.57,0,0,1,.88-.76,4,4,0,0,1,2.26-.49,3.74,3.74,0,0,1,2.13,1,5.71,5.71,0,0,1,.77.86,1.37,1.37,0,0,1,.41,1.09c-.43-.2-.56-.52-.79-.8a5.4,5.4,0,0,0-.72-.79,3.39,3.39,0,0,0-1.84-.89,3.48,3.48,0,0,0-2.06.32,3.27,3.27,0,0,0-.84.65C72.21,54.16,72,54.46,71.77,54.75Z"/><path class="cls-12" d="M92.19,54.82c-.28-.26-.49-.53-.75-.76a3,3,0,0,0-.86-.55,4,4,0,0,0-2-.29,3.44,3.44,0,0,0-1.82.77,4.46,4.46,0,0,0-.72.72c-.23.27-.36.58-.77.76a1.24,1.24,0,0,1,.4-1,5,5,0,0,1,.78-.81,3.73,3.73,0,0,1,2.1-.85,4.35,4.35,0,0,1,2.18.45,3.72,3.72,0,0,1,.91.66A1.69,1.69,0,0,1,92.19,54.82Z"/><path class="cls-19" d="M69.35,51.47s1.38-2.76,2.38-3.33c1.5-.85,3.46-.7,5.25-.39a3.94,3.94,0,0,1,2.21,1.09s-.22,1-1,1.19-1.77-.56-2.86-.68-2.4-.49-3.22,0S69.35,51.47,69.35,51.47Z"/><path class="cls-19" d="M95,52.76a16.54,16.54,0,0,0-2-3.59c-.83-.85-4-2.58-5.52-2.37A3.8,3.8,0,0,0,85.22,48l.17.46a.68.68,0,0,0,.72.45,23.31,23.31,0,0,1,3,.17,7.4,7.4,0,0,1,3.65,1.76A26.71,26.71,0,0,1,95,52.76Z"/><polygon class="cls-19" points="69.44 45.49 68.57 48.25 67.75 48.39 67.21 50.04 67.26 53.96 67.28 57.28 66.62 58.99 64.65 57.21 64.74 56.33 62.98 55.82 63.49 54.56 61.07 53.96 61.91 52.23 61.26 51.54 62.09 48.51 59.53 48.37 59.57 46.17 61.12 45.07 60.09 44.16 60.72 42.11 62.83 41.55 63.12 40 61.81 37.96 63.07 35.63 64.65 35.54 65.61 34.19 67.28 33.42 66.35 31.86 67.28 30.58 68.77 30.47 68.51 29.4 70.21 28.63 71.49 27.46 72.42 25.69 75.61 25.21 77.19 26.21 78.17 25.18 80.42 25.32 80.94 26.48 81.61 25.23 83.24 25.37 83.87 26.39 85.14 25.62 87.44 25.91 88.47 26.94 91.59 26.59 91.49 27.44 92.74 27.83 93.06 26.99 94.75 27.55 94.33 28.32 95.26 30 96.42 29.52 99.37 30.4 99.47 31.58 100.77 31.84 102.26 33.91 102.09 37.07 103.53 37.77 102.47 40.23 104.28 41.58 102.65 44.51 103.16 47.4 101.95 50.05 103.26 51.86 101.44 54.75 101.21 56.84 99.39 58.28 98.37 59.72 97.92 56.99 98.48 55.62 97.21 55.96 96.56 54.51 97.44 51.07 96.6 49.63 95.72 46.89 94.33 46.42 93.77 44.23 92.6 42.51 90.98 39.82 88.7 37.82 87.02 37.58 85.3 38.05 84.23 36.84 82.88 37.63 82.05 37.68 80.84 37.49 79.58 37.86 78.19 37.12 76.84 37.63 75.44 37.07 73.21 38.56 72.47 39.91 70.56 41.4 70.36 42.36 70.85 42.5 70.48 43.79 70.09 43.68 68.41 44.77 69.44 45.49"/><polygon class="cls-20" points="99.39 58.28 101.21 56.84 101.44 54.75 103.26 51.86 101.95 50.05 103.16 47.4 102.65 44.51 104.28 41.58 102.47 40.23 103.53 37.77 102.09 37.07 102.26 33.91 100.77 31.84 99.47 31.58 99.37 30.4 96.42 29.52 95.26 30 94.33 28.32 94.75 27.55 93.06 26.99 92.74 27.83 91.49 27.44 91.59 26.59 88.47 26.94 88.43 26.9 87.81 29.58 91.26 30.42 92.53 29.97 92.91 31.07 94.07 30.8 95.19 31.36 95.81 34.08 96.79 33.94 97.59 37.54 99.37 37.78 99.58 39.07 98.71 39.63 98.99 40.85 99.16 42.61 100 42.68 100.35 43.35 101.12 43.26 101.26 44.58 100.07 45.49 100.37 46.72 101.12 46.75 101.28 47.8 101.14 49.33 100.35 49.54 100.53 50.35 101.19 52.05 100.23 52.42 100.02 53.61 100.81 54.09 99.26 54.79 98.09 58.02 98.37 59.72 99.39 58.28"/><path class="cls-12" d="M42.27,87.85c-.82.73-1.73,1.39-2.52,2.15a10.71,10.71,0,0,0-2,2.5,16.7,16.7,0,0,0-1.2,3c-.33,1.07-.61,2.17-.85,3.27a40.68,40.68,0,0,0-.91,6.67,25.8,25.8,0,0,0,.42,6.61l0,.18,0,.13-.48,3.33,0,.23-.15.17a2.07,2.07,0,0,0-.5,1.3,2.37,2.37,0,0,0,.39,1.37l.13.18v.21l.26,3.63V123l0,.12L32,132.48v0l0,0a54.56,54.56,0,0,0-1.78,5.61,26.4,26.4,0,0,0-.92,5.76,17.84,17.84,0,0,0,.38,5.76,23,23,0,0,0,2.11,5.4,11.31,11.31,0,0,0,3.81,4.13,4.45,4.45,0,0,0,1.23.53,14.3,14.3,0,0,0,1.41.32,15.52,15.52,0,0,0,2.88.27A12.25,12.25,0,0,0,44,160a6.9,6.9,0,0,0,2.56-1.09A12.73,12.73,0,0,0,48.6,157a14.23,14.23,0,0,0,.9-1.15,6.7,6.7,0,0,1,.94-1.14l.35.19a4.06,4.06,0,0,1-.64,1.4c-.27.42-.56.84-.88,1.25a10.38,10.38,0,0,1-2.2,2.19A7.84,7.84,0,0,1,44.19,161a13.87,13.87,0,0,1-3.07.38,16.52,16.52,0,0,1-3.07-.25c-.51-.09-1-.2-1.51-.33a5.74,5.74,0,0,1-1.51-.63,12.46,12.46,0,0,1-4.25-4.5A24.56,24.56,0,0,1,28.49,150a19.1,19.1,0,0,1-.47-6.1,27.71,27.71,0,0,1,.9-6A56.05,56.05,0,0,1,30.7,132l0,.06,2.7-9.41,0,.26-.3-3.62.14.38a3.86,3.86,0,0,1-.69-2.3,3.59,3.59,0,0,1,.86-2.28l-.19.4.46-3.32,0,.31a26.68,26.68,0,0,1-.46-7.09,39.45,39.45,0,0,1,1-6.94c.27-1.14.58-2.27.95-3.38a17.53,17.53,0,0,1,1.37-3.32A12.56,12.56,0,0,1,38.82,89a10.29,10.29,0,0,1,3-2Z"/><polygon class="cls-2" points="201.86 125.86 191.95 103.72 180.81 103.7 180.75 117.09 179.74 118 173.99 118.07 174.2 125.7 201.86 125.86"/><polygon class="cls-7" points="169.21 166.99 169.16 154.03 169.72 150.46 173.64 150.35 173.73 149.36 176.53 149.41 177.95 153.93 177.86 166.78 169.21 166.99"/><path class="cls-21" d="M174.36,149.08l1.87,0a.61.61,0,0,1,.65.36l1.35,4.61-.23,13-9,.05L168.7,154l.83-3.31"/><polyline class="cls-14" points="173.86 118 173.95 150.37 130.53 150.07 126.44 154.4 126.19 182.47"/><path class="cls-13" d="M122.31,92.28a9.12,9.12,0,0,1,1.3,2.47A39.86,39.86,0,0,1,125,105.83a63,63,0,0,1-.63,8.67l-.3,10,2.1,9.56s2.06,6.55,1.92,11.29a19.21,19.21,0,0,1-2.37,10c-3.44,6.94-8.13,5.3-8.13,5.3"/><path class="cls-12" d="M71.79,55c.52.05,1,.22,1.49.3a12.51,12.51,0,0,0,1.48.2,15.88,15.88,0,0,0,3-.14h0a2,2,0,0,1,.66.15,1.74,1.74,0,0,1-.66.14h0a10.45,10.45,0,0,1-3.06.18,8.64,8.64,0,0,1-1.52-.27A4.73,4.73,0,0,1,71.79,55Z"/><path class="cls-12" d="M92.29,55.43a5.19,5.19,0,0,1-1.43.56,8.52,8.52,0,0,1-1.51.26,10.19,10.19,0,0,1-3.07-.18h0a2,2,0,0,1-.67-.13,1.76,1.76,0,0,1,.66-.15h0a16.69,16.69,0,0,0,3,.14,14.62,14.62,0,0,0,1.48-.2C91.3,55.65,91.77,55.47,92.29,55.43Z"/><circle class="cls-12" cx="75.05" cy="54.69" r="1.28"/><circle class="cls-1" cx="74.61" cy="54.08" r="0.39"/><circle class="cls-1" cx="75.59" cy="55.33" r="0.26"/><circle class="cls-12" cx="88.77" cy="54.92" r="1.28"/><circle class="cls-1" cx="88.33" cy="54.31" r="0.39"/><circle class="cls-1" cx="89.31" cy="55.56" r="0.26"/><path class="cls-12" d="M78.9,51.32a5.52,5.52,0,0,1,2,2.43,4.75,4.75,0,0,1,.38,1.57A3.13,3.13,0,0,1,81,56.89a6.72,6.72,0,0,0-.16-1.51A10,10,0,0,0,80.37,54,13.57,13.57,0,0,0,78.9,51.32Z"/><path class="cls-12" d="M50.67,152.5a6.87,6.87,0,0,1,.63,2.71c.11.92.2,1.83.26,2.75.14,1.84.21,3.69.2,5.54a15.31,15.31,0,0,1-1,5.56,20.54,20.54,0,0,1-2.66,5h0l.07-.13a31,31,0,0,1-1.39,4.48c-.27.73-.57,1.45-.88,2.17a3.33,3.33,0,0,1-1.54,1.92,3.31,3.31,0,0,1,.13-2.46c.24-.74.5-1.48.79-2.2a31,31,0,0,1,2-4.27l.07-.12h0a19.93,19.93,0,0,0,2.52-4.71,14.35,14.35,0,0,0,1-5.21c0-1.82-.09-3.65-.2-5.47l-.17-2.74a7.56,7.56,0,0,1,.07-2.76Z"/><path class="cls-12" d="M105.69,152.53a7.56,7.56,0,0,1,.06,2.76l-.17,2.74c-.1,1.82-.2,3.65-.19,5.47a14.11,14.11,0,0,0,1,5.21,19.54,19.54,0,0,0,2.51,4.71l0,.06,0,.07,2.92,7.69,0,.09v.09l0,1.05h-1l0-1.05,0,.18L108,173.9l.07.13a20.89,20.89,0,0,1-2.66-5,15.3,15.3,0,0,1-1-5.56c0-1.85,0-3.7.19-5.54.06-.92.15-1.83.27-2.75a6.55,6.55,0,0,1,.63-2.71Z"/><path class="cls-12" d="M82.73,108.34a64.35,64.35,0,0,0-1.07,6.48c-.22,2.16-.25,4.38-.38,6.57L81,128l-.1,3.29a21.88,21.88,0,0,0,.08,3.25c.25,2.16,1,4.21,1.31,6.48a3.78,3.78,0,0,1-.19,1.76,10.36,10.36,0,0,1-.68,1.56A29.18,29.18,0,0,0,80,147.26a7.7,7.7,0,0,0-.43,3.11c0,1.09.08,2.18.17,3.27.18,2.19.43,4.37.71,6.54v0l.19,11.11,0,5.56v2.78a7.05,7.05,0,0,1-.34,2.79,7,7,0,0,1-.4-2.78l-.07-2.78-.1-5.55-.11-11.12v0c-.28-2.2-.52-4.39-.68-6.59-.08-1.1-.15-2.21-.16-3.32a8.51,8.51,0,0,1,.5-3.37,27.78,27.78,0,0,1,1.46-3,5.14,5.14,0,0,0,.81-2.95c-.24-2.11-1-4.23-1.27-6.46a23.38,23.38,0,0,1-.07-3.34l.12-3.3.31-6.6c.13-2.2.17-4.39.4-6.6a65.45,65.45,0,0,1,1.11-6.53Z"/><path class="cls-6" d="M124.08,10.82a20.21,20.21,0,0,1,2.53-.6l2.54-.49,5.1-1h.09l26.58.71,13.3.35,6.65.18,3.32.09,1.66,0a1.81,1.81,0,0,1,1.05.26,1.44,1.44,0,0,1,.6,1v.05l.26,8.27-1,0-.26-8.27v.05a.52.52,0,0,0-.17-.36,1,1,0,0,0-.55-.08l-1.66,0-3.32-.1-6.64-.2-13.29-.39-26.57-.8h.09l-5.09,1-2.55.48a18.52,18.52,0,0,1-2.57.38Z"/><path class="cls-6" d="M134,10.93a17.82,17.82,0,0,1,.22,3.25V36.91l-.07,13,0,6.49v3.25a12.83,12.83,0,0,1-.3,3.25,12.37,12.37,0,0,1-.28-3.25V49.9l0-13,.11-13,.05-6.49,0-3.25A17.79,17.79,0,0,1,134,10.93Z"/><path class="cls-12" d="M61.6,77.41a.79.79,0,0,1,.33.32,1.58,1.58,0,0,1,.21.38L62,78.05c.34-.09.69-.14,1-.22a5.21,5.21,0,0,0,.92-.41,1.31,1.31,0,0,1-.33.44,1.64,1.64,0,0,1-.5.29,3.3,3.3,0,0,1-1.07.15H62l0-.06a1.83,1.83,0,0,1-.23-.38A.73.73,0,0,1,61.6,77.41Z"/><path class="cls-12" d="M66.38,86.68a1.39,1.39,0,0,1-1,.53,3.88,3.88,0,0,1-1.08,0h-.12l0-.1a6.64,6.64,0,0,1-.1-1,5.75,5.75,0,0,1,.41.92l-.14-.12c.34,0,.7,0,1,0a4.44,4.44,0,0,0,.49-.07A3.47,3.47,0,0,0,66.38,86.68Z"/><path class="cls-12" d="M63.35,92.49a1.45,1.45,0,0,1-1,.46,3.79,3.79,0,0,1-1.07-.14l-.12,0v-.1a5.66,5.66,0,0,1,0-1,5.63,5.63,0,0,1,.33.95l-.13-.12c.35,0,.7.08,1,.1a4.29,4.29,0,0,0,.49,0A3.34,3.34,0,0,0,63.35,92.49Z"/><path class="cls-12" d="M100.71,95.67a3.23,3.23,0,0,0,.53,0c.17,0,.34,0,.49,0l1-.19-.11.13a5.77,5.77,0,0,1,.25-1,5.65,5.65,0,0,1,.06,1v.11l-.11,0a3.84,3.84,0,0,1-1.07.22A1.45,1.45,0,0,1,100.71,95.67Z"/><path class="cls-12" d="M97.59,92.26a3,3,0,0,0,.52,0,2.67,2.67,0,0,0,.49,0c.32,0,.67-.12,1-.19l-.11.14a5.53,5.53,0,0,1,.25-1,5.6,5.6,0,0,1,.06,1v.1l-.11,0a3.84,3.84,0,0,1-1.07.22A1.41,1.41,0,0,1,97.59,92.26Z"/><path class="cls-12" d="M98.63,82.15a3.31,3.31,0,0,0,.47.22,3.63,3.63,0,0,0,.46.16c.32.07.67.13,1,.18l-.15.08A5.49,5.49,0,0,1,101,82a5.08,5.08,0,0,1-.29,1l0,.09h-.12a4,4,0,0,1-1.07-.16A1.42,1.42,0,0,1,98.63,82.15Z"/><path class="cls-12" d="M117.42,70.36a2.69,2.69,0,0,0-.17.5,4.52,4.52,0,0,0-.11.47c0,.33,0,.68,0,1l-.1-.15a5.39,5.39,0,0,1,.88.48,5.56,5.56,0,0,1-1-.18l-.09,0v-.12a4,4,0,0,1,0-1.09A1.45,1.45,0,0,1,117.42,70.36Z"/><polyline class="cls-22" points="115.33 73.93 116.08 82.43 116.62 85.94"/><path class="cls-8" d="M124.05,10.68a3,3,0,0,1,.41,1.48l.1,1.49.18,3c.09,2,.18,4,.19,6V23l-.3,0-4.35.58-.38.05,0-.38-.41-9.19-.1-2.3,0-.29v-.14a.85.85,0,0,1,0-.22,1,1,0,0,1,.59-.77,1.51,1.51,0,0,1,.38-.12l.28-.06.56-.11,4.51-.91h.12l1,.06.39,0,.07.38.1.51-1,.18-.09-.51.46.41-1-.06h.12l-4.52.84-.56.1-.28,0a.49.49,0,0,0-.17.05c-.08,0-.07,0-.09.1v.49l.07,2.29.26,9.18-.39-.33,4.35-.58-.3.36c-.18-2-.26-4-.36-6l-.08-3,0-1.5A3,3,0,0,1,124.05,10.68Z"/><polygon class="cls-7" points="198.67 18.72 198.37 26.79 207 26.77 207.02 19.16 211.28 19.12 210.28 18.57 206.45 18.43 198.67 18.72"/><path class="cls-14" d="M175.63,63.49V20.55c-.06-.36.15-.61.72-.6l21.93-.2"/><polygon class="cls-2" points="209.21 101.71 198.05 78.19 235.91 78.65 232.56 74.56 180.79 74.37 181.02 102 209.21 101.71"/><path class="cls-14" d="M180.79,74.37l48.56-.14,23.49,0,0-49c0-.88-.4-1.23-1.26-1.37l-22.5-4.51L207,19.62"/><path class="cls-8" d="M207.2,19a3.16,3.16,0,0,1,.5,2c.05.66.07,1.32.1,2,0,1.32,0,2.65,0,4l0,.51h-.48l-9,0h-.5V18.84a1.18,1.18,0,0,1,.06-.46.82.82,0,0,1,.4-.46,1.36,1.36,0,0,1,.8-.11h-.05l6.24.07c1,0,2.09.06,3.13.1l.78,0a3.51,3.51,0,0,1,.84.14,2.39,2.39,0,0,1,1.35,1,6,6,0,0,0-1.48-.29,5.77,5.77,0,0,0-.72,0h-.78c-1,0-2.08.05-3.12,0l-6.26-.07h0a1,1,0,0,0-.21,0s.07-.06.07-.08v.05h0v8.15l-.5-.5,9,0-.5.5c-.1-1.32-.12-2.65-.1-4,0-.67,0-1.33.06-2A3.09,3.09,0,0,1,207.2,19Z"/><path class="cls-6" d="M229,20.86a31.72,31.72,0,0,1,.41,6.52l.07,6.51.15,13,0,13v9.77a8.94,8.94,0,0,1-.4,3.26,9.14,9.14,0,0,1-.44-3.26l0-3.25L228.76,60l-.11-13V27.38A31.05,31.05,0,0,1,229,20.86Z"/><path class="cls-12" d="M124.82,138.24a32.3,32.3,0,0,1,.74,4.27,27.49,27.49,0,0,1,.19,4.35,18.8,18.8,0,0,1-.56,4.35,11.76,11.76,0,0,1-1.82,3.95,17.64,17.64,0,0,0,1-4.12,32.59,32.59,0,0,0,.23-4.19c0-1.4-.14-2.81-.25-4.21s-.32-2.81-.5-4.22Z"/><path class="cls-14" d="M115.52,63.8,179,63.4l1.67.86,0,52.43a1.08,1.08,0,0,1-1.36,1.15l-54.6,0"/><polygon class="cls-2" points="229.31 107.62 236.14 107.72 244.79 125.35 229.49 125.35 229.31 107.62"/><polygon class="cls-2" points="217.03 149.29 223.86 149.49 232.51 182.47 220.7 182.23 220.74 154.09 217.03 149.29"/><polyline class="cls-14" points="181.02 102 228.37 102.09 229.12 103.77 228.93 125.54"/><path class="cls-6" d="M180.81,103.2l23.45,0,11.72.05,5.87.08,2.93,0a17.05,17.05,0,0,1,2.93.2,18.05,18.05,0,0,1-2.93.21l-2.93.05L216,104l-11.73.09-23.45.14Z"/><polygon class="cls-2" points="260.84 74.42 260.84 125.4 284.88 125.58 284.51 75.03 283.02 74.23 260.84 74.42"/><path class="cls-14" d="M253.17,74.22l7.57-.12h22.54a1.2,1.2,0,0,1,1.37,1.34l.23,50.14"/><path class="cls-6" d="M260.67,75.57a30.63,30.63,0,0,1,.35,6.19l.05,6.19.09,12.38V122a8.22,8.22,0,0,1-.39,3.09,8.22,8.22,0,0,1-.39-3.09l0-3.09,0-6.2-.05-12.38L260.32,88l0-6.19A31.39,31.39,0,0,1,260.67,75.57Z"/><polygon class="cls-7" points="238.72 27.51 238.86 21.59 238.05 20.25 240.72 21.21 243.03 21.52 243.23 28.05 238.72 27.51"/><path class="cls-8" d="M236.81,20.3l1.24-.05h0a.86.86,0,0,1,.67.19,1.49,1.49,0,0,1,.4.52h0l0,.05v.09l0,6.6h0l-.45-.5,4.64.53h0l-.55.49c-.08-1.22-.09-2.44-.05-3.65,0-.61,0-1.22.07-1.83,0-.29,0-.64.06-.88,0-.06.05,0,0-.09a1.58,1.58,0,0,0-.3-.19l.11,0a15,15,0,0,1-1.95-.39,16.91,16.91,0,0,1,2-.3h0l.1,0a1.8,1.8,0,0,1,.53.19.88.88,0,0,1,.42.69l.06.94c0,.61,0,1.22.06,1.83,0,1.21,0,2.43-.09,3.65l0,.55-.52-.06h0l-4.64-.52-.44-.05V27.7h0l0-6.6v.13h0c0-.23,0-.36-.18-.45h0Z"/><polygon class="cls-7" points="209.15 74.81 209.25 87.21 218.12 87.42 218.27 74.79 209.15 74.81"/><path class="cls-8" d="M209.15,74.81a8.58,8.58,0,0,1,.51,3.1l.16,3.1c.07,2.06.13,4.13.1,6.2l-.65-.66,8.86.33-.56.53c-.06-2.1,0-4.21,0-6.31l.13-3.16a7,7,0,0,1,.53-3.15,7,7,0,0,1,.46,3.17l.05,3.15c0,2.11,0,4.21-.12,6.32l0,.54h-.53l-8.86-.08h-.63l0-.65c-.07-2.07,0-4.14,0-6.2l.1-3.11A8.81,8.81,0,0,1,209.15,74.81Z"/><polygon class="cls-7" points="270.09 72.89 270.6 87.09 274.65 86.98 274.51 73.32 273.87 72.73 270.09 72.89"/><path class="cls-8" d="M265.49,73.6a21.32,21.32,0,0,1,2.81-.6c.47-.07.95-.12,1.42-.18a1.12,1.12,0,0,1,1,.37,1.44,1.44,0,0,1,.24,1v0c0,2.19.1,4.37.08,6.56s0,4.36-.07,6.55h0l-.52-.5,4.14-.14h0l-.48.5c-.1-2.38-.12-4.77-.12-7.16,0-1.19,0-2.39,0-3.58l0-1.79v-.45a1.6,1.6,0,0,0,0-.32.24.24,0,0,0-.22-.21h0a4.9,4.9,0,0,1-1.93-.77,5.08,5.08,0,0,1,2.08-.1h0a1.17,1.17,0,0,1,1.05.88,2.53,2.53,0,0,1,0,.57l0,.44.05,1.79c0,1.19.08,2.38.08,3.57,0,2.38,0,4.76,0,7.14v.49l-.47,0h0l-4.14.14H270v-.51h0c-.06-2.19-.06-4.37-.05-6.56s.07-4.36.1-6.55v0h0a.8.8,0,0,0,0-.37s-.05,0-.25,0c-.48,0-1,0-1.43,0A23.08,23.08,0,0,1,265.49,73.6Z"/><path class="cls-6" d="M177.42,149.5l.37-.08h.11l39.22.09h.22l.15.17,3.63,4.09.12.14v.2c.09,2.34.1,4.68.15,7l0,7-.06,7,0,3.52,0,1.76a2.59,2.59,0,0,1-.56,1.75,2.7,2.7,0,0,1-.56-1.75v-1.76l0-3.52-.06-7,0-7c0-2.35.06-4.69.14-7l.13.33-3.63-4.1.37.17-39.22-.09H178l-.37.08Z"/><path class="cls-8" d="M169.63,154.09a4.81,4.81,0,0,1,1.87-.38c.63-.06,1.26-.09,1.89-.11s1.25,0,1.88,0a4.52,4.52,0,0,1,1.89.35,4.86,4.86,0,0,1-1.87.41c-.63,0-1.26.07-1.89.08s-1.25,0-1.88,0A4.65,4.65,0,0,1,169.63,154.09Z"/><path class="cls-12" d="M52,144.51a13.06,13.06,0,0,1,3.49-1.62,5.14,5.14,0,0,1,2.09-.26,2.62,2.62,0,0,1,1.76,1.16c-.76.13-1.34.05-1.85.11a6.78,6.78,0,0,0-1.61.33c-1.16.34-2.34.73-3.58,1Z"/><path class="cls-12" d="M63.86,142a15.25,15.25,0,0,1,2.19-.39c.37-.05.73-.07,1.1-.1l1.08-.13c1.46-.18,2.93-.34,4.41-.43.74-.05,1.49-.06,2.24,0a7.61,7.61,0,0,1,2.42.35,7.7,7.7,0,0,1,2,1.22,8.32,8.32,0,0,1,1.56,1.68c-1.5-.38-2.84-1-4.08-1.42a9.08,9.08,0,0,0-1.94-.16H72.68l-4.39-.07A17.07,17.07,0,0,1,63.86,142Z"/><path class="cls-12" d="M62.88,164.37a15.63,15.63,0,0,1,2.2-.39l1.09-.1,1.08-.13c1.47-.17,2.94-.34,4.42-.43.74,0,1.48-.06,2.23,0a7.83,7.83,0,0,1,2.42.34,8.59,8.59,0,0,1,3.56,2.91c-1.5-.38-2.83-1-4.07-1.43a8.58,8.58,0,0,0-1.94-.15l-2.17,0-4.38-.06A17.16,17.16,0,0,1,62.88,164.37Z"/><path class="cls-12" d="M97.74,164.58a20.18,20.18,0,0,1-3.2,1.86h0l-.07,0c-1.13.3-2.25.55-3.39.75a23.49,23.49,0,0,1-3.45.38,22,22,0,0,1-3.45-.14,16.39,16.39,0,0,1-3.42-.71,16.68,16.68,0,0,1,3.42-.63c1.13-.1,2.26-.09,3.37-.19,2.22-.16,4.49-.18,6.72-.44l-.09,0A20.48,20.48,0,0,1,97.74,164.58Z"/><path class="cls-12" d="M51.87,140.49A1.84,1.84,0,0,1,53,139.6a2.53,2.53,0,0,1,1.59,0,2.6,2.6,0,0,1-.88,1.33,1.86,1.86,0,0,1-1.36.43Z"/><path class="cls-12" d="M49.56,120.31a3.33,3.33,0,0,1,1-1.76,5.11,5.11,0,0,1,1.7-1,6.77,6.77,0,0,1,3.7-.22c-1.08.67-2.15,1.09-3.1,1.61a9.2,9.2,0,0,0-1.3.8,7.41,7.41,0,0,0-1.11,1Z"/><path class="cls-12" d="M111.66,119.28a8.28,8.28,0,0,0-1.36-.64,10.82,10.82,0,0,0-1.49-.37c-1.06-.22-2.2-.3-3.43-.62a6.72,6.72,0,0,1,3.6-.89,5.14,5.14,0,0,1,1.92.46,3.35,3.35,0,0,1,1.5,1.38Z"/><path class="cls-12" d="M36.28,128.94a11.34,11.34,0,0,0-2,1.11,18.87,18.87,0,0,0-2,1.66,4.36,4.36,0,0,1,1.24-2.58A3.51,3.51,0,0,1,36.19,128Z"/><path class="cls-12" d="M39.45,115a10.27,10.27,0,0,0-2.15,1.41c-.73.59-1.42,1.24-2.18,2a5.83,5.83,0,0,1,2.55-3.9,3,3,0,0,1,1.69-.47Z"/><path class="cls-7" d="M255.83,137a1.52,1.52,0,0,1,.39,1.2l0,1.21,0,2.42.07,4.84v.05a.82.82,0,0,0,0,.45l.06,0a.78.78,0,0,0,.25,0h21.19c.11,0,.06,0-.05.08s0,0,0-.13V140l0-4.12v-2.06a1.17,1.17,0,0,0-.12-.68c-.09-.12-.18-.17-.42-.17l-16.46-.17h0l.41-.22a16.82,16.82,0,0,1-4.1,4.23l.06-.06-.11.13s0,0,0,0a.32.32,0,0,0,0-.16.49.49,0,0,0-.15-.27c-.16-.1-.18-.06-.18-.07h0a.81.81,0,0,0,.19,0l.08,0h3.75a.87.87,0,0,0,.43-.11s.07-.11.05-.31v-1.35a2.21,2.21,0,0,1,.3-1.29,2.28,2.28,0,0,1,.42,1.25l.13,1.27v-.07a1.55,1.55,0,0,1,.05.54,1.05,1.05,0,0,1-.29.61,1.61,1.61,0,0,1-1,.4h0l-3.72.05.15,0-.32.08-.22,0a.65.65,0,0,1-.43-.14.58.58,0,0,1-.19-.66,1,1,0,0,1,.12-.25,1.61,1.61,0,0,1,.23-.27l0,0,0,0a17.87,17.87,0,0,0,3.87-4l.15-.21h.26l16.44.05a1.54,1.54,0,0,1,1.36.67,2.19,2.19,0,0,1,.32,1.3v13.35a1.21,1.21,0,0,1-.23.85.88.88,0,0,1-.56.31,1,1,0,0,1-.44,0h.11l-21-.2h.08a1.92,1.92,0,0,1-.54,0,.94.94,0,0,1-.62-.35,1.52,1.52,0,0,1-.21-1.08v0l0-4.83v-3.63A1.54,1.54,0,0,1,255.83,137Z"/><rect class="cls-7" x="258.51" y="140.37" width="10.67" height="1.36"/><rect class="cls-7" x="270.21" y="140.37" width="5.78" height="1.36"/><rect class="cls-7" x="258.51" y="142.61" width="5.52" height="1.36"/><rect class="cls-7" x="265" y="142.61" width="10.99" height="1.36"/><polygon class="cls-7" points="266.01 144.53 265 144.53 258.51 144.53 258.51 145.89 265 145.89 266.01 145.89 275.99 145.89 275.99 144.53 266.01 144.53"/><path class="cls-7" d="M154.84,103.34a1.54,1.54,0,0,1,.4,1.2l0,1.21,0,2.42.08,4.84v0a.8.8,0,0,0,0,.45l.06,0a1.05,1.05,0,0,0,.24,0h21.14l.06,0c.11,0,.06,0-.06.08s0,0,0-.13V100.08a1.14,1.14,0,0,0-.12-.67c-.08-.12-.18-.17-.41-.17l-16.47-.18h0l.42-.22a17,17,0,0,1-4.1,4.23l.06,0a.53.53,0,0,0-.11.13s0,0,0,0a.32.32,0,0,0,0-.16.46.46,0,0,0-.15-.26c-.16-.1-.18-.07-.19-.08h.05l.18,0,.08,0h3.75a.92.92,0,0,0,.44-.11s.07-.1,0-.31v-1.35a2.31,2.31,0,0,1,.3-1.29,2.3,2.3,0,0,1,.43,1.26l.13,1.27V102a1.53,1.53,0,0,1,0,.54,1.06,1.06,0,0,1-.29.6,1.65,1.65,0,0,1-1,.4h0l-3.71,0,.15,0a2.28,2.28,0,0,1-.33.08l-.22,0a.66.66,0,0,1-.43-.14.56.56,0,0,1-.21-.37.62.62,0,0,1,0-.29.94.94,0,0,1,.13-.25c.08-.11.15-.19.22-.27l0,0,0,0a17.4,17.4,0,0,0,3.87-4l.16-.22h.26l16.44.06a1.55,1.55,0,0,1,1.36.66,2.19,2.19,0,0,1,.31,1.3v13.35a1.24,1.24,0,0,1-.23.85.86.86,0,0,1-.56.32,1.6,1.6,0,0,1-.45,0h.11l-21-.2h.09a1.64,1.64,0,0,1-.55,0,1,1,0,0,1-.61-.36,1.44,1.44,0,0,1-.21-1.07v0l0-4.84v-3.63A1.54,1.54,0,0,1,154.84,103.34Z"/><rect class="cls-7" x="157.53" y="106.69" width="10.67" height="1.36"/><rect class="cls-7" x="169.23" y="106.69" width="5.78" height="1.36"/><rect class="cls-7" x="157.53" y="108.92" width="5.52" height="1.36"/><rect class="cls-7" x="164.01" y="108.92" width="10.99" height="1.36"/><polygon class="cls-7" points="165.02 110.84 164.01 110.84 157.53 110.84 157.53 112.2 164.01 112.2 165.02 112.2 175 112.2 175 110.84 165.02 110.84"/><polygon class="cls-23" points="184.56 59.37 184.7 69.77 194.95 69.77 194.74 59.44 184.56 59.37"/><polygon class="cls-23" points="197.02 59.37 197.16 69.77 207.42 69.77 207.21 59.44 197.02 59.37"/><polygon class="cls-23" points="209.07 59.37 209.21 69.77 219.47 69.77 219.25 59.44 209.07 59.37"/><path class="cls-6" d="M179.46,64.54a13,13,0,0,1-3.87.33l-3.87,0L164,65l-15.49.12-15.5,0-7.74,0a54.22,54.22,0,0,1-7.75-.25,54.21,54.21,0,0,1,7.74-.35l7.75-.07,15.49-.14,15.5,0,7.75,0,3.87,0A13,13,0,0,1,179.46,64.54Z"/><path class="cls-12" d="M81.09,135.42a3.6,3.6,0,0,1,1.61-.27h4.64c.94,0,2-.12,3-.22s2-.24,3.1-.43a8.53,8.53,0,0,1-2.86,1.5,11.71,11.71,0,0,1-3.22.62,16,16,0,0,1-3.19-.28c-.53-.09-1-.2-1.56-.3A3.24,3.24,0,0,1,81.09,135.42Z"/><path class="cls-12" d="M82,116.58a3.43,3.43,0,0,1,1.61-.26h4.64c.94,0,2-.12,3-.22s2-.23,3.1-.42a8.64,8.64,0,0,1-2.87,1.49,11.64,11.64,0,0,1-3.21.62,16.21,16.21,0,0,1-3.2-.28c-.52-.08-1-.19-1.56-.3A3.1,3.1,0,0,1,82,116.58Z"/><path class="cls-12" d="M80.69,135.42a3.24,3.24,0,0,1-1.52.63c-.51.1-1,.21-1.56.3a16,16,0,0,1-3.19.28A11.71,11.71,0,0,1,71.2,136a8.53,8.53,0,0,1-2.86-1.5c1.06.19,2.08.32,3.1.43s2.06.22,3,.22h4.64A3.6,3.6,0,0,1,80.69,135.42Z"/><polygon class="cls-24" points="64.33 51.49 63.3 49.91 63.86 47.77 65.35 46.93 65.53 44.33 63.95 43.21 65.35 40.79 66.47 39.68 68.61 38.37 68.51 36.51 67.98 34.34 68.69 33.32 69.65 33.86 70.47 33.44 71.86 31.58 71.86 30.75 72.14 28.89 74.84 27.58 74.93 26.47 76.33 26.56 78.74 27.21 79.66 25.27 78.17 25.18 77.19 26.21 75.61 25.21 72.42 25.69 71.49 27.46 70.21 28.63 68.51 29.4 68.77 30.47 67.28 30.58 66.35 31.86 67.28 33.42 65.61 34.19 64.65 35.54 63.07 35.63 61.81 37.95 63.12 40 62.83 41.55 60.72 42.11 60.09 44.16 61.12 45.07 59.57 46.17 59.53 48.37 62.09 48.51 61.26 51.54 61.91 52.23 61.07 53.95 63.49 54.56 62.98 55.82 63.35 55.92 64.51 52.7 64.33 51.49"/></g></g></svg>