<svg xmlns="http://www.w3.org/2000/svg" viewBox="0 0 255.08 59.45"><defs><style>.cls-1{fill:#622262;stroke-miterlimit:10;stroke-width:4px;}.cls-1,.cls-2,.cls-3{stroke:#fff;}.cls-2,.cls-3{fill:none;stroke-linecap:round;stroke-linejoin:round;}.cls-2{stroke-width:3.11px;}.cls-3{stroke-width:4px;}.cls-4{fill:#f2f2f2;}.cls-5{fill:#bbdcb0;}</style></defs><g id="Layer_2" data-name="Layer 2"><g id="tooltip"><circle class="cls-1" cx="26.29" cy="26.29" r="24.29"/><line class="cls-2" x1="39.88" y1="26.94" x2="12.2" y2="26.94"/><polyline class="cls-3" points="32.74 32.92 40.78 26.94 32.74 20.96"/><ellipse cx="127.42" cy="52.07" rx="16.81" ry="5.72"/><path class="cls-4" d="M127,40.91a60.66,60.66,0,0,0-2-13,33.27,33.27,0,0,0-5.48-11.66A20.48,20.48,0,0,0,109.34,9a26.88,26.88,0,0,0-6.27-1.14l-1.61,0c-.54,0-1.08,0-1.62,0a24.27,24.27,0,0,0-3.19.32,12,12,0,0,0-1.56.32c-.51.14-1,.22-1.54.4a20.69,20.69,0,0,0-2.94,1.17,22.48,22.48,0,0,0-2.74,1.56,25.06,25.06,0,0,0-2.46,2,28.6,28.6,0,0,0-6.9,10.79,62.84,62.84,0,0,0-3.22,12.8A118,118,0,0,0,74,50.63,54.66,54.66,0,0,1,73.41,37,49.63,49.63,0,0,1,76.22,23.6,31,31,0,0,1,83.6,11.76a26.05,26.05,0,0,1,2.73-2.29,23.32,23.32,0,0,1,3.09-1.81,23.64,23.64,0,0,1,3.31-1.34c.57-.2,1.15-.31,1.73-.46A12.79,12.79,0,0,1,96.2,5.5a30.07,30.07,0,0,1,14,.87,23.23,23.23,0,0,1,11.48,8.18,35.49,35.49,0,0,1,5.87,12.64,63,63,0,0,1,1.82,13.63Z"/><path class="cls-4" d="M128,50.17c1.7-4.35,4.57-9.73,7.56-13.05l-7.38,2.52-7.28-2.78C123.75,40.28,126.43,45.76,128,50.17Z"/><ellipse cx="181.93" cy="52.07" rx="16.81" ry="5.72"/><polygon class="cls-5" points="181.79 40.91 181.68 38.94 183.89 38.8 183.99 40.82 181.79 40.91"/><polygon class="cls-5" points="181.31 35.2 180.72 31.49 182.95 31.06 183.54 34.92 181.31 35.2"/><polygon class="cls-5" points="179.9 27.83 178.79 24.27 180.91 23.5 182.08 27.25 179.9 27.83"/><path class="cls-5" d="M177.36,20.84a29.71,29.71,0,0,0-1.81-3.21l1.86-1.21a30.91,30.91,0,0,1,2,3.45Z"/><path class="cls-5" d="M173.34,14.72a22.34,22.34,0,0,0-2.64-2.51l1.36-1.71A24.49,24.49,0,0,1,175,13.25Z"/><path class="cls-5" d="M167.67,10.2a21.05,21.05,0,0,0-3.33-1.47l.65-2a23.41,23.41,0,0,1,3.69,1.55Z"/><path class="cls-5" d="M160.78,7.83a28.16,28.16,0,0,0-3.68-.39l.07-1.95a29,29,0,0,1,3.94.36Z"/><path class="cls-5" d="M153.39,7.49a26.49,26.49,0,0,0-3.66.55l-.41-1.78a28.73,28.73,0,0,1,3.91-.65Z"/><path class="cls-5" d="M146.22,9.13A21.93,21.93,0,0,0,143,10.81L142,9.38a22.28,22.28,0,0,1,3.51-1.87Z"/><path class="cls-5" d="M140,13a24.94,24.94,0,0,0-2.57,2.67l-1.15-.9a22.93,22.93,0,0,1,2.62-3Z"/><path class="cls-5" d="M135.23,18.72c-.62,1.09-1.24,2.18-1.89,3.27l-.77-.35c.52-1.18,1.07-2.35,1.62-3.54Z"/><path class="cls-5" d="M131.72,25.47c-.24.62-.5,1.23-.76,1.85.14-.65.28-1.31.44-2Z"/><path class="cls-5" d="M182.67,50.17c1.71-4.35,4.57-9.73,7.57-13.05l-7.38,2.52-7.29-2.78C178.45,40.28,181.13,45.76,182.67,50.17Z"/><path class="cls-5" d="M131.46,46.62a27.16,27.16,0,0,1,8.6.91,13.82,13.82,0,0,1,2.12.82,6.62,6.62,0,0,1,2,1.46,3.78,3.78,0,0,1,.8,1.26,3.17,3.17,0,0,1,.16,1.68,4.5,4.5,0,0,1-1.52,2.52,12.38,12.38,0,0,1-4.15,2.34,25.92,25.92,0,0,1-4.33,1.16,41.68,41.68,0,0,1-8.76.67c-1.47,0-2.93-.14-4.39-.3a41,41,0,0,1-4.35-.8,24.41,24.41,0,0,1-4.26-1.53,9.75,9.75,0,0,1-1-.58,7.87,7.87,0,0,1-1-.69,8.73,8.73,0,0,1-1-.89,5,5,0,0,1-.76-1.28,2.54,2.54,0,0,1-.19-.79,2.31,2.31,0,0,1,0-.83,2.15,2.15,0,0,1,.23-.78,2.38,2.38,0,0,1,.36-.65A5.78,5.78,0,0,1,112,48.65a15.61,15.61,0,0,1,4.21-1.53,35.12,35.12,0,0,1,4.29-.6c1.44-.07,2.86-.09,4.29,0a44.74,44.74,0,0,0-8.17,2,15.27,15.27,0,0,0-3.57,1.78,3.78,3.78,0,0,0-1.15,1.2,1,1,0,0,0,0,1,2.46,2.46,0,0,0,.37.5,5.52,5.52,0,0,0,.65.49,5.4,5.4,0,0,0,.79.44,8.55,8.55,0,0,0,.86.38,22.16,22.16,0,0,0,3.8,1.06,45.67,45.67,0,0,0,8.11.78,48.06,48.06,0,0,0,8.15-.56,33.1,33.1,0,0,0,3.91-.86,11.53,11.53,0,0,0,3.36-1.5,2.2,2.2,0,0,0,.79-.93,1,1,0,0,0-.24-1,8.13,8.13,0,0,0-3-2.13A39.46,39.46,0,0,0,131.46,46.62Z"/><path class="cls-5" d="M186.06,46.62a27.13,27.13,0,0,1,8.6.91,13.82,13.82,0,0,1,2.12.82,6.51,6.51,0,0,1,2,1.46,3.78,3.78,0,0,1,.8,1.26,3,3,0,0,1,.16,1.68,4.54,4.54,0,0,1-1.51,2.52,12.42,12.42,0,0,1-4.16,2.34,25.81,25.81,0,0,1-4.32,1.16,41.78,41.78,0,0,1-8.77.67c-1.46,0-2.92-.14-4.38-.3a41.18,41.18,0,0,1-4.36-.8A25,25,0,0,1,168,56.81a9.62,9.62,0,0,1-1-.58,8.23,8.23,0,0,1-2-1.58,4.77,4.77,0,0,1-.76-1.28,2.08,2.08,0,0,1-.19-.79,1.93,1.93,0,0,1,0-.83,2.14,2.14,0,0,1,.22-.78,2.4,2.4,0,0,1,.37-.65,5.76,5.76,0,0,1,1.93-1.67,15.67,15.67,0,0,1,4.22-1.53,35.12,35.12,0,0,1,4.29-.6c1.43-.07,2.86-.09,4.28,0a44.94,44.94,0,0,0-8.17,2,15.27,15.27,0,0,0-3.57,1.78,3.9,3.9,0,0,0-1.15,1.2,1,1,0,0,0,0,1,2.2,2.2,0,0,0,.38.5,4.8,4.8,0,0,0,.65.49,5.28,5.28,0,0,0,.78.44c.27.14.56.26.86.38A22,22,0,0,0,173,55.33a45.49,45.49,0,0,0,8.11.78,48,48,0,0,0,8.14-.56,33.1,33.1,0,0,0,3.91-.86,11.41,11.41,0,0,0,3.36-1.5,2.2,2.2,0,0,0,.79-.93,1,1,0,0,0-.23-1,8.22,8.22,0,0,0-3-2.13A39.56,39.56,0,0,0,186.06,46.62Z"/><ellipse cx="237.46" cy="52.07" rx="16.81" ry="5.72"/><polygon class="cls-5" points="237.07 40.91 236.96 38.94 239.12 38.8 239.22 40.82 237.07 40.91"/><polygon class="cls-5" points="236.59 35.19 236 31.48 238.18 31.07 238.76 34.92 236.59 35.19"/><polygon class="cls-5" points="235.19 27.82 234.08 24.25 236.12 23.52 237.3 27.26 235.19 27.82"/><path class="cls-5" d="M232.65,20.83a30.54,30.54,0,0,0-1.8-3.22l1.77-1.17a30.91,30.91,0,0,1,2,3.45Z"/><path class="cls-5" d="M228.63,14.69A22.43,22.43,0,0,0,226,12.17l1.28-1.62a22.33,22.33,0,0,1,2.93,2.74Z"/><path class="cls-5" d="M223,10.14a20.66,20.66,0,0,0-3.34-1.47l.6-1.84a23.37,23.37,0,0,1,3.69,1.54Z"/><path class="cls-5" d="M216.05,7.76a28.5,28.5,0,0,0-3.69-.39l.06-1.81a30.67,30.67,0,0,1,3.94.35Z"/><path class="cls-5" d="M208.64,7.42A26.63,26.63,0,0,0,205,8l-.38-1.64a28.59,28.59,0,0,1,3.9-.65Z"/><path class="cls-5" d="M201.45,9.07a21.63,21.63,0,0,0-3.29,1.67l-.83-1.29a21.81,21.81,0,0,1,3.5-1.88Z"/><path class="cls-5" d="M195.2,13a22.63,22.63,0,0,0-2.6,2.67l-1-.76a25.89,25.89,0,0,1,2.6-2.95Z"/><polygon class="cls-5" points="190.38 18.65 188.52 21.95 187.91 21.68 189.55 18.17 190.38 18.65"/><polygon class="cls-5" points="186.94 25.45 186.22 27.32 186.69 25.37 186.94 25.45"/><path class="cls-5" d="M237.93,50.17c1.7-4.35,4.57-9.73,7.57-13.05l-7.38,2.52-7.29-2.78C233.71,40.28,236.38,45.76,237.93,50.17Z"/><path class="cls-5" d="M241.32,46.62a27.16,27.16,0,0,1,8.6.91,13.82,13.82,0,0,1,2.12.82,6.62,6.62,0,0,1,2,1.46,3.78,3.78,0,0,1,.8,1.26,3.07,3.07,0,0,1,.16,1.68,4.5,4.5,0,0,1-1.52,2.52,12.38,12.38,0,0,1-4.15,2.34A25.92,25.92,0,0,1,245,58.77a41.68,41.68,0,0,1-8.76.67c-1.47,0-2.93-.14-4.39-.3a41,41,0,0,1-4.35-.8,24.41,24.41,0,0,1-4.26-1.53,9.75,9.75,0,0,1-1-.58,7.87,7.87,0,0,1-1-.69,8.73,8.73,0,0,1-.95-.89,5,5,0,0,1-.76-1.28,2.54,2.54,0,0,1-.19-.79,2.31,2.31,0,0,1,0-.83,2.15,2.15,0,0,1,.23-.78,2.38,2.38,0,0,1,.36-.65,5.78,5.78,0,0,1,1.94-1.67,15.61,15.61,0,0,1,4.21-1.53,35.12,35.12,0,0,1,4.29-.6c1.44-.07,2.86-.09,4.29,0a44.74,44.74,0,0,0-8.17,2,15.27,15.27,0,0,0-3.57,1.78,3.78,3.78,0,0,0-1.15,1.2,1,1,0,0,0,0,1,2.46,2.46,0,0,0,.37.5,5.52,5.52,0,0,0,.65.49,5.4,5.4,0,0,0,.79.44,8.55,8.55,0,0,0,.86.38,22.16,22.16,0,0,0,3.8,1.06,45.67,45.67,0,0,0,8.11.78,48.06,48.06,0,0,0,8.15-.56,33.1,33.1,0,0,0,3.91-.86,11.53,11.53,0,0,0,3.36-1.5,2.2,2.2,0,0,0,.79-.93,1,1,0,0,0-.24-1,8.13,8.13,0,0,0-3-2.13A39.46,39.46,0,0,0,241.32,46.62Z"/></g></g></svg>