<svg xmlns="http://www.w3.org/2000/svg" xmlns:xlink="http://www.w3.org/1999/xlink" viewBox="0 0 148.62 101.32"><defs><style>.cls-1,.cls-15{fill:none;}.cls-1,.cls-13,.cls-15{stroke:#515151;}.cls-1,.cls-11,.cls-13,.cls-15,.cls-4{stroke-miterlimit:10;}.cls-1{stroke-width:0.66px;}.cls-2{fill:#2d2d2d;}.cls-3{fill:#838589;}.cls-4,.cls-6{fill:#fff;}.cls-4{stroke:#fff;stroke-width:6.54px;}.cls-5{fill:#b47cbf;}.cls-7{fill:url(#linear-gradient);}.cls-8{fill:#4d4d4d;}.cls-9{fill:#e7ce17;}.cls-10{fill:#333;}.cls-11{fill:#efefef;stroke:#8e9094;}.cls-11,.cls-13{stroke-width:2px;}.cls-12{fill:#8e9094;}.cls-13{fill:#e5da9a;}.cls-14{fill:#835d8c;}.cls-15{stroke-width:1.7px;}.cls-16{fill:#515151;}</style><linearGradient id="linear-gradient" x1="72.45" y1="80.69" x2="50.25" y2="48.85" gradientUnits="userSpaceOnUse"><stop offset="0" stop-opacity="0.3"/><stop offset="1" stop-opacity="0"/></linearGradient><symbol id="box-hollow" data-name="box-hollow" viewBox="0 0 34.75 40.35"><polyline class="cls-1" points="0.7 8.91 16.94 17.07 17.84 17.06 33.92 9.06"/><polygon class="cls-2" points="26.8 4.53 8.9 13.41 8.86 15.94 6.25 14.5 6.27 12.04 24.1 3.25 26.8 4.53"/><polygon class="cls-1" points="0.33 9.13 0.33 19.25 0.33 31.99 16.94 40.02 17.8 40.02 34.05 32.16 34.41 31.52 34.35 9.52 33.88 8.39 17.96 0.33 16.94 0.33 0.73 8.41 0.33 9.13"/><line class="cls-1" x1="17.39" y1="16.92" x2="17.39" y2="39.87"/><polygon class="cls-3" points="23.53 3.52 6.27 12.04 6.25 14.5 6.64 14.72 6.67 12.26 23.96 3.73 23.53 3.52"/><polygon points="26.15 4.81 8.89 13.32 8.86 15.79 9.25 16.01 9.29 13.55 26.58 5.02 26.15 4.81"/></symbol></defs><g id="Layer_2" data-name="Layer 2"><g id="tooltip"><polygon class="cls-4" points="4.36 27.83 3.27 29.81 3.32 80.29 40.17 98.03 42.35 98.05 78.11 80.73 79.1 79 78.87 30.53 77.69 27.7 42.74 9.84 40 9.8 4.36 27.83"/><polygon class="cls-5" points="4.07 30.08 4.4 79.84 40.26 97.32 42.14 97.32 77.36 80.28 78.32 78.48 78.24 30.8 77.2 28.34 42.84 11.13 39.81 11.08 5.07 28.3 4.07 30.08"/><polygon class="cls-5" points="4.78 30.28 4.4 79.84 41.24 97 41.07 47.94 4.78 30.28"/><polygon class="cls-6" points="6.04 78.26 6.17 32.29 15.78 36.95 16.93 41.68 16.98 36.29 4.78 30.28 4.76 79.3 38.2 95.61 6.04 78.26"/><use width="34.75" height="40.35" transform="translate(3.31 10.04) scale(2.18)" xlink:href="#box-hollow"/><polygon class="cls-7" points="41.97 96.6 41.93 46.67 77.79 27.83 78.97 30.66 79.1 79 78.11 80.73 42.35 98.05 41.97 96.6"/><polygon class="cls-6" points="43.73 49.54 55.7 43.55 55.7 48.65 43.73 54.63 43.73 49.54"/><path class="cls-8" d="M55.2,44.36v4l-11,5.48v-4l11-5.49m1-1.62-13,6.49v6.21L56.2,49V42.74Z"/><polygon class="cls-9" points="44.7 80.66 56.68 74.67 56.68 79.76 44.7 85.75 44.7 80.66"/><path class="cls-8" d="M56.18,75.48v4l-11,5.49V81l11-5.49m1-1.62-13,6.49v6.21l13-6.49V73.86Z"/><polygon class="cls-9" points="44.7 73.4 48.68 71.41 48.68 76.51 44.7 78.49 44.7 73.4"/><path class="cls-8" d="M48.18,72.22v4l-3,1.48v-4l3-1.49m1-1.62-5,2.49V79.3l5-2.49V70.6Z"/><path class="cls-6" d="M84.77,39.59l-.12-.28a28.09,28.09,0,1,1,3.8,6.42l-.33-.41L58.62,71.18Z"/><path class="cls-10" d="M110.44,1a27.47,27.47,0,1,1-21.6,44.43l-.65-.83-.79.69L63,66.69,85,40.14l.39-.47-.24-.56A27.48,27.48,0,0,1,110.44,1m0-1A28.48,28.48,0,0,0,84.19,39.5L54.25,75.67,88.06,46A28.46,28.46,0,1,0,110.44,0Z"/><path class="cls-6" d="M116.39,10.32l.21-4.95a4.35,4.35,0,0,1,4.23-2.16,4.26,4.26,0,0,1,3.35,2.25l.53,4.54Z"/><path class="cls-11" d="M116.25,9.81V7a4.32,4.32,0,0,1,4.33-4.32h0A4.32,4.32,0,0,1,124.9,7V9.81"/><rect class="cls-6" x="93.25" y="10.73" width="54.37" height="34.52" rx="6.56"/><path class="cls-12" d="M141.06,11.73a5.57,5.57,0,0,1,5.56,5.56V38.7a5.57,5.57,0,0,1-5.56,5.56H99.81a5.57,5.57,0,0,1-5.56-5.56V17.29a5.57,5.57,0,0,1,5.56-5.56h41.25m0-2H99.81a7.56,7.56,0,0,0-7.56,7.56V38.7a7.56,7.56,0,0,0,7.56,7.56h41.25a7.56,7.56,0,0,0,7.56-7.56V17.29a7.56,7.56,0,0,0-7.56-7.56Z"/><rect class="cls-13" x="97.83" y="15.51" width="24.74" height="24.93" rx="3.1"/><polygon class="cls-5" points="102.47 34.02 102.58 22.26 110.7 18.53 117.99 22.58 118.27 33.57 110.42 37.68 102.47 34.02"/><polygon class="cls-14" points="111.21 27.23 111.14 36.74 117.94 33.57 117.92 23.83 111.21 27.23"/><polygon class="cls-6" points="103.82 32.83 103.8 24.95 109.13 27.73 109.56 29.61 109.59 27.25 102.95 23.86 102.97 33.46 109.59 36.54 103.82 32.83"/><rect class="cls-9" x="126.53" y="14.83" width="13.3" height="2.79" rx="1.4"/><rect class="cls-9" x="126.53" y="20.1" width="9.41" height="2.79" rx="1.4"/><rect class="cls-9" x="126.53" y="29.94" width="13.41" height="2.79" rx="1.4"/><rect class="cls-9" x="126.53" y="24.81" width="6.02" height="2.79" rx="1.4"/><rect class="cls-9" x="133.81" y="24.81" width="6.02" height="2.79" rx="1.4"/><polyline class="cls-15" points="102.34 22.69 110.2 26.64 110.64 26.64 118.43 22.76"/><polygon class="cls-15" points="102.16 22.79 102.16 27.7 102.16 33.86 110.2 37.75 110.62 37.75 118.49 33.95 118.67 33.64 118.64 22.98 118.41 22.43 110.7 18.53 110.2 18.53 102.35 22.44 102.16 22.79"/><line class="cls-15" x1="110.42" y1="26.57" x2="110.42" y2="37.68"/><polygon class="cls-2" points="115.8 20.15 106.31 24.87 106.29 26.09 105.02 25.4 105.03 24.2 114.48 19.53 115.8 20.15"/><polygon class="cls-3" points="114.48 19.53 105.03 24.2 105.02 25.4 105.21 25.5 105.23 24.31 114.69 19.63 114.48 19.53"/><polygon points="115.8 20.15 106.3 24.82 106.29 26.02 106.48 26.13 106.5 24.93 116 20.25 115.8 20.15"/><circle class="cls-16" cx="120.44" cy="6.15" r="1.12"/></g></g></svg>