<svg xmlns="http://www.w3.org/2000/svg" viewBox="0 0 235.11 125.99"><defs><style>.cls-1{fill:#5b5b5b;}.cls-2{fill:#fff;}.cls-3,.cls-4,.cls-5{fill:none;stroke-miterlimit:10;}.cls-3{stroke:#5b5b5b;}.cls-4{stroke:#adadad;}.cls-5{stroke:#bbdcb0;stroke-width:2.08px;}.cls-6{fill:#bbdcb0;}</style></defs><g id="Layer_2" data-name="Layer 2"><g id="tooltip"><rect class="cls-1" x="124.88" y="121.79" width="110.23" height="4.2" rx="2.1"/><rect class="cls-2" x="131.44" y="0.71" width="98.71" height="122.97"/><polygon class="cls-1" points="226.85 5.5 225.83 4.48 221.7 8.61 217.57 4.48 216.55 5.5 220.68 9.63 216.55 13.76 217.57 14.78 221.7 10.65 225.83 14.78 226.85 13.76 222.72 9.63 226.85 5.5"/><polyline class="cls-3" points="131.58 123.68 131.58 0.5 230.65 0.5 230.65 123.68"/><line class="cls-4" x1="230.13" y1="18.64" x2="132.07" y2="18.64"/><rect class="cls-1" y="121.79" width="110.23" height="4.2" rx="2.1"/><line class="cls-5" x1="55.95" y1="11.02" x2="55.95" y2="22.02"/><path class="cls-6" d="M56,1.71c-1.62,4.38-4.39,9.81-7.33,13.18L56,12.24l7.34,2.65C60.35,11.52,57.58,6.09,56,1.71Z"/><line class="cls-5" x1="55.95" y1="44.02" x2="55.95" y2="51.99"/><line class="cls-5" x1="55.95" y1="34" x2="55.95" y2="39.97"/><line class="cls-5" x1="55.95" y1="27.96" x2="55.95" y2="31.95"/><line class="cls-5" x1="55.95" y1="23.94" x2="55.95" y2="25.93"/><rect class="cls-2" x="5.99" y="54.66" width="98.71" height="68.91"/><polygon class="cls-1" points="101.41 59.45 100.39 58.43 96.26 62.56 92.13 58.43 91.11 59.45 95.24 63.58 91.11 67.71 92.13 68.73 96.26 64.6 100.39 68.73 101.41 67.71 97.28 63.58 101.41 59.45"/><polyline class="cls-3" points="6.14 123.57 6.14 54.45 105.21 54.45 105.21 123.57"/><line class="cls-4" x1="104.69" y1="72.59" x2="6.63" y2="72.59"/></g></g></svg>