<svg xmlns="http://www.w3.org/2000/svg" viewBox="0 0 230.38 126.09"><defs><style>.cls-1{fill:#5b5b5b;}.cls-2{fill:#fff;}.cls-3,.cls-4,.cls-5{fill:none;stroke-miterlimit:10;}.cls-3{stroke:#5b5b5b;}.cls-4{stroke:#adadad;}.cls-5{stroke:#bbdcb0;stroke-width:2.08px;}.cls-6{fill:#bbdcb0;}</style></defs><g id="Layer_2" data-name="Layer 2"><g id="tooltip"><rect class="cls-1" y="121.89" width="110.23" height="4.2" rx="2.1"/><rect class="cls-2" x="6.56" y="0.81" width="98.71" height="122.97"/><polygon class="cls-1" points="101.97 5.6 100.95 4.58 96.82 8.71 92.69 4.58 91.67 5.6 95.8 9.73 91.67 13.87 92.69 14.88 96.82 10.75 100.95 14.88 101.97 13.87 97.84 9.73 101.97 5.6"/><polyline class="cls-3" points="6.7 123.78 6.7 0.6 105.77 0.6 105.77 123.78"/><line class="cls-4" x1="105.25" y1="18.74" x2="7.19" y2="18.74"/><rect class="cls-1" x="120.14" y="121.89" width="110.23" height="4.2" rx="2.1"/><line class="cls-5" x1="176.1" y1="40.97" x2="176.1" y2="29.97"/><path class="cls-6" d="M176.1,50.28c1.62-4.38,4.4-9.81,7.33-13.18l-7.33,2.65-7.34-2.65C171.7,40.47,174.47,45.9,176.1,50.28Z"/><line class="cls-5" x1="176.1" y1="7.97" x2="176.1"/><line class="cls-5" x1="176.1" y1="17.99" x2="176.1" y2="12.01"/><line class="cls-5" x1="176.1" y1="24.03" x2="176.1" y2="20.04"/><line class="cls-5" x1="176.1" y1="28.05" x2="176.1" y2="26.06"/><rect class="cls-2" x="126.14" y="54.76" width="98.71" height="68.91"/><polygon class="cls-1" points="221.55 59.55 220.53 58.53 216.4 62.67 212.27 58.53 211.25 59.55 215.38 63.69 211.25 67.82 212.27 68.84 216.4 64.7 220.53 68.84 221.55 67.82 217.42 63.69 221.55 59.55"/><polyline class="cls-3" points="126.28 123.67 126.28 54.56 225.35 54.56 225.35 123.67"/><line class="cls-4" x1="224.83" y1="72.7" x2="126.77" y2="72.7"/></g></g></svg>