<svg xmlns="http://www.w3.org/2000/svg" xmlns:xlink="http://www.w3.org/1999/xlink" viewBox="0 0 222.88 112.25"><defs><style>.cls-1,.cls-10,.cls-3{fill:#fff;}.cls-1{stroke:gray;stroke-width:0.57px;}.cls-1,.cls-3,.cls-9{stroke-miterlimit:10;}.cls-2{fill:#666;}.cls-3{stroke:#5b5b5b;stroke-width:0.85px;}.cls-4,.cls-9{fill:#bcbcbc;}.cls-5{fill:#f2f2f2;}.cls-6{font-size:5.5px;font-family:ProximaNova-Semibold, Proxima Nova;font-weight:600;letter-spacing:-0.01em;}.cls-7{letter-spacing:0em;}.cls-8{fill:#4d4d4d;}.cls-9{stroke:#fff;}.cls-11{fill:#05778c;}</style><symbol id="read-only" data-name="read-only" viewBox="0 0 21.68 6.65"><path d="M.16,6V3.4H.6V5.56H1.73V6Z"/><path d="M2,5a.93.93,0,0,1,1-1,.92.92,0,0,1,1,1,.93.93,0,0,1-1,1A.93.93,0,0,1,2,5ZM3.44,5a.56.56,0,0,0-.54-.61A.55.55,0,0,0,2.37,5a.56.56,0,0,0,.53.62A.56.56,0,0,0,3.44,5Z"/><path d="M4.26,6V4.1h.4v.27a.81.81,0,0,1,.6-.31v.4H5.14a.64.64,0,0,0-.48.24V6Z"/><path d="M5.48,5a.93.93,0,0,1,.93-1,.91.91,0,0,1,.91,1v.1H5.9a.56.56,0,0,0,.59.51A.78.78,0,0,0,7,5.46l.18.27A1.09,1.09,0,0,1,6.44,6,.93.93,0,0,1,5.48,5Zm.93-.63a.51.51,0,0,0-.52.49h1A.48.48,0,0,0,6.41,4.39Z"/><path d="M10,6V4.75c0-.2-.09-.34-.3-.34a.56.56,0,0,0-.43.25V6h-.4V4.75c0-.2-.09-.34-.31-.34a.54.54,0,0,0-.42.25V6H7.72V4.1h.41v.26a.77.77,0,0,1,.6-.3.47.47,0,0,1,.5.34.78.78,0,0,1,.63-.34.48.48,0,0,1,.53.55V6Z"/><path d="M11.85,3.63a.25.25,0,0,1,.25-.25.25.25,0,0,1,0,.5A.25.25,0,0,1,11.85,3.63ZM11.9,6V4.1h.4V6Z"/><path d="M13.22,5.69v1h-.4V4.1h.4v.26a.73.73,0,0,1,.6-.3c.47,0,.81.36.81,1s-.34,1-.81,1A.74.74,0,0,1,13.22,5.69Zm1-.67a.55.55,0,0,0-.52-.61.6.6,0,0,0-.48.25v.73a.6.6,0,0,0,.48.25A.55.55,0,0,0,14.22,5Z"/><path d="M14.87,5.71l.19-.29a1,1,0,0,0,.62.26c.25,0,.37-.11.37-.25,0-.36-1.12-.1-1.12-.81,0-.3.26-.56.73-.56a1.06,1.06,0,0,1,.72.26l-.17.28a.73.73,0,0,0-.55-.22c-.21,0-.34.09-.34.22,0,.33,1.11.09,1.11.82,0,.33-.27.58-.76.58A1.14,1.14,0,0,1,14.87,5.71Z"/><path d="M18.09,6V5.7a.89.89,0,0,1-.65.3.53.53,0,0,1-.6-.59V4.1h.4V5.26c0,.29.15.38.37.38a.61.61,0,0,0,.48-.24V4.1h.4V6Z"/><path d="M21.28,6V4.75c0-.2-.09-.34-.31-.34a.56.56,0,0,0-.42.25V6h-.4V4.75c0-.2-.09-.34-.31-.34a.54.54,0,0,0-.42.25V6H19V4.1h.41v.26a.77.77,0,0,1,.6-.3.47.47,0,0,1,.5.34.78.78,0,0,1,.63-.34.48.48,0,0,1,.53.55V6Z"/><path class="cls-2" d="M0,1.91l.13-.19A.79.79,0,0,0,.69,2c.25,0,.39-.12.39-.29,0-.4-1-.15-1-.77C0,.64.27.42.67.42a.84.84,0,0,1,.62.24L1.17.84A.67.67,0,0,0,.67.63C.44.63.3.74.3.89c0,.37,1,.12,1,.78,0,.28-.22.5-.66.5A.88.88,0,0,1,0,1.91Z"/><path class="cls-2" d="M1.66,1.29A.84.84,0,0,1,2.48.42a.81.81,0,0,1,.81.89v.07H1.93a.59.59,0,0,0,.6.58.74.74,0,0,0,.52-.21l.13.17a1,1,0,0,1-.67.25A.83.83,0,0,1,1.66,1.29ZM2.48.63a.56.56,0,0,0-.55.56H3A.54.54,0,0,0,2.48.63Z"/><path class="cls-2" d="M3.76,1.78V.69H3.48V.46h.28V0H4V.46h.34V.69H4v1c0,.13.05.22.17.22a.22.22,0,0,0,.17-.07l.08.19a.4.4,0,0,1-.31.11C3.88,2.17,3.76,2,3.76,1.78Z"/><path class="cls-2" d="M6.66,2.13V1.94a.73.73,0,0,1-.55.23.56.56,0,0,1-.59-.55.55.55,0,0,1,.59-.55.69.69,0,0,1,.55.22V1c0-.22-.18-.35-.42-.35a.66.66,0,0,0-.51.23L5.61.69A.88.88,0,0,1,6.27.42c.36,0,.65.16.65.56V2.13Zm0-.35V1.46a.55.55,0,0,0-.46-.21.38.38,0,0,0-.41.37A.37.37,0,0,0,6.2,2,.54.54,0,0,0,6.66,1.78Z"/><path class="cls-2" d="M9.46,2.13V1c0-.21-.09-.34-.31-.34A.59.59,0,0,0,8.71.9V2.13H8.45V1c0-.21-.09-.34-.31-.34A.57.57,0,0,0,7.7.91V2.13H7.44V.46H7.7V.7A.72.72,0,0,1,8.24.42a.42.42,0,0,1,.45.31A.72.72,0,0,1,9.25.42c.31,0,.47.17.47.5V2.13Z"/><path class="cls-2" d="M10.14,1.29A.84.84,0,0,1,11,.42a.81.81,0,0,1,.8.89v.07H10.42A.59.59,0,0,0,11,2a.78.78,0,0,0,.52-.21l.12.17a.93.93,0,0,1-.66.25A.84.84,0,0,1,10.14,1.29ZM11,.63a.55.55,0,0,0-.54.56h1.1A.55.55,0,0,0,11,.63Z"/><path class="cls-2" d="M12.24,1.78V.69H12V.46h.27V0h.26V.46h.34V.69H12.5v1c0,.13.06.22.17.22a.25.25,0,0,0,.18-.07l.07.19a.37.37,0,0,1-.31.11A.34.34,0,0,1,12.24,1.78Z"/></symbol><symbol id="read-only-cut-off" data-name="read-only-cut-off" viewBox="0 0 21.68 5.02"><path d="M2.37,5a.55.55,0,0,1,.53-.61A.56.56,0,0,1,3.44,5h.41a.92.92,0,0,0-1-1A.93.93,0,0,0,2,5Z"/><path d="M4.66,5V4.69a.64.64,0,0,1,.48-.24h.12v-.4a.81.81,0,0,0-.6.31V4.1h-.4V5Z"/><path d="M7.32,5a.91.91,0,0,0-.91-1,.93.93,0,0,0-.93,1Zm-.91-.63a.48.48,0,0,1,.52.49h-1A.51.51,0,0,1,6.41,4.39Z"/><path d="M8.13,5V4.66a.54.54,0,0,1,.42-.25.29.29,0,0,1,.31.33V5h.4V4.66a.56.56,0,0,1,.43-.25c.21,0,.3.14.3.33V5h.4V4.61a.48.48,0,0,0-.53-.55.78.78,0,0,0-.63.34.47.47,0,0,0-.5-.34.77.77,0,0,0-.6.3V4.1H7.72V5Z"/><rect x="11.9" y="4.1" width="0.4" height="0.92"/><path d="M12.1,3.88a.25.25,0,0,0,0-.5.25.25,0,0,0,0,.5Z"/><path d="M13.22,5V4.66a.6.6,0,0,1,.48-.25.55.55,0,0,1,.52.61h.41c0-.6-.34-1-.81-1a.73.73,0,0,0-.6.3V4.1h-.4V5Z"/><path d="M15.16,5h1.09c-.32-.24-.93-.17-.93-.42s.13-.22.34-.22a.73.73,0,0,1,.55.22l.17-.28a1.06,1.06,0,0,0-.72-.26c-.47,0-.73.26-.73.56A.44.44,0,0,0,15.16,5Z"/><rect x="16.84" y="4.1" width="0.4" height="0.92"/><rect x="18.09" y="4.1" width="0.4" height="0.92"/><path d="M19.42,5V4.66a.54.54,0,0,1,.42-.25.29.29,0,0,1,.31.33V5h.4V4.66A.56.56,0,0,1,21,4.41a.29.29,0,0,1,.31.33V5h.4V4.61a.48.48,0,0,0-.53-.55.78.78,0,0,0-.63.34.47.47,0,0,0-.5-.34.77.77,0,0,0-.6.3V4.1H19V5Z"/><path class="cls-2" d="M0,1.91l.13-.19A.79.79,0,0,0,.69,2c.25,0,.39-.12.39-.29,0-.4-1-.15-1-.77C0,.64.27.42.67.42a.84.84,0,0,1,.62.24L1.17.84A.67.67,0,0,0,.67.63C.44.63.3.74.3.89c0,.37,1,.12,1,.78,0,.28-.22.5-.66.5A.88.88,0,0,1,0,1.91Z"/><path class="cls-2" d="M1.66,1.29A.84.84,0,0,1,2.48.42a.81.81,0,0,1,.81.89v.07H1.93a.59.59,0,0,0,.6.58.74.74,0,0,0,.52-.21l.13.17a1,1,0,0,1-.67.25A.83.83,0,0,1,1.66,1.29ZM2.48.63a.56.56,0,0,0-.55.56H3A.54.54,0,0,0,2.48.63Z"/><path class="cls-2" d="M3.76,1.78V.69H3.48V.46h.28V0H4V.46h.34V.69H4v1c0,.13.05.22.17.22a.22.22,0,0,0,.17-.07l.08.19a.4.4,0,0,1-.31.11C3.88,2.17,3.76,2,3.76,1.78Z"/><path class="cls-2" d="M6.66,2.13V1.94a.73.73,0,0,1-.55.23.56.56,0,0,1-.59-.55.55.55,0,0,1,.59-.55.69.69,0,0,1,.55.22V1c0-.22-.18-.35-.42-.35a.66.66,0,0,0-.51.23L5.61.69A.88.88,0,0,1,6.27.42c.36,0,.65.16.65.56V2.13Zm0-.35V1.46a.55.55,0,0,0-.46-.21.38.38,0,0,0-.41.37A.37.37,0,0,0,6.2,2,.54.54,0,0,0,6.66,1.78Z"/><path class="cls-2" d="M9.46,2.13V1c0-.21-.09-.34-.31-.34A.59.59,0,0,0,8.71.9V2.13H8.45V1c0-.21-.09-.34-.31-.34A.57.57,0,0,0,7.7.91V2.13H7.44V.46H7.7V.7A.72.72,0,0,1,8.24.42a.42.42,0,0,1,.45.31A.72.72,0,0,1,9.25.42c.31,0,.47.17.47.5V2.13Z"/><path class="cls-2" d="M10.14,1.29A.84.84,0,0,1,11,.42a.81.81,0,0,1,.8.89v.07H10.42A.59.59,0,0,0,11,2a.78.78,0,0,0,.52-.21l.12.17a.93.93,0,0,1-.66.25A.84.84,0,0,1,10.14,1.29ZM11,.63a.55.55,0,0,0-.54.56h1.1A.55.55,0,0,0,11,.63Z"/><path class="cls-2" d="M12.24,1.78V.69H12V.46h.27V0h.26V.46h.34V.69H12.5v1c0,.13.06.22.17.22a.25.25,0,0,0,.18-.07l.07.19a.37.37,0,0,1-.31.11A.34.34,0,0,1,12.24,1.78Z"/><rect x="0.16" y="3.4" width="0.45" height="1.62"/></symbol><symbol id="input-box" data-name="input-box" viewBox="0 0 29.52 10.82"><rect class="cls-1" x="0.29" y="0.29" width="28.96" height="10.25" rx="1.26"/><path d="M2.87,8.28V5.73h.45V7.89H4.44v.39Z"/><path d="M4.67,7.36a1,1,0,1,1,1.9,0,1,1,0,1,1-1.9,0Zm1.48,0a.55.55,0,0,0-.53-.61.56.56,0,0,0-.54.61A.56.56,0,0,0,5.62,8,.55.55,0,0,0,6.15,7.36Z"/><path d="M7,8.28V6.44h.4v.27A.79.79,0,0,1,8,6.39v.4H7.85A.62.62,0,0,0,7.38,7V8.28Z"/><path d="M8.19,7.36a.93.93,0,0,1,.94-1,.92.92,0,0,1,.91,1v.09H8.61A.56.56,0,0,0,9.2,8a.77.77,0,0,0,.52-.2l.19.26a1.08,1.08,0,0,1-.75.27A.93.93,0,0,1,8.19,7.36Zm.94-.64a.5.5,0,0,0-.52.49h1A.5.5,0,0,0,9.13,6.72Z"/><path d="M12.7,8.28V7.08c0-.2-.09-.33-.3-.33A.55.55,0,0,0,12,7V8.28h-.4V7.08c0-.2-.09-.33-.31-.33a.55.55,0,0,0-.42.24V8.28h-.4V6.44h.4v.25a.79.79,0,0,1,.6-.3.49.49,0,0,1,.51.34.76.76,0,0,1,.62-.34c.34,0,.53.18.53.56V8.28Z"/><path d="M14.56,6a.25.25,0,0,1,.25-.25.25.25,0,0,1,0,.5A.25.25,0,0,1,14.56,6Zm0,2.32V6.44H15V8.28Z"/><path d="M15.94,8V9h-.4V6.44h.4v.25a.72.72,0,0,1,.59-.3c.48,0,.82.36.82,1s-.34,1-.82,1A.75.75,0,0,1,15.94,8Zm1-.67c0-.36-.2-.61-.52-.61a.6.6,0,0,0-.47.24v.73a.59.59,0,0,0,.47.25C16.73,8,16.93,7.72,16.93,7.36Z"/><path d="M17.59,8l.18-.29A1,1,0,0,0,18.4,8c.24,0,.36-.1.36-.25,0-.36-1.11-.1-1.11-.81,0-.3.26-.56.72-.56a1,1,0,0,1,.72.26l-.17.28a.75.75,0,0,0-.54-.22c-.21,0-.35.1-.35.23,0,.33,1.12.08,1.12.82,0,.32-.27.57-.77.57A1.11,1.11,0,0,1,17.59,8Z"/><path d="M20.8,8.28V8a.87.87,0,0,1-.65.29.52.52,0,0,1-.59-.59V6.44H20V7.6c0,.28.14.37.37.37a.59.59,0,0,0,.47-.24V6.44h.4V8.28Z"/><path d="M24,8.28V7.08c0-.2-.09-.33-.3-.33a.55.55,0,0,0-.43.24V8.28h-.4V7.08c0-.2-.09-.33-.31-.33a.55.55,0,0,0-.42.24V8.28h-.4V6.44h.4v.25a.79.79,0,0,1,.6-.3.47.47,0,0,1,.5.34.8.8,0,0,1,.63-.34c.34,0,.53.18.53.56V8.28Z"/><path class="cls-2" d="M2.71,4.24l.14-.19a.75.75,0,0,0,.55.24c.26,0,.39-.12.39-.28,0-.41-1-.16-1-.78,0-.26.22-.48.62-.48A.85.85,0,0,1,4,3l-.12.18A.65.65,0,0,0,3.38,3C3.15,3,3,3.07,3,3.22c0,.37,1,.13,1,.78,0,.28-.23.5-.66.5A.9.9,0,0,1,2.71,4.24Z"/><path class="cls-2" d="M4.37,3.62a.84.84,0,0,1,.83-.87.81.81,0,0,1,.8.9v.06H4.65a.59.59,0,0,0,.6.58.78.78,0,0,0,.52-.21l.12.17a.93.93,0,0,1-.66.25A.83.83,0,0,1,4.37,3.62ZM5.19,3a.55.55,0,0,0-.54.56H5.74A.54.54,0,0,0,5.19,3Z"/><path class="cls-2" d="M6.47,4.11V3H6.2V2.79h.27V2.33h.26v.46h.34V3H6.73v1c0,.12.06.21.17.21a.27.27,0,0,0,.18-.07l.07.2a.42.42,0,0,1-.31.1A.34.34,0,0,1,6.47,4.11Z"/><path class="cls-2" d="M9.38,4.46V4.27a.74.74,0,0,1-.56.23A.55.55,0,0,1,8.24,4a.55.55,0,0,1,.58-.55.7.7,0,0,1,.56.23v-.3C9.38,3.1,9.2,3,9,3a.67.67,0,0,0-.51.24L8.32,3A.88.88,0,0,1,9,2.75c.35,0,.65.16.65.56V4.46Zm0-.35V3.79a.58.58,0,0,0-.46-.2A.38.38,0,0,0,8.5,4a.38.38,0,0,0,.42.37A.56.56,0,0,0,9.38,4.11Z"/><path class="cls-2" d="M12.18,4.46V3.33c0-.21-.1-.35-.31-.35a.6.6,0,0,0-.45.26V4.46h-.26V3.33c0-.21-.09-.35-.3-.35a.6.6,0,0,0-.44.26V4.46h-.26V2.79h.26V3A.74.74,0,0,1,11,2.75a.44.44,0,0,1,.45.31A.71.71,0,0,1,12,2.75a.44.44,0,0,1,.47.5V4.46Z"/><path class="cls-2" d="M12.86,3.62a.83.83,0,0,1,.82-.87.81.81,0,0,1,.81.9v.06H13.13a.59.59,0,0,0,.6.58.74.74,0,0,0,.52-.21l.13.17a1,1,0,0,1-.67.25A.83.83,0,0,1,12.86,3.62ZM13.68,3a.56.56,0,0,0-.55.56h1.1A.54.54,0,0,0,13.68,3Z"/><path class="cls-2" d="M15,4.11V3h-.28V2.79H15V2.33h.26v.46h.34V3h-.34v1c0,.12,0,.21.17.21a.22.22,0,0,0,.17-.07l.08.2a.44.44,0,0,1-.31.1C15.08,4.5,15,4.36,15,4.11Z"/></symbol></defs><g id="Layer_2" data-name="Layer 2"><g id="tooltip"><rect class="cls-3" x="0.42" y="0.42" width="130.41" height="72.58"/><rect class="cls-4" x="0.92" y="0.87" width="129.32" height="71.62"/><rect class="cls-5" x="8.25" y="11.22" width="114.62" height="31.41" rx="1.96"/><text class="cls-6" transform="translate(13.83 17.35)">L<tspan class="cls-7" x="2.76" y="0">orem ipsum</tspan></text><use width="21.68" height="6.65" transform="translate(14.32 21.71)" xlink:href="#read-only"/><use width="21.68" height="6.65" transform="translate(40.97 21.71)" xlink:href="#read-only"/><use width="21.68" height="6.65" transform="translate(67.61 21.71)" xlink:href="#read-only"/><use width="21.68" height="6.65" transform="translate(14.32 32.35)" xlink:href="#read-only"/><use width="21.68" height="6.65" transform="translate(40.97 32.35)" xlink:href="#read-only"/><use width="21.68" height="6.65" transform="translate(67.61 32.35)" xlink:href="#read-only"/><use width="21.68" height="6.65" transform="translate(94.26 32.35)" xlink:href="#read-only"/><use width="21.68" height="6.65" transform="translate(94.26 21.71)" xlink:href="#read-only"/><path class="cls-5" d="M122.88,72.66V48.58a2.11,2.11,0,0,0-2.11-2.1H10.36a2.11,2.11,0,0,0-2.11,2.1V72.66Z"/><text class="cls-6" transform="translate(13.83 52.6)">L<tspan class="cls-7" x="2.76" y="0">orem ipsum</tspan></text><path d="M101.05,62.92V60.37h.45v2.15h1.12v.4Z"/><path d="M102.85,62a1,1,0,1,1,1,1A.92.92,0,0,1,102.85,62Zm1.48,0a.54.54,0,1,0-.53.62A.55.55,0,0,0,104.33,62Z"/><path d="M105.16,62.92V61.07h.4v.27a.81.81,0,0,1,.6-.31v.4l-.13,0a.63.63,0,0,0-.47.25v1.26Z"/><path d="M106.37,62a.94.94,0,0,1,.94-1,.92.92,0,0,1,.91,1v.09h-1.43a.56.56,0,0,0,.59.51.77.77,0,0,0,.52-.2l.19.27a1.12,1.12,0,0,1-.75.26A.92.92,0,0,1,106.37,62Zm.94-.64a.51.51,0,0,0-.52.49h1A.5.5,0,0,0,107.31,61.35Z"/><path d="M110.88,62.92V61.71c0-.2-.09-.33-.3-.33a.58.58,0,0,0-.43.24v1.3h-.4V61.71c0-.2-.09-.33-.31-.33a.56.56,0,0,0-.42.25v1.29h-.4V61.07h.4v.25a.82.82,0,0,1,.6-.3.47.47,0,0,1,.5.34.83.83,0,0,1,.63-.34.49.49,0,0,1,.53.56v1.34Z"/><path d="M112.74,60.6a.25.25,0,0,1,.25-.25.25.25,0,1,1,0,.49A.25.25,0,0,1,112.74,60.6Zm.05,2.32V61.07h.4v1.85Z"/><path d="M114.12,62.66v1h-.4V61.07h.4v.25a.73.73,0,0,1,.59-.3c.48,0,.82.36.82,1s-.34,1-.82,1A.72.72,0,0,1,114.12,62.66Zm1-.67a.54.54,0,0,0-.52-.61.57.57,0,0,0-.47.25v.73a.6.6,0,0,0,.47.25C114.91,62.61,115.11,62.35,115.11,62Z"/><path d="M115.77,62.68l.18-.29a1,1,0,0,0,.63.26c.24,0,.36-.11.36-.25,0-.37-1.11-.11-1.11-.81,0-.31.26-.57.72-.57a1,1,0,0,1,.72.26l-.17.29a.71.71,0,0,0-.54-.22c-.21,0-.35.09-.35.22,0,.33,1.12.09,1.12.82,0,.32-.27.57-.77.57A1.15,1.15,0,0,1,115.77,62.68Z"/><path d="M119,62.92v-.25a.87.87,0,0,1-.65.29.52.52,0,0,1-.59-.58V61.07h.4v1.16c0,.29.14.38.37.38a.62.62,0,0,0,.47-.24v-1.3h.4v1.85Z"/><path d="M122.17,62.92V61.71c0-.2-.09-.33-.3-.33a.58.58,0,0,0-.43.24v1.3H121V61.71c0-.2-.09-.33-.31-.33a.56.56,0,0,0-.42.25v1.29h-.4V61.07h.4v.25a.82.82,0,0,1,.6-.3.48.48,0,0,1,.5.34A.83.83,0,0,1,122,61a.49.49,0,0,1,.53.56v1.34Z"/><path class="cls-2" d="M100.89,58.88l.14-.19a.75.75,0,0,0,.55.24c.26,0,.39-.12.39-.29,0-.41-1-.16-1-.78,0-.26.22-.48.62-.48a.81.81,0,0,1,.62.25l-.12.18a.62.62,0,0,0-.5-.22c-.23,0-.37.12-.37.27,0,.36,1,.12,1,.77,0,.28-.23.51-.66.51A.94.94,0,0,1,100.89,58.88Z"/><path class="cls-2" d="M102.55,58.26a.84.84,0,0,1,.83-.88.82.82,0,0,1,.8.9v.07h-1.35a.58.58,0,0,0,.6.57.69.69,0,0,0,.51-.21l.13.17a.9.9,0,0,1-.67.26A.83.83,0,0,1,102.55,58.26Zm.82-.66a.55.55,0,0,0-.54.55h1.09A.54.54,0,0,0,103.37,57.6Z"/><path class="cls-2" d="M104.65,58.75v-1.1h-.28v-.22h.28V57h.26v.46h.34v.22h-.34v1c0,.13.06.22.17.22a.27.27,0,0,0,.18-.07l.07.19a.42.42,0,0,1-.31.11A.34.34,0,0,1,104.65,58.75Z"/><path class="cls-2" d="M107.56,59.1v-.19a.74.74,0,0,1-.56.23.56.56,0,0,1-.58-.56A.55.55,0,0,1,107,58a.74.74,0,0,1,.56.23V58c0-.22-.18-.35-.43-.35a.66.66,0,0,0-.51.23l-.12-.18a.88.88,0,0,1,.67-.28c.35,0,.65.16.65.57V59.1Zm0-.36v-.31a.56.56,0,0,0-.46-.21.37.37,0,1,0,0,.73A.56.56,0,0,0,107.56,58.74Z"/><path class="cls-2" d="M110.36,59.1V58c0-.21-.1-.34-.31-.34a.59.59,0,0,0-.45.25V59.1h-.26V58c0-.21-.09-.34-.3-.34a.59.59,0,0,0-.44.25V59.1h-.26V57.43h.26v.24a.71.71,0,0,1,.54-.29.44.44,0,0,1,.45.31.71.71,0,0,1,.56-.31c.3,0,.46.17.46.51V59.1Z"/><path class="cls-2" d="M111,58.26a.83.83,0,0,1,.82-.88.82.82,0,0,1,.81.9v.07h-1.36a.58.58,0,0,0,.6.57.72.72,0,0,0,.52-.21l.12.17a.88.88,0,0,1-.66.26A.83.83,0,0,1,111,58.26Zm.82-.66a.56.56,0,0,0-.55.55h1.1A.54.54,0,0,0,111.86,57.6Z"/><path class="cls-2" d="M113.14,58.75v-1.1h-.28v-.22h.28V57h.26v.46h.34v.22h-.34v1c0,.13,0,.22.17.22a.22.22,0,0,0,.17-.07l.08.19a.44.44,0,0,1-.31.11C113.26,59.14,113.14,59,113.14,58.75Z"/><use width="21.68" height="5.02" transform="translate(14.32 67.61)" xlink:href="#read-only-cut-off"/><rect class="cls-8" x="126.19" y="11.22" width="2.14" height="17.51" rx="1.07"/><use width="21.68" height="6.65" transform="translate(67.61 56.97)" xlink:href="#read-only"/><use width="21.68" height="6.65" transform="translate(40.97 56.97)" xlink:href="#read-only"/><use width="21.68" height="6.65" transform="translate(14.32 56.97)" xlink:href="#read-only"/><use width="21.68" height="5.02" transform="translate(40.97 67.61)" xlink:href="#read-only-cut-off"/><use width="21.68" height="5.02" transform="translate(67.61 67.61)" xlink:href="#read-only-cut-off"/><use width="21.68" height="5.02" transform="translate(100.89 67.61)" xlink:href="#read-only-cut-off"/><rect class="cls-9" x="84.48" y="56" width="137.9" height="40.7" rx="3.66"/><text class="cls-6" transform="translate(92.41 64.55)">L<tspan class="cls-7" x="2.76" y="0">orem ipsum</tspan></text><use width="29.53" height="10.82" transform="translate(89.9 68.32)" xlink:href="#input-box"/><use width="29.53" height="10.82" transform="translate(121.62 68.32)" xlink:href="#input-box"/><use width="29.53" height="10.82" transform="translate(153.52 68.32)" xlink:href="#input-box"/><use width="29.53" height="10.82" transform="translate(185.25 68.32)" xlink:href="#input-box"/><use width="29.53" height="10.82" transform="translate(89.9 81.99)" xlink:href="#input-box"/><path class="cls-10" d="M23.21,60.1c8.93,16.39,24.17,32.56,36.14,38.37,16.4,8,21.31,5.09,31.54.35l-10-3.26c9.83-1.36,17.8-6.37,27.82-11.91-4,11.73-4.52,19-4.42,28.52a99.61,99.61,0,0,1-6.51-8.89s-13.15,18-40.33,2.93C27.54,89.61,23.21,60.1,23.21,60.1Z"/><path class="cls-11" d="M25.73,66.13c3.13,7.1,7.92,13.22,13.14,18.75A80,80,0,0,0,56.59,99a51.64,51.64,0,0,0,10.16,4.45,33.06,33.06,0,0,0,10.66,1.48,26.17,26.17,0,0,0,10.19-2.46,18.15,18.15,0,0,0,2.34-1.25,19,19,0,0,0,2.24-1.45c.7-.55,1.47-1,2.13-1.65s1.35-1.21,2-1.81l3.23,3.12a33.21,33.21,0,0,1-9.87,7.45,28.46,28.46,0,0,1-12.18,2.86,35.42,35.42,0,0,1-12.14-2.09,50.06,50.06,0,0,1-10.81-5.32A75.28,75.28,0,0,1,37.08,86.46a70,70,0,0,1-6.66-9.66A47.37,47.37,0,0,1,25.73,66.13Z"/><path class="cls-11" d="M105.81,86.93c-1.9,6.47-3.38,15.15-2.89,21.58l-6.19-9.4L86,95.85C92.26,94.49,100.15,90.6,105.81,86.93Z"/><use width="29.53" height="10.82" transform="translate(121.62 81.99)" xlink:href="#input-box"/><use width="29.53" height="10.82" transform="translate(153.52 81.99)" xlink:href="#input-box"/><use width="29.53" height="10.82" transform="translate(185.25 81.99)" xlink:href="#input-box"/></g></g></svg>