<svg xmlns="http://www.w3.org/2000/svg" xmlns:xlink="http://www.w3.org/1999/xlink" viewBox="0 0 200.9 78.31"><defs><style>.cls-1,.cls-11,.cls-3{fill:#fff;}.cls-1{stroke:gray;stroke-width:0.57px;}.cls-1,.cls-3,.cls-8{stroke-miterlimit:10;}.cls-2{fill:#666;}.cls-3{stroke:#5b5b5b;stroke-width:0.85px;}.cls-4{fill:#bcbcbc;}.cls-5{fill:#4d4d4d;}.cls-6{font-size:5.18px;}.cls-6,.cls-9{font-family:ProximaNova-Semibold, Proxima Nova;font-weight:600;}.cls-7{letter-spacing:-0.01em;}.cls-8{fill:#f2f2f2;stroke:#4d4d4d;}.cls-9{font-size:5.5px;letter-spacing:-0.01em;}.cls-10{letter-spacing:0em;}.cls-12{fill:#05778c;}</style><symbol id="input-box" data-name="input-box" viewBox="0 0 29.52 10.82"><rect class="cls-1" x="0.29" y="0.29" width="28.96" height="10.25" rx="1.26"/><path d="M2.87,8.28V5.73h.45V7.89H4.44v.39Z"/><path d="M4.67,7.36a1,1,0,1,1,1.9,0,1,1,0,1,1-1.9,0Zm1.48,0a.55.55,0,0,0-.53-.61.56.56,0,0,0-.54.61A.56.56,0,0,0,5.62,8,.55.55,0,0,0,6.15,7.36Z"/><path d="M7,8.28V6.44h.4v.27A.79.79,0,0,1,8,6.39v.4H7.85A.62.62,0,0,0,7.38,7V8.28Z"/><path d="M8.19,7.36a.93.93,0,0,1,.94-1,.92.92,0,0,1,.91,1v.09H8.61A.56.56,0,0,0,9.2,8a.77.77,0,0,0,.52-.2l.19.26a1.08,1.08,0,0,1-.75.27A.93.93,0,0,1,8.19,7.36Zm.94-.64a.5.5,0,0,0-.52.49h1A.5.5,0,0,0,9.13,6.72Z"/><path d="M12.7,8.28V7.08c0-.2-.09-.33-.3-.33A.55.55,0,0,0,12,7V8.28h-.4V7.08c0-.2-.09-.33-.31-.33a.55.55,0,0,0-.42.24V8.28h-.4V6.44h.4v.25a.79.79,0,0,1,.6-.3.49.49,0,0,1,.51.34.76.76,0,0,1,.62-.34c.34,0,.53.18.53.56V8.28Z"/><path d="M14.56,6a.25.25,0,0,1,.25-.25.25.25,0,0,1,0,.5A.25.25,0,0,1,14.56,6Zm0,2.32V6.44H15V8.28Z"/><path d="M15.94,8V9h-.4V6.44h.4v.25a.72.72,0,0,1,.59-.3c.48,0,.82.36.82,1s-.34,1-.82,1A.75.75,0,0,1,15.94,8Zm1-.67c0-.36-.2-.61-.52-.61a.6.6,0,0,0-.47.24v.73a.59.59,0,0,0,.47.25C16.73,8,16.93,7.72,16.93,7.36Z"/><path d="M17.59,8l.18-.29A1,1,0,0,0,18.4,8c.24,0,.36-.1.36-.25,0-.36-1.11-.1-1.11-.81,0-.3.26-.56.72-.56a1,1,0,0,1,.72.26l-.17.28a.75.75,0,0,0-.54-.22c-.21,0-.35.1-.35.23,0,.33,1.12.08,1.12.82,0,.32-.27.57-.77.57A1.11,1.11,0,0,1,17.59,8Z"/><path d="M20.8,8.28V8a.87.87,0,0,1-.65.29.52.52,0,0,1-.59-.59V6.44H20V7.6c0,.28.14.37.37.37a.59.59,0,0,0,.47-.24V6.44h.4V8.28Z"/><path d="M24,8.28V7.08c0-.2-.09-.33-.3-.33a.55.55,0,0,0-.43.24V8.28h-.4V7.08c0-.2-.09-.33-.31-.33a.55.55,0,0,0-.42.24V8.28h-.4V6.44h.4v.25a.79.79,0,0,1,.6-.3.47.47,0,0,1,.5.34.8.8,0,0,1,.63-.34c.34,0,.53.18.53.56V8.28Z"/><path class="cls-2" d="M2.71,4.24l.14-.19a.75.75,0,0,0,.55.24c.26,0,.39-.12.39-.28,0-.41-1-.16-1-.78,0-.26.22-.48.62-.48A.85.85,0,0,1,4,3l-.12.18A.65.65,0,0,0,3.38,3C3.15,3,3,3.07,3,3.22c0,.37,1,.13,1,.78,0,.28-.23.5-.66.5A.9.9,0,0,1,2.71,4.24Z"/><path class="cls-2" d="M4.37,3.62a.84.84,0,0,1,.83-.87.81.81,0,0,1,.8.9v.06H4.65a.59.59,0,0,0,.6.58.78.78,0,0,0,.52-.21l.12.17a.93.93,0,0,1-.66.25A.83.83,0,0,1,4.37,3.62ZM5.19,3a.55.55,0,0,0-.54.56H5.74A.54.54,0,0,0,5.19,3Z"/><path class="cls-2" d="M6.47,4.11V3H6.2V2.79h.27V2.33h.26v.46h.34V3H6.73v1c0,.12.06.21.17.21a.27.27,0,0,0,.18-.07l.07.2a.42.42,0,0,1-.31.1A.34.34,0,0,1,6.47,4.11Z"/><path class="cls-2" d="M9.38,4.46V4.27a.74.74,0,0,1-.56.23A.55.55,0,0,1,8.24,4a.55.55,0,0,1,.58-.55.7.7,0,0,1,.56.23v-.3C9.38,3.1,9.2,3,9,3a.67.67,0,0,0-.51.24L8.32,3A.88.88,0,0,1,9,2.75c.35,0,.65.16.65.56V4.46Zm0-.35V3.79a.58.58,0,0,0-.46-.2A.38.38,0,0,0,8.5,4a.38.38,0,0,0,.42.37A.56.56,0,0,0,9.38,4.11Z"/><path class="cls-2" d="M12.18,4.46V3.33c0-.21-.1-.35-.31-.35a.6.6,0,0,0-.45.26V4.46h-.26V3.33c0-.21-.09-.35-.3-.35a.6.6,0,0,0-.44.26V4.46h-.26V2.79h.26V3A.74.74,0,0,1,11,2.75a.44.44,0,0,1,.45.31A.71.71,0,0,1,12,2.75a.44.44,0,0,1,.47.5V4.46Z"/><path class="cls-2" d="M12.86,3.62a.83.83,0,0,1,.82-.87.81.81,0,0,1,.81.9v.06H13.13a.59.59,0,0,0,.6.58.74.74,0,0,0,.52-.21l.13.17a1,1,0,0,1-.67.25A.83.83,0,0,1,12.86,3.62ZM13.68,3a.56.56,0,0,0-.55.56h1.1A.54.54,0,0,0,13.68,3Z"/><path class="cls-2" d="M15,4.11V3h-.28V2.79H15V2.33h.26v.46h.34V3h-.34v1c0,.12,0,.21.17.21a.22.22,0,0,0,.17-.07l.08.2a.44.44,0,0,1-.31.1C15.08,4.5,15,4.36,15,4.11Z"/></symbol><symbol id="read-only" data-name="read-only" viewBox="0 0 21.68 6.65"><path d="M.16,6V3.4H.6V5.56H1.73V6Z"/><path d="M2,5a.93.93,0,0,1,1-1,.92.92,0,0,1,1,1,.93.93,0,0,1-1,1A.93.93,0,0,1,2,5ZM3.44,5a.56.56,0,0,0-.54-.61A.55.55,0,0,0,2.37,5a.56.56,0,0,0,.53.62A.56.56,0,0,0,3.44,5Z"/><path d="M4.26,6V4.1h.4v.27a.81.81,0,0,1,.6-.31v.4H5.14a.64.64,0,0,0-.48.24V6Z"/><path d="M5.48,5a.93.93,0,0,1,.93-1,.91.91,0,0,1,.91,1v.1H5.9a.56.56,0,0,0,.59.51A.78.78,0,0,0,7,5.46l.18.27A1.09,1.09,0,0,1,6.44,6,.93.93,0,0,1,5.48,5Zm.93-.63a.51.51,0,0,0-.52.49h1A.48.48,0,0,0,6.41,4.39Z"/><path d="M10,6V4.75c0-.2-.09-.34-.3-.34a.56.56,0,0,0-.43.25V6h-.4V4.75c0-.2-.09-.34-.31-.34a.54.54,0,0,0-.42.25V6H7.72V4.1h.41v.26a.77.77,0,0,1,.6-.3.47.47,0,0,1,.5.34.78.78,0,0,1,.63-.34.48.48,0,0,1,.53.55V6Z"/><path d="M11.85,3.63a.25.25,0,0,1,.25-.25.25.25,0,0,1,0,.5A.25.25,0,0,1,11.85,3.63ZM11.9,6V4.1h.4V6Z"/><path d="M13.22,5.69v1h-.4V4.1h.4v.26a.73.73,0,0,1,.6-.3c.47,0,.81.36.81,1s-.34,1-.81,1A.74.74,0,0,1,13.22,5.69Zm1-.67a.55.55,0,0,0-.52-.61.6.6,0,0,0-.48.25v.73a.6.6,0,0,0,.48.25A.55.55,0,0,0,14.22,5Z"/><path d="M14.87,5.71l.19-.29a1,1,0,0,0,.62.26c.25,0,.37-.11.37-.25,0-.36-1.12-.1-1.12-.81,0-.3.26-.56.73-.56a1.06,1.06,0,0,1,.72.26l-.17.28a.73.73,0,0,0-.55-.22c-.21,0-.34.09-.34.22,0,.33,1.11.09,1.11.82,0,.33-.27.58-.76.58A1.14,1.14,0,0,1,14.87,5.71Z"/><path d="M18.09,6V5.7a.89.89,0,0,1-.65.3.53.53,0,0,1-.6-.59V4.1h.4V5.26c0,.29.15.38.37.38a.61.61,0,0,0,.48-.24V4.1h.4V6Z"/><path d="M21.28,6V4.75c0-.2-.09-.34-.31-.34a.56.56,0,0,0-.42.25V6h-.4V4.75c0-.2-.09-.34-.31-.34a.54.54,0,0,0-.42.25V6H19V4.1h.41v.26a.77.77,0,0,1,.6-.3.47.47,0,0,1,.5.34.78.78,0,0,1,.63-.34.48.48,0,0,1,.53.55V6Z"/><path class="cls-2" d="M0,1.91l.13-.19A.79.79,0,0,0,.69,2c.25,0,.39-.12.39-.29,0-.4-1-.15-1-.77C0,.64.27.42.67.42a.84.84,0,0,1,.62.24L1.17.84A.67.67,0,0,0,.67.63C.44.63.3.74.3.89c0,.37,1,.12,1,.78,0,.28-.22.5-.66.5A.88.88,0,0,1,0,1.91Z"/><path class="cls-2" d="M1.66,1.29A.84.84,0,0,1,2.48.42a.81.81,0,0,1,.81.89v.07H1.93a.59.59,0,0,0,.6.58.74.74,0,0,0,.52-.21l.13.17a1,1,0,0,1-.67.25A.83.83,0,0,1,1.66,1.29ZM2.48.63a.56.56,0,0,0-.55.56H3A.54.54,0,0,0,2.48.63Z"/><path class="cls-2" d="M3.76,1.78V.69H3.48V.46h.28V0H4V.46h.34V.69H4v1c0,.13.05.22.17.22a.22.22,0,0,0,.17-.07l.08.19a.4.4,0,0,1-.31.11C3.88,2.17,3.76,2,3.76,1.78Z"/><path class="cls-2" d="M6.66,2.13V1.94a.73.73,0,0,1-.55.23.56.56,0,0,1-.59-.55.55.55,0,0,1,.59-.55.69.69,0,0,1,.55.22V1c0-.22-.18-.35-.42-.35a.66.66,0,0,0-.51.23L5.61.69A.88.88,0,0,1,6.27.42c.36,0,.65.16.65.56V2.13Zm0-.35V1.46a.55.55,0,0,0-.46-.21.38.38,0,0,0-.41.37A.37.37,0,0,0,6.2,2,.54.54,0,0,0,6.66,1.78Z"/><path class="cls-2" d="M9.46,2.13V1c0-.21-.09-.34-.31-.34A.59.59,0,0,0,8.71.9V2.13H8.45V1c0-.21-.09-.34-.31-.34A.57.57,0,0,0,7.7.91V2.13H7.44V.46H7.7V.7A.72.72,0,0,1,8.24.42a.42.42,0,0,1,.45.31A.72.72,0,0,1,9.25.42c.31,0,.47.17.47.5V2.13Z"/><path class="cls-2" d="M10.14,1.29A.84.84,0,0,1,11,.42a.81.81,0,0,1,.8.89v.07H10.42A.59.59,0,0,0,11,2a.78.78,0,0,0,.52-.21l.12.17a.93.93,0,0,1-.66.25A.84.84,0,0,1,10.14,1.29ZM11,.63a.55.55,0,0,0-.54.56h1.1A.55.55,0,0,0,11,.63Z"/><path class="cls-2" d="M12.24,1.78V.69H12V.46h.27V0h.26V.46h.34V.69H12.5v1c0,.13.06.22.17.22a.25.25,0,0,0,.18-.07l.07.19a.37.37,0,0,1-.31.11A.34.34,0,0,1,12.24,1.78Z"/></symbol></defs><g id="Layer_2" data-name="Layer 2"><g id="tooltip"><rect class="cls-3" x="70.07" y="5.3" width="130.41" height="72.58"/><rect class="cls-4" x="70.56" y="5.75" width="129.32" height="71.62"/><rect class="cls-5" x="195.83" y="16.1" width="2.14" height="17.51" rx="1.07"/><use width="29.53" height="10.82" transform="translate(160.24 64.94) scale(0.85)" xlink:href="#input-box"/><use width="29.53" height="10.82" transform="translate(160.24 53.32) scale(0.85)" xlink:href="#input-box"/><text class="cls-6" transform="translate(79.26 18.69)"><tspan class="cls-7">L</tspan><tspan x="2.6" y="0">orem ipsum</tspan></text><use width="29.53" height="10.82" transform="translate(79.22 20.92) scale(0.85)" xlink:href="#input-box"/><use width="29.53" height="10.82" transform="translate(106.17 20.92) scale(0.85)" xlink:href="#input-box"/><use width="29.53" height="10.82" transform="translate(133.28 20.92) scale(0.85)" xlink:href="#input-box"/><use width="29.53" height="10.82" transform="translate(160.24 20.92) scale(0.85)" xlink:href="#input-box"/><use width="29.53" height="10.82" transform="translate(79.22 32.54) scale(0.85)" xlink:href="#input-box"/><use width="29.53" height="10.82" transform="translate(106.17 32.54) scale(0.85)" xlink:href="#input-box"/><use width="29.53" height="10.82" transform="translate(133.28 32.54) scale(0.85)" xlink:href="#input-box"/><use width="29.53" height="10.82" transform="translate(160.24 32.54) scale(0.85)" xlink:href="#input-box"/><text class="cls-6" transform="translate(79.26 51.09)"><tspan class="cls-7">L</tspan><tspan x="2.6" y="0">orem ipsum</tspan></text><use width="29.53" height="10.82" transform="translate(79.22 53.32) scale(0.85)" xlink:href="#input-box"/><use width="29.53" height="10.82" transform="translate(106.17 53.32) scale(0.85)" xlink:href="#input-box"/><use width="29.53" height="10.82" transform="translate(133.28 53.32) scale(0.85)" xlink:href="#input-box"/><use width="29.53" height="10.82" transform="translate(79.22 64.94) scale(0.85)" xlink:href="#input-box"/><use width="29.53" height="10.82" transform="translate(106.17 64.94) scale(0.85)" xlink:href="#input-box"/><use width="29.53" height="10.82" transform="translate(133.28 64.94) scale(0.85)" xlink:href="#input-box"/><rect class="cls-8" x="0.5" y="0.5" width="114.62" height="37.12" rx="1.96"/><text class="cls-9" transform="translate(6.08 9.48)">L<tspan class="cls-10" x="2.76" y="0">orem ipsum</tspan></text><use width="21.68" height="6.65" transform="translate(6.57 13.85)" xlink:href="#read-only"/><use width="21.68" height="6.65" transform="translate(33.21 13.85)" xlink:href="#read-only"/><use width="21.68" height="6.65" transform="translate(59.86 13.85)" xlink:href="#read-only"/><use width="21.68" height="6.65" transform="translate(6.57 24.49)" xlink:href="#read-only"/><use width="21.68" height="6.65" transform="translate(33.21 24.49)" xlink:href="#read-only"/><use width="21.68" height="6.65" transform="translate(59.86 24.49)" xlink:href="#read-only"/><use width="21.68" height="6.65" transform="translate(86.51 24.49)" xlink:href="#read-only"/><use width="21.68" height="6.65" transform="translate(86.51 13.85)" xlink:href="#read-only"/><path class="cls-11" d="M116.89,43.7C101.52,54.3,80.61,62.19,67.32,61.62,48,60.8,43.83,54.89,39,47.69l10.43,1.64c-8.15-5.66-13-13.72-19.44-23.19-1.72,12.27-4.54,19-8.93,27.44a87,87,0,0,0,9.35-4.47s6.35,21.14,35.13,20.3C99.72,68.42,116.89,43.7,116.89,43.7Z"/><path class="cls-12" d="M111.93,48a48,48,0,0,1-9,7.4A71.23,71.23,0,0,1,92.62,61a75.32,75.32,0,0,1-22.76,6.23,50.13,50.13,0,0,1-12-.13A35.63,35.63,0,0,1,46,63.44a28.47,28.47,0,0,1-9.57-8A33,33,0,0,1,31,44.28L35.32,43c.33.84.67,1.68,1,2.53s.77,1.62,1.15,2.44a19.51,19.51,0,0,0,1.35,2.3,16.53,16.53,0,0,0,1.52,2.17,26.29,26.29,0,0,0,8,6.8,32.86,32.86,0,0,0,10.17,3.49,51.72,51.72,0,0,0,11.08.62,80,80,0,0,0,22.16-4.57C98.89,56.16,105.93,52.87,111.93,48Z"/><path class="cls-12" d="M31.08,30.35c3.4,5.83,8.68,12.87,13.69,16.93l-11.08-2-9.77,5.59C27.26,45.39,29.86,37,31.08,30.35Z"/></g></g></svg>