<svg xmlns="http://www.w3.org/2000/svg" viewBox="0 0 162.36 99.1"><defs><style>.cls-1,.cls-8{fill:#fff;}.cls-1{stroke:#5b5b5b;stroke-miterlimit:10;stroke-width:0.91px;}.cls-2,.cls-3{fill:#592349;}.cls-2{opacity:0.15;isolation:isolate;}.cls-4,.cls-5,.cls-6,.cls-7{fill:none;stroke-miterlimit:47.96;}.cls-4,.cls-5,.cls-6{stroke:#adadad;}.cls-4{stroke-width:1.32px;}.cls-5{stroke-width:1.55px;}.cls-6,.cls-7{stroke-width:1.22px;}.cls-7{stroke:#565656;}.cls-9{fill:#05778c;}</style></defs><g id="Layer_2" data-name="Layer 2"><g id="tooltip"><rect class="cls-1" x="0.45" y="13.62" width="127.82" height="85.02"/><path class="cls-2" d="M23.87,38.57h82.31V30.9a2,2,0,0,0-2.1-2H23.87Z"/><polygon class="cls-3" points="23.36 38.94 23.36 49.02 106.82 49.02 106.82 39 23.36 38.94"/><path class="cls-4" d="M104.56,29.36h-86a2,2,0,0,0-2.26,2.29V80.53c0,1.73,1,1.93,2.26,1.93h86c1.25,0,2.27-.2,2.27-1.93V31.64A2,2,0,0,0,104.56,29.36Z"/><line class="cls-5" x1="16.38" y1="59.88" x2="106.58" y2="59.88"/><line class="cls-5" x1="16.38" y1="70.47" x2="106.58" y2="70.47"/><line class="cls-6" x1="39.82" y1="82.48" x2="39.82" y2="49.47"/><line class="cls-6" x1="23.84" y1="82.52" x2="23.84" y2="49.47"/><line class="cls-7" x1="23.84" y1="48.48" x2="23.84" y2="39.74"/><line class="cls-7" x1="39.82" y1="48.48" x2="39.82" y2="39.74"/><line class="cls-7" x1="54.21" y1="48.48" x2="54.21" y2="39.74"/><line class="cls-7" x1="73.75" y1="48.48" x2="73.75" y2="39.74"/><line class="cls-7" x1="84.77" y1="48.48" x2="84.77" y2="39.74"/><line class="cls-7" x1="97.89" y1="48.48" x2="97.89" y2="39.74"/><line class="cls-6" x1="54.21" y1="82.57" x2="54.21" y2="49.3"/><line class="cls-6" x1="73.75" y1="82.61" x2="73.75" y2="49.3"/><line class="cls-6" x1="84.77" y1="82.7" x2="84.77" y2="49.3"/><line class="cls-6" x1="97.89" y1="82.78" x2="97.89" y2="49.3"/><line class="cls-6" x1="39.82" y1="39.22" x2="39.82" y2="29.37"/><line class="cls-6" x1="23.84" y1="39.27" x2="23.84" y2="29.37"/><line class="cls-6" x1="54.21" y1="39.31" x2="54.21" y2="29.2"/><line class="cls-6" x1="73.75" y1="39.35" x2="73.75" y2="29.2"/><line class="cls-6" x1="84.77" y1="39.44" x2="84.77" y2="29.2"/><line class="cls-6" x1="97.89" y1="39.53" x2="97.89" y2="29.2"/><line class="cls-5" x1="16.21" y1="39" x2="106.41" y2="39"/><line class="cls-5" x1="16.21" y1="49.28" x2="106.41" y2="49.28"/><path class="cls-8" d="M162.36,22C153.62,11.64,145,6.61,132.59,6c-16-.74-25.07,6.82-32.25,14.23l9.77,2.58c-9,2.24-17.58,7.67-27.19,13.19,3-7.77,4-17,4.56-29.78a79.5,79.5,0,0,0,6,9.79S107.06-1.77,133.09.14a35.28,35.28,0,0,1,20.43,8.74A34.68,34.68,0,0,1,162.36,22Z"/><path class="cls-9" d="M161.25,20.09a31.86,31.86,0,0,0-6.62-7.26c-.65-.5-1.3-1-2-1.45s-1.35-.91-2.06-1.29-1.4-.82-2.13-1.17l-1.08-.54-1.11-.48a39.71,39.71,0,0,0-18.75-3,43,43,0,0,0-9.29,1.86,43.68,43.68,0,0,0-8.61,3.91,56.52,56.52,0,0,0-7.73,5.51,75.87,75.87,0,0,0-6.79,6.75l-3.27-2.71a61.08,61.08,0,0,1,7.08-7.49,50.28,50.28,0,0,1,8.51-5.94A43.4,43.4,0,0,1,127.34,1.3a40,40,0,0,1,19.89,4.62A31.75,31.75,0,0,1,161.25,20.09Z"/><path class="cls-9" d="M86.38,31.85c1.6-6.06,2.76-14.17,2.14-20.13l6,8.58,10.09,2.75C98.79,24.48,91.54,28.3,86.38,31.85Z"/></g></g></svg>