<svg xmlns="http://www.w3.org/2000/svg" viewBox="0 0 296.38 296.38"><defs><style>.cls-1{fill:#fff;}.cls-2{fill:#05778c;}.cls-3{fill:none;stroke:#4cb648;stroke-linejoin:round;stroke-width:11.4px;stroke-dasharray:752.35 581.36;}.cls-4{fill:#4cb648;}.cls-5{fill:#666;}.cls-6{fill:#aebc29;}.cls-10,.cls-6,.cls-7,.cls-8,.cls-9{fill-rule:evenodd;}.cls-7{fill:#bbdcb0;}.cls-8{fill:#592248;}.cls-9{fill:#9a5ba1;}.cls-10{fill:#e7ce17;}.cls-11{fill:#f6f5f6;}</style></defs><g id="Layer_2" data-name="Layer 2"><g id="Layer_1-2" data-name="Layer 1"><circle class="cls-1" cx="148.19" cy="148.19" r="137.63"/><rect class="cls-2" x="62.14" y="200.53" width="179.17" height="39.86" rx="19.93"/><path class="cls-1" d="M109,215.09h1.81v10.1h4.71v1.66H109Z"/><path class="cls-1" d="M123.93,223.91h-4.75l-1.13,2.94h-1.92l4.43-11.76h2L127,226.85h-1.92Zm-4.13-1.62h3.51l-1.76-4.93Z"/><path class="cls-1" d="M135.21,222.77v-7.68H137v7.68a4.36,4.36,0,0,1-8.72,0v-7.68h1.84v7.68a2.53,2.53,0,0,0,5.05,0Z"/><path class="cls-1" d="M148.55,226.85h-1.69l-5.06-8.42v8.42H140V215.09h1.75l5,8.34v-8.34h1.81Z"/><path class="cls-1" d="M161.4,224.85a5.68,5.68,0,0,1-4.57,2.17,6,6,0,0,1,0-12.07,5.74,5.74,0,0,1,4.54,2.12l-1.4,1.09a4.22,4.22,0,1,0-3.14,7.12,4,4,0,0,0,3.17-1.54Z"/><path class="cls-1" d="M172.26,215.09v11.76h-1.84v-5h-5.31v5H163.3V215.09h1.81v5.08h5.31v-5.08Z"/><path class="cls-1" d="M188.23,226.85h-1.69l-5.06-8.42v8.42h-1.81V215.09h1.75l5,8.34v-8.34h1.81Z"/><path class="cls-1" d="M196.51,215a6,6,0,1,1-5.94,6A6,6,0,0,1,196.51,215Zm0,10.3a4.27,4.27,0,1,0-4.13-4.26A4.17,4.17,0,0,0,196.51,225.25Z"/><path class="cls-1" d="M216.26,215.09h2l-4,11.76h-1.52l-2-7-2,7h-1.52l-4-11.76h1.95l2.8,8.76,2-7.16h1.42l2,7.16Z"/><circle class="cls-3" cx="148.19" cy="148.19" r="142.49"/><path class="cls-4" d="M85,114c0,7.32-6.26,12.71-14.76,12.71s-14.75-5.39-14.75-12.64a12.17,12.17,0,0,1,8.37-11.66,8.68,8.68,0,0,1-4.71-7.87c0-5.52,4.52-9.74,11.09-9.74S81.35,89,81.35,94.55a8.62,8.62,0,0,1-4.77,7.87A12.32,12.32,0,0,1,85,114Zm-4.15-.18c0-5.27-4.72-9.36-10.61-9.36s-10.6,4.09-10.6,9.3,4.59,9.17,10.6,9.17S80.8,118.91,80.8,113.83Zm-17.61-19c0,3.47,2.91,6.2,7,6.26s7.07-2.73,7.07-6.26-3.1-6.33-7.07-6.33S63.19,91.32,63.19,94.86Z"/><path class="cls-4" d="M114.15,114.51c0,7.32-6,12.15-14.2,12.15a14,14,0,0,1-12.9-8.12l3.29-1.8a10.6,10.6,0,0,0,9.49,6.14c5.89,0,10.35-3.29,10.35-8.25,0-5.14-4-8.61-9.3-8.61H96.72v-3.47h4c4.47,0,7.44-2.86,7.44-7s-3.22-6.94-8-6.94a9.6,9.6,0,0,0-8,4.27l-2.85-2.23a12.83,12.83,0,0,1,10.91-5.83c7.13,0,11.9,4.28,11.9,10.67a9.4,9.4,0,0,1-5.46,8.68A10.46,10.46,0,0,1,114.15,114.51Z"/><path class="cls-4" d="M118.23,123.81a3.18,3.18,0,1,1,3.11,2.91A3,3,0,0,1,118.23,123.81Z"/><path class="cls-4" d="M153.07,122.26v3.84H128.34v-1.67L144.46,105c2.42-3,4.15-6.2,4.15-8.62,0-4.71-3.41-7.81-8.31-7.81-4.52,0-7.93,2.41-8.68,6.32l-3.53-.87c1-5.7,5.77-9.24,12.21-9.24,7.26,0,12.28,4.59,12.28,11.6,0,3.41-2,7.31-4.59,10.41l-13,15.44Z"/><path class="cls-4" d="M155.3,92.32a7.82,7.82,0,0,1,7.88-7.94,7.94,7.94,0,0,1,0,15.87A7.78,7.78,0,0,1,155.3,92.32Zm12.77,0a4.89,4.89,0,0,0-4.89-4.84,4.81,4.81,0,0,0-4.84,4.84,4.72,4.72,0,0,0,4.84,4.83A4.81,4.81,0,0,0,168.07,92.32Zm12-7h3L163.3,126.1h-3Zm-7.44,33.48a7.83,7.83,0,0,1,7.88-7.94,7.94,7.94,0,1,1,0,15.87A7.78,7.78,0,0,1,172.66,118.79Zm12.77,0a4.89,4.89,0,0,0-4.89-4.84,4.84,4.84,0,0,0,0,9.67A4.85,4.85,0,0,0,185.43,118.79Z"/><path class="cls-4" d="M58,141a6.13,6.13,0,0,1,6.42-6.24,5.53,5.53,0,0,1,5,2.95l-2.21,1.08A3.28,3.28,0,0,0,64.44,137a4,4,0,0,0,0,7.92,3.23,3.23,0,0,0,2.84-1.76l2.21,1.07a5.57,5.57,0,0,1-5,3A6.13,6.13,0,0,1,58,141Z"/><path class="cls-4" d="M69.45,141a6.3,6.3,0,1,1,6.29,6.24A6.05,6.05,0,0,1,69.45,141Zm10,0a3.67,3.67,0,1,0-3.67,4A3.66,3.66,0,0,0,79.41,141Z"/><path class="cls-4" d="M93.35,147v-8.44L90,147H88.83l-3.4-8.44V147H82.86V134.92h3.6l2.93,7.29,2.93-7.29h3.62V147Z"/><path class="cls-4" d="M97.33,147V134.92H103a3.89,3.89,0,1,1,0,7.77H99.9V147Zm7.07-8.17a1.61,1.61,0,0,0-1.77-1.63H99.9v3.25h2.73A1.62,1.62,0,0,0,104.4,138.81Z"/><path class="cls-4" d="M107.62,147V134.92h2.56v9.8h5.1V147Z"/><path class="cls-4" d="M116.08,147V134.92h8.53v2.26h-6v2.55h5.85V142h-5.85v2.73h6V147Z"/><path class="cls-4" d="M128.41,147v-9.8h-3.53v-2.26h9.62v2.26H131V147Z"/><path class="cls-4" d="M135.15,147V134.92h8.54v2.26h-6v2.55h5.84V142h-5.84v2.73h6V147Z"/><circle class="cls-4" cx="216.21" cy="106.29" r="21.34"/><polygon class="cls-1" points="212.61 118.54 203.28 109.36 205.53 107.08 212.51 113.95 227.99 97.28 230.33 99.47 212.61 118.54"/><path class="cls-5" d="M95.72,172.48l-2.37-4.29H91.47v4.29H88.91V160.42h5.64a3.76,3.76,0,0,1,4,3.89A3.47,3.47,0,0,1,96,167.89l2.71,4.59Zm.26-8.17a1.64,1.64,0,0,0-1.81-1.63h-2.7v3.25h2.7A1.64,1.64,0,0,0,96,164.31Z"/><path class="cls-5" d="M99.75,168.1a4.45,4.45,0,0,1,4.52-4.57c2.61,0,4.38,1.95,4.38,4.81v.51h-6.49a2.35,2.35,0,0,0,2.51,2A3.73,3.73,0,0,0,107,170l1,1.48a5.45,5.45,0,0,1-3.6,1.22A4.43,4.43,0,0,1,99.75,168.1Zm4.52-2.74a2.1,2.1,0,0,0-2.15,1.93h4.31A2,2,0,0,0,104.27,165.36Z"/><path class="cls-5" d="M115.39,172.48v-.9a3.61,3.61,0,0,1-2.76,1.12,2.91,2.91,0,0,1-3-2.9,2.79,2.79,0,0,1,3-2.82,3.57,3.57,0,0,1,2.76,1.07v-1.18c0-.88-.76-1.46-1.91-1.46a3.66,3.66,0,0,0-2.55,1l-.87-1.54a5.73,5.73,0,0,1,3.82-1.37c2,0,3.81.79,3.81,3.31v5.64Zm0-2.1V169.3a2.28,2.28,0,0,0-1.84-.76c-.9,0-1.65.47-1.65,1.32s.75,1.28,1.65,1.28A2.28,2.28,0,0,0,115.39,170.38Z"/><path class="cls-5" d="M125.81,172.48v-1.12a3.4,3.4,0,0,1-2.7,1.34c-2.2,0-3.87-1.67-3.87-4.58s1.65-4.59,3.87-4.59a3.37,3.37,0,0,1,2.7,1.34v-4.45h2.31v12.06Zm0-2.82v-3.09a2.5,2.5,0,0,0-2-1,2.56,2.56,0,0,0,0,5.08A2.49,2.49,0,0,0,125.81,169.66Z"/><path class="cls-5" d="M130.27,173.84a2,2,0,0,0,.73.14,1.16,1.16,0,0,0,1.21-.63l.32-.74L129,163.75h2.46l2.28,6.07,2.27-6.07h2.48l-4.1,10.16a3.17,3.17,0,0,1-3.31,2.11,6.5,6.5,0,0,1-1.14-.12Z"/><path class="cls-5" d="M144.32,172.48v-6.73h-1.45v-2h1.45v-.47a2.81,2.81,0,0,1,3-3,3.1,3.1,0,0,1,2.28.81l-.87,1.36a1.27,1.27,0,0,0-1-.36c-.63,0-1.08.41-1.08,1.23v.47h1.77v2h-1.77v6.73Z"/><path class="cls-5" d="M149,168.1a4.62,4.62,0,1,1,4.61,4.6A4.43,4.43,0,0,1,149,168.1Zm6.86,0a2.25,2.25,0,1,0-2.25,2.55A2.31,2.31,0,0,0,155.86,168.1Z"/><path class="cls-5" d="M159.78,172.48v-8.73h2.3v1.19a3.72,3.72,0,0,1,2.78-1.41v2.24a2.81,2.81,0,0,0-.63-.05,2.92,2.92,0,0,0-2.15,1v5.77Z"/><path class="cls-5" d="M179.87,172.48l-2.12-8.28-2.1,8.28h-2.73l-3.45-12.06h2.88l2.11,8.71,2.3-8.71h2l2.28,8.71,2.1-8.71H186l-3.43,12.06Z"/><path class="cls-5" d="M192.27,172.48v-.9a3.64,3.64,0,0,1-2.77,1.12,2.91,2.91,0,0,1-3-2.9,2.79,2.79,0,0,1,3-2.82,3.59,3.59,0,0,1,2.77,1.07v-1.18c0-.88-.76-1.46-1.92-1.46a3.68,3.68,0,0,0-2.55,1l-.86-1.54a5.71,5.71,0,0,1,3.81-1.37c2,0,3.82.79,3.82,3.31v5.64Zm0-2.1V169.3a2.28,2.28,0,0,0-1.84-.76c-.91,0-1.65.47-1.65,1.32s.74,1.28,1.65,1.28A2.28,2.28,0,0,0,192.27,170.38Z"/><path class="cls-5" d="M196.72,173.84a2,2,0,0,0,.72.14,1.15,1.15,0,0,0,1.21-.63l.33-.74-3.55-8.86h2.46l2.28,6.07,2.28-6.07h2.48l-4.11,10.16a3.17,3.17,0,0,1-3.31,2.11,6.5,6.5,0,0,1-1.14-.12Z"/><path class="cls-5" d="M206.3,172.48v-6.73h-1.45v-2h1.45v-.47a2.81,2.81,0,0,1,2.95-3,3.07,3.07,0,0,1,2.27.81l-.86,1.36a1.28,1.28,0,0,0-1-.36c-.63,0-1.09.41-1.09,1.23v.47h1.78v2h-1.78v6.73Z"/><path class="cls-5" d="M216.79,172.48v-.9A3.64,3.64,0,0,1,214,172.7a2.91,2.91,0,0,1-3-2.9,2.8,2.8,0,0,1,3-2.82,3.59,3.59,0,0,1,2.77,1.07v-1.18c0-.88-.76-1.46-1.92-1.46a3.66,3.66,0,0,0-2.55,1l-.87-1.54a5.73,5.73,0,0,1,3.82-1.37c2,0,3.81.79,3.81,3.31v5.64Zm0-2.1V169.3a2.3,2.3,0,0,0-1.85-.76c-.9,0-1.64.47-1.64,1.32s.74,1.28,1.64,1.28A2.3,2.3,0,0,0,216.79,170.38Z"/><path class="cls-5" d="M221,161.43a1.37,1.37,0,0,1,1.38-1.35,1.35,1.35,0,0,1,1.37,1.35,1.37,1.37,0,0,1-1.37,1.38A1.4,1.4,0,0,1,221,161.43Zm.24,11v-8.73h2.29v8.73Z"/><path class="cls-5" d="M225.61,172.48v-8.73h2.29v1.19a3.76,3.76,0,0,1,2.79-1.41v2.24a2.81,2.81,0,0,0-.63-.05,2.94,2.94,0,0,0-2.16,1v5.77Z"/><circle class="cls-1" cx="69.88" cy="167.62" r="14.42"/><path class="cls-6" d="M64.84,158.48c.61-.16,1.21-.33,1.82-.48.56.58,1.13,1.14,1.7,1.7s1,1,1.53,1.52h0l-6.39,6.39-3.23-3.22c.44-1.69.89-3.37,1.34-5.06l3.24-.86Z"/><path class="cls-7" d="M73.1,158l5.06,1.34,1.19,4.49c.05.19.11.38.15.57-1.08,1.07-2.15,2.15-3.22,3.22h0c-.91-.93-1.83-1.83-2.74-2.75l-3.15-3.15-.5-.5h0L73.1,158Z"/><path class="cls-8" d="M63.49,167.62l6.39-6.39.5.5,3.15,3.15c.91.92,1.83,1.82,2.74,2.75l-5.83,5.82a7.53,7.53,0,0,1-.57.56l-6.38-6.38Z"/><path class="cls-9" d="M76.27,167.63h0c.4.42.82.82,1.23,1.24.66.66,1.32,1.33,2,2-.43,1.69-.9,3.37-1.34,5.06l-5.06,1.34C72,176.16,71,175.09,69.88,174h0a7.53,7.53,0,0,0,.57-.56l5.83-5.82Z"/><path class="cls-10" d="M63.2,167.91a3.76,3.76,0,0,1,.29-.28L69.87,174h0L67,176.92a3.31,3.31,0,0,1-.33.32l-5-1.34c-.45-1.68-.89-3.36-1.34-5,1-1,2-2,2.94-3Z"/><circle class="cls-11" cx="82.75" cy="220.08" r="16.49"/><path class="cls-2" d="M76.38,225.43a1.91,1.91,0,0,0-2.71,0c-.75.75-1.72,4.43-1.72,4.43s3.68-1,4.43-1.72A1.91,1.91,0,0,0,76.38,225.43Zm-2.8,2.8a9.49,9.49,0,0,1,.92-2.39A1,1,0,1,1,76,227.31,9.49,9.49,0,0,1,73.58,228.23Z"/><path class="cls-2" d="M82.77,223.59A22.83,22.83,0,0,0,93,209.06l.13-.13L93,209v0l0,0A23,23,0,0,0,78.3,219.19c-4.1-.23-6.59,1.44-7.79,4.63a4.64,4.64,0,0,1,5.47-.18c-.12.28-.26.52-.37.81l1.8,1.79c.29-.11.61-.19.89-.31a4.65,4.65,0,0,1-.15,5.53C81.36,230.25,83,227.74,82.77,223.59Z"/><circle class="cls-11" cx="85.99" cy="216.04" r="2.11"/></g></g></svg>