<svg xmlns="http://www.w3.org/2000/svg" xmlns:xlink="http://www.w3.org/1999/xlink" viewBox="0 0 205.48 150.81"><defs><style>.cls-1,.cls-11,.cls-19{fill:none;}.cls-1{stroke:#515151;stroke-width:0.66px;}.cls-1,.cls-11,.cls-16,.cls-19,.cls-4,.cls-5{stroke-miterlimit:10;}.cls-2{fill:#2d2d2d;}.cls-3{fill:#838589;}.cls-16,.cls-4,.cls-5,.cls-8{fill:#fff;}.cls-11,.cls-4{stroke:gray;}.cls-16,.cls-4{stroke-width:1.81px;}.cls-5{stroke:#fff;stroke-width:4.64px;}.cls-6{fill:#e7ce17;}.cls-7{fill:#ccb217;}.cls-9{fill:url(#linear-gradient);}.cls-10{fill:#4d4d4d;}.cls-11{stroke-width:1.37px;}.cls-12{opacity:0.65;}.cls-13{fill:#bbdcb0;}.cls-14{fill:#99af90;}.cls-15{fill:url(#linear-gradient-2);}.cls-16,.cls-19{stroke:#aa30d8;}.cls-17{fill:#b47cbf;}.cls-18{fill:url(#linear-gradient-3);}.cls-19{stroke-width:1.4px;}</style><linearGradient id="linear-gradient" x1="82.61" y1="85.71" x2="66.87" y2="63.14" gradientTransform="translate(-23.07 46.49) rotate(-30.44)" gradientUnits="userSpaceOnUse"><stop offset="0" stop-opacity="0.3"/><stop offset="1" stop-opacity="0"/></linearGradient><linearGradient id="linear-gradient-2" x1="123.03" y1="74.82" x2="107.29" y2="52.25" gradientTransform="translate(-8.46 20.35) rotate(-10.81)" xlink:href="#linear-gradient"/><linearGradient id="linear-gradient-3" x1="180.46" y1="102.06" x2="164.72" y2="79.48" gradientTransform="matrix(1, 0, 0, 1, 0, 0)" xlink:href="#linear-gradient"/><symbol id="box-hollow" data-name="box-hollow" viewBox="0 0 34.75 40.35"><polyline class="cls-1" points="0.7 8.91 16.94 17.07 17.84 17.06 33.92 9.06"/><polygon class="cls-2" points="26.8 4.53 8.9 13.41 8.86 15.94 6.25 14.5 6.27 12.04 24.1 3.25 26.8 4.53"/><polygon class="cls-1" points="0.33 9.13 0.33 19.25 0.33 31.99 16.94 40.02 17.8 40.02 34.05 32.16 34.41 31.52 34.35 9.52 33.88 8.39 17.96 0.33 16.94 0.33 0.73 8.41 0.33 9.13"/><line class="cls-1" x1="17.39" y1="16.92" x2="17.39" y2="39.87"/><polygon class="cls-3" points="23.53 3.52 6.27 12.04 6.25 14.5 6.64 14.72 6.67 12.26 23.96 3.73 23.53 3.52"/><polygon points="26.15 4.81 8.89 13.32 8.86 15.79 9.25 16.01 9.29 13.55 26.58 5.02 26.15 4.81"/></symbol></defs><g id="Layer_2" data-name="Layer 2"><g id="tooltip"><rect class="cls-4" x="21.43" y="23.2" width="94.96" height="112.26" rx="6.29" transform="matrix(0.84, -0.55, 0.55, 0.84, -32.13, 50.47)"/><polygon class="cls-5" points="30.96 70.68 31 72.28 49.17 103.13 78.08 100.74 79.41 99.97 95.06 76.53 95.05 75.12 77.48 45.56 75.75 44.26 47.97 45.89 46.28 46.85 30.96 70.68"/><polygon class="cls-6" points="31.59 72.16 49.67 102.47 77.88 100.27 79.03 99.6 94.43 76.52 94.38 75.08 77.2 45.96 75.68 44.83 48.49 46.64 46.61 47.7 31.56 70.71 31.59 72.16"/><polygon class="cls-7" points="32.09 72.03 49.67 102.47 78.36 99.73 60.63 69.78 32.09 72.03"/><polygon class="cls-8" points="50.1 100.91 33.67 72.75 41.22 72.15 43.62 74.63 41.72 71.32 32.09 72.03 49.69 102.01 76 99.96 50.1 100.91"/><use width="34.75" height="40.35" transform="matrix(1.33, -0.78, 0.78, 1.33, 23.93, 60.18)" xlink:href="#box-hollow"/><polygon class="cls-9" points="78.67 99.22 60.7 68.7 75.86 44.3 77.6 45.6 95.05 75.12 95.06 76.53 79.41 99.97 78.67 99.22"/><polygon class="cls-8" points="62.83 69.81 68 61.85 69.83 64.96 64.66 72.92 62.83 69.81"/><path class="cls-10" d="M68,62.52,69.41,65l-4.74,7.3-1.42-2.43L68,62.52m0-1.35L62.41,69.8l2.23,3.8L70.25,65,68,61.17Z"/><polygon class="cls-6" points="74.61 88.49 79.78 80.52 81.61 83.64 76.44 91.6 74.61 88.49"/><path class="cls-10" d="M79.76,81.2l1.43,2.43-4.74,7.3L75,88.5l4.74-7.3m0-1.35-5.6,8.63,2.23,3.79L82,83.64l-2.23-3.79Z"/><polygon class="cls-6" points="72 84.05 73.72 81.41 75.55 84.52 73.83 87.16 72 84.05"/><path class="cls-10" d="M73.7,82.08l1.43,2.43-1.29,2-1.42-2.43,1.28-2m0-1.35L71.58,84l2.23,3.8L76,84.53l-2.23-3.8Z"/><rect class="cls-11" x="23.29" y="33.9" width="81.35" height="75.67" rx="6.29" transform="translate(-28.79 46.54) rotate(-33.08)"/><path class="cls-12" d="M44.08,32.45c-4.32,1.75-6.09,4.9-4.79,9.72L65.8,136.26c1.31,4.9,4.38,7.1,9.59,6L91,133l11.81-7.74-27.06,4.84-21-100.6Z"/><rect class="cls-4" x="57.64" y="10.18" width="94.96" height="112.26" rx="6.29" transform="translate(-14.01 30.87) rotate(-15.68)"/><polygon class="cls-5" points="71.96 43.01 71.47 44.53 78.21 79.69 106.24 87.15 107.76 86.87 130.37 70.05 130.83 68.72 124.22 34.98 123.02 33.16 96.3 25.37 94.39 25.71 71.96 43.01"/><polygon class="cls-13" points="72.06 44.62 78.9 79.24 106.21 86.64 107.52 86.39 129.78 69.83 130.22 68.46 123.82 35.25 122.77 33.68 96.54 26.25 94.42 26.62 72.52 43.24 72.06 44.62"/><polygon class="cls-14" points="72.58 44.66 78.9 79.24 106.85 86.29 100.2 52.13 72.58 44.66"/><polygon class="cls-8" points="79.84 77.91 73.81 45.87 81.13 47.84 82.56 50.98 81.88 47.23 72.58 44.66 79.08 78.81 104.55 85.72 79.84 77.91"/><use width="34.75" height="40.35" transform="translate(68.86 30.76) rotate(-10.81) scale(1.55)" xlink:href="#box-hollow"/><polygon class="cls-15" points="107.31 85.91 100.64 51.13 123.11 33.24 124.31 35.05 130.83 68.72 130.37 70.05 107.76 86.87 107.31 85.91"/><polygon class="cls-8" points="102.27 52.9 109.82 47.13 110.49 50.68 102.95 56.44 102.27 52.9"/><path class="cls-10" d="M109.58,47.76l.52,2.77-6.91,5.28-.53-2.76,6.92-5.29m.48-1.26-8.18,6.25.83,4.32,8.17-6.24-.82-4.33Z"/><polygon class="cls-6" points="107.09 74.44 114.64 68.68 115.31 72.22 107.77 77.99 107.09 74.44"/><path class="cls-10" d="M114.4,69.31l.52,2.77L108,77.36l-.53-2.77,6.92-5.28m.48-1.26-8.18,6.24.83,4.33,8.17-6.25-.82-4.32Z"/><polygon class="cls-6" points="106.12 69.39 108.63 67.47 109.31 71.02 106.8 72.94 106.12 69.39"/><path class="cls-10" d="M108.39,68.1l.53,2.77L107,72.3l-.53-2.76,1.88-1.44m.48-1.26-3.13,2.4.82,4.32,3.14-2.39-.83-4.33Z"/><rect class="cls-11" x="61.99" y="19.75" width="81.35" height="75.67" rx="6.29" transform="translate(-11.74 29.88) rotate(-15.68)"/><path class="cls-12" d="M109.24,32.42c-4.63.59-7.15,3.18-7.11,8.17l1.4,85.44,16.83-4.45-3.9-2.3,31.86-78-2.49-9Z"/><rect class="cls-16" x="109.62" y="37.65" width="94.96" height="112.26" rx="6.29"/><polygon class="cls-5" points="132.17 64.57 131.41 65.97 131.44 101.77 157.57 114.36 159.12 114.37 184.48 102.08 185.18 100.86 185.02 66.48 184.18 64.48 159.4 51.81 157.45 51.79 132.17 64.57"/><polygon class="cls-17" points="131.97 66.17 132.2 101.46 157.64 113.86 158.97 113.86 183.94 101.77 184.63 100.5 184.57 66.68 183.83 64.94 159.47 52.73 157.31 52.69 132.68 64.91 131.97 66.17"/><polygon class="cls-17" points="132.47 66.31 132.2 101.46 158.33 113.63 158.21 78.83 132.47 66.31"/><polygon class="cls-8" points="133.37 100.33 133.46 67.73 140.28 71.04 141.09 74.39 141.13 70.57 132.47 66.31 132.46 101.08 156.18 112.64 133.37 100.33"/><use width="34.75" height="40.35" transform="translate(131.43 51.96) scale(1.55)" xlink:href="#box-hollow"/><polygon class="cls-18" points="158.85 113.34 158.82 77.93 184.25 64.57 185.09 66.58 185.18 100.86 184.48 102.08 159.12 114.37 158.85 113.34"/><polygon class="cls-8" points="160.09 79.97 168.59 75.72 168.59 79.33 160.09 83.58 160.09 79.97"/><path class="cls-10" d="M168.23,76.3v2.81L160.45,83V80.19l7.78-3.89m.71-1.15-9.2,4.6v4.4l9.2-4.6v-4.4Z"/><polygon class="cls-6" points="160.79 102.04 169.28 97.79 169.28 101.4 160.79 105.65 160.79 102.04"/><path class="cls-10" d="M168.93,98.36v2.82l-7.79,3.89v-2.81l7.79-3.9m.71-1.14-9.21,4.6v4.4l9.21-4.6v-4.4Z"/><polygon class="cls-6" points="160.79 96.89 163.61 95.48 163.61 99.09 160.79 100.5 160.79 96.89"/><path class="cls-10" d="M163.25,96.05v2.82l-2.11,1.06V97.11l2.11-1.06m.71-1.14-3.53,1.76v4.41L164,99.31v-4.4Z"/><rect class="cls-19" x="115.98" y="44.24" width="82.24" height="78.31" rx="3.14"/></g></g></svg>