<svg xmlns="http://www.w3.org/2000/svg" xmlns:xlink="http://www.w3.org/1999/xlink" viewBox="0 0 226.46 160.01"><defs><style>.cls-1,.cls-4{fill:#fff;}.cls-2{fill:url(#linear-gradient);}.cls-3,.cls-6{fill:none;}.cls-3{stroke:#999;}.cls-3,.cls-4,.cls-6{stroke-miterlimit:10;}.cls-4,.cls-6{stroke:#622262;}.cls-4{stroke-width:3px;}.cls-5{fill:#622262;}.cls-6{stroke-width:2.33px;}</style><linearGradient id="linear-gradient" x1="70.88" y1="94.86" x2="109.92" y2="94.86" gradientTransform="translate(14.83 17.66)" gradientUnits="userSpaceOnUse"><stop offset="0" stop-opacity="0"/><stop offset="1" stop-opacity="0.6"/></linearGradient></defs><g id="Layer_2" data-name="Layer 2"><g id="tooltip"><polygon class="cls-1" points="0.84 159.74 0.84 59.45 209.29 60.65 210.27 159.74 0.84 159.74"/><rect class="cls-2" x="85.71" y="8.12" width="39.04" height="208.79" transform="translate(217.75 7.29) rotate(90)"/><path class="cls-1" d="M.84,133.9v-5c0-13.39,14.61-19.44,14.61-19.44H224.87s-14.6,8.56-14.6,19.44v5Z"/><path class="cls-3" d="M210,160V128.9c0-10.88,14.61-19.44,14.61-19.44H15.19S.59,115.51.59,128.9c0,4.69-.09,30.83-.09,30.83"/><line class="cls-3" x1="0.8" y1="133.04" x2="210.26" y2="133.04"/><path class="cls-3" d="M177.17,109.65s-14.6,8.55-14.6,19.44v5"/><path class="cls-3" d="M200.06,109.65s-14.61,8.55-14.61,19.44v5"/><path class="cls-3" d="M126.1,109.65s-14.6,8.55-14.6,19.44v5"/><path class="cls-3" d="M61.78,109.65s-14.61,8.55-14.61,19.44v5"/><line class="cls-3" x1="162.57" y1="99.74" x2="162.57" y2="60.04"/><line class="cls-3" x1="111.5" y1="99.74" x2="111.5" y2="59.76"/><line class="cls-3" x1="47.17" y1="99.74" x2="47.17" y2="59.73"/><line class="cls-3" x1="1.36" y1="99.74" x2="1.36" y2="59.73"/><line class="cls-3" x1="186.45" y1="60.47" x2="186.45" y2="100.53"/><line class="cls-3" x1="209.12" y1="60.47" x2="209.12" y2="100.53"/><line class="cls-3" x1="0.79" y1="99.53" x2="209.66" y2="100.34"/><line class="cls-3" x1="1.34" y1="86.2" x2="209.15" y2="87.02"/><line class="cls-3" x1="1.27" y1="73.04" x2="209.27" y2="73.86"/><line class="cls-3" x1="0.79" y1="59.83" x2="209.66" y2="60.65"/><line class="cls-3" x1="162.57" y1="158.95" x2="162.57" y2="134.3"/><line class="cls-3" x1="185.45" y1="158.95" x2="185.45" y2="134.3"/><line class="cls-3" x1="111.5" y1="158.95" x2="111.5" y2="134.35"/><line class="cls-3" x1="47.17" y1="158.95" x2="47.17" y2="134.34"/><line class="cls-3" x1="0.8" y1="146.11" x2="210.26" y2="146.11"/><line class="cls-3" x1="0.79" y1="159.25" x2="210.29" y2="159.51"/><circle class="cls-4" cx="189.83" cy="33" r="31.5"/><polygon class="cls-5" points="187.44 50.61 192.22 50.61 192.22 35.38 207.44 35.38 207.44 30.61 192.22 30.61 192.21 15.39 187.44 15.39 187.44 30.61 172.22 30.61 172.22 35.38 187.44 35.38 187.44 50.61"/><path class="cls-1" d="M157,29.74c-8,.77-19.11,3.23-25.9,7-11.61,6.41-25.38,19.8-26.32,47.32L92.18,80.33l6.07,6.15c3.54,3.59,6.87,9.54,8.64,13.55l2.44,5.51,1.74-5.77c1.27-4.19,3.84-10.51,6.92-14.5l5.26-6.85-11.61,5c1.08-23.79,13-35.9,23.12-41,10.33-5.21,13.62-5.07,22.18-6.21A25.43,25.43,0,0,1,157,29.74Z"/><path class="cls-6" d="M108.17,88.74c-.76-39.45,25.3-55.59,51.56-55.66"/><path class="cls-5" d="M108.93,99.12c1.49-5,4.17-11.28,7.2-15.26l-8,3.51L99.76,85C103.29,88.5,106.79,94.36,108.93,99.12Z"/></g></g></svg>