<svg xmlns="http://www.w3.org/2000/svg" xmlns:xlink="http://www.w3.org/1999/xlink" viewBox="0 0 197.7 176.3"><defs><style>.cls-1,.cls-13{fill:#622262;}.cls-1{stroke:#fff;stroke-width:0.83px;}.cls-1,.cls-10,.cls-11{stroke-miterlimit:10;}.cls-2{fill:#fff;}.cls-3{fill:#592349;opacity:0.15;isolation:isolate;}.cls-4{fill:#473f4a;}.cls-10,.cls-11,.cls-5,.cls-6,.cls-7{fill:none;}.cls-11,.cls-5,.cls-6,.cls-7{stroke:#adadad;}.cls-5,.cls-6,.cls-7{stroke-miterlimit:47.96;}.cls-5{stroke-width:1.45px;}.cls-6{stroke-width:1.71px;}.cls-7{stroke-width:1.35px;}.cls-8{fill:#5b5b5b;}.cls-9{fill:url(#linear-gradient);}.cls-10{stroke:#5b5b5b;}.cls-10,.cls-11{stroke-width:1.3px;}.cls-12{fill:url(#linear-gradient-2);}.cls-14{fill:url(#linear-gradient-3);}.cls-15{fill:url(#linear-gradient-4);}.cls-16{fill:url(#linear-gradient-5);}.cls-17{fill:url(#linear-gradient-6);}.cls-18{fill:url(#linear-gradient-7);}.cls-19{fill:url(#linear-gradient-8);}</style><linearGradient id="linear-gradient" x1="60.39" y1="149.76" x2="61.17" y2="79.29" gradientUnits="userSpaceOnUse"><stop offset="0" stop-opacity="0.4"/><stop offset="1" stop-opacity="0.4"/></linearGradient><linearGradient id="linear-gradient-2" x1="66.04" y1="126.28" x2="66.17" y2="115.45" xlink:href="#linear-gradient"/><linearGradient id="linear-gradient-3" x1="95.93" y1="126.28" x2="96.05" y2="115.45" xlink:href="#linear-gradient"/><linearGradient id="linear-gradient-4" x1="125.81" y1="126.28" x2="125.93" y2="115.45" xlink:href="#linear-gradient"/><linearGradient id="linear-gradient-5" x1="155.69" y1="126.28" x2="155.81" y2="115.45" xlink:href="#linear-gradient"/><linearGradient id="linear-gradient-6" x1="66.04" y1="141.64" x2="66.17" y2="130.8" xlink:href="#linear-gradient"/><linearGradient id="linear-gradient-7" x1="95.93" y1="141.64" x2="96.05" y2="130.8" xlink:href="#linear-gradient"/><linearGradient id="linear-gradient-8" x1="125.81" y1="141.64" x2="125.93" y2="130.8" xlink:href="#linear-gradient"/><symbol id="char" data-name="char" viewBox="0 0 5.63 6.78"><rect class="cls-1" x="0.41" y="0.41" width="4.8" height="5.95" rx="0.77"/></symbol></defs><g id="Layer_2" data-name="Layer 2"><g id="tooltip"><rect class="cls-2" x="20.51" width="177.19" height="66.65" rx="5.31"/><path class="cls-3" d="M33.09,14.19H192.6V5.72a2.26,2.26,0,0,0-2.31-2.2H33.09Z"/><polygon class="cls-4" points="50.83 14.78 50.79 62 66.48 62 66.48 14.7 50.83 14.78"/><polygon class="cls-4" points="67.66 14.78 67.62 62 83.31 62 83.31 14.7 67.66 14.78"/><path class="cls-5" d="M190.82,4H27.19A2.24,2.24,0,0,0,24.7,6.55v54c0,1.91,1.12,2.13,2.49,2.13H190.82c1.38,0,2.5-.22,2.5-2.13v-54A2.24,2.24,0,0,0,190.82,4Z"/><line class="cls-6" x1="24.82" y1="37.71" x2="193.05" y2="37.71"/><line class="cls-6" x1="24.82" y1="49.39" x2="193.05" y2="49.39"/><line class="cls-7" x1="50.7" y1="62.65" x2="50.7" y2="4.33"/><line class="cls-7" x1="33.05" y1="62.7" x2="33.05" y2="4.64"/><line class="cls-7" x1="66.58" y1="62.74" x2="66.58" y2="4.06"/><line class="cls-7" x1="84.4" y1="62.79" x2="84.4" y2="4.15"/><line class="cls-7" x1="97.89" y1="62.89" x2="97.89" y2="4.06"/><line class="cls-7" x1="111.83" y1="62.98" x2="111.83" y2="4.15"/><line class="cls-7" x1="129.94" y1="62.98" x2="129.94" y2="4.15"/><line class="cls-7" x1="145.09" y1="62.98" x2="145.09" y2="4.15"/><line class="cls-7" x1="160.25" y1="62.98" x2="160.25" y2="4.15"/><line class="cls-7" x1="175.41" y1="62.98" x2="175.41" y2="4.15"/><line class="cls-6" x1="24.63" y1="14.66" x2="192.86" y2="14.66"/><line class="cls-6" x1="24.63" y1="26" x2="192.86" y2="26"/><rect class="cls-8" x="38.3" y="170.85" width="143.04" height="5.45" rx="2.1"/><rect class="cls-9" x="41.12" y="77.98" width="39.28" height="76.1"/><rect class="cls-2" x="46.07" y="83.74" width="128.09" height="89.42"/><polygon class="cls-8" points="169.89 89.95 168.57 88.63 163.21 94 157.84 88.63 156.52 89.95 161.88 95.32 156.52 100.68 157.84 102 163.21 96.64 168.57 102 169.89 100.68 164.53 95.32 169.89 89.95"/><polyline class="cls-10" points="46.26 173.16 46.26 83.47 174.82 83.47 174.82 173.16"/><line class="cls-11" x1="174.14" y1="107.01" x2="46.9" y2="107.01"/><rect class="cls-12" x="52.71" y="115.34" width="26.78" height="11.51" rx="1.97"/><path class="cls-2" d="M53.16,118.41c-.33-.07-.67-.15-1-.24l-.29,1.11h0l.19-1.14c-.93-.25-1.84-.53-2.9-.87a60.71,60.71,0,0,1-20.38-11.6,62.24,62.24,0,0,1-4.89-4.72c-.42-.48-.82-1-1.16-1.41a32.36,32.36,0,0,1-4.53-9.35,25.83,25.83,0,0,1-.49-12.62A21.33,21.33,0,0,1,24,66.94a29.53,29.53,0,0,1,11.27-6.27,50.89,50.89,0,0,1,9.56-2l-2.74,7.86,4.57-4.08a33.41,33.41,0,0,1,9.22-5.25l4-1.53-4-1.44a35.69,35.69,0,0,1-8.54-4.41,34.71,34.71,0,0,1,8.59-5.08l4-1.65-4.07-1.33a36.33,36.33,0,0,1-8.35-3.93,35.12,35.12,0,0,1,8.25-5.06L59.56,31l-4.1-1.24a37.2,37.2,0,0,1-8.18-3.61,36.52,36.52,0,0,1,7.83-4.74L59,19.7l-4.09-1.22A33.38,33.38,0,0,1,45.32,14l-4.87-3.72L44,18.29a69.23,69.23,0,0,0-16.51,4.25A44.73,44.73,0,0,0,10.41,34.41,41.54,41.54,0,0,0,1.06,53.08a48.55,48.55,0,0,0,.13,20.74,63.88,63.88,0,0,0,20.74,34.75,59.87,59.87,0,0,0,11.79,8,47.59,47.59,0,0,0,11.16,4.58,53.64,53.64,0,0,0,13.65,1.79h1l.24-3.15c-2-.35-4-.75-6-1.19Zm-25.3-73L24,47.4l-.12.06c-.82.52-1.63,1.06-2.45,1.6l-1.05.7-1,.85c-.77.64-1.57,1.31-2.37,2A30.84,30.84,0,0,0,9.37,64.92a32.5,32.5,0,0,1,.53-4.11,28,28,0,0,1,7.54-14.2,38.48,38.48,0,0,1,14.11-8.68,62,62,0,0,1,10.73-2.81l1.34,3.28-.91,3.11a62.3,62.3,0,0,0-11,2.48ZM14,69.09a24.92,24.92,0,0,1,6.86-12.47A33.23,33.23,0,0,1,33.53,49.1a55.49,55.49,0,0,1,8.91-2.22l1.25,3.34-1.08,3.41a53.78,53.78,0,0,0-9,1.84A34.55,34.55,0,0,0,20.2,62.85a27.38,27.38,0,0,0-6.67,9.38A24.76,24.76,0,0,1,14,69.09Zm28-45.24,1.2,2.78-.91,3.16a68.57,68.57,0,0,0-12.62,3A42.42,42.42,0,0,0,13.51,42.7a32.31,32.31,0,0,0-6.19,8.57,35.93,35.93,0,0,1,7.26-13.21,40.74,40.74,0,0,1,15-10.53A61,61,0,0,1,42.05,23.85Z"/><path class="cls-13" d="M48.42,56.74a57.81,57.81,0,0,0-13.68,2.42,31.35,31.35,0,0,0-11.86,6.61A22.87,22.87,0,0,0,16.11,77.2a27.51,27.51,0,0,0,.51,13.42A35.5,35.5,0,0,0,23,102.69a43.76,43.76,0,0,0,10.24,9.23,55.17,55.17,0,0,0,12.51,6,88.08,88.08,0,0,0,13.7,3.34,51.76,51.76,0,0,1-14.19-1.73l-3.46-1.06-3.35-1.35c-1.11-.48-2.17-1.07-3.25-1.6a13.61,13.61,0,0,1-1.58-.89l-1.55-1a45.75,45.75,0,0,1-10.84-9.61A37.69,37.69,0,0,1,14.33,91.3a28.79,28.79,0,0,1-.6-14.66A25.28,25.28,0,0,1,21.27,64a32.77,32.77,0,0,1,12.79-7,60.33,60.33,0,0,1,14.27-2.27Z"/><path class="cls-13" d="M55.27,55.72a34.85,34.85,0,0,1-9.82-5.32l2,5.41-1.9,5.45A34.58,34.58,0,0,1,55.27,55.72Z"/><use width="5.63" height="6.78" transform="translate(55.84 117.68) scale(1.06)" xlink:href="#char"/><use width="5.63" height="6.78" transform="translate(55.89 52.33) scale(1.06)" xlink:href="#char"/><use width="5.63" height="6.78" transform="translate(55.89 39.93) scale(1.06)" xlink:href="#char"/><use width="5.63" height="6.78" transform="translate(55.89 28.56) scale(1.06)" xlink:href="#char"/><use width="5.63" height="6.78" transform="translate(55.89 17.05) scale(1.06)" xlink:href="#char"/><path class="cls-13" d="M48.43,44.49A66.77,66.77,0,0,0,33,47.6a35.2,35.2,0,0,0-13.24,7.89,26.75,26.75,0,0,0-7.29,13.26A32.67,32.67,0,0,0,13,84.06c2.68,10.06,9.16,19,17.45,25.37a62.67,62.67,0,0,0,29,11.88,48.21,48.21,0,0,1-15.93-2.55A51.83,51.83,0,0,1,10.72,84.68a33.79,33.79,0,0,1-.62-16.45,29,29,0,0,1,8-14.43c1-.95,2.1-1.82,3.16-2.72s2.3-1.54,3.47-2.27l3.69-1.88,3.84-1.46a69.22,69.22,0,0,1,16-3Z"/><path class="cls-13" d="M55.25,43.27a34.56,34.56,0,0,1-10-5l2.18,5.35L45.71,49.1A34.69,34.69,0,0,1,55.25,43.27Z"/><path class="cls-13" d="M48.21,32.7A84.91,84.91,0,0,0,39.47,34,63.91,63.91,0,0,0,31,36.44a40.11,40.11,0,0,0-14.7,9.06,29.49,29.49,0,0,0-8,15A39.28,39.28,0,0,0,9,77.7a58.64,58.64,0,0,0,18.66,29.16,61.88,61.88,0,0,0,31.79,14.45,47.25,47.25,0,0,1-17.67-3.4A56.19,56.19,0,0,1,26.3,108.5,64.05,64.05,0,0,1,14.24,94.9,56.91,56.91,0,0,1,6.71,78.3,40.24,40.24,0,0,1,6,60a31.94,31.94,0,0,1,8.67-16.17,41.27,41.27,0,0,1,15.62-9.51A73.1,73.1,0,0,1,48,30.72Z"/><path class="cls-13" d="M55,31.31a34.51,34.51,0,0,1-10.08-4.82l2.3,5.3-1.63,5.55A34.5,34.5,0,0,1,55,31.31Z"/><path class="cls-13" d="M47.67,21.4A83.68,83.68,0,0,0,38.09,23a57.31,57.31,0,0,0-9.18,3A42.56,42.56,0,0,0,13.35,37,37,37,0,0,0,5,53.93,47.16,47.16,0,0,0,5.06,73a60,60,0,0,0,19.29,32.77,63.37,63.37,0,0,0,16.32,10.34,69.9,69.9,0,0,0,18.81,5.19A54.9,54.9,0,0,1,40,117.69,57.23,57.23,0,0,1,22.94,107.4,62.23,62.23,0,0,1,2.71,73.49a48,48,0,0,1-.12-20.07,39.48,39.48,0,0,1,9-18A43.79,43.79,0,0,1,28,24a61,61,0,0,1,9.57-3,82.63,82.63,0,0,1,9.87-1.54Z"/><path class="cls-13" d="M54.46,20a34.56,34.56,0,0,1-10.1-4.79l2.32,5.3-1.61,5.55A34.33,34.33,0,0,1,54.46,20Z"/><rect class="cls-14" x="82.59" y="115.34" width="26.78" height="11.51" rx="1.97"/><rect class="cls-15" x="112.48" y="115.34" width="26.78" height="11.51" rx="1.97"/><rect class="cls-16" x="142.36" y="115.34" width="26.78" height="11.51" rx="1.97"/><rect class="cls-17" x="52.71" y="130.69" width="26.78" height="11.51" rx="1.97"/><rect class="cls-18" x="82.59" y="130.69" width="26.78" height="11.51" rx="1.97"/><rect class="cls-19" x="112.48" y="130.69" width="26.78" height="11.51" rx="1.97"/></g></g></svg>