<svg xmlns="http://www.w3.org/2000/svg" xmlns:xlink="http://www.w3.org/1999/xlink" viewBox="0 0 257.64 185.66"><defs><style>.cls-1{fill:#05778c;stroke-width:2.2px;}.cls-1,.cls-15{stroke:#fff;stroke-miterlimit:10;}.cls-2{fill:#fff;}.cls-14,.cls-3{fill:#592349;}.cls-3{opacity:0.15;isolation:isolate;}.cls-4{fill:#473f4a;}.cls-15,.cls-5,.cls-6,.cls-7{fill:none;}.cls-5,.cls-6,.cls-7{stroke:#adadad;stroke-miterlimit:47.96;}.cls-5{stroke-width:2.13px;}.cls-6{stroke-width:2.41px;}.cls-7{stroke-width:1.91px;}.cls-8{fill:#f2f2f2;}.cls-9{fill:#622262;}.cls-10{fill:#333;}.cls-11{fill:url(#linear-gradient);}.cls-12{fill:url(#linear-gradient-2);}.cls-13{fill:#5b5b5b;}</style><linearGradient id="linear-gradient" x1="155.24" y1="33" x2="155.51" y2="8.28" gradientUnits="userSpaceOnUse"><stop offset="0" stop-opacity="0.4"/><stop offset="1" stop-opacity="0.4"/></linearGradient><linearGradient id="linear-gradient-2" x1="141.3" y1="44.57" x2="141.54" y2="23.45" xlink:href="#linear-gradient"/><symbol id="check" data-name="check" viewBox="0 0 34.76 34.37"><rect class="cls-1" x="1.1" y="1.1" width="32.56" height="32.17" rx="1.28"/><polygon class="cls-2" points="25.42 8 13.16 20.27 9.4 16.5 5.44 20.45 13.16 28.17 17.11 24.22 29.38 11.96 25.42 8"/></symbol></defs><g id="Layer_2" data-name="Layer 2"><g id="tooltip"><rect class="cls-2" x="47.89" y="43.59" width="209.75" height="100.3" rx="5.31"/><use width="34.76" height="34.37" transform="translate(56.4 82.74) scale(0.32)" xlink:href="#check"/><use width="34.76" height="34.37" transform="translate(56.4 99.49) scale(0.32)" xlink:href="#check"/><use width="34.76" height="34.37" transform="translate(56.4 115.53) scale(0.32)" xlink:href="#check"/><path class="cls-3" d="M70.18,63.63H250.44v-12a3.19,3.19,0,0,0-3.26-3.11h-177Z" transform="translate(0 0)"/><polygon class="cls-4" points="250.65 81.06 70.59 80.93 70.59 128.26 251.07 128.26 250.65 81.06"/><path class="cls-5" d="M247.93,49.27H57.33c-1.95,0-3.53.94-3.53,3.83v81.8c0,2.88,1.58,3.22,3.53,3.22h190.6c1.94,0,3.52-.34,3.52-3.22V53.08C251.44,50.2,249.87,49.27,247.93,49.27Z" transform="translate(0 0)"/><line class="cls-6" x1="53.98" y1="96.85" x2="251.07" y2="96.85"/><line class="cls-6" x1="53.98" y1="113.35" x2="251.07" y2="113.35"/><line class="cls-6" x1="53.98" y1="128.7" x2="251.07" y2="128.7"/><line class="cls-7" x1="95.04" y1="138.26" x2="95.04" y2="49.7"/><line class="cls-7" x1="70.13" y1="137.7" x2="70.13" y2="50.14"/><line class="cls-7" x1="117.48" y1="137.7" x2="117.48" y2="49.33"/><line class="cls-7" x1="142.64" y1="137.98" x2="142.64" y2="49.45"/><line class="cls-7" x1="161.7" y1="137.84" x2="161.7" y2="49.33"/><line class="cls-7" x1="181.38" y1="137.28" x2="181.38" y2="49.45"/><line class="cls-7" x1="206.96" y1="137.28" x2="206.96" y2="49.45"/><line class="cls-7" x1="228.36" y1="137.7" x2="228.36" y2="49.45"/><line class="cls-6" x1="53.71" y1="64.3" x2="250.8" y2="64.3"/><line class="cls-6" x1="53.71" y1="80.32" x2="250.8" y2="80.32"/><path class="cls-8" d="M62.42,164.31a124.07,124.07,0,0,1-22-8.8,60.12,60.12,0,0,1-9.66-6.38,35.81,35.81,0,0,1-7.57-8.24A16.9,16.9,0,0,1,21,136.14a8.6,8.6,0,0,1-.08-4.52A7.46,7.46,0,0,1,23.41,128a14.5,14.5,0,0,1,4.45-2.47,38.66,38.66,0,0,1,11.09-2,76.79,76.79,0,0,1,8.2,0l-3.62,7.36,4.76-3.3a33.44,33.44,0,0,1,9.81-4.11l3.93-1-3.62-1.81a33.84,33.84,0,0,1-8.68-6.15L47.48,112l.8-.69a33.31,33.31,0,0,1,9.32-5.13l3.8-1.39-3.79-1.42a33.33,33.33,0,0,1-9.28-5.19L46.71,96.8l2.45-2.27a33.51,33.51,0,0,1,9.14-5.44l3.75-1.52-3.83-1.29a33.67,33.67,0,0,1-9.46-4.87l-4.48-3.68L47.4,85.6c-1.88.13-3.93.32-6,.6a82.75,82.75,0,0,0-9.27,1.68,54.41,54.41,0,0,0-17.69,7.35A35.92,35.92,0,0,0,7,101.72a29.94,29.94,0,0,0-5.16,8.63A28.84,28.84,0,0,0,0,120.23,33.54,33.54,0,0,0,1.41,130a45,45,0,0,0,9.49,16.82A59.16,59.16,0,0,0,25.63,159a61.76,61.76,0,0,0,17.65,7,60.51,60.51,0,0,0,13.44,1.49c1.78,0,3.57-.08,5.37-.22l7.66-.64ZM47.78,118.4a81.42,81.42,0,0,0-9.1-.18A42.74,42.74,0,0,0,26,120.46a20,20,0,0,0-6.06,3.37,12.88,12.88,0,0,0-4.22,6.27,13.32,13.32,0,0,0-.19,6.5c-.16-.34-.32-.69-.46-1a17.83,17.83,0,0,1-1-12.69c1.19-3.7,4.19-7.07,8.46-9.49a43.6,43.6,0,0,1,13.27-4.62,78,78,0,0,1,10.94-1.33l-2.82,7.7,2.56-2.22ZM45.74,96,44,94.4l1.19,3.31-.25.75.39-.35,1.52,4.25a85,85,0,0,0-12,1.24,52.53,52.53,0,0,0-7.63,1.91,39.71,39.71,0,0,0-7.35,3.22,26.78,26.78,0,0,0-6.54,5.09,20.45,20.45,0,0,0-4.41,7.35A19.06,19.06,0,0,0,8,125.39a20,20,0,0,0,0,4.31,25.69,25.69,0,0,0,1,4.77,34.52,34.52,0,0,1-2.31-5.94,26,26,0,0,1,.33-16.26,24.84,24.84,0,0,1,4.18-7,31.29,31.29,0,0,1,6.31-5.52,50.81,50.81,0,0,1,16-6.73,88.23,88.23,0,0,1,14.09-2.32Z" transform="translate(0 0)"/><path class="cls-9" d="M50.9,88.87A97.52,97.52,0,0,0,33,91.52a53,53,0,0,0-16.42,6.93,32.22,32.22,0,0,0-6.62,5.8,26.25,26.25,0,0,0-4.44,7.48A27.54,27.54,0,0,0,5.16,129a41.35,41.35,0,0,0,8.6,15.44,55.43,55.43,0,0,0,13.73,11.45,69.4,69.4,0,0,0,16.54,7A82.92,82.92,0,0,0,62,165.74a60,60,0,0,1-35.58-8.05A58,58,0,0,1,12,145.88a43.93,43.93,0,0,1-9.18-16.26,32.25,32.25,0,0,1-1.35-9.38,27.54,27.54,0,0,1,1.75-9.37,28.4,28.4,0,0,1,4.89-8.18,34.56,34.56,0,0,1,7.13-6.21,53,53,0,0,1,17.2-7.14,81.11,81.11,0,0,1,9.12-1.65c3.06-.42,6.13-.63,9.2-.8Z" transform="translate(0 0)"/><path class="cls-9" d="M57.74,87.7a34.89,34.89,0,0,1-9.93-5.13l2.13,5.37-1.8,5.49A34.5,34.5,0,0,1,57.74,87.7Z" transform="translate(0 0)"/><path class="cls-9" d="M50.21,105.77a89.28,89.28,0,0,0-14.72,1.53,45,45,0,0,0-13.73,4.79c-4.15,2.36-7.71,5.89-9.14,10.33a19.42,19.42,0,0,0,1.07,13.75,37.46,37.46,0,0,0,8.38,11.77,55.42,55.42,0,0,0,11.81,8.68A84,84,0,0,0,62,165.74a58.77,58.77,0,0,1-29.12-7.24,57.39,57.39,0,0,1-12.36-8.93,39.54,39.54,0,0,1-9-12.45,24.84,24.84,0,0,1-2.05-7.57,18.75,18.75,0,0,1,.85-7.9,18.87,18.87,0,0,1,4.1-6.81A24.92,24.92,0,0,1,20.58,110a38.9,38.9,0,0,1,7.07-3.1,50.3,50.3,0,0,1,7.42-1.85,91.31,91.31,0,0,1,15.1-1.33Z" transform="translate(0 0)"/><path class="cls-9" d="M57.08,104.82a34.62,34.62,0,0,1-9.74-5.47l1.94,5.44-2,5.42A34.53,34.53,0,0,1,57.08,104.82Z" transform="translate(0 0)"/><path class="cls-9" d="M50.8,122.19A88.36,88.36,0,0,0,38.85,122a40.61,40.61,0,0,0-11.51,2.11,16.28,16.28,0,0,0-4.9,2.73,8.93,8.93,0,0,0-2.93,4.36,10.16,10.16,0,0,0,.07,5.33,18.53,18.53,0,0,0,2.31,5.15,37.5,37.5,0,0,0,7.9,8.61,63.1,63.1,0,0,0,9.9,6.55A128.64,128.64,0,0,0,62,165.74a63.19,63.19,0,0,1-23.28-7,64.14,64.14,0,0,1-10.33-6.68A40.06,40.06,0,0,1,19.88,143a20.83,20.83,0,0,1-2.67-5.82,12.13,12.13,0,0,1-.05-6.63A11.36,11.36,0,0,1,20.89,125a18.52,18.52,0,0,1,5.62-3.11,41,41,0,0,1,12.23-2.16,90.78,90.78,0,0,1,12.24.44Z" transform="translate(0 0)"/><path class="cls-9" d="M57.74,122a34.66,34.66,0,0,1-9.11-6.48L50,121.12l-2.55,5.18A34.74,34.74,0,0,1,57.74,122Z" transform="translate(0 0)"/><path class="cls-2" d="M108,52.85l-.19-.45A34.8,34.8,0,0,1,105,38.79a35.14,35.14,0,1,1,7.51,21.68l-.32-.39L74.69,78.16Z" transform="translate(0 0)"/><path class="cls-10" d="M140.14,4.31A34.49,34.49,0,1,1,113,60.08l-.62-.79-.91.44L80,74.9,108,53.64l.77-.58-.37-.9A34.5,34.5,0,0,1,140.14,4.31m0-1.26a35.75,35.75,0,0,0-32.95,49.6L69.36,81.42,112,60.86a35.74,35.74,0,1,0,28.1-57.81Z" transform="translate(0 0)"/><use width="34.76" height="34.37" transform="translate(142.77 0)" xlink:href="#check"/><path class="cls-11" d="M142.77,7.86h23.44A1.75,1.75,0,0,1,168,9.62V34.44a0,0,0,0,1,0,0H142.77a0,0,0,0,1,0,0V7.86A0,0,0,0,1,142.77,7.86Z"/><use width="34.76" height="34.37" transform="translate(128.82 11.53)" xlink:href="#check"/><path class="cls-12" d="M128.82,23.11h23.44A1.75,1.75,0,0,1,154,24.86V45.79a0,0,0,0,1,0,0H128.82a0,0,0,0,1,0,0V23.11A0,0,0,0,1,128.82,23.11Z"/><use width="34.76" height="34.37" transform="translate(116.35 25.67)" xlink:href="#check"/><rect class="cls-13" x="69.64" y="178.95" width="164.98" height="6.71" rx="3.36"/><path class="cls-14" d="M83.24,156h136.9a8.95,8.95,0,0,1,8.95,8.95V182.4a0,0,0,0,1,0,0H74.29a0,0,0,0,1,0,0V164.93A8.95,8.95,0,0,1,83.24,156Z"/><path class="cls-15" d="M74.29,182.4V164.93a9,9,0,0,1,8.95-9h136.9a8.94,8.94,0,0,1,8.94,9V182.4" transform="translate(0 0)"/><rect class="cls-2" x="79.78" y="161.33" width="44.84" height="12.47" rx="6.23"/><rect class="cls-2" x="128.2" y="161.33" width="44.84" height="12.47" rx="6.23"/><rect class="cls-2" x="177.04" y="161.33" width="44.84" height="12.47" rx="6.23"/><polygon class="cls-14" points="120.71 166.75 118.32 166.75 118.32 164.35 116.97 164.35 116.97 166.75 114.57 166.75 114.57 168.1 116.97 168.1 116.97 170.49 118.32 170.49 118.32 168.1 120.71 168.1 120.71 166.75"/><polygon class="cls-14" points="217.54 169.12 215.85 167.42 217.54 165.73 216.59 164.77 214.9 166.47 213.2 164.77 212.25 165.73 213.94 167.42 212.25 169.12 213.2 170.07 214.9 168.38 216.59 170.07 217.54 169.12"/><path class="cls-14" d="M167.69,164.81h-6.14v1.7h-2.33v4h6.14v-1.69h2.33Zm-3,5.15h-4.8v-2.85h1.66v1.75h3.14Zm0-1.7h-2.47v-1.15h2.47Zm2.33,0h-1.66v-1.75h-3.14v-1.1H167Z" transform="translate(0 0)"/></g></g></svg>