<svg xmlns="http://www.w3.org/2000/svg" xmlns:xlink="http://www.w3.org/1999/xlink" viewBox="0 0 121.65 143.57"><defs><style>.cls-1{fill:#fff;}.cls-2,.cls-3,.cls-4{fill:none;}.cls-2,.cls-3{stroke:#adadad;stroke-miterlimit:47.96;}.cls-2{stroke-width:2.75px;}.cls-3{stroke-width:2.12px;}.cls-4{stroke:#622262;stroke-miterlimit:10;stroke-width:1.09px;}.cls-5{fill:#474747;}.cls-6{fill:url(#linear-gradient);}.cls-7{fill:url(#linear-gradient-2);}.cls-8{fill:#adadad;}.cls-9{fill:#828282;}.cls-10{fill:#ddd;}.cls-11{fill:#757575;}.cls-12{fill:#622262;}</style><linearGradient id="linear-gradient" x1="61.85" y1="80.98" x2="61.85" y2="61" gradientUnits="userSpaceOnUse"><stop offset="0" stop-opacity="0.4"/><stop offset="1" stop-opacity="0"/></linearGradient><linearGradient id="linear-gradient-2" x1="-8.73" y1="9.18" x2="10.81" y2="9.18" gradientTransform="matrix(0.54, -0.45, 4.52, 5.41, -7.31, 0.37)" gradientUnits="userSpaceOnUse"><stop offset="0" stop-opacity="0"/><stop offset="1" stop-opacity="0.4"/></linearGradient><symbol id="item" data-name="item" viewBox="0 0 166.92 21.11"><rect class="cls-1" x="1.93" y="0.91" width="163.73" height="19.47"/><rect class="cls-2" x="1.38" y="1.38" width="164.17" height="18.36"/><line class="cls-3" x1="42.03" y1="20.32" x2="42.03" y2="1.35"/><line class="cls-3" x1="14.31" y1="19.76" x2="14.31" y2="0.6"/><line class="cls-3" x1="66.98" y1="20.14" x2="66.98" y2="0.88"/><line class="cls-3" x1="100.86" y1="19.58" x2="100.86" y2="0.6"/><line class="cls-3" x1="119.97" y1="20.14" x2="119.97" y2="0.6"/><line class="cls-3" x1="142.72" y1="19.58" x2="142.72" y2="1.16"/></symbol></defs><g id="Layer_2" data-name="Layer 2"><g id="tooltip"><path class="cls-1" d="M83.23,16.9l-.31,0C63.4,15.27,50.61,19.05,44.78,28.1L27.09,0,11.25,9.89l1.35,2.22L0,22.65l25.86,30.7a16.46,16.46,0,0,0-1.11,7.31c-.38,5.3.27,9.69,2,13.4l3.57,40.22a69.36,69.36,0,0,0,1.19,8.19c.84,13.51,17.9,20.95,33.62,21.1h.25c21.06-1.86,32-8.4,33.45-20.06l5-50c.2-.43.39-.83.55-1.22,7.82-2.72,12.75-6.89,15-12.71l2-8.83,0-.19C123.26,38.17,112.13,23,83.23,16.9Z"/><ellipse class="cls-4" cx="65.14" cy="59.36" rx="37.39" ry="21.9"/><path class="cls-5" d="M28,58c-.58,4.06,1,9.11,3,14.33,14.31,12.33,33.25,13.86,54.88,9.11l11.44-7.63L99.46,67,75.18,60.3,48.67,47S30.53,45.21,28,58Z"/><path class="cls-6" d="M29.34,54.09c-5.1,13,5,19.78,19.92,25.29,18.45,4.11,34.21,2,46.43-7.64L71.76,69.79Z"/><use width="166.92" height="21.11" transform="translate(14.07 14.1) rotate(49.96) scale(0.65)" xlink:href="#item"/><polygon class="cls-7" points="65.86 75.97 55.55 84.86 3.53 22.96 14.12 14.1 65.86 75.97"/><use width="166.92" height="21.11" transform="translate(26.26 3.48) rotate(58.04) scale(0.65)" xlink:href="#item"/><path class="cls-8" d="M27.79,61.3,28,68.09,29.76,73,34,119.86c.17,14.1,13.41,19.09,32,20.32,15.52-.47,30-7.32,29.76-19.44l4.89-47.18L101.91,70l-5.72,1.59c-7.48,6.3-18.69,9.11-32,9.94C42.58,79.83,30.88,72.87,27.79,61.3Z"/><path class="cls-9" d="M94.6,84.5l.49,1.82-3.84,38.41-.86,1.73,1,0,.67-.48,4.3-41.41s.25-1,.06-1.35-.81-.11-.81-.11Z"/><polygon class="cls-9" points="49.97 91.11 51.23 93.02 53.68 132.06 52.22 132.58 53.92 133.95 55.18 133.28 55.11 131.46 53.18 91.71 52.39 91 49.97 91.11"/><path class="cls-9" d="M65.36,92.72l.65.6a1.08,1.08,0,0,1,.43,1.08l.29,39-2,1,2.33.76,1.12-.75.1-1.61-.25-39.94-.84-.8Z"/><path class="cls-9" d="M81.43,91l.72.29a9.82,9.82,0,0,1,.13,1.42l-2.11,38.48a.42.42,0,0,1-.38.42l-.82.26-1.71,1.6,4.13-1L83.9,91.25c-.27-.76-.64-1.32-1.24-1.37Z"/><polygon class="cls-9" points="38.71 85.75 42.01 127.56 42.74 128.92 43.51 129.14 39.9 86.53 38.71 85.75"/><path class="cls-10" d="M63.67,93.82l-.12,39.57a.85.85,0,0,0,.52.9l3.16.94-3.71,0a1.29,1.29,0,0,1-1.18-1.6l.14-40.3a1.2,1.2,0,0,1,.91-1.08l3.41,0-2.63.89C63.71,93.25,63.71,93.21,63.67,93.82Z"/><path class="cls-10" d="M48.45,91.8l2.17,39.09a.83.83,0,0,0,.52.89l2.31,1.76-3-.66a1.28,1.28,0,0,1-1.17-1.6L47.25,91A1.21,1.21,0,0,1,48.16,90l4.23,1L49,91.11C48.48,91.23,48.48,91.18,48.45,91.8Z"/><path class="cls-10" d="M35.64,85.35l4.79,39.16a2.47,2.47,0,0,0,.44,1.32l1.77,2.78-2.32-1.74a2.06,2.06,0,0,1-1.35-2L34.72,84c.06-.55-.09-.77.45-.94l4.41,3L36,84.79C35.64,84.75,35.62,84.76,35.64,85.35Z"/><path class="cls-10" d="M79.56,92.21l-2.23,39.25c0,.46-.11.64.24.79l1.4-.36-1.92,1.79c-.85-.16-1-.71-.89-1.66L78,91.94a1.2,1.2,0,0,1,.91-1.08L82.55,90l-1.12,1-1.28.42A.85.85,0,0,0,79.56,92.21Z"/><path class="cls-10" d="M92.61,87l-3.7,38.69c-.11.69-.11.71.2.92l2.1-.24L88,129c-.85-.16-.66-.35-.54-1.3l3.68-40.78a1.47,1.47,0,0,1,.89-1.31l3.48-2.34a16.05,16.05,0,0,1-2.19,2.46A1.53,1.53,0,0,0,92.61,87Z"/><path class="cls-8" d="M45.2,34.67c4.21-12.34,20-17.88,41.88-13.23,20.79,5,33.78,15.94,30.93,29.78-1.37,16-15,21.73-37.54,19.88-21.74-5-37.35-13-36.55-28.63Z"/><path class="cls-9" d="M45.9,42.93c-.72,1.15-1.25,2.51.05,5.9s6.37,8.63,6.37,8.63l4.84,5.4-4.35-3.3a33.58,33.58,0,0,1-5.28-5.19,35.51,35.51,0,0,1-3.3-6.65q-1-4.71.49-7.82Z"/><path class="cls-10" d="M90.53,36.88l-1.19,4.34a1.4,1.4,0,0,0,.18,1.18l1.6,2a.64.64,0,0,1-.19.84l-.7.9L93,44.45l-2.28-2.6,1-5.85-10.6-8.61,9.08,8.49A.74.74,0,0,1,90.53,36.88Z"/><path class="cls-10" d="M113.38,60c-4.14,5.84-16.26,11-38.48,9.63,14.51,3.38,35,2.93,41.74-12l.44-3.09-4,4Z"/><ellipse class="cls-4" cx="81.78" cy="42.4" rx="21.9" ry="37.39" transform="translate(23.4 113.66) rotate(-78.08)"/><path class="cls-4" d="M44.92,35.93l-1.09,5.21C41.33,53,55.69,66,75.89,70.29S114.5,68.42,117,56.58l1.35-5.72"/><path class="cls-4" d="M96.76,71c-6.71,5.85-18.68,10.23-31.62,10.23-20.65,0-37.39-9.81-37.39-21.91A13.66,13.66,0,0,1,29,53.66c0-.07.16-.14.22-.2"/><polygon class="cls-11" points="76.61 33.84 79.61 32.88 80.29 31.43 78.08 29.79 76.61 33.84"/><path class="cls-12" d="M75,32.34c.72,0,1,.47,1.44.8l0,0c.09,0,.1,0,.07,0a.58.58,0,0,0,.1-.16l0,.07L77,31l.25-1a1,1,0,0,1,.5-.72.74.74,0,0,1,.6,0,1,1,0,0,1,.35.23l3.21,2.81,3.19,2.82,1.6,1.41c.13.13.24.21.42.38a1.81,1.81,0,0,1,.39.62,2.42,2.42,0,0,1,0,1.3c-.16.74-.35,1.39-.52,2.1l-.26,1a8.46,8.46,0,0,0-.22.94c0,.25,0,.34.3.6l.72.79L89,45.81l.33.35a.17.17,0,0,0,.13.05l.08,0,.23-.12.48-.24,1.9-1,.41-.22a.14.14,0,0,0,.07-.11.17.17,0,0,0,0-.14l-.32-.35-1.45-1.56,0,0v0a2.07,2.07,0,0,1-.35-.68,1.3,1.3,0,0,1,0-.91l0,.09.64-3c.1-.5.2-1,.33-1.52a1.35,1.35,0,0,0,0-.29c0-.06,0,0,0,0a4.29,4.29,0,0,0-.49-.38h0l0,0L80.62,26.85h0l.5.11-3.53,1-.11,0h0a.62.62,0,0,0-.23.13.53.53,0,0,0-.15.25v0L76.65,30l-.21.77a1.39,1.39,0,0,1-.26.59.75.75,0,0,1-.65.27.82.82,0,0,1-.44-.19h0l0,0-1.17-1.12-.06-.06v0s0,0,.07,0a.4.4,0,0,0,.36-.08c.06-.07.06-.13,0-.07l0,.24-.19.95L73,31l.18-.94,0-.24a.92.92,0,0,1,.24-.5.74.74,0,0,1,.81-.17,1,1,0,0,1,.43.34l-.07-.07,1.18,1.12-.06,0s0,0-.08,0a.38.38,0,0,0-.3.12c0,.06,0,0,0-.16l.2-.78L76,28.11v.05a1.54,1.54,0,0,1,.49-.85,1.45,1.45,0,0,1,.91-.43l-.12,0,3.53-1,.28-.08.22.19h0l10.34,8.86,0,0a3.69,3.69,0,0,1,.7.6,1.1,1.1,0,0,1,.21.7,2.53,2.53,0,0,1-.08.47c-.14.52-.23,1-.34,1.51l-.65,3v.05l0,0a.33.33,0,0,0,0,.24,1.22,1.22,0,0,0,.19.35l0,0L93,43.38c.13.15.21.22.39.44a1.2,1.2,0,0,1,.21.88,1.15,1.15,0,0,1-.49.76,1.88,1.88,0,0,1-.29.16l-.24.12-1.91,1-.47.24-.24.12a1.36,1.36,0,0,1-.44.11,1.15,1.15,0,0,1-.85-.29c-.19-.19-.26-.28-.39-.43l-1.43-1.57-.72-.79a2.17,2.17,0,0,1-.39-.55,1.6,1.6,0,0,1-.15-.73,7.5,7.5,0,0,1,.25-1.15l.26-1c.17-.68.36-1.39.51-2a1.65,1.65,0,0,0,0-.8c-.06-.21-.25-.35-.55-.61l-1.6-1.42-3.19-2.84-3.18-2.84c-.1-.11-.11,0,0-.08s0,0,0,.16l-.28,1-.56,2v.07a1,1,0,0,1-.47.51.71.71,0,0,1-.45,0,1.13,1.13,0,0,1-.33-.15l0,0h0C75.57,33.29,75.06,33.06,75,32.34Z"/><path class="cls-4" d="M27.74,60.65V66c0,12.1,16.74,21.9,37.39,21.9,18.31,0,33.55-7.71,36.77-17.89"/><path class="cls-4" d="M100.79,72.61l-5,49.78c0,9.91-13.71,18-30.63,18s-30.62-8-30.62-18L33.67,118,29.76,73"/><rect class="cls-4" x="62.03" y="91.9" width="6.56" height="43.53" rx="1.44"/><path class="cls-4" d="M75.63,132.69l2-41a1.31,1.31,0,0,1,1-1.2l3.65-1a1.31,1.31,0,0,1,1.65,1.34l-2.12,41a1.32,1.32,0,0,1-1,1.2l-3.53,1A1.32,1.32,0,0,1,75.63,132.69Z"/><path class="cls-4" d="M86.93,128.47l3.85-42.06a.81.81,0,0,1,.33-.58l4.21-3a.81.81,0,0,1,1.26.74L92.15,125.8a.84.84,0,0,1-.31.55l-3.61,2.83A.81.81,0,0,1,86.93,128.47Z"/><path class="cls-4" d="M55.19,132.69l-2-41a1.29,1.29,0,0,0-1-1.2l-3.66-1a1.32,1.32,0,0,0-1.65,1.34l2.13,41a1.32,1.32,0,0,0,1,1.2l3.53,1A1.32,1.32,0,0,0,55.19,132.69Z"/><path class="cls-4" d="M43.89,128.47,40,86.41a.79.79,0,0,0-.34-.58l-4.2-3a.81.81,0,0,0-1.26.74l4.43,42.19a.82.82,0,0,0,.3.55l3.62,2.83A.81.81,0,0,0,43.89,128.47Z"/></g></g></svg>