<svg xmlns="http://www.w3.org/2000/svg" xmlns:xlink="http://www.w3.org/1999/xlink" viewBox="0 0 208.7 143.93"><defs><style>.cls-1,.cls-3{fill:#fff;}.cls-1{stroke:#7c7c7c;stroke-miterlimit:10;stroke-width:0.82px;}.cls-2{fill:#7c7c7c;}.cls-4{fill:#592349;}.cls-5,.cls-6,.cls-7{fill:none;stroke:#adadad;stroke-miterlimit:47.96;}.cls-5{stroke-width:2.98px;}.cls-6{stroke-width:3.35px;}.cls-7{stroke-width:2.65px;}</style><symbol id="image" data-name="image" viewBox="0 0 20.3 17.21"><path class="cls-1" d="M17.62,16.79H2.34A1.92,1.92,0,0,1,.41,14.87V2.34A1.92,1.92,0,0,1,2.34.41H17.62a2.37,2.37,0,0,1,2.26,2.08l-.33,12.38A1.92,1.92,0,0,1,17.62,16.79Z"/><polygon class="cls-2" points="17.14 12.63 13.7 4.59 9.71 9.88 7.02 7.18 2.71 12.63 17.14 12.63"/><circle class="cls-2" cx="4.2" cy="4.92" r="1.41"/></symbol></defs><g id="Layer_2" data-name="Layer 2"><g id="tooltip"><rect class="cls-3" width="208.7" height="143.93" rx="11.09"/><polygon class="cls-4" points="24.72 38.47 24.72 70.42 202.56 70.42 202.56 38.61 24.72 38.47"/><path class="cls-5" d="M197.69,6.56H11.52C8.82,6.56,6.63,7.9,6.63,12V131.73c0,4.09,2.19,4.57,4.89,4.57H197.69c2.7,0,4.89-.48,4.89-4.57V12C202.56,7.87,200.39,6.56,197.69,6.56Z"/><line class="cls-6" x1="6.88" y1="103.59" x2="202.05" y2="103.59"/><line class="cls-7" x1="66.53" y1="136.34" x2="66.53" y2="6.84"/><line class="cls-7" x1="23.01" y1="136.44" x2="23.01" y2="7.03"/><line class="cls-7" x1="101.39" y1="136.53" x2="101.39" y2="7.68"/><line class="cls-7" x1="131.01" y1="136.63" x2="131.01" y2="7.12"/><line class="cls-7" x1="154.86" y1="136.81" x2="154.86" y2="7.12"/><line class="cls-7" x1="183.24" y1="137" x2="183.24" y2="7.12"/><line class="cls-6" x1="6.5" y1="38.61" x2="201.68" y2="38.61"/><line class="cls-6" x1="6.5" y1="70.97" x2="201.68" y2="70.97"/><use width="20.29" height="17.21" transform="translate(34.95 12.75)" xlink:href="#image"/><use width="20.29" height="17.21" transform="translate(34.95 45.96)" xlink:href="#image"/><use width="20.29" height="17.21" transform="translate(34.95 78.19)" xlink:href="#image"/><use width="20.29" height="17.21" transform="translate(34.95 111.12)" xlink:href="#image"/></g></g></svg>