<svg xmlns="http://www.w3.org/2000/svg" xmlns:xlink="http://www.w3.org/1999/xlink" viewBox="0 0 337.19 161.61"><defs><style>.cls-1,.cls-10{fill:#fff;}.cls-2{fill:#aaa;}.cls-3{fill:#666;}.cls-4{fill:#cecece;}.cls-5{fill:#e5e5e5;}.cls-6{fill:#aa30d8;}.cls-11,.cls-12,.cls-7,.cls-9{fill:none;}.cls-7{stroke:#aa30d8;stroke-width:0.25px;}.cls-10,.cls-11,.cls-12,.cls-7{stroke-miterlimit:10;}.cls-8{fill:#7c7c7c;}.cls-11,.cls-9{stroke:#7c7c7c;}.cls-9{stroke-linecap:round;stroke-linejoin:round;stroke-width:4.06px;}.cls-10{stroke:#595a5a;stroke-width:1.22px;}.cls-11{stroke-width:1.5px;}.cls-12{stroke:#939393;stroke-width:1.88px;}.cls-13{fill:#aebc29;}.cls-13,.cls-14,.cls-15,.cls-16,.cls-17{fill-rule:evenodd;}.cls-14{fill:#bbdcb0;}.cls-15{fill:#592248;}.cls-16{fill:#9a5ba1;}.cls-17{fill:#e7ce17;}.cls-18{fill:url(#linear-gradient);}.cls-19{fill:url(#linear-gradient-2);}.cls-20{fill:url(#linear-gradient-3);}.cls-21{fill:url(#linear-gradient-4);}</style><linearGradient id="linear-gradient" x1="-15088.33" y1="-15121.62" x2="-15081.07" y2="-15121.62" gradientTransform="matrix(0, -1, -1, 0, -15002.09, -15005.03)" gradientUnits="userSpaceOnUse"><stop offset="0"/><stop offset="1" stop-opacity="0"/></linearGradient><linearGradient id="linear-gradient-2" x1="-15090.08" y1="-15097.49" x2="-15082.81" y2="-15097.49" gradientTransform="matrix(0, 1, 1, 0, 15216.99, 15176.3)" xlink:href="#linear-gradient"/><linearGradient id="linear-gradient-3" x1="-15088.33" y1="-15130.74" x2="-15081.07" y2="-15130.74" xlink:href="#linear-gradient"/><linearGradient id="linear-gradient-4" x1="-15090.08" y1="-15088.37" x2="-15082.81" y2="-15088.37" gradientTransform="matrix(0, 1, 1, 0, 15216.99, 15176.3)" xlink:href="#linear-gradient"/></defs><g id="Layer_2" data-name="Layer 2"><g id="tooltip"><rect class="cls-1" width="337.12" height="161.61"/><rect class="cls-1" x="0.07" y="3.65" width="337.12" height="157.02"/><path class="cls-2" d="M33.4,113.71a23.29,23.29,0,0,0-4.16,5.7L25.87,130.9l6.86-3-1.24-1-.86-2.77,1-.81,3.12.66.91,5.29.93,6.23.42.61h2.63l1.17,2.61-3.64,1.6.37,2.66.42.44,2.1-.45,2.56,1.88-.45,1.2-4,1.63.45,2.88,6.72.7,76.28,8,4.65.68,1.71-1.91.48-.34.47-1.5,2-1.39.11-.42-2.69.89-1.85.41-5-1.07A2.62,2.62,0,0,1,120.4,153l.92-1.35,2.49-.59,1.87.38.8-.68,2.48-.83.66-.82-3,.86-1.78-.29-3.38-1.43-.18-1.15L126,145l2.61-1,1.92-2.53.82-2.06.51-2.12-.23-.81,0-2-.21-1-1-1.29,2.14-4.07,2.38-1.79,5.56,5.44,16.88-20.86-14.21-10.06-2.13.27-74-.69Z"/><path class="cls-3" d="M35.12,114.62c11.78,1.8,51.83,2,85.93,2.6l2.43-.81,16.62-14.49-73.72-.33-8.1,3.31-23.12,8.95Z"/><path class="cls-4" d="M101.12,53.07a11.9,11.9,0,0,1-5.66,3.09,21.59,21.59,0,0,1-8.69,3.77q-5.55,3.62-6.89,8.41a6.36,6.36,0,0,0-3,4,8.37,8.37,0,0,0-3,5.79,10.29,10.29,0,0,0-2.37,6.81l-2.66,6.19c-1.86,1.65-3.19,3.44-3,5.65-1.16,1-1.72,2.88-2.25,4.76l3.68-.87,69,0c.06-1.71,1.31-3.6,3.53-5.63l.53.51.1,3.44.62,1.79,1,.19h1.28L158,111.18,140.67,132,135,126.81a3.69,3.69,0,0,0-2.43,1.66l-1.57,1.1c-.84,1.2-.34,2.22.82,3.75l.61,3.66-1.55,4.53-2,2.72-2.72,1a7.85,7.85,0,0,0-4.25,1.25,2.89,2.89,0,0,0-.17,2.11l5.06,1.63,3-.86-.43.66-3.16,1.33-.16.32-2.1-.24-2.55.71c-1.29,1.38-.78,2.21.52,2.8l4.5.88a3.88,3.88,0,0,0,2.13-.28l2.41-1,.38.25-2.28,1.55-.56,1.84-.74.39-1.35,1.59L122.6,160a2.18,2.18,0,0,0,.77,1.58l3.09-.43,2.34-.19,1.18-.59,4.51-2.91,1.81-6.23,1.79-3.44,2-4.81,6.83-9a8.45,8.45,0,0,0,4.36.92l1.94-1.76c2.27-2.66,3.92-5.26,3.85-7.71a6.4,6.4,0,0,0,1.71-4.43l2.75-6.61c.8-3.56,1.32-6.92.7-9.44.23-2.38,0-4.47-1.14-6a11.34,11.34,0,0,0-2.68-5.45l-1.67-3.3,0-1-2.86-4.3c1.09-1.42,1-3-.07-4.72-.64-1.64-1.41-2.73-2.37-2.91-.47-5.71-1.51-10.94-4.25-14.75l-.76-.14c-.36-1.92-3.54-3.43-7.12-4.88-5.5-2.09-10.27-4.41-13.48-7.19l-.68-5.18-1.5-.4a15.68,15.68,0,0,0,3-10.76,31.75,31.75,0,0,0-.33-9.17,17.35,17.35,0,0,0-3.43-13c1-2.24,0-4.39-2.57-6.5-3.58-2-6.07-2.19-8.43-1.11a12.38,12.38,0,0,0-5,.23c-1.74.46-3.16,1.85-4.52,3.28A12.24,12.24,0,0,0,97,16c-1.26,3.39-.24,7,.92,10.81-1.61,1.8-1.42,3.81-.92,5.66.68,2.25,3,3.06,4.66,3.93l2.18,8.86-.1,1.54-.49.48A15.06,15.06,0,0,0,101.12,53.07Z"/><polygon class="cls-2" points="117.34 21.02 119.33 25.39 119.92 27.69 118.18 26.78 116.64 26.78 117.27 24.27 116.33 22.21 115.67 21.37 112.84 21.06 110.23 22.14 110.68 20.95 112.6 20.54 116.23 21.02 117.34 21.02"/><path class="cls-2" d="M120.72,29.15c-.13-.39-1.18-.49-2.06-.39a10.7,10.7,0,0,0-2.18.59s-1.29.75-1.34,1.17.32.57.62.55c.54,0,3-.48,3.76-.63a3,3,0,0,0,1.28-.57A1.7,1.7,0,0,0,120.72,29.15Z"/><path class="cls-5" d="M118.7,21.76a6.61,6.61,0,0,1,.72,1.92c.25,1.14,1.24,1.69,1.83,3.12.49,1.2-.51,3.1-.51,3.1a10.33,10.33,0,0,0,1.43-1.14,1.74,1.74,0,0,0,.42-1.31l-1.85-4-.28-1.7.48-2.08L118,19.8Z"/><path class="cls-1" d="M113.87,34.09,119.12,33l1.21.61,1.13-.38L123,34.34A49.89,49.89,0,0,1,113.87,34.09Z"/><path class="cls-2" d="M118.59,46l-4.17,1.49a11.84,11.84,0,0,0-5.83,3.26c-2.31-2.25-3.82-6-4.1-10.17a20.92,20.92,0,0,0,8.35,4.82A18.72,18.72,0,0,0,118.59,46Z"/><path class="cls-2" d="M107.88,8.13l.32,0S108.09,8.11,107.88,8.13Z"/><path class="cls-2" d="M109.13,5.82a10.56,10.56,0,0,0-1.63-.14,24.75,24.75,0,0,1,2.66-1.54l-3.11.25-3.6,1.55A20.7,20.7,0,0,0,98,12.48a26.2,26.2,0,0,0-2,6.1c-.52,3.07,1.45,8.18,1.45,8.18-1.31,1.07-1.64,4.09-.7,5.88a11.26,11.26,0,0,0,2.11,2.93l2.49,1,2.14,8.23-.2,1.92a14.61,14.61,0,0,0-2.34,5.59A9.26,9.26,0,0,1,95.26,56a25.09,25.09,0,0,1-8.7,3.76A14.17,14.17,0,0,0,79.89,68l-2.56,2.21-.7,1.93-2.09,2.2-.91,3.59-1.9,3-.47,3.79-2.74,6.44-2.44,3.19-.42,2.35c-.81-.32-2.56,4.18-2.07,4.44a33.48,33.48,0,0,0,3.28-.81,10.43,10.43,0,0,1,.3-3.26,4.22,4.22,0,0,1,1.77-2.23l1.34-3.58a26.61,26.61,0,0,0,2.45-5.68,10,10,0,0,0,.42-4.16,7.94,7.94,0,0,0,2.19-2.34c.36-1,.94-2.65.94-2.65A4.82,4.82,0,0,1,79.63,72a8.66,8.66,0,0,0,2.14-2.6c.93-1.7,3.38-5.65,3.38-5.65l1.18-1.63a4.33,4.33,0,0,1,4-1.86C92,59,95.27,57.05,97.15,57.5l3.46-2.32a35.09,35.09,0,0,1,2.58-6.31l1.14-1.16,1.4,4.56a16.36,16.36,0,0,0-.07-3.68c-.28-1.46-3.89-11.74-3.89-11.74l.44-.81a8.9,8.9,0,0,1-3.36-1.72,7.54,7.54,0,0,1-1.77-3s-.55-2.37.19-3.36a4.38,4.38,0,0,1,1.88-1.37S96.78,22,97.7,18.23a19.24,19.24,0,0,1,5.48-9.09,25,25,0,0,1,4.7-1A11.37,11.37,0,0,0,104,8.4c.32-.29.64-.56,1-.82a20.39,20.39,0,0,1,3.5-.58,21,21,0,0,1,2.95.12A6.2,6.2,0,0,0,109.13,5.82Z"/><path class="cls-5" d="M110.61,61.25a22.45,22.45,0,0,0-2.32,6.94l-5.63,22.5-.56,9.7-1-.26s.58-7.63.83-9.44,5.39-22.62,5.39-22.62C108.08,65.11,109.08,62.83,110.61,61.25Z"/><polygon class="cls-2" points="122.94 45.19 122.55 48.12 123.87 46.81 124.22 45.86 123.81 45.25 122.94 45.19"/><path class="cls-2" d="M89.18,100.32S85.77,97,85.47,95.43s2.44-3.21,2.44-3.21c-1.29-1.35-1.7-2.61-.78-4.74l-.85-1.21a6.12,6.12,0,0,0,.88-3.12,12.44,12.44,0,0,0-1.49-4.21,2.06,2.06,0,0,0,.81-1.4c.19-1-1.5-3.67-1.5-3.67-.39,1.14-1,1.87-1.61,1.54.17,1.18-.54,2.53-1.43,2.61,1.15,1.33.66,5.27-.7,5.73,1.6,1.64.91,6-.42,7.25l-1.26,1.85L78,93.27l1.69.31a1.57,1.57,0,0,1,.11,2.93c1,.71,1.43,3,.52,3.84l7.15.14-.13-.19Z"/><path class="cls-2" d="M140.26,83.94s2.6-2,4.83-2.11c3.7-.21,8.22-.79,8.22-1.26-.4,1.72-4.15,1.83-7.8,2Z"/><path class="cls-5" d="M132.87,128.34a3.9,3.9,0,0,1,.07,5.24l.78-.28,1.2-.8.07-2.43-1-1.41Z"/><path class="cls-2" d="M136.18,85.52c-1.28-.81-2.07-1.74-1.57-3a9.09,9.09,0,0,0-2.6-3c-1-1.07-3.78-3-5.82-3.09A12.9,12.9,0,0,0,120.1,78c5.41-.87,12,1.31,11.39,3.72a12.56,12.56,0,0,0-.12,2.83,6.64,6.64,0,0,0-3.83,1.57l4.33-.67a7.43,7.43,0,0,0-.14,2,15.28,15.28,0,0,0,.81,3.32,18.37,18.37,0,0,0-5.36-.69,27.11,27.11,0,0,0-9.36,2.37l9.44-1.07,4.28.26-.07.06a18,18,0,0,0,0,3.44,18,18,0,0,0,1,2.26l-1.28,3.16,4.87-.09.42-2.23,2.69-3.52C137.82,91.44,136.42,88.14,136.18,85.52Z"/><path class="cls-5" d="M143.26,135.22a13.5,13.5,0,0,1-4.46,2l-3.72,4.23-3.54,5a11.87,11.87,0,0,1-4.72,1.75l-4.21-.37-.51.76,4.52,1.39,4.89-1.56,1.05-.94,2.77-4.47.21,1.1-.81,3.16-1.86,2.56-2.4,2.18L127,153l-5.44-.49c-1.26.71-1.08,1.41-.12,2.12l5,1.07,1.85-.41,4.64-1.89.9-2s.93-.58,1.05-.18a43.68,43.68,0,0,1-1.47,5.19l-5,3a5.18,5.18,0,0,1-2.55,1l-2.68.32-.07.41,2.87-.27,2.65-.21,5.57-3.5L135.8,151l3.41-6.87,6.18-9.52,2.82-3.21S144.89,133.92,143.26,135.22Z"/><path class="cls-5" d="M162.1,104.85a8.54,8.54,0,0,0-1-6s-.48-2.13-.65-2.63a10.43,10.43,0,0,0-1.95-3l-2-3.31s.5-.26-.15-1.37-2.66-3.89-2.66-3.89l.64-1.09c.37-.82.28-1.9-.47-3.37l-1.53-2.54L151.24,77l-1.4-8.15a24.2,24.2,0,0,0-2.86-6.6l-.74.07L146,60.92l-1.73-1.37-15.39-6.82-3-2.3L125,44.9l-1.77-.33L125,41.45l1.38-4.94.12-7.67-.48-4.4.18-3-.1-2.32-1.57-4.75-2-3c1.21-.74.91-2.8-.9-5.13a18.47,18.47,0,0,0-5.42-2.63,15.29,15.29,0,0,1,4.34,2.8c1.67,1.7,1.4,2.65.48,4.5,1.77,2.12,3.34,5.92,4.39,9.55l-.71-.13c.32.4.17,1.17,0,1.8a1.63,1.63,0,0,1,.4,1A5.44,5.44,0,0,1,125,24l.47,4.84s.09,5-.19,7.36a18.57,18.57,0,0,1-1.36,4.62,28,28,0,0,1-1.67,2.91l-.66.76A14.84,14.84,0,0,1,115.94,46a14.87,14.87,0,0,0,6.45-.84l1.42.11c.71.51.5,1.06,0,1.62l0,1.19L116.4,55l1.7,6.93,2.6-4.72,2.75-3.63A91.21,91.21,0,0,1,138.38,61a26.78,26.78,0,0,0,6,2,30.78,30.78,0,0,1,4.1,8.33c.65,2.45.68,3.65,1.16,5.09a2.87,2.87,0,0,0,2,1.78,6.77,6.77,0,0,1,1.65,2.34,3.58,3.58,0,0,1,.48,1.89,5.36,5.36,0,0,1-1.24,2.25s2.23,3.31,2.63,4.07a4.12,4.12,0,0,1,.36,1.79l1.92,3.25a13.15,13.15,0,0,1,1.71,2.12,18.75,18.75,0,0,1,.8,1.85c.42,1.07.2,1.36.2,1.36a6.23,6.23,0,0,1,1,2.22,10.56,10.56,0,0,1,.18,1.9c0,2.71-.57,4.72-1.75,5.77l.72,1.25c.62,2.15-.39,4.67-1.67,7.26l-.88,2.07a5.63,5.63,0,0,1-.31,2,2.8,2.8,0,0,1-1.06,1c-.88-1.81-1.8-3.48-2.91-4.26a7.53,7.53,0,0,1-3.6,7.78,11,11,0,0,1,.85,8.67l4.77-4.65,1.74-5.31a6.76,6.76,0,0,0,1.31-4.32l3.28-8.14.67-6Z"/><path class="cls-6" d="M110.15,23.11a2.24,2.24,0,0,1,1-1,4.3,4.3,0,0,1,1.3-.51,7.33,7.33,0,0,1,2.76-.07h0l0,0a3.12,3.12,0,0,1,.78,1c.1.19.18.38.26.57a.6.6,0,0,0,.41.32.48.48,0,0,1-.6-.23c-.1-.18-.2-.35-.31-.52a4,4,0,0,0-.74-.9l.08,0h0a9.19,9.19,0,0,0-2.67,0,4.3,4.3,0,0,0-1.24.45C110.84,22.54,110.55,22.86,110.15,23.11Z"/><path class="cls-6" d="M121.88,11.05c.38-.15.68.15.94.31a3,3,0,0,1,.69.69,12.47,12.47,0,0,1,1,1.62A21.53,21.53,0,0,1,126,17.13a15,15,0,0,1,.7,3.72c0,1.33-.29,2.48-.37,3.72v0c.19,1.18.45,2.29.56,3.52s.1,2.37.11,3.56,0,2.37-.07,3.55c0,.6,0,1.17-.1,1.79a10.71,10.71,0,0,1-.36,1.79,15.43,15.43,0,0,1-1.39,3.33,11.44,11.44,0,0,1-2.15,2.9,3.46,3.46,0,0,1-1.65.86,12.13,12.13,0,0,1-1.78.26,13.6,13.6,0,0,1-3.55-.12c1.18-.11,2.35-.09,3.52-.23a5,5,0,0,0,3.13-1.12,12.23,12.23,0,0,0,2-2.84,15.05,15.05,0,0,0,1.26-3.22,13.89,13.89,0,0,0,.42-3.43l.09-3.53c0-1.17,0-2.35,0-3.52s-.25-2.33-.35-3.5h0v0c0-.63,0-1.25,0-1.87a14.09,14.09,0,0,0,.08-1.81,14,14,0,0,0-.74-3.53A21.42,21.42,0,0,0,123.91,14a14.13,14.13,0,0,0-.93-1.55l-.51-.72C122.3,11.46,122.1,11.34,121.88,11.05Z"/><path class="cls-6" d="M120.46,21.74a10,10,0,0,0,.63,1.75c.29.54.62,1.09.94,1.63a11.13,11.13,0,0,1,.88,1.72,2.26,2.26,0,0,1,.16.55,3,3,0,0,1,0,.52,1.49,1.49,0,0,1-.45.93,7.63,7.63,0,0,0-.14-.93l-.07-.44a2.75,2.75,0,0,0-.13-.35c-.27-.54-.58-1.1-.84-1.67s-.55-1.14-.79-1.76A4.07,4.07,0,0,1,120.46,21.74Z"/><path class="cls-6" d="M119.75,29.26a7.54,7.54,0,0,1-1.06,0,1.21,1.21,0,0,0-.47.14c-.17.05-.27.2-.49.2,0-.23.25-.28.4-.39a1.45,1.45,0,0,1,.55-.15A2.31,2.31,0,0,1,119.75,29.26Z"/><path class="cls-6" d="M118.37,27.57a1.26,1.26,0,0,0-.8-.25,6.72,6.72,0,0,0-.84.19h0a1,1,0,0,0-.43.49,1.2,1.2,0,0,0-.07.68,1.7,1.7,0,0,0,1,1.09,1.42,1.42,0,0,1-1.27-1,1.33,1.33,0,0,1,0-.9,1.43,1.43,0,0,1,.6-.71h0a3,3,0,0,1,1-.09,1,1,0,0,1,.47.19A1.29,1.29,0,0,1,118.37,27.57Z"/><path class="cls-6" d="M119.3,29.76a5.24,5.24,0,0,0,1.49,0,2.51,2.51,0,0,0,1.06-.87h0l.11-.14.14.07h0l.33.38-.5,0h0l.25-.07h0a2,2,0,0,1-1.3,1.05A2.88,2.88,0,0,1,119.3,29.76Z"/><path class="cls-6" d="M122,29.92a5.5,5.5,0,0,0,.55-.52,1.21,1.21,0,0,0,.31-.52,4,4,0,0,0,.17-1.45,2.22,2.22,0,0,1,.3.74,1.89,1.89,0,0,1,0,.82,1.1,1.1,0,0,1-.58.69A2,2,0,0,1,122,29.92Z"/><path class="cls-6" d="M121.49,23.87a2.12,2.12,0,0,1,1.05-1.69,3.46,3.46,0,0,1,2-.3h0l0,0h0a1.26,1.26,0,0,1,.59,1A2.81,2.81,0,0,1,125,24,7.54,7.54,0,0,0,125,23a1.08,1.08,0,0,0-.55-.75h0l.08,0a3.68,3.68,0,0,0-1.84.21A2.77,2.77,0,0,0,121.49,23.87Z"/><path class="cls-6" d="M121.76,24.25c.54-.06,1.09-.05,1.64-.07a5.62,5.62,0,0,1,.82,0A1.14,1.14,0,0,0,125,24a1,1,0,0,1-.76.33,5.61,5.61,0,0,1-.82,0C122.85,24.33,122.3,24.33,121.76,24.25Z"/><path class="cls-6" d="M115.62,22.78a1.7,1.7,0,0,1,0,.78.74.74,0,0,1-.21.41.5.5,0,0,1-.27.1H115c-.5,0-1,.06-1.5.08A6.64,6.64,0,0,1,112,24a5.2,5.2,0,0,1-.75-.2,1,1,0,0,1-.63-.46,1.63,1.63,0,0,1,.75.1,5.88,5.88,0,0,0,.7.16,8.81,8.81,0,0,0,1.46.09c.49,0,1,0,1.49,0h.18s0,0,.08,0a.54.54,0,0,0,.16-.23A6.41,6.41,0,0,0,115.62,22.78Z"/><path class="cls-6" d="M113.21,34.14a12.71,12.71,0,0,1,1.92-.44h0c1.33-.4,2.66-.78,4-1.12l.09,0,.1,0,1.16.56-.26,0,1.15-.37.14,0,.11.07L123.25,34l-.12,0,.88.36-.94.18h0l-.08-.06-1.65-1.14.25,0-1.12.47-.14.06-.13-.08-1.1-.68.19,0c-1.34.36-2.69.66-4,1h0A12.94,12.94,0,0,1,113.21,34.14Z"/><path class="cls-6" d="M115.85,28.3c-.59,1-1.24,1.91-1.9,2.83a8.21,8.21,0,0,1-1.09,1.33,7.77,7.77,0,0,1-1.32,1.11c.31-.49.69-.91,1-1.36s.68-.88,1-1.33C114.33,30,115.07,29.13,115.85,28.3Z"/><path class="cls-6" d="M122.61,29.57a3.09,3.09,0,0,1,.89.91,5.59,5.59,0,0,1,.62,1.12,6.64,6.64,0,0,1,.41,1.21,3.62,3.62,0,0,1,.13,1.27,9.36,9.36,0,0,1-.45-1.17c-.13-.39-.29-.78-.43-1.16A7.66,7.66,0,0,0,122.61,29.57Z"/><path class="cls-6" d="M103.35,35.92a20,20,0,0,0,1.09,3.47,7.38,7.38,0,0,0,1.94,2.87,13.5,13.5,0,0,0,3.06,1.81c1.11.49,2.24.94,3.4,1.34a17.22,17.22,0,0,1-3.59-.86,10.73,10.73,0,0,1-3.32-1.76,6.92,6.92,0,0,1-2-3.2A11,11,0,0,1,103.35,35.92Z"/><path class="cls-6" d="M122.26,11.37a4,4,0,0,0,.66-1.92A5.2,5.2,0,0,0,122,7.56a8.8,8.8,0,0,0-3.32-2.88,8.62,8.62,0,0,0-4.34-.91c-1.53.08-3.09.29-4.65.48a20.53,20.53,0,0,1,4.6-1.15,8.35,8.35,0,0,1,4.79.74A9.39,9.39,0,0,1,122.85,7a5.88,5.88,0,0,1,1.07,2.34,2.86,2.86,0,0,1-.23,1.39c-.17.4-.36.75-.54,1.09Z"/><path class="cls-5" d="M111,4.4a10,10,0,0,1,4,2.9c.81,1,2.13,2.56,2.13,2.56s-.6-1.38-1.34-2.67C113.89,3.76,111,4.4,111,4.4Z"/><path class="cls-5" d="M109.21,8.15a12.78,12.78,0,0,1,4.28,1c1.17.6,3,1.59,3,1.59S115.33,9.65,114,8.48C112.84,7.51,109.21,8.15,109.21,8.15Z"/><path class="cls-6" d="M117.17,9.86a17.38,17.38,0,0,0-2.37-3.39,6.23,6.23,0,0,0-3.36-2.07,7.48,7.48,0,0,0-2-.05,17.78,17.78,0,0,0-2,.26,16.2,16.2,0,0,0-3.94,1.33,6.14,6.14,0,0,1,1.78-1.18,14,14,0,0,1,2-.76,12.57,12.57,0,0,1,2.12-.39,7.48,7.48,0,0,1,2.21.07,5,5,0,0,1,2,.89,11.3,11.3,0,0,1,1.58,1.5,7.48,7.48,0,0,1,1.25,1.77A6.57,6.57,0,0,1,117.17,9.86Z"/><path class="cls-6" d="M112.81,11a23.41,23.41,0,0,0-3,.12,8.18,8.18,0,0,0-2.82.77,1.91,1.91,0,0,0-.85,1,10.44,10.44,0,0,1-.68,1.41,1.62,1.62,0,0,1-.35.34l-.36.2c-.24.11-.47.22-.71.31a9.74,9.74,0,0,1-1.49.43l1.29-.82c.22-.13.43-.26.63-.4l.29-.21a1.2,1.2,0,0,0,.17-.21c.21-.36.32-.88.57-1.37a2.6,2.6,0,0,1,1.19-1.22,8,8,0,0,1,3.09-.59A15.63,15.63,0,0,1,112.81,11Z"/><path class="cls-6" d="M104.3,5.89a24.33,24.33,0,0,0-4.45,4,17,17,0,0,0-2.79,5.18,15.06,15.06,0,0,0-.74,2.84,16.17,16.17,0,0,0,.05,2.95,20.46,20.46,0,0,0,.49,2.92c.23,1,.55,1.91.78,2.89l-.46.17a16.94,16.94,0,0,1-1.54-5.91,16.78,16.78,0,0,1,0-3.09,16.09,16.09,0,0,1,.77-3,14.44,14.44,0,0,1,3-5.3A19.12,19.12,0,0,1,104.3,5.89Z"/><path class="cls-6" d="M101,27.56a4.07,4.07,0,0,0-1.55-.87,3.38,3.38,0,0,0-1.7.28h0a2.72,2.72,0,0,0-1.12,1.43,3.89,3.89,0,0,0-.14,1.89A7.61,7.61,0,0,0,97.76,34a10.65,10.65,0,0,0,1.46,1.35A7.6,7.6,0,0,0,100,36a2.4,2.4,0,0,0,2.57-.38,3,3,0,0,0,.77-1.81,2.89,2.89,0,0,1-.53,2,2.24,2.24,0,0,1-2,.91,2.43,2.43,0,0,1-1.12-.25,7.14,7.14,0,0,1-.86-.66,9.71,9.71,0,0,1-1.58-1.41,7.85,7.85,0,0,1-1.35-4,4.49,4.49,0,0,1,.23-2.17,3.12,3.12,0,0,1,1.47-1.65h0a3.56,3.56,0,0,1,1.89-.06A4.45,4.45,0,0,1,101,27.56Z"/><path class="cls-6" d="M113.89,34.56a5.85,5.85,0,0,1,2.28-.05l1.11.08.53,0h.57l2.26.06,1.11,0c.3.06.66.2,1-.07a1.17,1.17,0,0,1-1,.84h-1.15l-2.25-.06h-.56a5.54,5.54,0,0,1-.59,0c-.39,0-.76-.1-1.14-.15A5.32,5.32,0,0,1,113.89,34.56Z"/><path class="cls-6" d="M122.4,36.44a4.07,4.07,0,0,1-1,.61,3.28,3.28,0,0,1-.58.17,3.83,3.83,0,0,1-.59,0,13.07,13.07,0,0,1-2.24-.28,21.27,21.27,0,0,1,2.25-.06,2.81,2.81,0,0,0,1-.12C121.67,36.65,122,36.53,122.4,36.44Z"/><path class="cls-6" d="M100.28,29.2a.65.65,0,0,1,.2.49,2.56,2.56,0,0,1-.18.5,1,1,0,0,0,0,.76,2.77,2.77,0,0,0,.48.71,2.77,2.77,0,0,0,.77.39h0l.18.08,0,.12-.24,1-.16-1,.16.2h0a2.08,2.08,0,0,1-1-.37,2.28,2.28,0,0,1-.61-.92,1.57,1.57,0,0,1-.1-.58A1,1,0,0,1,100,30c.13-.15.27-.23.3-.35A.61.61,0,0,0,100.28,29.2Z"/><path class="cls-6" d="M100.37,33.08a3.15,3.15,0,0,1-1.26.11,1.68,1.68,0,0,1-.64-.22,1.2,1.2,0,0,1-.47-.51,5.71,5.71,0,0,1-.84-2.39,3.37,3.37,0,0,1,.1-1.3,1.88,1.88,0,0,1,.81-1.06,1.46,1.46,0,0,1,.65-.24,1.22,1.22,0,0,1,.68.16,2.45,2.45,0,0,1,.9.88,6.19,6.19,0,0,0-1-.63,1,1,0,0,0-1,.13,1.92,1.92,0,0,0-.68,2,6.42,6.42,0,0,0,.76,2.23,1.15,1.15,0,0,0,.32.41,1.43,1.43,0,0,0,.5.23A5.68,5.68,0,0,0,100.37,33.08Z"/><path class="cls-6" d="M113.37,21.78a1.25,1.25,0,0,0-.33,1,.85.85,0,0,0,1,.87c.44,0,.78-.1.82-.76a1.65,1.65,0,0,0-.27-1.15Z"/><path class="cls-6" d="M123.46,22s-.25.17-.22.93.37.88.69.88.56-.11.59-.76-.21-1-.21-1Z"/><path class="cls-6" d="M121.7,19.85c-.27.31-.1.52.16.88a20.48,20.48,0,0,1,3.31-.14,1.12,1.12,0,0,1,.74.82s.09-1.33-.73-1.49A17.5,17.5,0,0,0,121.7,19.85Z"/><path class="cls-6" d="M116.87,19.75a.74.74,0,0,1-.1,1s-4.92-.68-6.3.1a2.59,2.59,0,0,0-.85.85,1.74,1.74,0,0,1,.91-1.24C112.83,19.49,116.87,19.75,116.87,19.75Z"/><path class="cls-6" d="M115.31,23.59a3.28,3.28,0,0,1,.7,0,1.43,1.43,0,0,1,.64.28,1.51,1.51,0,0,0-.64-.16,3.56,3.56,0,0,0-.65.13Z"/><path class="cls-6" d="M116.52,10.77c-.52-.45-1.06-.88-1.6-1.3a5.41,5.41,0,0,0-1.67-1,8.37,8.37,0,0,0-4-.31A8.56,8.56,0,0,1,113.36,8a1.38,1.38,0,0,1,.26.06,1,1,0,0,1,.27.16,4.87,4.87,0,0,1,.43.33c.26.23.51.47.76.71C115.57,9.77,116.06,10.26,116.52,10.77Z"/><path class="cls-6" d="M114.63,11l-1.57-.64c-.52-.2-1-.44-1.55-.6a7.11,7.11,0,0,0-1.62-.23l-1.69-.15a8.89,8.89,0,0,1,1.7-.22,4.68,4.68,0,0,1,1.73.21A11.77,11.77,0,0,1,114.63,11Z"/><path class="cls-5" d="M113.63,4.56s3.54,1.31,4,3.43c.29,1.28.71,2.87.71,2.87a13,13,0,0,0-.09-2.66C117.85,4.94,113.63,4.56,113.63,4.56Z"/><path class="cls-6" d="M118.37,10.86a12.82,12.82,0,0,0-.18-2.56A4.12,4.12,0,0,0,117,6.18,6.69,6.69,0,0,0,114.88,5a23.59,23.59,0,0,0-2.44-.74l0-.24a13.92,13.92,0,0,1,2.54.57,11.35,11.35,0,0,1,1.22.47,4.23,4.23,0,0,1,1.15.73,4.22,4.22,0,0,1,1,2.46A12.45,12.45,0,0,1,118.37,10.86Z"/><path class="cls-5" d="M117.68,5.51s1.73,1.58,1.81,2.9a13.6,13.6,0,0,1-.14,2.71,3.88,3.88,0,0,0,.76-2.64C120,6.92,117.68,5.51,117.68,5.51Z"/><path class="cls-6" d="M119.35,11.12a7.77,7.77,0,0,0,.55-1.6A2.63,2.63,0,0,0,119.85,8,4.44,4.44,0,0,0,119,6.61a7.2,7.2,0,0,0-1.28-1.1,5.06,5.06,0,0,1,1.5.88,4.13,4.13,0,0,1,1,1.44,2.28,2.28,0,0,1,.21.9,3.21,3.21,0,0,1-.2.89A5,5,0,0,1,119.35,11.12Z"/><path class="cls-6" d="M103.7,15.41a9.35,9.35,0,0,1,1.07,1.68l.45.88a1,1,0,0,1-.29,1.06l-1.31,1.49c-.2.24-.47.52-.61.73a1.38,1.38,0,0,0-.2.81,11.27,11.27,0,0,0,.6,3.82c.4,1.25.84,2.49,1.31,3.72h0l.07.18-.16.07c-.78.32-1.56.65-2.35.95l2.17-1.3-.09.25h0Q103.61,27.91,103,26a11.44,11.44,0,0,1-.65-4,1.77,1.77,0,0,1,.32-1.07c.26-.32.47-.49.7-.75l1.38-1.42c.22-.22.38-.5.26-.72l-.47-.87A9.54,9.54,0,0,1,103.7,15.41Z"/><path class="cls-6" d="M101.17,36.41a7.57,7.57,0,0,1,.86,2.21c.24.75.44,1.51.66,2.27.44,1.52.83,3,1.3,4.55s.92,3,1.3,4.54.73,3.07,1,4.64c-.61-1.47-1.12-3-1.61-4.46s-.91-3-1.32-4.54-.88-3-1.32-4.54c-.22-.76-.45-1.51-.65-2.27a8.3,8.3,0,0,1-.45-2.33Z"/><path class="cls-6" d="M103.4,44.51a16.7,16.7,0,0,1,.07,3.87,14.54,14.54,0,0,1-.74,3.8c0-1.31.17-2.56.22-3.84l.2-3.82Z"/><path class="cls-6" d="M122.87,44.79a2.11,2.11,0,0,1,0,.93c0,.31,0,.61-.09.91a6.18,6.18,0,0,1-.43,1.78l-.24,0a6.51,6.51,0,0,1,.1-1.82c0-.3.1-.59.15-.89a3.35,3.35,0,0,1,.21-.87Z"/><path class="cls-6" d="M123.11,44.25a4.34,4.34,0,0,1,1,0,2.73,2.73,0,0,1,.54.11.82.82,0,0,1,.58.49,15.12,15.12,0,0,1,.36,2,32.41,32.41,0,0,1,.22,3.94h0v0l0,.06a7.89,7.89,0,0,1-1.06,1.49l-1.14,1.44c-.75,1-1.5,1.92-2.21,2.91a22.15,22.15,0,0,0-1.86,3.12L117.77,63h0l-.15.27-.08-.3-2-7h0v0a.28.28,0,0,0-.32-.26.44.44,0,0,0-.39.29h0a27.27,27.27,0,0,1-1.4,2.46,3.74,3.74,0,0,1-1.12.91,6.18,6.18,0,0,1-1.28.59,11.15,11.15,0,0,0,1.19-.73,3.59,3.59,0,0,0,1-.93c.48-.78.9-1.63,1.33-2.45h0a.78.78,0,0,1,.69-.5.62.62,0,0,1,.45.14.64.64,0,0,1,.22.43v0l1.92,7.06-.23,0h0l1.67-3.26a22.5,22.5,0,0,1,1.85-3.18c.71-1,1.45-2,2.19-2.94L124.39,52a7.18,7.18,0,0,1,1.22-1.37l0,.08h0c-.14-1.3-.28-2.6-.49-3.87a12.44,12.44,0,0,0-.44-1.87.87.87,0,0,0-.17-.09l-.42-.1c-.3-.05-.62-.08-.94-.11Z"/><path class="cls-2" d="M106.18,59.92a11.43,11.43,0,0,0-1.85,3c-.84,1.83-6.07,23.45-7.16,28.09a46,46,0,0,0-1.33,9.58l1,0,.69-5.69a254.43,254.43,0,0,1,8.43-31.13l1.85-2.62Z"/><path class="cls-2" d="M101.54,60.4l1.62-4.91.55-.52,2.14,3.46,1.63,1.27.6.93-1,1.09s-1.78-2.35-2.59-2.27S102,62.34,102,62.34C101.27,62.24,101.15,61.56,101.54,60.4Z"/><path class="cls-6" d="M101.67,62.16a.44.44,0,0,1-.41-.27,1.31,1.31,0,0,1-.12-.51,3.64,3.64,0,0,1,.13-1c.17-.63.38-1.24.57-1.86l.6-1.84c.1-.31.2-.62.32-.92s.11-.3.21-.49.2-.24.35-.4a.51.51,0,0,1,.39-.15A.49.49,0,0,1,104,55c.11.16.18.3.26.44l.45.86a17.88,17.88,0,0,0,1,1.66,3.47,3.47,0,0,0,1.39,1.23c.5.43,1.09.91,1.07,1.63-.51-.44-.62-1.14-1.21-1.41a7.64,7.64,0,0,1-.85-.51,3.72,3.72,0,0,1-.69-.74,12.4,12.4,0,0,1-1-1.68l-.46-.85c-.08-.13-.16-.28-.24-.39s0,0,0,0,0,0,0,0l-.29.33c0,.1-.11.26-.16.41l-.33.9-.63,1.83-.6,1.83a4.31,4.31,0,0,0-.22.91C101.35,61.67,101.34,62.05,101.67,62.16Z"/><path class="cls-6" d="M123.59,45.16a1.13,1.13,0,0,1,.62.28.77.77,0,0,1,.25.71,2.59,2.59,0,0,1-.77,1.14c-.6.63-1.27,1.18-1.9,1.77h0c-.65.51-1.26,1-1.89,1.58L118,52.24q-1.89,1.59-3.74,3.21h0l.08-.1a9.73,9.73,0,0,1-1.67,2.72,12.93,12.93,0,0,1-2.67,1.7,9.11,9.11,0,0,0-4,4.4C104.58,68,103.53,72,102.35,76S100,83.92,99,88A78.92,78.92,0,0,0,97,100.16l-.25,0a78.36,78.36,0,0,1,2-12.26c.91-4,2.08-8,3.24-12s2.18-8,3.63-11.9a9.56,9.56,0,0,1,4.17-4.66,13.21,13.21,0,0,0,2.55-1.63,8.88,8.88,0,0,0,1.53-2.56l0-.06.05,0h0c1.3-1,2.58-2,3.86-3.07l1.92-1.55c.63-.52,1.29-1,1.91-1.56h0c.62-.6,1.18-1.25,1.77-1.87a3.6,3.6,0,0,0,.72-.93C124.24,45.76,124,45.4,123.59,45.16Z"/><path class="cls-6" d="M124.56,117.57a2.2,2.2,0,0,1,1.43.08,3.45,3.45,0,0,1,1.18.84l2,1.82,3.94,3.66c2.6,2.46,5.2,4.92,7.74,7.45h0l-.73,0,17.3-20.79.09.73q-4.54-3.27-9.11-6.48c-1.53-1.06-3.06-2.14-4.61-3.13-.19-.13-.39-.25-.57-.35l-.14-.08-.07,0-.23,0a2,2,0,0,0-1.05.31l-.22.15-.27.23-.53.46-1.06.91-8.49,7.27-4.28,3.6L124.7,116a6.7,6.7,0,0,1-2.37,1.54,6.83,6.83,0,0,1,1.88-2.11l2.09-1.86,4.21-3.69,8.47-7.31,1.06-.91.53-.46.27-.22a3.31,3.31,0,0,1,.35-.25,3,3,0,0,1,1.61-.45,2.36,2.36,0,0,1,.45.08,1.86,1.86,0,0,1,.25.1l.18.09.62.38c1.58,1,3.11,2.09,4.64,3.16,3.06,2.14,6.09,4.31,9.13,6.48l.43.32-.34.41-17.3,20.79-.35.41-.38-.37h0c-2.63-2.43-5.21-4.92-7.78-7.42l-3.82-3.78-1.91-1.89a5.84,5.84,0,0,0-.91-.84A6.43,6.43,0,0,0,124.56,117.57Z"/><path class="cls-4" d="M34.58,124.11l-3.22-.61a1.22,1.22,0,0,0-.76,1.09c0,.81,1.27,2.46,1.27,2.46l3.39,2,.56,2.8-1.7,2.83-.24,1.11-.57,1.73c-.15,1.2.66,1.92,2.06,2.36l-2.2,3.75a4.22,4.22,0,0,0,.81,2.71l3.94,1.13.81,3.37.23.55.93,1.42,1.3.36c1.37.64,2.34.52,2.75-.7l-.31-1-4.8-.69-.72-3.24,4.06-1.42a1.6,1.6,0,0,0,.25-1.94c-.37-1.49-2.33-1.18-4.46-.69l-.42-.44-.37-2.66,3.64-1.6A2.39,2.39,0,0,0,39.33,136l-2.32.09-.55-.56-1-6.6Z"/><path class="cls-6" d="M32.78,128l-7,3.17-.21.09,0-.23c.24-1.61.54-3.2.89-4.79s.74-3.16,1.24-4.72a19.59,19.59,0,0,1,2-4.52,15.83,15.83,0,0,1,1.42-2A10,10,0,0,1,33,113.21h0l0,0,.06,0,16.86-6.71,8.43-3.36,4.22-1.67,2.11-.84,1.06-.43A2.54,2.54,0,0,1,67.1,100H67l37.3.06,18.65.08,9.33.06,4.66,0a15.38,15.38,0,0,1,4.66.45v.25a15.42,15.42,0,0,1-4.67.42H123l-18.65-.1L67,100.92H67a1.46,1.46,0,0,0-.87.11l-1.06.42-2.11.83-4.23,1.65-8.45,3.31-16.91,6.61.1,0h0a20.58,20.58,0,0,0-2.8,3.75,23,23,0,0,0-2,4.29c-1.07,3-1.93,6.14-2.74,9.27l-.18-.14,7-3.16Z"/><path class="cls-6" d="M35.93,131.33a15.74,15.74,0,0,1-.82,1.83c-.29.6-.58,1.2-.9,1.79l0,0h0l-.19,1V136l0,0h0a4.54,4.54,0,0,0-.5,1,1.62,1.62,0,0,0,0,1,3.28,3.28,0,0,0,.44.94,3.3,3.3,0,0,0,.91.58A4.12,4.12,0,0,0,37,140a17.55,17.55,0,0,0,2.2-.7l1.09-.42a1.47,1.47,0,0,0,.47-.23c.1-.07.06-.28.06-.47a2.35,2.35,0,0,0-.3-1,1.7,1.7,0,0,0-.78-.67,4.21,4.21,0,0,0-2.18-.19,10.68,10.68,0,0,0-1.13.2,3,3,0,0,1-1.16.18,2,2,0,0,1,1.07-.53,7.5,7.5,0,0,1,1.16-.26,4.35,4.35,0,0,1,2.41.22,2.09,2.09,0,0,1,1,.84,2.06,2.06,0,0,1,.23,1.22v.3a.53.53,0,0,1-.13.35,1.86,1.86,0,0,1-.55.32l-1.08.47a19.37,19.37,0,0,1-2.21.83,2.65,2.65,0,0,1-1.26-.06,7.44,7.44,0,0,1-1.15-.4,3.92,3.92,0,0,1-1.06-.67,3.58,3.58,0,0,1-.57-1.14,2.08,2.08,0,0,1-.05-1.31,5.16,5.16,0,0,1,.58-1.09h0l0,.09.23-1h0v0l0,0c.29-.61.6-1.2.91-1.79a17.91,17.91,0,0,1,1-1.75Z"/><path class="cls-6" d="M34.83,135.5a4.15,4.15,0,0,1,1.22-.13,1.38,1.38,0,0,1,.64.16,1,1,0,0,1,.44.53l-.23.11a1.8,1.8,0,0,0-.89-.51A10.5,10.5,0,0,0,34.83,135.5Z"/><path class="cls-6" d="M35.44,129.31a8.72,8.72,0,0,1-1.4-.61c-.46-.22-.92-.45-1.36-.71a5.14,5.14,0,0,1-1.28-.94,5.39,5.39,0,0,1-1-2.15,1.91,1.91,0,0,1,0-.43,1.14,1.14,0,0,1,.14-.45,2.21,2.21,0,0,1,.51-.66.93.93,0,0,1,.2-.15.66.66,0,0,1,.28,0c.15,0,.28,0,.41,0a11.62,11.62,0,0,1,3,.82l-.07.24c-1-.2-2-.52-2.94-.64l-.35,0h-.09l-.11.08a1.77,1.77,0,0,0-.4.54c-.22.32,0,.83.17,1.27a4.69,4.69,0,0,0,.74,1.24,5.12,5.12,0,0,0,1.15.85c.86.53,1.77,1,2.63,1.51Z"/><path class="cls-6" d="M35.47,140a2.44,2.44,0,0,1-.42,1l-.52.92c-.36.61-.73,1.21-1.11,1.81l0-.11h0a4.43,4.43,0,0,0,0,1.32,1.86,1.86,0,0,0,.6,1,9.42,9.42,0,0,0,2.56,1,4.53,4.53,0,0,0,1.35.16,7.7,7.7,0,0,0,1.37-.31c.91-.28,1.83-.6,2.73-.95h0l0,0a1.73,1.73,0,0,0,.18-1.91,2,2,0,0,0-.31-.41,1.63,1.63,0,0,0-.37-.34,2.2,2.2,0,0,0-1-.2,4.56,4.56,0,0,0-1.06.19l-1.07.27a3.5,3.5,0,0,0-1,.34,5.69,5.69,0,0,0-.84.68,2.35,2.35,0,0,1,.64-1,3.06,3.06,0,0,1,1.08-.46l1.1-.24a5.13,5.13,0,0,1,1.13-.17,2.4,2.4,0,0,1,1.16.26,1.84,1.84,0,0,1,.46.4,2.9,2.9,0,0,1,.35.49,1.94,1.94,0,0,1-.31,2.24h0c-.89.41-1.78.8-2.7,1.12a7.35,7.35,0,0,1-1.45.39,5.1,5.1,0,0,1-1.52-.11,11.65,11.65,0,0,1-1.43-.4,6,6,0,0,1-1.41-.63,2.94,2.94,0,0,1-.83-3h0v-.05l0-.06c.35-.61.71-1.21,1.09-1.81l.57-.9c.21-.28.33-.62.68-.83Z"/><path class="cls-6" d="M34.3,143.28a1.8,1.8,0,0,1,.69-.53,1.91,1.91,0,0,1,.88-.16,6,6,0,0,1,1.69.28h0l0,0,.42.45-.18.17-.42-.44.06,0h0c-.55-.06-1.11-.14-1.65-.18A3.14,3.14,0,0,0,34.3,143.28Z"/><path class="cls-6" d="M37.26,140.2a2.08,2.08,0,0,1,.15.69l.09.69.09.7c0,.23.11.45,0,.7l-.16,0c-.15-.21-.11-.45-.17-.68l-.12-.69-.11-.69a2.05,2.05,0,0,1-.05-.7Z"/><path class="cls-6" d="M36.34,135.57a35.64,35.64,0,0,1-.91-4.78l-.7-4.81c-.48-3.2-.89-6.41-1.34-9.62v0l.14-1.35V115a.34.34,0,0,0,0-.08s0,0,0,0,.08,0,.06,0a.36.36,0,0,0-.2.06c-.11,0-.22.22-.36.37a6.57,6.57,0,0,1-.87.88,5.55,5.55,0,0,1,.55-1.12,1.54,1.54,0,0,1,.46-.52.85.85,0,0,1,.38-.12.29.29,0,0,1,.21,0,.44.44,0,0,1,.14.16A1.66,1.66,0,0,1,34,115v0l-.11,1.35v-.06c.49,3.2,1,6.4,1.49,9.6l.72,4.81a34,34,0,0,1,.51,4.83Z"/><path class="cls-6" d="M43.74,151.35a2.65,2.65,0,0,1,.42,1.17,1.53,1.53,0,0,1-.73,1.09,1.65,1.65,0,0,1-1.28.21,3,3,0,0,1-1.1-.58h0l.13.05a4.57,4.57,0,0,1-1-.1,1.17,1.17,0,0,1-.51-.24,2.27,2.27,0,0,1-.31-.4,8.88,8.88,0,0,1-.77-1.73l.23-.09a10.7,10.7,0,0,0,.85,1.61,2.26,2.26,0,0,0,.27.32.94.94,0,0,0,.33.13,8.46,8.46,0,0,0,.88.11h.07l0,0h0a2.8,2.8,0,0,0,1,.5,1.19,1.19,0,0,0,1-.15,1.16,1.16,0,0,0,.57-.77,3,3,0,0,0-.27-1Z"/><path class="cls-6" d="M38,147.43c.31.22.28.5.36.76l.18.8c.09.54.19,1.07.25,1.62l-.25-.23c14.57,1.86,29.2,3.36,43.81,4.89l43.87,4.46-.2.08,1.08-1.15a4,4,0,0,1,1.24-1.06l.09.23a3.37,3.37,0,0,0-1.07,1.06l-1,1.23-.21.08-43.87-4.4c-14.62-1.52-29.25-3-43.84-4.85l-.18,0-.06-.21a14.82,14.82,0,0,1-.37-1.6l-.14-.8c0-.28-.15-.53,0-.84Z"/><path class="cls-6" d="M138.47,86.43a6.31,6.31,0,0,1,1.52-.62,4.64,4.64,0,0,1,1.67-.18,2,2,0,0,1,.88.24,3.26,3.26,0,0,1,.68.53,4.42,4.42,0,0,1,.93,1.38c-.43-.35-.83-.7-1.25-1a3.83,3.83,0,0,0-.62-.4,1.85,1.85,0,0,0-.68-.18A12.53,12.53,0,0,0,138.47,86.43Z"/><path class="cls-6" d="M153.31,80.57a1.42,1.42,0,0,1-1.08,1.53,16.74,16.74,0,0,1-1.84.29c-1.21.13-2.43.23-3.64.33a28.28,28.28,0,0,0-3.58.49,29,29,0,0,0-3.49,1,13.89,13.89,0,0,1,3.39-1.44,22.58,22.58,0,0,1,3.63-.62c1.22-.14,2.43-.23,3.64-.33a14.44,14.44,0,0,0,1.78-.21A1.92,1.92,0,0,0,153.31,80.57Z"/><path class="cls-6" d="M151.26,76.92a2,2,0,0,1,1.12.48,3.41,3.41,0,0,1,.73.95,19.38,19.38,0,0,1,1.14,2,3.42,3.42,0,0,1-.47,4.4h0v-.15c.38.42.74.85,1.07,1.29s.69.88,1,1.35.62.93.9,1.46a1.11,1.11,0,0,1,0,1,1.36,1.36,0,0,1-.67.63c.18-.59.31-1,.1-1.38s-.56-.93-.86-1.38-.6-.94-.9-1.41-.59-1-.86-1.43l-.05-.09.05-.07h0a4.34,4.34,0,0,0,.82-2,4.15,4.15,0,0,0-.59-2c-.34-.66-.7-1.32-1.1-2a3.24,3.24,0,0,0-.6-.88,2.65,2.65,0,0,0-.89-.55Z"/><path class="cls-2" d="M145.82,84.9a11.21,11.21,0,0,1,4.79.59c1.11.56,1.93,1.17,2.07,1.88Z"/><path class="cls-6" d="M145.82,84.9a21,21,0,0,1,3.65.93,16,16,0,0,1,3.42,1.63h0l-.19.12a2.69,2.69,0,0,0-.84-1.21,6.39,6.39,0,0,0-1.3-.9,3.52,3.52,0,0,1,1.51.66,2,2,0,0,1,.88,1.42v.23l-.2-.11h0a27.35,27.35,0,0,0-3.4-1.53Z"/><path class="cls-2" d="M144.4,62.59s-2.91.45-5.6,4.26a25.85,25.85,0,0,0-4.28,9.33,20,20,0,0,0-.49,4l2.3-6.73a38,38,0,0,1,3.12-5.81A32.6,32.6,0,0,1,144.4,62.59Z"/><path class="cls-6" d="M134,80.76a3.6,3.6,0,0,1,.16-1.5c.11-.49.23-1,.37-1.46a20.52,20.52,0,0,1,1-2.86A48,48,0,0,1,138,69.46a20.4,20.4,0,0,1,3.6-4.88A11.77,11.77,0,0,1,144,62.77a4.34,4.34,0,0,1,3-.6h.06l0,0a21.79,21.79,0,0,1,2.17,4,20.61,20.61,0,0,1,1.32,4.35c.27,1.49.46,3,.63,4.49.09.74.16,1.5.28,2.22a4.08,4.08,0,0,0,1.08,1.84,2.77,2.77,0,0,1-1.49-1.76c-.15-.76-.21-1.5-.3-2.25-.18-1.5-.37-3-.65-4.45a20.48,20.48,0,0,0-1.24-4.29,22.73,22.73,0,0,0-2-4l.08.06h0a4.15,4.15,0,0,0-2.71.76A13,13,0,0,0,142,65a23,23,0,0,0-3.47,4.75,57.74,57.74,0,0,0-2.56,5.38,23.2,23.2,0,0,0-1.08,2.76c-.15.48-.29,1-.42,1.43A4.61,4.61,0,0,1,134,80.76Z"/><path class="cls-2" d="M134.75,80.8s.42,0,.48.25a3.3,3.3,0,0,1-.21,1,2.88,2.88,0,0,0,0,1l1.24-2.66c.2-.52.2-.79-.29-.46Z"/><path class="cls-6" d="M134.75,80.8c.22-.25.4-.54.64-.78a2.69,2.69,0,0,1,.39-.36.87.87,0,0,1,.59-.23.39.39,0,0,1,.35.31.67.67,0,0,1,0,.35,2.55,2.55,0,0,1-.18.51c-.14.32-.3.62-.45.92l-.49.87a4.25,4.25,0,0,0-.21.43c-.07.12-.09.34-.1.28s.11,0,.25,0,.27-.14.42-.22.56-.35.85-.53a4.49,4.49,0,0,1-.7.75,2,2,0,0,1-.43.31,1,1,0,0,1-.29.1.43.43,0,0,1-.41-.12.57.57,0,0,1-.08-.24V83a2.29,2.29,0,0,1,.08-.28c.06-.17.13-.33.2-.48.15-.31.3-.61.46-.91s.33-.58.47-.87a2.06,2.06,0,0,0,.17-.42.28.28,0,0,0,0-.14s0,0,0,0-.21,0-.33.11-.27.18-.4.27A8.19,8.19,0,0,1,134.75,80.8Z"/><path class="cls-6" d="M134.61,82.44a2.48,2.48,0,0,0-.05,1.1A3,3,0,0,0,136,84.87a7.08,7.08,0,0,0,1.14,0h.11l0,.06a.58.58,0,0,1-.08.65,1.88,1.88,0,0,1-.49.32,2.36,2.36,0,0,0,.35-.43.4.4,0,0,0,0-.42l.14.06h0a3,3,0,0,1-1.25.31,1.25,1.25,0,0,1-.4-.07,2.94,2.94,0,0,1-.31-.16,4.81,4.81,0,0,1-.55-.37,1.86,1.86,0,0,1-.7-1.23A1.49,1.49,0,0,1,134.61,82.44Z"/><path class="cls-6" d="M136.6,85.2a2.77,2.77,0,0,0-.15,1.33,11.75,11.75,0,0,0,.37,1.37c.3.94.64,1.86,1,2.78A12.05,12.05,0,0,0,139,93.26c.28.38.59.74.9,1.1l.48.55a.92.92,0,0,1,.36.71.87.87,0,0,1-.78-.25c-.2-.15-.41-.3-.6-.47a8.14,8.14,0,0,1-1-1.16A11.21,11.21,0,0,1,137,91c-.35-.94-.62-1.9-.88-2.87a8.54,8.54,0,0,1-.29-1.52,2.13,2.13,0,0,1,.52-1.51Z"/><path class="cls-6" d="M140.09,95.06l.27,3.08a6.35,6.35,0,0,0,.34,1.45c.15.49.3,1,.42,1.49l-.23.1a10.88,10.88,0,0,1-.66-1.43,5,5,0,0,1-.39-1.56,21.8,21.8,0,0,1,0-3.13Z"/><path class="cls-6" d="M143.21,98.73a14.61,14.61,0,0,1,4-2.25,12.36,12.36,0,0,1,4.56-.41,19.82,19.82,0,0,1,4.52.72,9.26,9.26,0,0,1,2.12.92,9.85,9.85,0,0,1,1.78,1.44c-.7-.32-1.33-.74-2-1.1a12.27,12.27,0,0,0-2-.92,13,13,0,0,0-4.42-.76c-.75,0-1.5,0-2.25.1a9.86,9.86,0,0,0-2.18.39A24.33,24.33,0,0,0,143.21,98.73Z"/><path class="cls-6" d="M142.42,97.11a12.71,12.71,0,0,1,2.58-.67,10,10,0,0,1,1.33-.08c.44,0,.89,0,1.33,0v.25c-.44,0-.88.08-1.32.1s-.88,0-1.3,0C144.17,96.87,143.3,97,142.42,97.11Z"/><path class="cls-6" d="M146,102.44a4.91,4.91,0,0,1,1-2,5.51,5.51,0,0,1,1.8-1.33c.65-.33,1.32-.62,2-.88a3.43,3.43,0,0,0,.92-.43c.06,0,.08-.11.07-.06s0,0-.07,0a2,2,0,0,0-.49,0h0c-.7.16-1.4.33-2.11.48.68-.26,1.36-.49,2-.73h0a1.63,1.63,0,0,1,.59,0c.09,0,.27,0,.35.26a.44.44,0,0,1-.17.4,5.72,5.72,0,0,1-1,.52c-.64.3-1.28.63-1.89,1a7.09,7.09,0,0,0-1.66,1.21,7.92,7.92,0,0,0-1.19,1.71Z"/><path class="cls-6" d="M153.69,97.37a9.66,9.66,0,0,1,3.12,1.24,16.23,16.23,0,0,1,1.41.92,7.51,7.51,0,0,1,1.31,1.09,17.07,17.07,0,0,1,1.92,2.79,16.47,16.47,0,0,1,.77,1.51,4.6,4.6,0,0,1,.48,1.71v0a24.43,24.43,0,0,1-1,7.4,51.09,51.09,0,0,1-2.85,6.88h0l0-.18a6.51,6.51,0,0,1,.06,1.17,3,3,0,0,1-.84,2.23,9,9,0,0,1-.79.84l-.19-.15.53-1a6.34,6.34,0,0,0,.43-.94,9,9,0,0,0,.12-2.1v-.11l0-.08h0a60,60,0,0,0,2.92-6.75,18.77,18.77,0,0,0,.82-3.56,26.4,26.4,0,0,0,.29-3.65v0a4.46,4.46,0,0,0-.4-1.52c-.21-.51-.45-1-.71-1.51a16.61,16.61,0,0,0-1.8-2.79,14.28,14.28,0,0,0-2.61-2.06A9.81,9.81,0,0,0,153.69,97.37Z"/><path class="cls-6" d="M150.68,94.48a14.05,14.05,0,0,1,5.37.76,10.45,10.45,0,0,1,2.44,1.26,12.48,12.48,0,0,1,2,1.79,17,17,0,0,0-9.86-3.81Z"/><path class="cls-6" d="M156.52,89.55c.5.72,1,1.46,1.41,2.21.22.37.46.75.66,1.14a6,6,0,0,0,.76.95,7.54,7.54,0,0,1,1.34,2.35,11.89,11.89,0,0,1,.6,2.61h0l-.13-.22a3,3,0,0,1,1,1.52,10.11,10.11,0,0,1,.24,1.69,12,12,0,0,1-.2,3.33l-.25-.06a11.58,11.58,0,0,0,0-3.22,9.16,9.16,0,0,0-.32-1.56,2.91,2.91,0,0,0-.78-1.2l-.12-.09v-.13h0a9.27,9.27,0,0,0-1.85-4.59,5.92,5.92,0,0,1-.82-1.11c-.17-.39-.35-.78-.55-1.17l-1.16-2.33Z"/><path class="cls-6" d="M136.18,142.51a5.81,5.81,0,0,0-.51.55l-.43.67-.87,1.36c-.61.89-1.21,1.78-1.86,2.64h0l0,0h0l-.9.75h0L127.37,150h0l-.76.2,0,0-.06,0h0c-1.12-.27-2.23-.57-3.34-.92a7.89,7.89,0,0,1-1.65-.68.71.71,0,0,1-.23-.23,1.44,1.44,0,0,1-.09-.24,1.87,1.87,0,0,1-.09-.46,2.91,2.91,0,0,1,0-.93,2.19,2.19,0,0,1,1.24-1.38,6.81,6.81,0,0,1,1.72-.48,5.65,5.65,0,0,1,1.79-.06,2.7,2.7,0,0,1,.47.12.8.8,0,0,1,.39.41,2,2,0,0,1,.2.89c-.19-.24-.35-.48-.53-.67s-.17-.18-.23-.18a1.8,1.8,0,0,0-.36-.06,7.61,7.61,0,0,0-1.65,0,5.67,5.67,0,0,0-1.61.39,1.71,1.71,0,0,0-1,1.07,2.61,2.61,0,0,0,0,.79,1.61,1.61,0,0,0,.08.38l.07.16a.21.21,0,0,0,.08.06,7.54,7.54,0,0,0,1.53.63c1.09.35,2.2.65,3.31.92h-.11l.77-.18h0l4.23-1.29,0,0,.9-.75,0,0h0c.52-1,1.09-1.87,1.66-2.79l.89-1.35c.16-.23.28-.45.46-.68A.83.83,0,0,1,136.18,142.51Z"/><path class="cls-6" d="M125.81,145a3.56,3.56,0,0,1,1.14-.64,11.64,11.64,0,0,1,1.22-.41,5,5,0,0,1,1.3-.19,2.23,2.23,0,0,1,1.27.38c-.45.08-.84.13-1.25.18a10.14,10.14,0,0,0-1.19.19c-.4.09-.8.18-1.21.3a7.83,7.83,0,0,0-1.15.4Z"/><path class="cls-6" d="M128.59,144a2.15,2.15,0,0,1,.32-.93,6.41,6.41,0,0,1,.55-.81,6.85,6.85,0,0,1,1.42-1.32h0l.07,0h0l.95,0-.77.55.08,0h0a17.14,17.14,0,0,0-1.25,1.31c-.19.24-.39.46-.57.71a6.23,6.23,0,0,1-.58.71Z"/><path class="cls-6" d="M130.26,141.6c.15-.45.32-.89.48-1.34l.48-1.35a4.44,4.44,0,0,1,.7-1.3,5.38,5.38,0,0,1,1.09-1,5.45,5.45,0,0,1-.62,1.31c-.22.37-.41.8-.62,1.21-.41.84-.83,1.72-1.28,2.55Z"/><path class="cls-6" d="M131.4,133.23c.11.26.22.52.31.8,0,.13.09.27.12.41v.42c0,.57,0,1.14,0,1.71l0-.12.26.57,0,.08,0,.07-.69,2.45-.24-.05.49-2.51,0,.16-.29-.55,0,0v-.08c0-.54,0-1.08,0-1.63v-.41c0-.13,0-.26-.07-.4a6.86,6.86,0,0,1-.12-.81Z"/><path class="cls-6" d="M133.72,133.3a6,6,0,0,0,.68-.63,1.23,1.23,0,0,0,.33-.74c.07-.6.08-1.23.14-1.85h0l0,.06-.93-1.43,0,0a2.62,2.62,0,0,0-1.15-.3,2.35,2.35,0,0,0-1.12.3,3.48,3.48,0,0,0-.92.75,2.28,2.28,0,0,0-.36,1.09,3.15,3.15,0,0,0,.71,2.1,3.27,3.27,0,0,0,2,1.24,2.64,2.64,0,0,1-2.49-.81,2.66,2.66,0,0,1-.74-2.61,3.58,3.58,0,0,1,.54-1.28,3.92,3.92,0,0,1,1-.85,2.33,2.33,0,0,1,2.58.22v0h0l1,1.39v.07h0a6.18,6.18,0,0,1,0,1.92,1.41,1.41,0,0,1-.15.51,1.27,1.27,0,0,1-.36.4A2.08,2.08,0,0,1,133.72,133.3Z"/><path class="cls-6" d="M133.21,136.14a3.55,3.55,0,0,1,.9-1.51,4.19,4.19,0,0,1,1.46-.95,14,14,0,0,1-1.2,1.23C134,135.27,133.63,135.72,133.21,136.14Z"/><line class="cls-7" x1="129.88" y1="148.93" x2="128.96" y2="149.94"/><path class="cls-6" d="M130.66,149.66c-.4.39-.87.34-1.31.47a8.6,8.6,0,0,0-1.28.36c-.43.14-.86.3-1.28.46a5.45,5.45,0,0,0-.59.27c-.11.05-.21.26-.41.44a.62.62,0,0,1,.2-.75,5.61,5.61,0,0,1,.63-.34c.42-.2.84-.38,1.28-.55a9.66,9.66,0,0,1,1.36-.34C129.72,149.64,130.15,149.42,130.66,149.66Z"/><path class="cls-6" d="M125.68,151.45a7.57,7.57,0,0,0-2.27-.09,12.32,12.32,0,0,0-2.18.64h0l.06,0a1.58,1.58,0,0,0-.65,1.5,1.74,1.74,0,0,0,1.24,1.12h0l4.37.78h.05a2.33,2.33,0,0,0,2-.22h0l0,0h0l3.26-1.27.8-.34a1.81,1.81,0,0,0,.66-.4,5.53,5.53,0,0,0,.71-1.51h0l0-.05h0l.64-.49-.46.66,0,0h0a4.21,4.21,0,0,1-.64,1.7,2,2,0,0,1-.81.53l-.81.35c-1.09.45-2.18.87-3.29,1.26l.06,0h0a2.32,2.32,0,0,1-1.17.48,2.69,2.69,0,0,1-1.25-.12h0l-4.37-.8h0a2.17,2.17,0,0,1-1.52-1.45,1.66,1.66,0,0,1,.13-1.1,2.58,2.58,0,0,1,.67-.83l0,0h0a8.48,8.48,0,0,1,2.29-.65,4.87,4.87,0,0,1,1.21.09A3.6,3.6,0,0,1,125.68,151.45Z"/><path class="cls-6" d="M131,154.35a2.35,2.35,0,0,1,.43.4,1.26,1.26,0,0,1,.29.59,1.13,1.13,0,0,1-.19.61,2.33,2.33,0,0,1-.37.46l.15-.55a1.21,1.21,0,0,0,.06-.47,1.48,1.48,0,0,0-.23-.42l-.32-.44Z"/><path class="cls-7" d="M131.09,154.76l-2.2,1.39a6.63,6.63,0,0,1-.56,1.84,1.66,1.66,0,0,1-.74.39"/><path class="cls-6" d="M122.44,159.57a2.69,2.69,0,0,0,.22.93,1.5,1.5,0,0,0,.63.64h0l-.17,0a15.45,15.45,0,0,1,3-.42c.51,0,1,0,1.51,0,.25,0,.5,0,.73-.08a2.26,2.26,0,0,0,.63-.27c1.73-1,3.43-2.14,5.13-3.25h0l-.08.12,1.57-6v0l0,0c.82-1.7,1.69-3.37,2.55-5l0,.08.78-2.76h0l0-.08,0-.05,3.53-5.25,0,0h0l8-9.77.19.15-7.62,10.11,0,0-3.31,5.39.06-.13h0l-.9,2.72v.05l0,0c-.93,1.64-1.87,3.27-2.76,4.92l0-.06-1.83,5.89,0,.08-.06,0h0c-1.7,1.11-3.38,2.24-5.14,3.28a2.35,2.35,0,0,1-.76.32,5.51,5.51,0,0,1-.79.1c-.52,0-1,0-1.53,0a15,15,0,0,0-3,.43l-.09,0-.08-.05h0a1.87,1.87,0,0,1-.72-.9,2.94,2.94,0,0,1-.12-.54,2.49,2.49,0,0,1,0-.55Z"/><path class="cls-6" d="M103,47.05a3.92,3.92,0,0,1-.43,1c-.15.32-.31.63-.45,1a13.89,13.89,0,0,0-.69,2,41.62,41.62,0,0,0-.62,4.22q-.21,2.15-.21,4.29c0,.72,0,1.44.08,2.14a3.49,3.49,0,0,0,.08.5.63.63,0,0,0,.3.34.64.64,0,0,0,.35.12,3.07,3.07,0,0,0,.5-.11.71.71,0,0,1-.42.43.63.63,0,0,1-.65-.16,1.77,1.77,0,0,1-.43-1.09,19.6,19.6,0,0,1-.15-2.16c0-1.45,0-2.89.08-4.34,0-.72.13-1.44.23-2.15a13.36,13.36,0,0,1,.41-2.15,16.28,16.28,0,0,1,.74-2.06,6.38,6.38,0,0,1,.51-1A2.13,2.13,0,0,1,103,47.05Z"/><path class="cls-6" d="M125.72,50c.91.55,1.49,1.32,2.37,1.78s1.75,1,2.66,1.45c1.81.89,3.67,1.7,5.55,2.49l5.6,2.45a18.83,18.83,0,0,1,2.76,1.4,6.46,6.46,0,0,1,1.25,1,1.61,1.61,0,0,1,.44,1.58h-.25a3.22,3.22,0,0,0-.6-1.2,5.71,5.71,0,0,0-1.16-.88,16.44,16.44,0,0,0-2.7-1.31L136,56.41c-1.88-.8-3.75-1.62-5.58-2.53-.92-.46-1.83-.94-2.71-1.48a4.9,4.9,0,0,1-2.19-2.24Z"/><path class="cls-6" d="M39.34,136.94a3.51,3.51,0,0,1-.76.57c-.27.17-.54.35-.81.5l0-.08h0a1.05,1.05,0,0,0,.12.63c.11.2.33.24.55.42a.66.66,0,0,1-.74-.29,1,1,0,0,1-.17-.82h0v-.05l0,0c.27-.16.55-.31.83-.46A4,4,0,0,1,39.34,136.94Z"/><path class="cls-6" d="M40.73,143.82a3.1,3.1,0,0,1-.75.6c-.26.18-.52.36-.8.52l0-.06a1.44,1.44,0,0,0,.21.77c.16.21.45.27.69.46a1,1,0,0,1-.83-.35,1.2,1.2,0,0,1-.24-.89h0v0l0,0c.25-.19.52-.36.79-.53A2.89,2.89,0,0,1,40.73,143.82Z"/><path class="cls-6" d="M35.12,114.62c7.34.65,14.73,1,22.11,1.28s14.77.55,22.15.76,14.77.39,22.16.5c3.69,0,7.39.09,11.08.09,1.84,0,3.69,0,5.53-.07a23.65,23.65,0,0,0,2.71-.2l.14,0s0,.08,0,0a1.58,1.58,0,0,1,.31-.27,2,2,0,0,1,.71-.28,3.45,3.45,0,0,1,1.43,0v.05a9.87,9.87,0,0,0-1.3.37,2,2,0,0,0-.55.29.7.7,0,0,0-.2.18.65.65,0,0,1-.25.18l-.2,0a21,21,0,0,1-2.81.2c-1.85.06-3.7.07-5.55.07-3.7,0-7.39,0-11.09-.12-7.39-.12-14.78-.31-22.16-.53s-14.77-.49-22.16-.8c-3.69-.16-7.38-.33-11.07-.54l-5.53-.35-2.77-.22A7.15,7.15,0,0,1,35.12,114.62Z"/><path class="cls-6" d="M66.38,101.59a2.55,2.55,0,0,1,.35,1.35l.12,1.37.23,2.73c.14,1.83.27,3.65.34,5.48-.27-1.81-.49-3.63-.7-5.44l-.29-2.73L66.29,103A2.47,2.47,0,0,1,66.38,101.59Z"/><path class="cls-2" d="M137.52,82a12.52,12.52,0,0,1,4.56-2.74c2.18-.51,7.53-.12,7.53-.12l-7.38,1.28Z"/><path class="cls-6" d="M137.52,82a8.81,8.81,0,0,1,2.84-1.34,26.58,26.58,0,0,1,3-.82,35.37,35.37,0,0,1,6.22-.7c-1,.16-2.05.34-3.07.54s-2,.41-3,.68-2,.6-3,.9A12.29,12.29,0,0,1,137.52,82Z"/><path class="cls-6" d="M132,79.52a10.74,10.74,0,0,0-6.11-2.85,6.58,6.58,0,0,0-3.26.65l-1.61.61a5.49,5.49,0,0,1-1.67.5,4.63,4.63,0,0,1,1.49-.92c.53-.25,1.06-.47,1.61-.68a15.63,15.63,0,0,1,1.68-.53,5.25,5.25,0,0,1,1.81,0A10.21,10.21,0,0,1,132,79.52Z"/><path class="cls-6" d="M102.51,51.15a5.11,5.11,0,0,0,.68,1.78,4.54,4.54,0,0,0,.54.76,5,5,0,0,0,.71.6h0l0,0,0,0c.25.55.52,1.1.8,1.64a7.46,7.46,0,0,0,1,1.53l1.24,1.34a2.92,2.92,0,0,1,.91,1.59,2.63,2.63,0,0,0-1-1.47,11.59,11.59,0,0,1-1.35-1.27,8.6,8.6,0,0,1-1-1.57c-.29-.55-.57-1.1-.83-1.66l.06.07h0a3.67,3.67,0,0,1-1.41-1.46A3.42,3.42,0,0,1,102.51,51.15Z"/><path class="cls-6" d="M101.05,52.71a10.61,10.61,0,0,1-1,1.38,5.21,5.21,0,0,1-1.39,1.14,15.27,15.27,0,0,1-3.26,1.1h0l.11,0q-1,.66-2,1.29l-1,.64-.52.31a4.92,4.92,0,0,1-.58.26A29.09,29.09,0,0,1,86.62,60h0l.09,0a29.61,29.61,0,0,0-4.12,3.6,10.92,10.92,0,0,0-1.44,2.25,23.78,23.78,0,0,0-1.07,2.5h0l0,.14-.15.09a9.13,9.13,0,0,0-2,1.45,5.81,5.81,0,0,0-1,2.15h0l0,.14-.09,0a5.3,5.3,0,0,0-2.12,2.37,12.18,12.18,0,0,0-.75,3.22V78l0,.06a17.18,17.18,0,0,0-1,1.48A7.36,7.36,0,0,0,72,81.13a15.67,15.67,0,0,0-.48,3.57v.06l0,0-1.26,3.1c-.44,1-.83,2-1.29,3.11s-1.6,1.77-2.13,2.63A4.39,4.39,0,0,0,66.17,95a3.27,3.27,0,0,0,0,1.42h0l-.2.55a6.88,6.88,0,0,0-.86.92,3.45,3.45,0,0,0-.58,1l-.4,1.31a3.24,3.24,0,0,1-.61,1.27L63,101.4a3.42,3.42,0,0,1,.12-1.43l.33-1.38a4.09,4.09,0,0,1,.74-1.4,5.64,5.64,0,0,1,1.11-1.07l-.19.55v0a4.65,4.65,0,0,1,1-3.53c.72-1,1.74-1.58,2.19-2.45l1.39-3,1.39-3,0,.09h0a16.16,16.16,0,0,1,.5-3.71,8,8,0,0,1,.85-1.71,17.64,17.64,0,0,1,1.08-1.53l-.06.14a12.72,12.72,0,0,1,.79-3.37,5.32,5.32,0,0,1,1-1.49,6.25,6.25,0,0,1,1.37-1.13l-.12.19h0a5.22,5.22,0,0,1,.22-1.36,3.64,3.64,0,0,1,.66-1.28,7,7,0,0,1,2.21-1.65l-.2.23h0a23.86,23.86,0,0,1,1.2-2.56,11.53,11.53,0,0,1,1.61-2.35,30.45,30.45,0,0,1,4.33-3.56l0,0h.06A36.89,36.89,0,0,0,91,58.1a5.87,5.87,0,0,0,1-.56l1-.63c.67-.43,1.34-.85,2-1.25l.06,0,.06,0h0a26.77,26.77,0,0,0,3.09-1.08,5.09,5.09,0,0,0,1.25-.92c.39-.37.77-.78,1.13-1.19Z"/><path class="cls-6" d="M110.61,61.25c-.32,1.25-.94,2.36-1.31,3.57s-.66,2.45-1,3.68l-1.82,7.41L102.9,90.75v0l-.65,9.42-.5,0,.65-9.42v0l3.65-14.83L108,68.4c.33-1.23.64-2.46,1-3.7A13.36,13.36,0,0,1,110.61,61.25Z"/><path class="cls-6" d="M40.91,144a1.52,1.52,0,0,1,.86,1.29C41.47,144.88,41.24,144.46,40.91,144Z"/><path class="cls-6" d="M123.74,117.62a3,3,0,0,0-1,2.93l.32,3.38.64,6.74.59,6.76.29,3.37.15,1.69a3.23,3.23,0,0,1-.09,1.71,3.23,3.23,0,0,1-.39-1.67l-.15-1.69-.31-3.37-.6-6.75-.54-6.76-.28-3.38a3.56,3.56,0,0,1,.21-1.73A2.24,2.24,0,0,1,123.74,117.62Z"/><path class="cls-6" d="M132.25,128.21a4,4,0,0,1,1-1.18,2.9,2.9,0,0,1,1.49-.54l0,.25a4,4,0,0,0-1.28.62,6.59,6.59,0,0,0-1.06,1Z"/><path class="cls-6" d="M85,73.87a5.82,5.82,0,0,1,.43,2.55,3.52,3.52,0,0,1-1.09,2.49h0l0-.55a11.15,11.15,0,0,1,1.11,2.21A7.2,7.2,0,0,1,86,83a6.47,6.47,0,0,1-.49,2.41,1.62,1.62,0,0,0-.07,1,1.54,1.54,0,0,0,.6.78h0l.17.11-.06.17a10.93,10.93,0,0,0-.52,2.23,1.74,1.74,0,0,0,.15,1,2.77,2.77,0,0,0,.6.86h0l.34.3-.45.27a6.75,6.75,0,0,0-1.84,1.55,3,3,0,0,0-.53,1,1.59,1.59,0,0,0,0,1,10.68,10.68,0,0,0,1.18,2.2c.48.71,1,1.42,1.5,2.1l-.38.32a21.8,21.8,0,0,1-1.68-2A11.53,11.53,0,0,1,83.14,96a3.09,3.09,0,0,1-.18-.74,2.46,2.46,0,0,1,.09-.78,3.81,3.81,0,0,1,.66-1.3,6.54,6.54,0,0,1,2.18-1.7l-.12.58h0a4.93,4.93,0,0,1-.57-1.15,2.63,2.63,0,0,1-.11-1.27,19,19,0,0,1,.54-2.31l.11.28h0a2,2,0,0,1-.85-1,2.19,2.19,0,0,1,0-1.32A5.77,5.77,0,0,0,85.28,83a6.63,6.63,0,0,0-.53-2.18,10.33,10.33,0,0,0-1.1-2l-.16-.23.2-.32h0a6.21,6.21,0,0,0,.85-2C84.73,75.54,84.82,74.72,85,73.87Z"/><path class="cls-6" d="M73.15,81.41a8,8,0,0,1,3.19.15,23.33,23.33,0,0,1,3,1,51.34,51.34,0,0,1,5.76,2.61l-.21.45c-2-.74-3.9-1.53-5.85-2.29A35.85,35.85,0,0,0,73.15,81.41Z"/><path class="cls-6" d="M83.58,78.7c-.63-.15-1.24-.36-1.85-.55l-1.79-.63c-.59-.2-1.21-.34-1.82-.53s-1.23-.36-1.84-.57a18.22,18.22,0,0,1,3.8.66,14.86,14.86,0,0,1,1.79.72A14.7,14.7,0,0,1,83.58,78.7Z"/><path class="cls-6" d="M83.87,76.73,82.72,75a17.62,17.62,0,0,0-1.24-1.58,4.86,4.86,0,0,0-1.59-1.1l-1.84-.93a8.25,8.25,0,0,1,2,.49,6.08,6.08,0,0,1,1,.45,3.24,3.24,0,0,1,.84.72,8.09,8.09,0,0,1,1.18,1.74A10.68,10.68,0,0,1,83.87,76.73Z"/><path class="cls-6" d="M70.28,91.25a8.48,8.48,0,0,1,4.28,1,12.81,12.81,0,0,1,3.33,2.84c-1.24-.76-2.41-1.61-3.63-2.3a13.89,13.89,0,0,0-1.93-.84C71.66,91.71,71,91.47,70.28,91.25Z"/><path class="cls-6" d="M84.45,89.36a7.7,7.7,0,0,1-1.7,1.36,4.78,4.78,0,0,1-2.12.77c-.83.05-1.49-.4-2.11-.39s-1.12.61-1.49,1.2a2.58,2.58,0,0,1,.45-1,1.48,1.48,0,0,1,1-.59c.82-.11,1.5.21,2.11.11a6.67,6.67,0,0,0,1.92-.58C83.15,90,83.79,89.67,84.45,89.36Z"/><path class="cls-6" d="M83.65,96.48c-1.31.15-2.62.23-3.9.4A15.08,15.08,0,0,0,76.08,98a6.1,6.1,0,0,1,3.61-1.6A16.91,16.91,0,0,1,83.65,96.48Z"/><path class="cls-6" d="M85.15,63.76a1.42,1.42,0,0,1,.24-1.34,1,1,0,0,1,.77-.38,1.53,1.53,0,0,1,.78.19c.91.58,1.09,1.45,1.51,2.09.79,1.39,1.63,2.77,2.42,4.18a31.83,31.83,0,0,1-3-3.83c-.46-.68-.78-1.49-1.3-1.77a.73.73,0,0,0-.38-.08.57.57,0,0,0-.31.1A5.14,5.14,0,0,0,85.15,63.76Z"/><path class="cls-6" d="M90.38,60.27a10.15,10.15,0,0,0,2.22.53,14.46,14.46,0,0,0,2.29-.14,2.94,2.94,0,0,1-2.35.89A2.84,2.84,0,0,1,90.38,60.27Z"/><path class="cls-6" d="M96.94,56.78a8.35,8.35,0,0,1,1,.84,11.8,11.8,0,0,1,1,.94,1.6,1.6,0,0,1-1.46-.37A1.47,1.47,0,0,1,96.94,56.78Z"/><path class="cls-6" d="M114.42,47.5c-.34.84-.73,1.58-1.11,2.34s-.77,1.49-1.16,2.3a4.47,4.47,0,0,1,.55-2.61A5.12,5.12,0,0,1,114.42,47.5Z"/><ellipse class="cls-1" cx="113.55" cy="22.52" rx="0.36" ry="0.44"/><ellipse class="cls-1" cx="123.51" cy="22.75" rx="0.27" ry="0.44"/><path class="cls-6" d="M153.45,118.39a8.14,8.14,0,0,1,2.85,3.42,14.84,14.84,0,0,1,1.27,4.31h0l0,.09,0,.09a13.37,13.37,0,0,1-1,2.5,16.46,16.46,0,0,1-1.35,2.28,31.58,31.58,0,0,1-3.47,3.91l-.08.08-.08,0a4.53,4.53,0,0,1-1.46.23,6.11,6.11,0,0,1-1.41-.17c-.85-.28-1.67-.58-2.51-.87l.37-.93c.79.28,1.59.57,2.38.83a5.18,5.18,0,0,0,1.16.14,3.69,3.69,0,0,0,1.1-.16l-.16.1a31.46,31.46,0,0,0,3.35-3.77,16.24,16.24,0,0,0,1.26-2.14,13.25,13.25,0,0,0,.9-2.29v.19h0a21,21,0,0,0-1-4.17A11.52,11.52,0,0,0,153.45,118.39Z"/><path class="cls-6" d="M147.65,123.55a13,13,0,0,1,1.9,1.8,8.1,8.1,0,0,1,1.43,2.23,7.65,7.65,0,0,1,.45,2.57,8.67,8.67,0,0,1-.31,2.54,11.67,11.67,0,0,0,0-2.51,8.62,8.62,0,0,0-.67-2.35,7.28,7.28,0,0,0-1.47-1.91,16.37,16.37,0,0,0-1.88-1.56Z"/><path class="cls-6" d="M140,95a20.4,20.4,0,0,1-2.26,1.31,11,11,0,0,1-2.49.91,20.69,20.69,0,0,1-2.58.33c-.86.06-1.72.08-2.57.07.84-.13,1.68-.29,2.52-.44a22.1,22.1,0,0,0,2.46-.61,12.32,12.32,0,0,0,2.23-1.07c.72-.41,1.44-.87,2.13-1.32Z"/><path class="cls-6" d="M139.77,94.9c-.77.86-1.54,1.74-2.25,2.64a5,5,0,0,0-.86,1.34,3.88,3.88,0,0,0-.12,1.52l-1,.11a5,5,0,0,1,.26-1.94A5.81,5.81,0,0,1,136.88,97c.77-.89,1.58-1.74,2.4-2.58Z"/><path class="cls-6" d="M143,100.43a22.13,22.13,0,0,1,2.11-1.88h0a1.67,1.67,0,0,1,.58-.16.79.79,0,0,1,.62.14.67.67,0,0,1,.24.58,1,1,0,0,1-.2.51c.07-.34,0-.73-.22-.83a1,1,0,0,0-.8.16l0,0a22,22,0,0,1-2.23,1.72Z"/><path class="cls-6" d="M146.76,103a5.76,5.76,0,0,1,1.65-1,4.57,4.57,0,0,1,1.94-.37,12.13,12.13,0,0,1,3.73.8,31.8,31.8,0,0,0-3.73-.27,8.77,8.77,0,0,0-3.44,1.07Z"/><path class="cls-6" d="M152.23,103.59a8.26,8.26,0,0,1,2.6.76,9.54,9.54,0,0,1,2.26,1.55,14.12,14.12,0,0,1,1.85,2,8.79,8.79,0,0,1,1.34,2.37,14.15,14.15,0,0,1-1.79-2c-.56-.7-1.1-1.4-1.72-2A9,9,0,0,0,152.23,103.59Z"/><path class="cls-6" d="M150.38,87.92a27.06,27.06,0,0,1,3.56,1.81A7.59,7.59,0,0,1,155.55,91a7.32,7.32,0,0,1,1.2,1.62,24.42,24.42,0,0,0-3-2.48C152.6,89.38,151.48,88.67,150.38,87.92Z"/><path class="cls-6" d="M141.12,92.76c.62.36,1.22.72,1.85,1a6.09,6.09,0,0,0,1.91.69c1.36.23,2.78.32,4.2.52a16.65,16.65,0,0,1-4.29,0,4.93,4.93,0,0,1-2-.84A8.75,8.75,0,0,1,141.12,92.76Z"/><path class="cls-6" d="M139.66,93.13a2.13,2.13,0,0,1,1.05.29,1.32,1.32,0,0,1,.43.39,1.1,1.1,0,0,1,.2.58,16.55,16.55,0,0,1-.05,2.12c0,.7-.12,1.4-.11,2.08a.71.71,0,0,0,.43.73,2.29,2.29,0,0,0,.46.17,1.22,1.22,0,0,1,.49.18.72.72,0,0,1-.54,0,2,2,0,0,1-.52-.16,1.08,1.08,0,0,1-.46-.37,1,1,0,0,1-.16-.56,18.68,18.68,0,0,1,0-2.12,15.81,15.81,0,0,0,0-2.06C140.93,93.84,140.25,93.49,139.66,93.13Z"/><path class="cls-6" d="M136.84,86.85c.47,0,.85.13,1.23.16s.84,0,1.28.07a3.29,3.29,0,0,1-1.28.3,1.42,1.42,0,0,1-.68-.12A1.37,1.37,0,0,1,136.84,86.85Z"/><path class="cls-6" d="M137.76,85.41a4.35,4.35,0,0,1,.74-.17.82.82,0,0,0,.3-.09l.3-.19a6.38,6.38,0,0,1,1.34-.73,7.25,7.25,0,0,1,3-.46,17.72,17.72,0,0,0-2.84.86c-.43.21-.85.46-1.29.7l-.36.18a1.17,1.17,0,0,1-.43.07A1.88,1.88,0,0,1,137.76,85.41Z"/><path class="cls-6" d="M134.1,92.48c-1.28-.31-2.54-.61-3.82-.79a17.53,17.53,0,0,0-3.84-.12c-2.58.17-5.18.46-7.78.72,1.27-.32,2.55-.58,3.84-.79a39.39,39.39,0,0,1,3.91-.49q1-.08,2-.09a11,11,0,0,1,2,.23A15.14,15.14,0,0,1,134.1,92.48Z"/><path class="cls-6" d="M136,85.91a39.1,39.1,0,0,0-4.31-.1c-.71.07-1.42.19-2.13.27a7.59,7.59,0,0,1-2.19.11,5.56,5.56,0,0,1,2.09-.73,13.35,13.35,0,0,1,2.19-.25,10.91,10.91,0,0,1,2.22.18A19.45,19.45,0,0,1,136,85.91Z"/><path class="cls-6" d="M79.31,92.2a8,8,0,0,0-.93.75.71.71,0,0,0-.16.24,1.25,1.25,0,0,0,.39.06A19.28,19.28,0,0,0,81,93c.76-.13,1.56-.38,2.34-.58s1.57-.41,2.36-.6c-.75.33-1.5.64-2.26.92s-1.52.57-2.34.78a9.64,9.64,0,0,1-2.47.26c-.23,0-.45,0-.74-.3a.44.44,0,0,1,0-.52,1.22,1.22,0,0,1,.26-.25A3.18,3.18,0,0,1,79.31,92.2Z"/><path class="cls-6" d="M157.2,112.2a6.35,6.35,0,0,1,.87,2.32,9.81,9.81,0,0,1,.19,2.47,34.32,34.32,0,0,0-1.28-4.68Z"/><path class="cls-6" d="M155.18,114.77a7,7,0,0,1,1.25,1.93,13,13,0,0,1,.46,2.21c-.27-.7-.48-1.42-.8-2.08a10,10,0,0,0-1.21-1.8Z"/><path class="cls-6" d="M132,79.58a4.38,4.38,0,0,1,1.48,1,3.35,3.35,0,0,1,.81,1.6c-.38-.47-.67-1-1.06-1.37S132.41,80,132,79.58Z"/><path class="cls-7" d="M107.94,62.45c-.58-.25-.91.23-1,.58a.71.71,0,0,0,.42,1,.8.8,0,0,0,1-.49A.72.72,0,0,0,107.94,62.45Z"/><path class="cls-2" d="M103.13,75.82a.86.86,0,0,0-.81.85,1.2,1.2,0,0,0,.49,1.24c.5.3,1.12-.42,1.12-.42s-.93.19-1.07-.38a1.16,1.16,0,0,1,.46-1.19Z"/><path class="cls-7" d="M103.83,75.93c-.59-.25-.92.23-1.06.58a.71.71,0,0,0,.43,1,.79.79,0,0,0,1-.49A.72.72,0,0,0,103.83,75.93Z"/><path class="cls-2" d="M99.49,90.62a.86.86,0,0,0-.81.85,1.19,1.19,0,0,0,.49,1.24c.51.3,1.12-.42,1.12-.42s-.93.19-1.07-.38a1.18,1.18,0,0,1,.46-1.19Z"/><path class="cls-7" d="M100.24,90.74c-.58-.25-.91.24-1,.59a.71.71,0,0,0,.43,1,.81.81,0,0,0,1-.5A.72.72,0,0,0,100.24,90.74Z"/><path class="cls-6" d="M35.16,113.85c.67-.31,1.36-.58,2.05-.86s1.38-.52,2.08-.76h0c3.15-1.25,6.29-2.55,9.46-3.77S55,106,58.28,104.9c-3.06,1.49-6.22,2.73-9.35,4s-6.3,2.54-9.45,3.82h0c-.71.21-1.42.42-2.14.6S35.89,113.71,35.16,113.85Z"/><path class="cls-1" d="M131.78,47.82l-7.26.15c-4.44,1.4-7,4.58-7.25,9.3l-.18,59.88h3.65a3.58,3.58,0,0,1,1.25-.77V57.13c.32-2.45,1.64-4.28,4.57-4.33l5.43-.07Z"/><path class="cls-1" d="M149.45,65.75l-15.93.15c-4.44,1.4-7,4.58-7.25,9.3l-.18,38.53,4.9-4.29V75.06c.32-2.45,1.64-4.28,4.57-4.33l15.24-.07Z"/><path class="cls-1" d="M154.77,82.39H116c-4.9,0-8.65,4.31-8.65,7.19L107,117l4.87.1.35-26.76c.07-1.61,2.38-3,3.63-3H156Z"/><path class="cls-8" d="M234.58,117.29h-33.1a12.63,12.63,0,0,1-8.14-3L162.58,88.5a9.74,9.74,0,0,0-6.26-2.28H116.16a5.2,5.2,0,0,0-5.18,5.1l-.44,25.73-2.92,0,.44-25.72a8.14,8.14,0,0,1,8.1-8h40.16a12.69,12.69,0,0,1,8.14,3l30.76,25.83a9.74,9.74,0,0,0,6.26,2.28h33.1Z"/><path class="cls-8" d="M129.79,110.51l-2.92,2.55.45-38.33a8.13,8.13,0,0,1,8.1-8H158.5a13.51,13.51,0,0,1,9.25,3.64l15.08,14.06a8.45,8.45,0,0,0,5.8,2.29h19.05v2.92H188.63a11.38,11.38,0,0,1-7.79-3.07L165.75,72.52a10.59,10.59,0,0,0-7.25-2.85H135.42a5.2,5.2,0,0,0-5.18,5.1Z"/><polyline class="cls-9" points="177.19 56.78 185.35 50.71 177.19 44.63"/><polyline class="cls-9" points="202.95 93.99 211.12 87.92 202.95 81.84"/><polyline class="cls-9" points="224.72 121.9 232.89 115.83 224.72 109.75"/><path class="cls-8" d="M120.72,117.14l-2.92,0,.45-60.1a8.14,8.14,0,0,1,8.1-8l57,.14v2.92l-57-.14a5.21,5.21,0,0,0-5.18,5.11Z"/><circle class="cls-10" cx="256.41" cy="112.91" r="21.48"/><circle class="cls-1" cx="239.81" cy="82.89" r="26.44"/><circle class="cls-11" cx="239.81" cy="82.89" r="26.44"/><circle class="cls-1" cx="221.91" cy="49.28" r="33.12"/><circle class="cls-12" cx="221.91" cy="49.28" r="33.12"/><path class="cls-13" d="M211.59,30.55c1.25-.32,2.48-.68,3.73-1,1.15,1.17,2.32,2.33,3.47,3.49s2.07,2.1,3.14,3.11l0,0q-6.56,6.54-13.09,13.08c-2.21-2.2-4.4-4.41-6.61-6.6q1.36-5.19,2.74-10.36l6.64-1.76Z"/><path class="cls-14" d="M228.52,29.58c3.45.89,6.9,1.82,10.36,2.73l2.43,9.19c.1.39.22.77.3,1.17-2.2,2.19-4.39,4.4-6.6,6.59v0c-1.85-1.89-3.74-3.74-5.6-5.62L223,37.21c-.35-.34-.68-.7-1-1l0,0c2.19-2.2,4.4-4.39,6.59-6.59Z"/><path class="cls-15" d="M208.82,49.27q6.56-6.52,13.09-13.08c.36.32.69.68,1,1l6.45,6.45c1.86,1.88,3.75,3.73,5.6,5.62L223.06,61.21c-.39.38-.74.79-1.16,1.13q-6.53-6.53-13.06-13.06Z"/><path class="cls-16" d="M235,49.28v0c.82.87,1.69,1.69,2.53,2.55l4.07,4.06c-.88,3.46-1.83,6.9-2.73,10.36q-5.17,1.38-10.37,2.74c-2.19-2.21-4.4-4.4-6.59-6.61l0,0c.42-.34.77-.75,1.16-1.13L235,49.28Z"/><path class="cls-17" d="M208.24,49.85a8.08,8.08,0,0,1,.6-.57q6.53,6.54,13.06,13.06l0,0-6,6c-.23.22-.44.45-.67.66-3.44-.93-6.89-1.83-10.34-2.75q-1.37-5.16-2.74-10.33c2-2,4-4,6-6Z"/><polygon class="cls-18" points="118.09 76.04 118.05 83.3 120.99 83.3 121 76.06 118.09 76.04"/><polygon class="cls-19" points="120.94 93.48 120.97 86.22 118.03 86.22 118.02 93.45 120.94 93.48"/><polygon class="cls-20" points="127.22 76.04 127.18 83.3 130.12 83.3 130.13 76.06 127.22 76.04"/><polygon class="cls-21" points="130.07 93.48 130.1 86.22 127.16 86.22 127.15 93.45 130.07 93.48"/></g></g></svg>