<svg xmlns="http://www.w3.org/2000/svg" viewBox="0 0 268.36 105.85"><defs><style>.cls-1{fill:#fff;}.cls-2{fill:#a5a5a5;}.cls-3{fill:#e7ce17;}.cls-4{fill:#e5d15c;}.cls-12,.cls-13,.cls-14,.cls-15,.cls-17,.cls-5,.cls-8{fill:none;}.cls-5,.cls-8{stroke:#622262;}.cls-10,.cls-16,.cls-17,.cls-5,.cls-8{stroke-miterlimit:10;}.cls-5{stroke-width:1.62px;}.cls-6{fill:#7f7f7f;}.cls-7{fill:#686868;}.cls-8{stroke-width:0.54px;}.cls-9{fill:#9b9b9b;}.cls-10{fill:#e2d53b;stroke:#fff;stroke-width:0.84px;}.cls-11{fill:#592349;}.cls-12{stroke:#56394f;}.cls-12,.cls-13,.cls-14,.cls-15{stroke-miterlimit:47.96;}.cls-12,.cls-15{stroke-width:2.12px;}.cls-13,.cls-14,.cls-15{stroke:#adadad;}.cls-13{stroke-width:2.28px;}.cls-14{stroke-width:2.68px;}.cls-16{stroke:#000;stroke-width:8px;}.cls-17{stroke:#e7ce17;stroke-width:2.7px;}.cls-18{fill:#e5d993;}</style></defs><g id="Layer_2" data-name="Layer 2"><g id="tooltip"><path class="cls-1" d="M29.51,0H68A17.84,17.84,0,0,1,85.8,17.84V73.21a32.64,32.64,0,0,1-32.64,32.64H44.31A32.64,32.64,0,0,1,11.67,73.21V17.84A17.84,17.84,0,0,1,29.51,0Z"/><path class="cls-2" d="M16.09,20.37c1.05-11.09,5.18-14,13.34-15.74L69,4.5c8.39,2.08,11.65,8.34,11.65,17.9V70.33c-3.35,23-15.09,28.94-35.06,29.47-12.38-.27-28.29-6.4-29.19-32.58Z"/><path class="cls-3" d="M32.18,4.55C29,5.11,25.94,5.16,24.69,7l0,32.45C26,46,29.46,49.37,34.57,50.4l14-.41L48.22,5.26Z"/><path class="cls-4" d="M35.11,12.89a13.67,13.67,0,0,0-10.3,4.66v18.2a13.75,13.75,0,1,0,10.3-22.86Z"/><path class="cls-5" d="M30.49,4.55H66.24A14.4,14.4,0,0,1,80.64,19v52.5A28.42,28.42,0,0,1,52.22,99.88H44.51A28.42,28.42,0,0,1,16.09,71.45V19a14.4,14.4,0,0,1,14.4-14.4Z"/><line class="cls-5" x1="48.57" y1="4.9" x2="48.57" y2="50.33"/><rect class="cls-6" x="42.79" y="11.84" width="11.95" height="23.83" rx="5.26"/><path class="cls-7" d="M48.5,12l0,23.58c-3-.37-4.91-2.08-5.65-5.43L43,17A5.69,5.69,0,0,1,48.5,12Z"/><rect class="cls-8" x="42.79" y="11.84" width="11.95" height="23.83" rx="5.26"/><path class="cls-5" d="M72.3,6.34V39.47a11,11,0,0,1-11,11H35.73a11,11,0,0,1-11-11V6.34"/><rect class="cls-9" x="45.35" y="14.46" width="6.44" height="18.6" rx="2.83"/><polygon class="cls-10" points="19.65 27.36 0.42 24.93 0.42 29.79 19.65 27.36"/><polygon class="cls-10" points="23.12 35.02 7.8 46.9 11.24 50.34 23.12 35.02"/><polygon class="cls-10" points="24.86 20.01 12.98 4.7 9.54 8.13 24.86 20.01"/><rect class="cls-1" x="97.86" y="0.41" width="170.5" height="104.71" rx="5.31"/><polygon class="cls-11" points="143.99 24.28 143.99 97.77 245.01 97.77 245.01 24.75 143.99 24.28"/><line class="cls-12" x1="204.11" y1="99.07" x2="204.11" y2="24.06"/><line class="cls-12" x1="170.24" y1="99.07" x2="170.24" y2="24.06"/><line class="cls-12" x1="223.23" y1="99.22" x2="223.23" y2="24.21"/><path class="cls-13" d="M257.55,6.73H108.36c-2.17,0-3.93,1-3.93,4V95.47c0,3,1.76,3.34,3.93,3.34H257.55c2.17,0,3.93-.35,3.93-3.34V10.68C261.46,7.69,259.72,6.73,257.55,6.73Z"/><line class="cls-12" x1="146.78" y1="59.66" x2="244.89" y2="59.66"/><line class="cls-12" x1="146.78" y1="78.01" x2="245.53" y2="78.01"/><line class="cls-14" x1="104.63" y1="78.01" x2="144.92" y2="78.01"/><line class="cls-14" x1="246.23" y1="78.01" x2="261.34" y2="78.01"/><line class="cls-14" x1="246.23" y1="59.73" x2="261.34" y2="59.73"/><line class="cls-14" x1="246.23" y1="41.46" x2="261.34" y2="41.46"/><line class="cls-14" x1="105.2" y1="41.46" x2="144.58" y2="41.46"/><line class="cls-14" x1="105.2" y1="59.66" x2="144.58" y2="59.66"/><line class="cls-15" x1="145.28" y1="98.84" x2="145.28" y2="23.6"/><line class="cls-15" x1="117.56" y1="98.92" x2="117.56" y2="23.66"/><line class="cls-15" x1="170.24" y1="23.72" x2="170.24" y2="7.35"/><line class="cls-15" x1="245.98" y1="99.37" x2="245.98" y2="24.36"/><line class="cls-15" x1="145.28" y1="23.83" x2="145.28" y2="6.75"/><line class="cls-15" x1="117.56" y1="23.91" x2="117.56" y2="6.75"/><line class="cls-15" x1="204.11" y1="24.06" x2="204.11" y2="6.45"/><line class="cls-15" x1="223.23" y1="24.21" x2="223.23" y2="6.45"/><line class="cls-15" x1="245.98" y1="24.36" x2="245.98" y2="6.45"/><line class="cls-14" x1="104.33" y1="23.44" x2="260.75" y2="23.44"/><line class="cls-12" x1="146.29" y1="41.27" x2="244.87" y2="41.27"/><path d="M234.91,85.13c-2.78-4.15-6.49-11-7.79-16.55l-3.06-13.17L219.34,72,138,14.79l-3.91,5.3,79.58,59.73-14.22,9.69,13.47-1.24c5.71-.52,13.35.85,18.16,2.19l9.1,2.52Z"/><polygon class="cls-16" points="235.5 75.3 235.5 90.56 220.24 90.56 220.24 96.05 235.5 96.05 240.99 96.05 240.99 90.56 240.99 75.3 235.5 75.3"/><polygon class="cls-1" points="235.5 75.3 235.5 90.56 220.24 90.56 220.24 96.05 235.5 96.05 240.99 96.05 240.99 90.56 240.99 75.3 235.5 75.3"/><line class="cls-17" x1="221.77" y1="79.65" x2="187.92" y2="55.17"/><path class="cls-3" d="M231.55,86.72c-3.37-5-7-12.08-8.28-17.72l-2.78,9.72-8.36,5.69C217.9,83.88,225.71,85.1,231.55,86.72Z"/><line class="cls-17" x1="174.7" y1="45.59" x2="185.35" y2="53.3"/><line class="cls-17" x1="159.96" y1="34.91" x2="168.48" y2="41.09"/><polygon class="cls-3" points="149.91 26.24 156.43 30.69 154.85 32.88 148.59 28.07 149.91 26.24"/><polygon class="cls-3" points="143.22 21.9 147.65 24.75 146.46 26.39 142.37 23.07 143.22 21.9"/><polygon class="cls-3" points="138.5 19.37 141.13 20.22 140.13 21.61 138.5 19.37"/><circle class="cls-18" cx="35.11" cy="26.65" r="5.03"/><circle class="cls-1" cx="35.11" cy="26.65" r="2.06"/></g></g></svg>