<svg xmlns="http://www.w3.org/2000/svg" viewBox="0 0 245.01 68.58"><defs><style>.cls-1{fill:#bbdcb0;}.cls-2{fill:#622262;stroke-miterlimit:10;stroke-width:4px;}.cls-2,.cls-3,.cls-4{stroke:#fff;}.cls-3,.cls-4{fill:none;stroke-linecap:round;stroke-linejoin:round;}.cls-3{stroke-width:3.11px;}.cls-4{stroke-width:4px;}.cls-5{fill:#fff;}</style></defs><g id="Layer_2" data-name="Layer 2"><g id="tooltip"><path class="cls-1" d="M53.77,50a61.36,61.36,0,0,0-2-13,33.15,33.15,0,0,0-5.49-11.65,20.44,20.44,0,0,0-10.19-7.18A26.37,26.37,0,0,0,29.82,17L28.21,17c-.54,0-1.08,0-1.61.06a22.53,22.53,0,0,0-3.19.32,10.38,10.38,0,0,0-1.57.31c-.51.14-1,.23-1.54.4a22,22,0,0,0-2.94,1.17,24,24,0,0,0-2.74,1.57,22.47,22.47,0,0,0-2.46,2,28.6,28.6,0,0,0-6.9,10.79A63.34,63.34,0,0,0,2,46.39,120.36,120.36,0,0,0,.77,59.75,55.06,55.06,0,0,1,.16,46.17,50.09,50.09,0,0,1,3,32.72a31,31,0,0,1,7.38-11.83,25,25,0,0,1,2.73-2.3,23.32,23.32,0,0,1,3.09-1.81,25.88,25.88,0,0,1,3.32-1.34c.56-.2,1.14-.3,1.72-.46A13.11,13.11,0,0,1,23,14.62a30.2,30.2,0,0,1,14,.88,23.3,23.3,0,0,1,11.49,8.18,35.5,35.5,0,0,1,5.87,12.64,63.63,63.63,0,0,1,1.81,13.62Z"/><path class="cls-1" d="M54.73,59.3c1.7-4.35,4.57-9.74,7.56-13l-7.38,2.52L47.63,46C50.51,49.41,53.18,54.89,54.73,59.3Z"/><circle class="cls-2" cx="218.72" cy="35.42" r="24.29"/><line class="cls-3" x1="205.13" y1="36.07" x2="232.81" y2="36.07"/><polyline class="cls-4" points="212.27 42.05 204.22 36.07 212.27 30.09"/><ellipse cx="54.17" cy="61.19" rx="16.81" ry="5.72"/><ellipse cx="108.68" cy="61.19" rx="16.81" ry="5.72"/><path class="cls-1" d="M108.54,50a63.18,63.18,0,0,0-1.25-10.28A41.52,41.52,0,0,0,104.12,30a25.29,25.29,0,0,0-6-8.07,21.1,21.1,0,0,0-8.84-4.58,28.73,28.73,0,0,0-10.13-.61A22.58,22.58,0,0,0,69.65,20a25.66,25.66,0,0,0-7.19,7.16,48,48,0,0,0-4.75,9.31,33.46,33.46,0,0,1,3.66-10,24,24,0,0,1,7.36-7.9A24.44,24.44,0,0,1,79,14.88a30.89,30.89,0,0,1,10.84.48,22.76,22.76,0,0,1,9.79,4.92A27.29,27.29,0,0,1,106.13,29c3.17,6.58,4.34,13.81,4.61,20.93Z"/><path class="cls-1" d="M109.43,59.3c1.7-4.35,4.57-9.74,7.56-13l-7.38,2.52L102.33,46C105.2,49.41,107.88,54.89,109.43,59.3Z"/><path class="cls-1" d="M58.21,55.75a27.15,27.15,0,0,1,8.6.9,13.88,13.88,0,0,1,2.12.83,6.76,6.76,0,0,1,2,1.45,3.83,3.83,0,0,1,.8,1.27,3,3,0,0,1,.16,1.67,4.57,4.57,0,0,1-1.51,2.53,12.66,12.66,0,0,1-4.16,2.33,26,26,0,0,1-4.33,1.17,42.31,42.31,0,0,1-8.76.67c-1.46,0-2.93-.14-4.39-.3a41,41,0,0,1-4.35-.81,23.89,23.89,0,0,1-4.26-1.53,9.64,9.64,0,0,1-1-.57,7.23,7.23,0,0,1-1-.7,8,8,0,0,1-1-.89,4.45,4.45,0,0,1-.75-1.28,2.19,2.19,0,0,1-.2-.79,2.32,2.32,0,0,1,0-.83,2.38,2.38,0,0,1,.23-.77,2.44,2.44,0,0,1,.36-.66,5.64,5.64,0,0,1,1.94-1.66A15,15,0,0,1,43,56.25a31.4,31.4,0,0,1,4.29-.6,38.21,38.21,0,0,1,4.28,0,43.16,43.16,0,0,0-8.17,2,14.89,14.89,0,0,0-3.57,1.78,3.69,3.69,0,0,0-1.15,1.2.94.94,0,0,0,0,1,2.49,2.49,0,0,0,.37.51,7.55,7.55,0,0,0,.66.49,5.28,5.28,0,0,0,.78.44,6.74,6.74,0,0,0,.86.37,21.31,21.31,0,0,0,3.8,1.07,46.64,46.64,0,0,0,8.12.78,49.07,49.07,0,0,0,8.14-.56,35.23,35.23,0,0,0,3.91-.86,11.81,11.81,0,0,0,3.36-1.51,2.15,2.15,0,0,0,.79-.93,1,1,0,0,0-.23-1,8.26,8.26,0,0,0-3-2.13A38.84,38.84,0,0,0,58.21,55.75Z"/><path class="cls-1" d="M112.81,55.75a27.12,27.12,0,0,1,8.6.9,14,14,0,0,1,2.13.83,6.72,6.72,0,0,1,2,1.45,3.83,3.83,0,0,1,.8,1.27,3,3,0,0,1,.17,1.67A4.52,4.52,0,0,1,125,64.4a12.62,12.62,0,0,1-4.15,2.33,26.22,26.22,0,0,1-4.33,1.17,42.41,42.41,0,0,1-8.77.67c-1.46,0-2.92-.14-4.38-.3A40.58,40.58,0,0,1,99,67.46a24,24,0,0,1-4.27-1.53,9.51,9.51,0,0,1-1-.57,8,8,0,0,1-1-.7,8.73,8.73,0,0,1-1-.89A4.47,4.47,0,0,1,91,62.49a2.18,2.18,0,0,1-.19-.79,1.94,1.94,0,0,1,0-.83,2.37,2.37,0,0,1,.22-.77,2.77,2.77,0,0,1,.37-.66,5.61,5.61,0,0,1,1.93-1.66,15,15,0,0,1,4.22-1.53,31.61,31.61,0,0,1,4.29-.6,38.21,38.21,0,0,1,4.28,0,43.35,43.35,0,0,0-8.17,2,14.64,14.64,0,0,0-3.56,1.78,3.49,3.49,0,0,0-1.15,1.2,1,1,0,0,0,0,1,2.58,2.58,0,0,0,.38.51,7.33,7.33,0,0,0,.65.49A5.28,5.28,0,0,0,95,63a6.89,6.89,0,0,0,.87.37,20.85,20.85,0,0,0,3.8,1.07,46.53,46.53,0,0,0,8.11.78,49,49,0,0,0,8.14-.56,35.41,35.41,0,0,0,3.92-.86,11.93,11.93,0,0,0,3.36-1.51,2.22,2.22,0,0,0,.79-.93,1,1,0,0,0-.24-1,8.13,8.13,0,0,0-3-2.13A38.93,38.93,0,0,0,112.81,55.75Z"/><ellipse cx="164.22" cy="61.19" rx="16.81" ry="5.72"/><polygon class="cls-5" points="115.17 22.3 115.65 20.32 117.77 20.89 117.28 22.79 115.17 22.3"/><path class="cls-5" d="M116.92,16.31a40,40,0,0,1,1.7-3.86l1.94,1A35.81,35.81,0,0,0,119,17.08Z"/><path class="cls-5" d="M120.81,8.81a24,24,0,0,1,2.76-3.28L125.06,7a22,22,0,0,0-2.5,3Z"/><path class="cls-5" d="M127,2.86A18.41,18.41,0,0,1,130.88,1l.64,1.85a16.42,16.42,0,0,0-3.46,1.72Z"/><path class="cls-5" d="M135.08.12a25.17,25.17,0,0,1,4.25-.06l-.1,1.78a21.55,21.55,0,0,0-3.94.14Z"/><path class="cls-5" d="M143.51.56a28.81,28.81,0,0,1,4.08,1.07L147,3.26a26.45,26.45,0,0,0-3.85-1Z"/><path class="cls-5" d="M151.47,3.34A24.61,24.61,0,0,1,155,5.69L154,7a22.63,22.63,0,0,0-3.3-2.17Z"/><path class="cls-5" d="M158.06,8.62A26.68,26.68,0,0,1,160.6,12l-1.33.87a24.62,24.62,0,0,0-2.42-3.15Z"/><path class="cls-5" d="M162.62,15.66a37,37,0,0,1,1.56,3.88l-1.35.48a37.66,37.66,0,0,0-1.57-3.7Z"/><path class="cls-5" d="M165.35,23.53c.34,1.34.62,2.7.85,4.06l-1.26.23c-.25-1.33-.55-2.65-.9-3.95Z"/><polygon class="cls-5" points="166.76 31.69 167.06 35.81 166.01 35.88 165.57 31.83 166.76 31.69"/><polygon class="cls-5" points="167.15 39.93 167.06 44.05 166.31 44.03 166.25 39.95 167.15 39.93"/><polygon class="cls-5" points="166.8 48.15 166.37 52.24 166 52.2 166.22 48.12 166.8 48.15"/><polygon class="cls-5" points="165.79 56.3 165.44 58.27 165.66 56.28 165.79 56.3"/><path class="cls-5" d="M114.93,31.76c2.25-4.09,5.79-9.06,9.19-12l-7.64,1.55-6.87-3.7C112,21.41,114,27.19,114.93,31.76Z"/><path class="cls-1" d="M168.07,55.75a27.15,27.15,0,0,1,8.6.9,13.88,13.88,0,0,1,2.12.83,6.76,6.76,0,0,1,2,1.45,3.83,3.83,0,0,1,.8,1.27,3,3,0,0,1,.16,1.67,4.57,4.57,0,0,1-1.51,2.53,12.66,12.66,0,0,1-4.16,2.33,25.7,25.7,0,0,1-4.33,1.17,42.31,42.31,0,0,1-8.76.67c-1.46,0-2.93-.14-4.39-.3a41,41,0,0,1-4.35-.81A23.89,23.89,0,0,1,150,65.93a9.64,9.64,0,0,1-1-.57,7.23,7.23,0,0,1-1-.7,8,8,0,0,1-1-.89,4.45,4.45,0,0,1-.75-1.28,2.19,2.19,0,0,1-.2-.79,2.32,2.32,0,0,1,0-.83,2.38,2.38,0,0,1,.23-.77,2.44,2.44,0,0,1,.36-.66,5.64,5.64,0,0,1,1.94-1.66,15,15,0,0,1,4.22-1.53,31.4,31.4,0,0,1,4.29-.6,38.21,38.21,0,0,1,4.28,0,43.16,43.16,0,0,0-8.17,2,14.89,14.89,0,0,0-3.57,1.78,3.69,3.69,0,0,0-1.15,1.2.94.94,0,0,0,0,1,2.49,2.49,0,0,0,.37.51,7.55,7.55,0,0,0,.66.49,5.28,5.28,0,0,0,.78.44,7.42,7.42,0,0,0,.86.37A21.18,21.18,0,0,0,155,64.46a46.44,46.44,0,0,0,8.11.78,49.07,49.07,0,0,0,8.14-.56,35.23,35.23,0,0,0,3.91-.86,11.81,11.81,0,0,0,3.36-1.51,2.15,2.15,0,0,0,.79-.93,1,1,0,0,0-.23-1,8.26,8.26,0,0,0-3-2.13A38.65,38.65,0,0,0,168.07,55.75Z"/></g></g></svg>