<svg xmlns="http://www.w3.org/2000/svg" xmlns:xlink="http://www.w3.org/1999/xlink" viewBox="0 0 287.1 177.31"><defs><style>.cls-1{fill:#05778c;}.cls-11,.cls-2{fill:#fff;}.cls-3{fill:url(#linear-gradient);}.cls-4,.cls-6,.cls-8{fill:none;}.cls-4,.cls-6{stroke:#999;}.cls-11,.cls-4,.cls-6,.cls-8{stroke-miterlimit:10;}.cls-10,.cls-5{fill:#333;}.cls-11,.cls-6{stroke-width:3px;}.cls-7{fill:#f2f2f2;}.cls-11,.cls-8{stroke:#622262;}.cls-8{stroke-width:2.08px;}.cls-9{fill:#622262;}.cls-10{font-size:10px;font-family:ProximaNova-Regular, Proxima Nova;}.cls-12{fill:#999;}</style><linearGradient id="linear-gradient" x1="90.46" y1="117.01" x2="156.88" y2="117.01" gradientUnits="userSpaceOnUse"><stop offset="0" stop-opacity="0"/><stop offset="1" stop-opacity="0.6"/></linearGradient><symbol id="carat" data-name="carat" viewBox="0 0 5.44 2.72"><polygon class="cls-1" points="5.44 0 2.72 2.72 0 0 5.44 0"/></symbol></defs><g id="Layer_2" data-name="Layer 2"><g id="tooltip"><rect class="cls-2" x="0.05" y="57.48" width="286.05" height="119.07"/><rect class="cls-3" x="90.46" y="57.46" width="66.42" height="119.09"/><path class="cls-2" d="M181.83,176.55h-25c-13.39,0-26.79-14.61-26.79-14.61V42.88s15.91,14.6,26.79,14.6h25Z"/><path class="cls-4" d="M181.85,176.81H156.91c-13.39,0-26.79-14.61-26.79-14.61V43.13S146,57.74,156.91,57.74h24.94Z"/><path class="cls-4" d="M130.31,90.57s15.9,14.61,26.79,14.61H182"/><path class="cls-5" d="M140,67.44l0-6.34.7.44.09,5.51,2.47,1.56.09,1Z"/><path class="cls-5" d="M144.79,69.07a2.4,2.4,0,1,1,2.52,2.41A2.38,2.38,0,0,1,144.79,69.07Zm4-.21a1.63,1.63,0,1,0-1.5,2A1.69,1.69,0,0,0,148.78,68.86Z"/><path class="cls-5" d="M151.28,73l0-4.83H152v.78a2.09,2.09,0,0,1,1.61-.89v.77a1.32,1.32,0,0,0-.3,0,1.77,1.77,0,0,0-1.3.78v3.73Z"/><path class="cls-5" d="M154.3,71.89a2.41,2.41,0,0,1,2.5-2.41,2.34,2.34,0,0,1,2.19,2.7v.19l-3.91-.2a1.71,1.71,0,0,0,1.66,1.76,2.1,2.1,0,0,0,1.52-.53l.33.5a2.59,2.59,0,0,1-2,.65A2.4,2.4,0,0,1,154.3,71.89Zm2.46-1.79a1.61,1.61,0,0,0-1.66,1.52l3.17.16A1.56,1.56,0,0,0,156.76,70.1Z"/><path class="cls-5" d="M166.11,74.43V71.16c0-.61-.27-1-.89-1a1.69,1.69,0,0,0-1.28.74v3.53h-.75V71.16c0-.61-.26-1-.89-1a1.69,1.69,0,0,0-1.27.75v3.52h-.75V69.61H161v.7a2.09,2.09,0,0,1,1.56-.82,1.24,1.24,0,0,1,1.3.9,2,2,0,0,1,1.62-.9c.88,0,1.35.49,1.35,1.46v3.48Z"/><path class="cls-4" d="M130.31,114.39S146.21,129,157.1,129H182"/><path class="cls-4" d="M130.31,138.2s15.9,14.61,26.79,14.61H182"/><line class="cls-4" x1="104.56" y1="105.18" y2="105.18"/><line class="cls-4" x1="104.56" y1="128.99" x2="0.05" y2="128.99"/><line class="cls-4" x1="104.56" y1="152.81" x2="0.03" y2="152.81"/><line class="cls-6" x1="0.23" y1="81.29" x2="105.35" y2="81.29"/><line class="cls-6" x1="182.19" y1="81.29" x2="286" y2="81.29"/><line class="cls-4" x1="104.35" y1="176.6" x2="105.16" y2="57.46"/><line class="cls-4" x1="53" y1="176.6" x2="53.81" y2="57.46"/><line class="cls-4" x1="285.49" y1="105.18" x2="182.23" y2="105.18"/><line class="cls-4" x1="285.49" y1="128.99" x2="182.28" y2="128.99"/><line class="cls-4" x1="285.49" y1="152.81" x2="182.27" y2="152.81"/><line class="cls-4" x1="235.23" y1="176.6" x2="236.05" y2="57.46"/><line class="cls-4" x1="285.79" y1="176.6" x2="286.6" y2="57.46"/><path class="cls-7" d="M196.85,9.34h0c-17.1-11.22-41-12.46-58.07-3-10.39,5.74-22.7,17.72-23.54,42.32L104,45.33l5.43,5.5c3.16,3.21,6.14,8.53,7.72,12.11l2.18,4.93,1.56-5.16c1.14-3.75,3.44-9.39,6.19-13l4.71-6.12-10.39,4.49c1-21.27,11.49-31.55,20.37-36.46,15-8.26,36.74-7.1,51.79,2.77,10.63,7,15.91,16.9,14.86,27.95l-.19,2,6,.57.19-2C215.7,29.54,209.46,17.6,196.85,9.34Z"/><path class="cls-8" d="M118.24,52.85c-1.38-72.18,97.62-57.12,93.15-10.2"/><path class="cls-9" d="M118.93,62.13c1.35-4.47,3.79-10.06,6.51-13.61l-7.16,3.1-7.48-2.2C113.94,52.61,117,57.86,118.93,62.13Z"/><use width="5.44" height="2.72" transform="translate(271.23 69.35)" xlink:href="#carat"/><text class="cls-10" transform="translate(247.37 73.03)">Diam</text><circle class="cls-11" cx="211.62" cy="57.05" r="31.5"/><polygon class="cls-9" points="229.23 59.44 229.23 54.66 214 54.66 214 39.44 209.23 39.44 209.23 54.66 194.01 54.66 194.01 59.44 209.23 59.43 209.23 74.66 214 74.66 214 59.44 229.23 59.44"/><path class="cls-12" d="M157.1,79.86c-9.21,0-24-12.76-26.87-15.29v4c5.34,4.52,18,14.32,26.87,14.32H182v-3Z"/><use width="5.44" height="2.72" transform="translate(168.86 70.93)" xlink:href="#carat"/><use width="5.44" height="2.72" transform="translate(92.21 69.35)" xlink:href="#carat"/><text class="cls-10" transform="translate(63.53 73.03)">Ipsum</text><use width="5.44" height="2.72" transform="translate(38.07 69.35)" xlink:href="#carat"/><text class="cls-10" transform="translate(9.4 73.03)">Dolor</text></g></g></svg>