<svg xmlns="http://www.w3.org/2000/svg" xmlns:xlink="http://www.w3.org/1999/xlink" viewBox="0 0 167.08 104.83"><defs><style>.cls-1{fill:none;stroke:#515151;stroke-width:0.66px;}.cls-1,.cls-11,.cls-4{stroke-miterlimit:10;}.cls-2{fill:#2d2d2d;}.cls-3{fill:#838589;}.cls-11,.cls-4,.cls-8{fill:#fff;}.cls-4{stroke:#fff;stroke-width:6.54px;}.cls-5{fill:#bbdcb0;}.cls-6{fill:#d2eaca;}.cls-7{fill:url(#linear-gradient);}.cls-9{fill:#4d4d4d;}.cls-10{fill:#333;}.cls-11{stroke:#534741;stroke-width:1.19px;}.cls-12{fill:#534741;}</style><linearGradient id="linear-gradient" x1="72.45" y1="74.17" x2="50.25" y2="42.33" gradientUnits="userSpaceOnUse"><stop offset="0" stop-opacity="0.3"/><stop offset="1" stop-opacity="0"/></linearGradient><symbol id="box-hollow" data-name="box-hollow" viewBox="0 0 34.75 40.35"><polyline class="cls-1" points="0.7 8.91 16.94 17.07 17.84 17.06 33.92 9.06"/><polygon class="cls-2" points="26.8 4.53 8.9 13.41 8.86 15.94 6.25 14.5 6.27 12.04 24.1 3.25 26.8 4.53"/><polygon class="cls-1" points="0.33 9.13 0.33 19.25 0.33 31.99 16.94 40.02 17.8 40.02 34.05 32.16 34.41 31.52 34.35 9.52 33.88 8.39 17.96 0.33 16.94 0.33 0.73 8.41 0.33 9.13"/><line class="cls-1" x1="17.39" y1="16.92" x2="17.39" y2="39.87"/><polygon class="cls-3" points="23.53 3.52 6.27 12.04 6.25 14.5 6.64 14.72 6.67 12.26 23.96 3.73 23.53 3.52"/><polygon points="26.15 4.81 8.89 13.32 8.86 15.79 9.25 16.01 9.29 13.55 26.58 5.02 26.15 4.81"/></symbol></defs><g id="Layer_2" data-name="Layer 2"><g id="tooltip"><polygon class="cls-4" points="4.36 21.31 3.27 23.29 3.32 73.77 40.17 91.51 42.35 91.53 78.11 74.21 79.1 72.48 78.87 24.01 77.69 21.18 42.74 3.32 40 3.28 4.36 21.31"/><polygon class="cls-5" points="4.07 23.56 4.4 73.33 40.26 90.8 42.14 90.8 77.36 73.75 78.32 71.96 78.24 24.29 77.2 21.82 42.84 4.61 39.81 4.56 5.07 21.78 4.07 23.56"/><polygon class="cls-6" points="4.78 23.76 4.4 73.33 41.24 90.48 41.07 41.41 4.78 23.76"/><use width="34.75" height="40.35" transform="translate(3.31 3.52) scale(2.18)" xlink:href="#box-hollow"/><polygon class="cls-7" points="41.97 90.08 41.93 40.15 77.79 21.31 78.97 24.14 79.1 72.48 78.11 74.21 42.35 91.53 41.97 90.08"/><polygon class="cls-8" points="6.22 71.14 6.17 25.77 15.78 30.43 16.93 35.16 16.98 29.77 4.78 23.76 4.76 72.78 17.06 78.77 6.22 71.14"/><polygon class="cls-8" points="43.73 43.02 55.7 37.03 55.7 42.13 43.73 48.11 43.73 43.02"/><path class="cls-9" d="M55.2,37.84v4l-11,5.48v-4l11-5.49m1-1.62-13,6.49v6.21l13-6.49V36.22Z"/><path class="cls-8" d="M113,104.33A28,28,0,0,1,87.16,65.52l.15-.35L60.82,45l29.89,14.4L91,59.1a28,28,0,1,1,22,45.23Z"/><path class="cls-10" d="M65.06,47.61,90.13,59.69l.73.35.49-.64a27.32,27.32,0,1,1-3.73,6.32l.3-.72-.61-.47L65.06,47.61m-8.48-5.2L86.7,65.33a28.59,28.59,0,1,0,3.87-6.54l-34-16.38Z"/><rect class="cls-11" x="97.41" y="42.17" width="69.07" height="45.54" rx="2.3"/><rect class="cls-12" x="107" y="47.09" width="4.88" height="30.76"/><rect class="cls-12" x="103.34" y="47.09" width="1.96" height="35.38"/><rect class="cls-12" x="113.44" y="47.09" width="0.96" height="34.32"/><rect class="cls-12" x="122.75" y="47.09" width="0.96" height="34.32"/><rect class="cls-12" x="116.05" y="47.09" width="2.8" height="34.32"/><rect class="cls-12" x="119.61" y="47.09" width="2.08" height="34.32"/><rect class="cls-12" x="125.42" y="47.09" width="3.84" height="30.76"/><rect class="cls-12" x="142.84" y="47.09" width="3.84" height="30.97"/><rect class="cls-12" x="130.39" y="47.09" width="1.97" height="34.32"/><rect class="cls-12" x="139.78" y="47.09" width="1.53" height="34.32"/><rect class="cls-12" x="133.58" y="47.09" width="0.93" height="34.32"/><rect class="cls-12" x="147.6" y="47.09" width="1.05" height="30.98"/><rect class="cls-12" x="154.44" y="47.09" width="1.36" height="30.98"/><rect class="cls-12" x="156.7" y="47.09" width="2.53" height="35.37"/><rect class="cls-12" x="149.24" y="47.09" width="1.98" height="30.98"/><rect class="cls-12" x="152.2" y="47.09" width="1.45" height="30.98"/><rect class="cls-12" x="136.06" y="47.09" width="2.37" height="34.32"/></g></g></svg>