<svg xmlns="http://www.w3.org/2000/svg" xmlns:xlink="http://www.w3.org/1999/xlink" viewBox="0 0 246.96 120.36"><defs><style>.cls-1{fill:none;stroke:#515151;stroke-miterlimit:10;stroke-width:0.66px;}.cls-2{fill:#2d2d2d;}.cls-3{fill:#838589;}.cls-4{fill:#fff;}.cls-5{fill:#9a5ba1;}.cls-6{fill:#b47cbf;}.cls-7{fill:url(#linear-gradient);}.cls-8{fill:#e7ce17;}.cls-9{fill:#f4df60;}.cls-10{fill:url(#linear-gradient-2);}.cls-11{fill:#aebc29;}.cls-12{fill:#d6dd45;}.cls-13{fill:url(#linear-gradient-3);}.cls-14{fill:#bbdcb0;}.cls-15{fill:#d2eaca;}.cls-16{fill:url(#linear-gradient-4);}.cls-17{fill:url(#linear-gradient-5);}.cls-18{fill:url(#linear-gradient-6);}.cls-19{fill:url(#linear-gradient-7);}</style><linearGradient id="linear-gradient" x1="57.57" y1="84.99" x2="45.46" y2="67.61" gradientUnits="userSpaceOnUse"><stop offset="0" stop-opacity="0.3"/><stop offset="1" stop-opacity="0"/></linearGradient><linearGradient id="linear-gradient-2" x1="88.02" y1="98.85" x2="75.9" y2="81.47" xlink:href="#linear-gradient"/><linearGradient id="linear-gradient-3" x1="57.9" y1="50.7" x2="45.78" y2="33.32" xlink:href="#linear-gradient"/><linearGradient id="linear-gradient-4" x1="88.52" y1="64.91" x2="76.41" y2="47.53" xlink:href="#linear-gradient"/><linearGradient id="linear-gradient-5" x1="201.34" y1="81.15" x2="183.69" y2="55.83" xlink:href="#linear-gradient"/><linearGradient id="linear-gradient-6" x1="223.36" y1="92.8" x2="209.95" y2="73.56" xlink:href="#linear-gradient"/><linearGradient id="linear-gradient-7" x1="201.92" y1="39.17" x2="193.73" y2="27.43" xlink:href="#linear-gradient"/><symbol id="box-hollow" data-name="box-hollow" viewBox="0 0 34.75 40.35"><polyline class="cls-1" points="0.7 8.91 16.94 17.07 17.84 17.06 33.92 9.06"/><polygon class="cls-2" points="26.8 4.53 8.9 13.41 8.86 15.94 6.25 14.5 6.27 12.04 24.1 3.25 26.8 4.53"/><polygon class="cls-1" points="0.33 9.13 0.33 19.25 0.33 31.99 16.94 40.02 17.8 40.02 34.05 32.16 34.41 31.52 34.35 9.52 33.88 8.39 17.96 0.33 16.94 0.33 0.73 8.41 0.33 9.13"/><line class="cls-1" x1="17.39" y1="16.92" x2="17.39" y2="39.87"/><polygon class="cls-3" points="23.53 3.52 6.27 12.04 6.25 14.5 6.64 14.72 6.67 12.26 23.96 3.73 23.53 3.52"/><polygon points="26.15 4.81 8.89 13.32 8.86 15.79 9.25 16.01 9.29 13.55 26.58 5.02 26.15 4.81"/></symbol></defs><g id="Layer_2" data-name="Layer 2"><g id="tooltip"><rect x="2.41" y="2.58" width="115.33" height="115.33"/><polygon class="cls-4" points="10.11 0 2.25 0 0 0 0 2.25 0 10.11 2.25 10.11 2.25 2.25 10.11 2.25 10.11 0"/><polygon class="cls-4" points="109.96 0.21 117.83 0.21 120.07 0.21 120.07 2.46 120.07 10.32 117.83 10.32 117.83 2.46 109.96 2.46 109.96 0.21"/><polygon class="cls-4" points="109.96 120.36 117.83 120.36 120.07 120.36 120.07 118.11 120.07 110.25 117.83 110.25 117.83 118.11 109.96 118.11 109.96 120.36"/><polygon class="cls-4" points="10.18 120.22 2.32 120.22 0.07 120.22 0.07 117.97 0.07 110.11 2.32 110.11 2.32 117.97 10.18 117.97 10.18 120.22"/><rect x="129.29" y="2.58" width="115.33" height="115.33"/><polygon class="cls-4" points="229.31 62.49 228.16 59.74 208.55 49.83 208.53 41.29 207.14 37.95 206.37 37.59 206.32 20.65 205.45 18.56 191.41 11.45 189.52 11.45 175.36 18.5 174.43 20.22 174.41 23.63 145.73 37.91 144.3 40.45 144.34 82.42 175.19 97.31 177.88 97.27 181.96 95.3 203.37 105.63 205.64 105.61 228.25 94.73 229.39 92.61 229.31 62.49"/><polygon class="cls-4" points="136.99 0 129.13 0 126.88 0 126.88 2.25 126.88 10.11 129.13 10.11 129.13 2.25 136.99 2.25 136.99 0"/><polygon class="cls-4" points="236.85 0.21 244.71 0.21 246.96 0.21 246.96 2.46 246.96 10.32 244.71 10.32 244.71 2.46 236.85 2.46 236.85 0.21"/><polygon class="cls-4" points="236.85 120.36 244.71 120.36 246.96 120.36 246.96 118.11 246.96 110.25 244.71 110.25 244.71 118.11 236.85 118.11 236.85 120.36"/><polygon class="cls-4" points="137.06 120.22 129.2 120.22 126.95 120.22 126.95 117.97 126.95 110.11 129.2 110.11 129.2 117.97 137.06 117.97 137.06 120.22"/><polygon class="cls-4" points="92.34 68.71 90.2 67.61 92.94 66.27 93.94 64.26 93.87 37.24 92.84 34.76 72.78 24.6 70.54 24.47 63.24 28.17 63.25 23.04 62.21 20.56 42.12 10.37 39.89 10.28 19.5 20.48 18.15 22.53 18.24 51.61 21.92 53.33 19.19 54.74 18.05 56.65 18.05 85.88 39.57 96.26 41.56 96.24 48.48 92.94 48.52 99.79 70.02 110.14 72.02 110.1 92.39 100.24 93.44 98.41 93.37 71.18 92.34 68.71"/><polygon class="cls-5" points="20.29 57.36 20.46 84.52 40.04 94.06 41.07 94.06 60.28 84.76 60.81 83.78 60.77 57.76 60.2 56.41 41.45 47.02 39.79 46.99 20.83 56.39 20.29 57.36"/><polygon class="cls-6" points="20.48 57.35 20.27 84.4 40.38 93.77 40.29 66.98 20.48 57.35"/><use width="34.75" height="40.35" transform="translate(19.87 46.42) scale(1.19)" xlink:href="#box-hollow"/><polygon class="cls-7" points="40.94 93.67 40.92 66.42 60.49 56.14 61.14 57.68 61.21 84.07 60.67 85.01 41.15 94.46 40.94 93.67"/><polygon class="cls-4" points="21.44 83.31 21.41 58.54 26.66 61.08 27.29 63.66 27.32 60.72 20.65 57.44 20.64 84.2 27.36 87.47 21.44 83.31"/><polygon class="cls-8" points="50.72 71.23 50.9 98.39 70.48 107.93 71.5 107.93 90.72 98.62 91.25 97.65 91.2 71.62 90.64 70.28 71.88 60.88 70.23 60.85 51.27 70.26 50.72 71.23"/><polygon class="cls-9" points="50.91 71.1 50.67 98.39 70.78 107.76 70.69 80.97 50.91 71.1"/><use width="34.75" height="40.35" transform="translate(50.31 60.29) scale(1.19)" xlink:href="#box-hollow"/><polygon class="cls-10" points="71.39 107.53 71.37 80.28 90.94 70 91.58 71.54 91.66 97.93 91.11 98.87 71.59 108.32 71.39 107.53"/><polygon class="cls-4" points="51.89 97.17 51.86 72.41 57.11 74.95 57.73 77.53 57.76 74.59 51.1 71.31 51.09 98.07 57.8 101.34 51.89 97.17"/><polygon class="cls-11" points="20.56 23.06 20.73 50.22 40.31 59.76 41.34 59.76 60.55 50.45 61.08 49.47 61.03 23.45 60.47 22.11 41.72 12.71 40.06 12.68 21.1 22.09 20.56 23.06"/><polygon class="cls-12" points="20.86 23.22 20.65 50.27 40.76 59.64 40.66 32.86 20.86 23.22"/><use width="34.75" height="40.35" transform="translate(20.14 12.12) scale(1.19)" xlink:href="#box-hollow"/><polygon class="cls-13" points="41.27 59.39 41.24 32.13 60.82 21.85 61.46 23.4 61.53 49.78 60.99 50.72 41.47 60.18 41.27 59.39"/><polygon class="cls-4" points="21.73 49.04 21.7 24.27 26.95 26.82 27.57 29.4 27.6 26.46 20.94 23.18 20.93 49.94 27.65 53.2 21.73 49.04"/><polygon class="cls-14" points="51.2 37.29 51.38 64.45 70.96 73.99 71.98 73.99 91.2 64.68 91.73 63.7 91.68 37.68 91.12 36.34 72.36 26.94 70.71 26.91 51.75 36.31 51.2 37.29"/><polygon class="cls-15" points="51.59 37.4 51.38 64.45 71.49 73.81 71.4 47.03 51.59 37.4"/><use width="34.75" height="40.35" transform="translate(50.79 26.35) scale(1.19)" xlink:href="#box-hollow"/><polygon class="cls-16" points="71.89 73.59 71.87 46.34 91.44 36.06 92.09 37.6 92.16 63.99 91.62 64.93 72.09 74.38 71.89 73.59"/><polygon class="cls-4" points="52.38 63.26 52.35 38.49 57.59 41.04 58.22 43.62 58.25 40.68 51.59 37.4 51.58 64.15 58.3 67.42 52.38 63.26"/><polygon class="cls-14" points="146.97 40.91 147.23 80.48 175.75 94.38 177.24 94.38 205.24 80.82 206.01 79.39 205.94 41.48 205.12 39.52 177.8 25.83 175.39 25.79 147.76 39.49 146.97 40.91"/><polygon class="cls-15" points="147.53 41.06 147.23 80.48 176.52 94.12 176.39 55.1 147.53 41.06"/><use width="34.75" height="40.35" transform="translate(146.36 24.97) scale(1.73)" xlink:href="#box-hollow"/><polygon class="cls-17" points="177.11 93.8 177.07 54.09 205.59 39.12 206.53 41.37 206.63 79.81 205.85 81.18 177.4 94.95 177.11 93.8"/><polygon class="cls-4" points="148.68 78.74 148.64 42.66 156.28 46.37 157.19 50.13 157.24 45.84 147.53 41.06 147.51 80.05 157.3 84.81 148.68 78.74"/><polygon class="cls-14" points="182.05 62.22 182.24 92.29 203.92 102.86 205.05 102.86 226.33 92.55 226.92 91.47 226.86 62.66 226.24 61.17 205.47 50.77 203.64 50.74 182.65 61.15 182.05 62.22"/><polygon class="cls-15" points="182.47 62.34 182.24 92.29 204.5 102.66 204.4 73.01 182.47 62.34"/><use width="34.75" height="40.35" transform="translate(181.58 50.11) scale(1.32)" xlink:href="#box-hollow"/><polygon class="cls-18" points="204.95 102.42 204.92 72.24 226.6 60.86 227.31 62.57 227.39 91.79 226.79 92.83 205.18 103.29 204.95 102.42"/><polygon class="cls-4" points="183.34 90.97 183.31 63.55 189.12 66.37 189.82 69.23 189.85 65.97 182.47 62.34 182.46 91.97 189.9 95.59 183.34 90.97"/><polygon class="cls-14" points="176.71 20.52 176.83 38.86 190.05 45.3 190.75 45.3 203.72 39.02 204.08 38.36 204.05 20.78 203.67 19.88 191 13.53 189.88 13.51 177.08 19.86 176.71 20.52"/><polygon class="cls-15" points="176.97 20.59 176.83 38.86 190.41 45.18 190.35 27.09 176.97 20.59"/><use width="34.75" height="40.35" transform="translate(176.43 13.13) scale(0.8)" xlink:href="#box-hollow"/><polygon class="cls-19" points="190.68 45.03 190.67 26.63 203.89 19.68 204.32 20.73 204.37 38.55 204 39.18 190.82 45.57 190.68 45.03"/><polygon class="cls-4" points="177.5 38.05 177.49 21.33 181.03 23.05 181.45 24.79 181.47 22.8 176.97 20.59 176.97 38.66 181.5 40.87 177.5 38.05"/></g></g></svg>