<svg xmlns="http://www.w3.org/2000/svg" xmlns:xlink="http://www.w3.org/1999/xlink" viewBox="0 0 142.18 132.7"><defs><style>.cls-1,.cls-8,.cls-9{fill:#fff;}.cls-1{stroke:#fff;stroke-width:11.05px;}.cls-1,.cls-12,.cls-4,.cls-5,.cls-9{stroke-miterlimit:10;}.cls-2{fill:#e7ce17;}.cls-3{fill:#515151;}.cls-12,.cls-4,.cls-5{fill:none;}.cls-4,.cls-5{stroke:#5b5b5b;}.cls-4{stroke-width:2.21px;}.cls-5{stroke-width:1.11px;}.cls-6{fill:#2d2d2d;}.cls-7{fill:url(#linear-gradient);}.cls-12,.cls-9{stroke:#7c7c7c;}.cls-9{stroke-width:1.42px;}.cls-10{fill:#7c7c7c;}.cls-11{fill:#f2f2f2;}.cls-12{stroke-width:2.08px;}</style><linearGradient id="linear-gradient" x1="75.36" y1="115.23" x2="57.06" y2="88.99" gradientUnits="userSpaceOnUse"><stop offset="0" stop-opacity="0.3"/><stop offset="1" stop-opacity="0"/></linearGradient></defs><g id="Layer_2" data-name="Layer 2"><g id="tooltip"><polygon class="cls-1" points="20.35 68.3 8.86 53.41 41.94 38.45 53.12 51.95 64.23 38.61 97.62 53.18 85.74 68.3 97.15 82.41 85.59 87.96 85.74 111.56 54.44 126.82 51.97 127.06 20.27 111.94 20.04 88.19 8.71 83.03 20.35 68.3"/><polygon class="cls-2" points="41.57 40.08 10.92 53.79 22 68.22 11.36 82.33 21.76 87.48 21.76 110.84 53.05 125.72 83.84 110.63 84.29 87.25 95.01 82.18 84.17 68.46 95.1 53.75 64.76 40.08 53.17 52.99 41.57 40.08"/><polygon class="cls-3" points="53.05 83.21 22 68.22 53.17 52.99 83.99 67.89 53.05 83.21"/><polygon class="cls-4" points="52.23 52.77 41.57 40.08 10.92 53.79 21.76 67.5 52.23 52.77"/><polygon class="cls-4" points="84.57 67.5 95.41 53.79 64.76 40.08 54.09 52.77 84.57 67.5"/><polygon class="cls-4" points="53.7 83.19 64.37 95.89 95.01 82.18 84.17 68.46 53.7 83.19"/><polygon class="cls-4" points="52.23 83.47 41.57 96.17 10.92 82.46 21.76 68.74 52.23 83.47"/><polyline class="cls-4" points="84.29 87.25 84.29 110.84 53.81 125.58 52.23 125.58 21.76 110.84 21.76 87.48"/><line class="cls-5" x1="53.05" y1="83.21" x2="53.05" y2="125.31"/><polygon class="cls-6" points="52.94 53.7 52.75 82.38 82.86 67.89 52.94 53.7"/><polygon class="cls-7" points="53.61 124.53 53.64 84.79 64.12 97.25 85.37 87.7 85.39 111.53 84.44 111.94 54.1 126.65 53.61 124.53"/><polygon class="cls-8" points="15.21 80.95 22.66 71.55 50.37 83.91 22.11 70.11 12.67 82.02 41.23 94.78 15.21 80.95"/><polygon class="cls-8" points="24.54 108.95 24.54 89.79 22.88 89.01 22.88 110.17 52.38 124.43 24.54 108.95"/><path class="cls-9" d="M137.58,28.88H111.3A3.32,3.32,0,0,1,108,25.56V4A3.31,3.31,0,0,1,111.3.71h26.28c1.83,0,3.89,1.74,3.89,3.58l-.57,21.27A3.32,3.32,0,0,1,137.58,28.88Z"/><polygon class="cls-10" points="136.75 21.71 130.83 7.89 123.97 17 119.35 12.35 111.94 21.71 136.75 21.71"/><circle class="cls-10" cx="114.51" cy="8.45" r="2.42"/><path class="cls-11" d="M106.5,14.08c-3.71-1.38-9.27-4-12.73-7L89.4,3.23,93,13.07c-14.7,1-25.36,5.44-32.54,13.38S49.7,45.69,49.62,61l-10-3,4.06,4.13c3.2,3.27,6.19,8.67,7.78,12.29l1.63,3.7,1.18-3.86c1.16-3.79,3.51-9.49,6.31-13.11l3.55-4.58-9.41,4C55,33.36,66.82,20.16,92.89,18.17l-3.46,9.61L93.8,24c3.44-3,9-5.69,12.7-7.07l3.79-1.41Z"/><path class="cls-12" d="M96.67,15.41c-30.5,1-45.45,15.52-44.48,49.11"/><path class="cls-10" d="M106,15.48c-4.38-1.62-9.82-4.38-13.19-7.31l2.66,7.33-2.64,7.33C96.17,19.89,101.6,17.11,106,15.48Z"/><path class="cls-10" d="M52.82,73.81c-1.88-4.28-5-9.54-8.09-12.73L52.2,63.3l7.17-3.08C56.63,63.76,54.18,69.34,52.82,73.81Z"/></g></g></svg>