<svg xmlns="http://www.w3.org/2000/svg" xmlns:xlink="http://www.w3.org/1999/xlink" viewBox="0 0 172.98 122.54"><defs><style>.cls-1{fill:#c1d7de;}.cls-10,.cls-2,.cls-7,.cls-8{fill:none;}.cls-2{stroke:#515151;stroke-width:0.7px;}.cls-10,.cls-11,.cls-2,.cls-4,.cls-7,.cls-8{stroke-miterlimit:10;}.cls-3{fill:#2d2d2d;}.cls-11,.cls-4,.cls-9{fill:#fff;}.cls-10,.cls-4{stroke:#fff;}.cls-4{stroke-width:5.21px;}.cls-5{fill:#e7ce17;}.cls-6{fill:#515151;}.cls-7,.cls-8{stroke:#5b5b5b;}.cls-7{stroke-width:1.04px;}.cls-8{stroke-width:0.52px;}.cls-10{stroke-width:2.08px;}.cls-11{stroke:#622262;stroke-width:0.64px;}.cls-12{fill:#622262;}</style><symbol id="boxExample" data-name="boxExample" viewBox="0 0 36.91 42.85"><polygon class="cls-1" points="0.37 9.76 0.53 33.99 18 42.5 18.91 42.5 36.06 34.2 36.53 33.33 36.49 10.11 35.98 8.91 19.25 0.53 17.77 0.5 0.86 8.89 0.37 9.76"/><polyline class="cls-2" points="0.75 9.47 18 18.13 18.95 18.12 36.03 9.62"/><polygon class="cls-3" points="28.47 4.82 9.46 14.24 9.41 16.93 6.63 15.4 6.66 12.78 25.59 3.45 28.47 4.82"/><polygon class="cls-2" points="0.35 9.69 0.35 20.45 0.35 33.98 18 42.5 18.91 42.5 36.17 34.16 36.55 33.48 36.49 10.11 35.98 8.91 19.07 0.35 18 0.35 0.77 8.93 0.35 9.69"/><line class="cls-2" x1="18.47" y1="17.97" x2="18.47" y2="42.35"/></symbol></defs><g id="Layer_2" data-name="Layer 2"><g id="tooltip"><polygon class="cls-4" points="132.43 17.26 127.01 10.24 142.6 3.19 147.88 9.55 153.11 3.27 168.85 10.14 163.25 17.26 168.63 23.91 163.18 26.53 163.25 37.65 148.49 44.85 147.33 44.96 132.39 37.84 132.28 26.64 126.94 24.2 132.43 17.26"/><polygon class="cls-5" points="142.43 3.96 127.98 10.42 133.2 17.22 128.19 23.88 133.09 26.3 133.09 37.32 147.84 44.33 162.35 37.22 162.57 26.2 167.62 23.8 162.51 17.34 167.66 10.4 153.36 3.96 147.9 10.04 142.43 3.96"/><polygon class="cls-6" points="147.84 24.29 133.2 17.22 147.9 10.04 162.43 17.07 147.84 24.29"/><polygon class="cls-7" points="147.46 9.94 142.43 3.96 127.98 10.42 133.09 16.89 147.46 9.94"/><polygon class="cls-7" points="162.7 16.89 167.81 10.42 153.36 3.96 148.33 9.94 162.7 16.89"/><polygon class="cls-7" points="148.15 24.28 153.18 30.27 167.62 23.8 162.51 17.34 148.15 24.28"/><polygon class="cls-7" points="147.46 24.41 142.43 30.4 127.98 23.94 133.09 17.47 147.46 24.41"/><polyline class="cls-7" points="162.57 26.2 162.57 37.32 148.2 44.26 147.46 44.26 133.09 37.32 133.09 26.3"/><line class="cls-8" x1="147.84" y1="24.29" x2="147.84" y2="44.14"/><polygon class="cls-3" points="147.79 10.38 148.03 23.85 161.89 17.07 147.79 10.38"/><polygon class="cls-9" points="103.1 75.77 101.86 72.78 80.41 61.91 80.43 49.32 78.72 45.32 45.92 28.75 42.38 28.74 9.12 45.3 7.46 48.43 7.46 85.99 1.18 89.12 0.01 91.17 0 114.26 17.16 122.54 19.25 122.53 36.41 114.35 36.41 109.82 41.82 112.44 41.82 112.8 56.2 119.72 58.12 119.68 70.34 113.76 77.72 117.33 80.17 117.36 101.92 106.8 103.19 104.45 103.1 75.77"/><use width="36.91" height="42.85" transform="translate(10.07 31.38) scale(1.84)" xlink:href="#boxExample"/><use width="36.91" height="42.85" transform="translate(57.31 64.51) scale(1.17)" xlink:href="#boxExample"/><use width="36.91" height="42.85" transform="translate(44.42 87.66) scale(0.69)" xlink:href="#boxExample"/><use width="36.91" height="42.85" transform="translate(2.63 83.74) scale(0.84)" xlink:href="#boxExample"/><path class="cls-10" d="M112.7,92.85l26.31-.1a9,9,0,0,0,9-9V46.05"/><path class="cls-9" d="M103.39,92.89c4.39,1.61,9.83,4.36,13.21,7.28l-2.68-7.32,2.63-7.35C113.19,88.45,107.77,91.25,103.39,92.89Z"/><circle class="cls-11" cx="147.7" cy="66.14" r="11.9"/><polygon class="cls-12" points="155.1 67.34 155.1 65.36 148.77 65.36 148.77 59.03 146.79 59.03 146.79 65.36 140.46 65.36 140.46 67.34 146.79 67.34 146.79 73.67 148.77 73.67 148.77 67.34 155.1 67.34"/></g></g></svg>