<svg xmlns="http://www.w3.org/2000/svg" xmlns:xlink="http://www.w3.org/1999/xlink" viewBox="0 0 172.98 122.54"><defs><style>.cls-1{fill:#c1d7de;}.cls-13,.cls-2,.cls-8,.cls-9{fill:none;}.cls-2{stroke:#515151;stroke-width:0.7px;}.cls-13,.cls-14,.cls-2,.cls-5,.cls-8,.cls-9{stroke-miterlimit:10;}.cls-3{fill:#2d2d2d;}.cls-4{fill:#838589;}.cls-10,.cls-14,.cls-5{fill:#fff;}.cls-13,.cls-5{stroke:#fff;}.cls-5{stroke-width:5.21px;}.cls-6{fill:#e7ce17;}.cls-7{fill:#515151;}.cls-8,.cls-9{stroke:#5b5b5b;}.cls-8{stroke-width:1.04px;}.cls-9{stroke-width:0.52px;}.cls-11{opacity:0.64;}.cls-12{fill:url(#linear-gradient);}.cls-13{stroke-width:2.08px;}.cls-14{stroke:#622262;stroke-width:0.64px;}.cls-15{fill:#622262;}.cls-16{fill:url(#linear-gradient-2);}.cls-17{fill:url(#linear-gradient-3);}.cls-18{fill:url(#linear-gradient-4);}.cls-19{fill:url(#linear-gradient-5);}.cls-20{fill:url(#linear-gradient-6);}</style><linearGradient id="linear-gradient" x1="10.26" y1="118.8" x2="10.26" y2="94.09" gradientUnits="userSpaceOnUse"><stop offset="0" stop-color="#fff" stop-opacity="0.3"/><stop offset="1" stop-color="#fff" stop-opacity="0"/></linearGradient><linearGradient id="linear-gradient-2" x1="96.28" y1="105.01" x2="83.99" y2="87.39" gradientUnits="userSpaceOnUse"><stop offset="0" stop-opacity="0.3"/><stop offset="1" stop-opacity="0"/></linearGradient><linearGradient id="linear-gradient-3" x1="158.36" y1="39.39" x2="149.73" y2="27.02" xlink:href="#linear-gradient-2"/><linearGradient id="linear-gradient-4" x1="66.35" y1="79.22" x2="54.69" y2="62.49" xlink:href="#linear-gradient-2"/><linearGradient id="linear-gradient-5" x1="30.81" y1="112.91" x2="21.63" y2="99.74" xlink:href="#linear-gradient-2"/><linearGradient id="linear-gradient-6" x1="67.42" y1="111.38" x2="59.99" y2="100.73" xlink:href="#linear-gradient-2"/><symbol id="boxExample" data-name="boxExample" viewBox="0 0 36.91 42.85"><polygon class="cls-1" points="0.37 9.76 0.53 33.99 18 42.5 18.91 42.5 36.06 34.2 36.53 33.33 36.49 10.11 35.98 8.91 19.25 0.53 17.77 0.5 0.86 8.89 0.37 9.76"/><polyline class="cls-2" points="0.75 9.47 18 18.13 18.95 18.12 36.03 9.62"/><polygon class="cls-3" points="28.47 4.82 9.46 14.24 9.41 16.93 6.63 15.4 6.66 12.78 25.59 3.45 28.47 4.82"/><polygon class="cls-2" points="0.35 9.69 0.35 20.45 0.35 33.98 18 42.5 18.91 42.5 36.17 34.16 36.55 33.48 36.49 10.11 35.98 8.91 19.07 0.35 18 0.35 0.77 8.93 0.35 9.69"/><line class="cls-2" x1="18.47" y1="17.97" x2="18.47" y2="42.35"/><polygon class="cls-4" points="24.79 3.64 6.32 12.77 6.3 15.24 6.69 15.45 6.73 12.99 25.22 3.85 24.79 3.64"/><polygon points="27.47 5 9.04 14.02 9.02 16.71 9.41 16.93 9.45 14.24 27.91 5.22 27.47 5"/></symbol></defs><g id="Layer_2" data-name="Layer 2"><g id="tooltip"><polygon class="cls-5" points="132.43 17.26 127.01 10.24 142.6 3.19 147.88 9.55 153.11 3.27 168.85 10.14 163.25 17.26 168.63 23.91 163.18 26.53 163.25 37.65 148.49 44.85 147.33 44.96 132.39 37.84 132.28 26.64 126.94 24.2 132.43 17.26"/><polygon class="cls-6" points="142.43 3.96 127.98 10.42 133.2 17.22 128.19 23.88 133.09 26.3 133.09 37.32 147.84 44.33 162.35 37.22 162.57 26.2 167.62 23.8 162.51 17.34 167.66 10.4 153.36 3.96 147.9 10.04 142.43 3.96"/><polygon class="cls-7" points="147.84 24.29 133.2 17.22 147.9 10.04 162.43 17.07 147.84 24.29"/><polygon class="cls-8" points="147.46 9.94 142.43 3.96 127.98 10.42 133.09 16.89 147.46 9.94"/><polygon class="cls-8" points="162.7 16.89 167.81 10.42 153.36 3.96 148.33 9.94 162.7 16.89"/><polygon class="cls-8" points="148.15 24.28 153.18 30.27 167.62 23.8 162.51 17.34 148.15 24.28"/><polygon class="cls-8" points="147.46 24.41 142.43 30.4 127.98 23.94 133.09 17.47 147.46 24.41"/><polyline class="cls-8" points="162.57 26.2 162.57 37.32 148.2 44.26 147.46 44.26 133.09 37.32 133.09 26.3"/><line class="cls-9" x1="147.84" y1="24.29" x2="147.84" y2="44.14"/><polygon class="cls-3" points="147.79 10.38 147.7 23.9 161.89 17.07 147.79 10.38"/><polygon class="cls-10" points="103.1 75.77 101.86 72.78 80.41 61.91 80.43 49.32 78.72 45.32 45.92 28.75 42.38 28.74 9.12 45.3 7.46 48.43 7.46 85.99 1.18 89.12 0.01 91.17 0 114.26 17.16 122.54 19.25 122.53 36.41 114.35 36.41 109.82 41.82 112.44 41.82 112.8 56.2 119.72 58.12 119.68 70.34 113.76 77.72 117.33 80.17 117.36 101.92 106.8 103.19 104.45 103.1 75.77"/><use width="36.91" height="42.85" transform="translate(10.07 31.38) scale(1.84)" xlink:href="#boxExample"/><polygon class="cls-11" points="56.38 92.41 77.81 81.47 77.8 63.89 77.24 63.68 56.85 74.17 56.45 74.88 56.38 92.41"/><use width="36.91" height="42.85" transform="translate(57.31 64.51) scale(1.17)" xlink:href="#boxExample"/><polygon class="cls-11" points="70.9 111.11 57.26 104.52 57.27 86.94 57.83 86.73 70.42 93.07 70.83 93.78 70.9 111.11"/><use width="36.91" height="42.85" transform="translate(44.42 87.66) scale(0.69)" xlink:href="#boxExample"/><polygon class="cls-11" points="39.24 108.3 20.7 99.38 20.71 81.78 21.27 81.57 38.77 90.25 39.18 90.96 39.24 108.3"/><use width="36.91" height="42.85" transform="translate(2.63 83.74) scale(0.84)" xlink:href="#boxExample"/><polygon class="cls-12" points="17.9 119.93 2.63 112.59 2.64 91.85 3.2 92.07 17.83 99.35 17.9 119.93"/><path class="cls-13" d="M112.7,92.85l26.31-.1a9,9,0,0,0,9-9V46.05"/><path class="cls-10" d="M103.39,92.89c4.39,1.61,9.83,4.36,13.21,7.28l-2.68-7.32,2.63-7.35C113.19,88.45,107.77,91.25,103.39,92.89Z"/><circle class="cls-14" cx="147.7" cy="66.14" r="11.9"/><polygon class="cls-15" points="155.1 67.34 155.1 65.36 148.77 65.36 148.77 59.03 146.79 59.03 146.79 65.36 140.46 65.36 140.46 67.34 146.79 67.34 146.79 73.67 148.77 73.67 148.77 67.34 155.1 67.34"/><polygon class="cls-16" points="79.36 113.92 79.37 86.19 99.64 76.18 99.79 104.3 99.33 105.09 79.58 114.72 79.36 113.92"/><polygon class="cls-17" points="148.1 43.77 148.12 25.04 153.06 30.91 163.08 26.41 163.09 37.64 162.64 37.83 148.34 44.77 148.1 43.77"/><polygon class="cls-18" points="44.66 93.84 44.63 65.32 45.03 65.32 76.32 49.74 77.77 49.84 77.8 64.73 57.87 74.68 57.29 75.79 57.26 87.65 56.7 87.67 44.78 93.61 44.66 93.84"/><polygon class="cls-19" points="17.94 119.37 17.95 99 32.87 91.63 33.76 92.22 33.77 112.02 33.31 112.81 18.67 119.95 17.94 119.37"/><polygon class="cls-20" points="57.32 116.58 57.34 100.34 57.38 99.88 69.01 94.09 69.68 94.66 69.77 110.81 69.5 111.26 57.44 117.04 57.32 116.58"/><polygon class="cls-10" points="3.89 111.46 3.87 92.96 7.41 94.73 7.95 96.6 7.96 94.43 3.23 92.04 3.22 112.21 8.86 114.96 3.89 111.46"/><polygon class="cls-10" points="130 23.23 133.51 18.79 146.58 24.62 133.25 18.12 128.81 23.73 142.27 29.75 130 23.23"/><polygon class="cls-10" points="134.4 36.43 134.4 27.39 133.62 27.02 133.62 37 147.52 43.72 134.4 36.43"/><polygon class="cls-10" points="18.67 84.33 23.44 86.76 18.45 84.63 18.02 84.63 4.63 91.53 8.7 94.12 4.09 91.81 3.49 91.51 17.89 84.32 18.67 84.33"/><polygon class="cls-10" points="44.97 32.68 49.35 34.89 44.92 33.11 43.52 33.13 13.21 48.24 18.22 51.44 11.95 48.29 43.28 32.65 44.97 32.68"/><polygon class="cls-10" points="58.81 87.22 58.79 76.96 64.15 79.65 64.69 81.53 64.7 79.35 58.15 76.04 58.14 86.87 58.81 87.22"/><polygon class="cls-10" points="45.57 110.09 45.53 95.35 48.19 96.67 48.74 98.13 48.74 96.37 44.89 94.43 44.9 110.84 50.54 113.59 45.57 110.09"/><polygon class="cls-10" points="12.05 86.58 12.01 50.37 21.14 54.91 21.68 56.37 21.69 54.61 11.37 49.46 11.38 86.9 12.05 86.58"/></g></g></svg>