<svg xmlns="http://www.w3.org/2000/svg" xmlns:xlink="http://www.w3.org/1999/xlink" viewBox="0 0 138.69 117.19"><defs><style>.cls-1,.cls-10,.cls-8,.cls-9{fill:none;}.cls-1,.cls-8,.cls-9{stroke:#515151;}.cls-1,.cls-10,.cls-3,.cls-8,.cls-9{stroke-miterlimit:10;}.cls-1{stroke-width:0.66px;}.cls-2{fill:#2d2d2d;}.cls-11,.cls-3{fill:#fff;}.cls-10,.cls-3{stroke:#fff;}.cls-3{stroke-width:3px;}.cls-4{fill:#bbdcb0;}.cls-5{fill:#9a5ba1;}.cls-6{fill:#aebc29;}.cls-7{fill:#e7ce17;}.cls-8{stroke-width:0.5px;}.cls-9{stroke-width:0.75px;}.cls-12{fill:url(#linear-gradient);}.cls-13{fill:url(#linear-gradient-2);}.cls-14{fill:url(#linear-gradient-3);}.cls-15{fill:url(#linear-gradient-4);}</style><linearGradient id="linear-gradient" x1="130.76" y1="34" x2="120.58" y2="19.41" gradientUnits="userSpaceOnUse"><stop offset="0" stop-opacity="0.7"/><stop offset="1" stop-opacity="0"/></linearGradient><linearGradient id="linear-gradient-2" x1="133.85" y1="106.91" x2="123.67" y2="92.31" xlink:href="#linear-gradient"/><linearGradient id="linear-gradient-3" x1="34.78" y1="107.7" x2="24.6" y2="93.1" xlink:href="#linear-gradient"/><linearGradient id="linear-gradient-4" x1="33.67" y1="36.63" x2="23.49" y2="22.03" xlink:href="#linear-gradient"/><symbol id="box-hollow" data-name="box-hollow" viewBox="0 0 34.75 40.35"><polyline class="cls-1" points="0.7 8.91 16.94 17.07 17.84 17.06 33.92 9.06"/><polygon class="cls-2" points="26.8 4.53 8.9 13.41 8.86 15.94 6.25 14.5 6.27 12.04 24.1 3.25 26.8 4.53"/><polygon class="cls-1" points="0.33 9.13 0.33 19.25 0.33 31.99 16.94 40.02 17.8 40.02 34.05 32.16 34.41 31.52 34.35 9.52 33.88 8.39 17.96 0.33 16.94 0.33 0.73 8.41 0.33 9.13"/><line class="cls-1" x1="17.39" y1="16.92" x2="17.39" y2="39.87"/></symbol></defs><g id="Layer_2" data-name="Layer 2"><g id="tooltip"><polygon class="cls-3" points="99.54 9.77 99.05 10.68 99.07 33.82 115.96 41.96 116.96 41.96 133.36 34.02 133.81 33.23 133.71 11.01 133.16 9.71 117.14 1.52 115.89 1.5 99.54 9.77"/><polygon class="cls-4" points="99.41 10.8 99.56 33.62 116.01 41.63 116.87 41.63 133.01 33.81 133.46 32.99 133.41 11.13 132.94 10.01 117.19 2.11 115.8 2.09 99.87 9.99 99.41 10.8"/><use width="34.75" height="40.35" transform="translate(99.06 1.62)" xlink:href="#box-hollow"/><rect x="50.55" y="42.42" width="35.85" height="35.74"/><polyline class="cls-5" points="59.47 59.68 59.52 67.67 65.28 70.48 65.58 70.48 71.23 67.74 71.39 67.45 71.37 59.8 71.2 59.4 65.69 56.64"/><polygon class="cls-6" points="59.47 50.81 59.52 58.8 65.58 62.03 65.77 61.95 71.23 58.87 71.39 58.58 71.38 50.93 71.21 50.53 65.69 47.77 65.2 47.76 59.63 50.53 59.47 50.81"/><polygon class="cls-7" points="65.92 70.61 71.84 73.54 72.14 73.54 77.79 70.8 77.95 70.51 77.93 62.86 77.77 62.46 72.25 59.7 71.76 59.69 65.95 62.51 65.92 70.61"/><polygon class="cls-4" points="66.03 54.16 65.97 62.49 71.86 65.38 72.17 65.29 77.79 62.22 77.95 61.93 77.93 54.28 77.77 53.88 72.25 51.12 71.76 51.11 66.19 53.87 66.03 54.16"/><line class="cls-8" x1="65.75" y1="70.36" x2="65.75" y2="53.75"/><polygon class="cls-9" points="77.77 62.46 77.93 62.8 77.95 70.56 77.83 70.79 72.14 73.54 71.84 73.54 59.46 67.38 59.46 54.34 59.46 50.79 59.6 50.54 65.28 47.71 65.63 47.71 77.77 53.88 77.93 54.28 77.95 61.98 77.77 62.46"/><line class="cls-8" x1="71.99" y1="65.45" x2="71.99" y2="73.49"/><polyline class="cls-8" points="59.59 50.72 65.71 53.73 71.71 50.86"/><polyline class="cls-8" points="59.67 59.07 71.84 65.5 72.15 65.5 77.78 62.3"/><polyline class="cls-8" points="65.49 53.62 71.84 56.92 72.15 56.92 77.96 54.02"/><line class="cls-8" x1="71.99" y1="56.87" x2="71.99" y2="65.32"/><path class="cls-10" d="M109.88,86.36C105.51,72.82,96,68.46,80.29,67.42"/><path class="cls-11" d="M76.13,67.22a20.88,20.88,0,0,0,6.08-2.93L80.83,67.5l1,3.34A21,21,0,0,0,76.13,67.22Z"/><polygon class="cls-3" points="102.67 82.67 102.14 83.57 102.16 106.74 119.06 114.86 120.05 114.87 136.73 106.74 137.18 105.95 136.84 83.97 136.3 82.67 120.28 74.49 119.03 74.47 102.67 82.67"/><polygon class="cls-7" points="102.52 83.71 102.67 106.52 119.11 114.54 119.98 114.54 136.12 106.72 136.56 105.9 136.52 84.04 136.05 82.91 120.3 75.02 118.91 75 102.98 82.89 102.52 83.71"/><use width="34.75" height="40.35" transform="translate(102.17 74.52)" xlink:href="#box-hollow"/><polygon class="cls-11" points="57.16 40.53 50.55 40.53 48.67 40.53 48.67 42.42 48.67 49.03 50.55 49.03 50.55 42.42 57.16 42.42 57.16 40.53"/><polygon class="cls-11" points="79.8 40.53 86.41 40.53 88.29 40.53 88.29 42.42 88.29 49.03 86.41 49.03 86.41 42.42 79.8 42.42 79.8 40.53"/><polygon class="cls-11" points="79.8 80.05 86.41 80.05 88.29 80.05 88.29 78.16 88.29 71.55 86.41 71.55 86.41 78.16 79.8 78.16 79.8 80.05"/><polygon class="cls-11" points="57.16 80.05 50.55 80.05 48.67 80.05 48.67 78.16 48.67 71.55 50.55 71.55 50.55 78.16 57.16 78.16 57.16 80.05"/><polygon class="cls-3" points="2.29 11.99 1.5 13.34 1.69 36.64 18.57 44.92 19.88 45.06 36.2 36.96 36.99 35.85 36.95 13.65 36.21 12.08 20.27 4.02 18.74 3.99 2.29 11.99"/><polygon class="cls-3" points="3.58 83.42 3 84.36 3.04 107.49 19.95 115.69 20.98 115.66 37.38 107.72 37.83 106.93 37.77 84.76 37.23 83.47 21.13 75.29 19.89 75.27 3.58 83.42"/><path class="cls-10" d="M26.48,36.78c4.37,13.54,14.43,17.76,30.16,18.78"/><path class="cls-11" d="M60.81,55.75a21.16,21.16,0,0,0-6.08,2.94l1.37-3.21-1-3.34A20.39,20.39,0,0,0,60.81,55.75Z"/><polygon class="cls-6" points="2.3 13.41 2.45 36.22 18.89 44.23 19.75 44.23 35.9 36.42 36.34 35.6 36.3 13.74 35.83 12.61 20.07 4.72 18.68 4.69 2.76 12.59 2.3 13.41"/><use width="34.75" height="40.35" transform="translate(1.95 4.22)" xlink:href="#box-hollow"/><path class="cls-10" d="M109.88,39.29C105.51,52.83,96,57.19,80.29,58.23"/><path class="cls-11" d="M76.13,58.43a21,21,0,0,0,5.7-3.62l-1,3.34,1.38,3.21A20.88,20.88,0,0,0,76.13,58.43Z"/><path class="cls-10" d="M26.48,83.57c4.37-13.54,14-17.76,29.68-18.78"/><path class="cls-11" d="M60.32,64.59a20.8,20.8,0,0,0-5.7,3.62l1-3.35-1.37-3.2A20.88,20.88,0,0,0,60.32,64.59Z"/><polygon class="cls-5" points="3.42 84.48 3.56 107.29 20.01 115.31 20.87 115.31 37.01 107.49 37.45 106.67 37.42 84.81 36.94 83.68 21.19 75.79 19.8 75.76 3.87 83.66 3.42 84.48"/><use width="34.75" height="40.35" transform="translate(3.06 75.29)" xlink:href="#box-hollow"/><polygon class="cls-12" points="116.79 41.3 116.77 18.41 133.21 9.77 133.75 11.07 133.81 33.23 133.36 34.02 116.96 41.96 116.79 41.3"/><polygon class="cls-13" points="119.88 114.2 119.86 91.31 136.3 82.67 136.84 83.97 136.9 106.14 136.45 106.92 120.05 114.87 119.88 114.2"/><polygon class="cls-14" points="20.81 114.99 20.79 92.1 37.23 83.47 37.77 84.76 37.83 106.93 37.38 107.72 20.98 115.66 20.81 114.99"/><polygon class="cls-15" points="19.69 43.92 19.68 21.03 36.12 12.4 36.66 13.69 36.72 35.86 36.26 36.65 19.86 44.59 19.69 43.92"/></g></g></svg>