<svg xmlns="http://www.w3.org/2000/svg" viewBox="0 0 35.95 35.95"><defs><style>.cls-1{fill:#070707;}.cls-2{fill:#fff;}.cls-3{fill:#efefef;stroke:#8e9094;}.cls-3,.cls-5,.cls-9{stroke-miterlimit:10;}.cls-3,.cls-5{stroke-width:1.03px;}.cls-4{fill:#8e9094;}.cls-5{fill:#e5da9a;}.cls-5,.cls-9{stroke:#515151;}.cls-6{fill:#b47cbf;}.cls-7{fill:#835d8c;}.cls-8{fill:#e7ce17;}.cls-9{fill:none;stroke-width:0.87px;}.cls-10{fill:#2d2d2d;}.cls-11{fill:#838589;}.cls-12{fill:#515151;}</style></defs><g id="Layer_2" data-name="Layer 2"><g id="tooltip"><path class="cls-1" d="M18,0A18,18,0,1,0,36,18,18,18,0,0,0,18,0Z"/><path class="cls-2" d="M16.32,9.39l.11-2.55A2.24,2.24,0,0,1,18.6,5.73a2.18,2.18,0,0,1,1.72,1.16l.27,2.33Z"/><path class="cls-3" d="M16.25,9.12V7.66a2.21,2.21,0,0,1,2.22-2.22h0a2.21,2.21,0,0,1,2.22,2.22V9.12"/><rect class="cls-2" x="4.44" y="9.6" width="27.91" height="17.72" rx="3.78"/><path class="cls-4" d="M28.57,10.11a3.28,3.28,0,0,1,3.27,3.27V23.54a3.28,3.28,0,0,1-3.27,3.27H8.22A3.27,3.27,0,0,1,5,23.54V13.38a3.27,3.27,0,0,1,3.26-3.27H28.57m0-1H8.22a4.3,4.3,0,0,0-4.29,4.3V23.54a4.29,4.29,0,0,0,4.29,4.29H28.57a4.3,4.3,0,0,0,4.3-4.29V13.38a4.31,4.31,0,0,0-4.3-4.3Z"/><rect class="cls-5" x="6.79" y="12.05" width="12.7" height="12.8" rx="1.96"/><polygon class="cls-6" points="9.18 21.55 9.23 15.52 13.4 13.6 17.14 15.68 17.29 21.32 13.26 23.43 9.18 21.55"/><polygon class="cls-7" points="13.66 18.07 13.63 22.95 17.12 21.32 17.11 16.32 13.66 18.07"/><polygon class="cls-2" points="9.87 20.94 9.86 16.89 12.59 18.32 12.82 19.28 12.83 18.08 9.42 16.34 9.43 21.26 12.83 22.84 9.87 20.94"/><rect class="cls-8" x="21.53" y="11.7" width="6.83" height="1.43" rx="0.72"/><rect class="cls-8" x="21.53" y="14.41" width="4.83" height="1.43" rx="0.72"/><rect class="cls-8" x="21.53" y="19.45" width="6.88" height="1.43" rx="0.72"/><rect class="cls-8" x="21.53" y="16.82" width="3.09" height="1.43" rx="0.72"/><rect class="cls-8" x="25.26" y="16.82" width="3.09" height="1.43" rx="0.72"/><polyline class="cls-9" points="9.11 15.73 13.15 17.76 13.37 17.76 17.37 15.77"/><polygon class="cls-9" points="9.02 15.79 9.02 18.3 9.02 21.47 13.15 23.47 13.36 23.47 17.4 21.51 17.49 21.35 17.47 15.88 17.36 15.6 13.4 13.6 13.15 13.6 9.11 15.61 9.02 15.79"/><line class="cls-9" x1="13.26" y1="17.72" x2="13.26" y2="23.43"/><polygon class="cls-10" points="16.02 14.43 11.15 16.85 11.13 17.48 10.49 17.12 10.49 16.51 15.34 14.11 16.02 14.43"/><polygon class="cls-11" points="15.34 14.11 10.49 16.51 10.49 17.12 10.58 17.18 10.59 16.56 15.45 14.16 15.34 14.11"/><polygon points="16.02 14.43 11.14 16.83 11.14 17.44 11.23 17.5 11.24 16.89 16.12 14.48 16.02 14.43"/><circle class="cls-12" cx="18.4" cy="7.24" r="0.57"/></g></g></svg>