<svg xmlns="http://www.w3.org/2000/svg" viewBox="0 0 35.95 35.95"><defs><style>.cls-1{fill:#070707;}.cls-2{fill:#d6dd45;}.cls-3{fill:#d2eaca;}.cls-4{fill:#b47cbf;}.cls-5{fill:#f4df60;}.cls-6{fill:#fff;}</style></defs><g id="Layer_2" data-name="Layer 2"><g id="tooltip"><path class="cls-1" d="M18,0A18,18,0,1,0,36,18,18,18,0,0,0,18,0Z"/><rect class="cls-2" x="10.36" y="9.24" width="7" height="7"/><rect class="cls-3" x="19.41" y="9.24" width="7" height="7"/><rect class="cls-4" x="10.36" y="18.3" width="7" height="7"/><rect class="cls-5" x="19.41" y="18.3" width="7" height="7"/><polygon class="cls-6" points="12.25 6.24 8.62 6.24 7.46 6.24 7.46 7.41 7.46 11.03 8.62 11.03 8.62 7.41 12.25 7.41 12.25 6.24"/><polygon class="cls-6" points="24.59 6.24 28.22 6.24 29.38 6.24 29.38 7.41 29.38 11.03 28.22 11.03 28.22 7.41 24.59 7.41 24.59 6.24"/><polygon class="cls-6" points="12.25 28.38 8.62 28.38 7.46 28.38 7.46 27.21 7.46 23.59 8.62 23.59 8.62 27.21 12.25 27.21 12.25 28.38"/><polygon class="cls-6" points="24.59 28.38 28.22 28.38 29.38 28.38 29.38 27.21 29.38 23.59 28.22 23.59 28.22 27.21 24.59 27.21 24.59 28.38"/></g></g></svg>