<svg xmlns="http://www.w3.org/2000/svg" xmlns:xlink="http://www.w3.org/1999/xlink" viewBox="0 0 265.88 164.72"><defs><style>.cls-1{fill:#fff;}.cls-2{fill:#592349;opacity:0.15;isolation:isolate;}.cls-3{fill:#473f4a;}.cls-14,.cls-18,.cls-19,.cls-4,.cls-5,.cls-6{fill:none;}.cls-19,.cls-4,.cls-5,.cls-6{stroke:#adadad;}.cls-4,.cls-5,.cls-6{stroke-miterlimit:47.96;}.cls-4{stroke-width:2.28px;}.cls-5{stroke-width:2.68px;}.cls-6{stroke-width:2.12px;}.cls-7{fill:url(#linear-gradient);}.cls-8{fill:#f2e179;}.cls-9{fill:#bca415;}.cls-10{fill:#e7ce17;}.cls-11{fill:#da5863;}.cls-12{fill:#ed8894;}.cls-13{fill:#333;}.cls-14{stroke:#622262;stroke-width:2.87px;}.cls-14,.cls-18,.cls-19{stroke-miterlimit:10;}.cls-15{fill:#bbdcb0;}.cls-16{fill:#5b5b5b;}.cls-17{fill:url(#linear-gradient-2);}.cls-18{stroke:#5b5b5b;}.cls-18,.cls-19{stroke-width:1.23px;}.cls-20{fill:url(#linear-gradient-3);}.cls-21{fill:url(#linear-gradient-4);}.cls-22{fill:url(#linear-gradient-5);}.cls-23{fill:url(#linear-gradient-6);}.cls-24{fill:url(#linear-gradient-7);}.cls-25{fill:url(#linear-gradient-8);}.cls-26{fill:url(#linear-gradient-9);}</style><linearGradient id="linear-gradient" x1="68.41" y1="94.41" x2="151.17" y2="48.43" gradientUnits="userSpaceOnUse"><stop offset="0" stop-opacity="0.4"/><stop offset="1" stop-opacity="0"/></linearGradient><linearGradient id="linear-gradient-2" x1="151.55" y1="139.64" x2="152.29" y2="73.02" gradientUnits="userSpaceOnUse"><stop offset="0" stop-opacity="0.4"/><stop offset="1" stop-opacity="0.4"/></linearGradient><linearGradient id="linear-gradient-3" x1="156.9" y1="117.44" x2="157.02" y2="107.2" xlink:href="#linear-gradient-2"/><linearGradient id="linear-gradient-4" x1="185.15" y1="117.44" x2="185.26" y2="107.2" xlink:href="#linear-gradient-2"/><linearGradient id="linear-gradient-5" x1="213.39" y1="117.44" x2="213.51" y2="107.2" xlink:href="#linear-gradient-2"/><linearGradient id="linear-gradient-6" x1="241.64" y1="117.44" x2="241.75" y2="107.2" xlink:href="#linear-gradient-2"/><linearGradient id="linear-gradient-7" x1="156.9" y1="131.96" x2="157.02" y2="121.71" xlink:href="#linear-gradient-2"/><linearGradient id="linear-gradient-8" x1="185.15" y1="131.96" x2="185.26" y2="121.71" xlink:href="#linear-gradient-2"/><linearGradient id="linear-gradient-9" x1="213.39" y1="131.96" x2="213.51" y2="121.71" xlink:href="#linear-gradient-2"/></defs><g id="Layer_2" data-name="Layer 2"><g id="tooltip"><rect class="cls-1" y="39" width="170.5" height="104.71" rx="5.31"/><path class="cls-2" d="M19.77,61.29H162.49V48a3.55,3.55,0,0,0-3.63-3.46H19.77Z"/><polygon class="cls-3" points="18.88 98.22 18.88 115.71 163.6 115.71 163.6 98.33 18.88 98.22"/><polygon class="cls-3" points="72.38 80.62 72.13 98.61 163.6 98.61 163.6 81.23 72.38 80.62"/><path class="cls-4" d="M159.7,45.32H10.5c-2.17,0-3.93,1-3.93,4v84.76c0,3,1.76,3.34,3.93,3.34H159.7c2.16,0,3.92-.34,3.92-3.34V49.27C163.6,46.28,161.86,45.32,159.7,45.32Z"/><line class="cls-5" x1="6.77" y1="98.25" x2="163.19" y2="98.25"/><line class="cls-5" x1="6.77" y1="116.6" x2="163.19" y2="116.6"/><line class="cls-6" x1="47.43" y1="137.43" x2="47.43" y2="45.8"/><line class="cls-6" x1="19.7" y1="137.51" x2="19.7" y2="46.29"/><line class="cls-6" x1="72.38" y1="137.58" x2="72.38" y2="45.38"/><line class="cls-6" x1="106.26" y1="137.66" x2="106.26" y2="45.52"/><line class="cls-6" x1="125.37" y1="137.81" x2="125.37" y2="45.38"/><line class="cls-6" x1="148.12" y1="137.96" x2="148.12" y2="45.52"/><line class="cls-5" x1="6.47" y1="62.03" x2="162.89" y2="62.03"/><line class="cls-5" x1="6.47" y1="79.86" x2="162.89" y2="79.86"/><path class="cls-7" d="M61.11,92.08l43-.38,66.4-40.58,0-6.42c-.37-6.74-5.76-5.51-9.13-5.74-2-.14-24.14.09-24.14.09L76,78.5Z"/><path class="cls-1" d="M144.78,18.45,134.47,8.25l-.19-.16A14.55,14.55,0,0,0,115.37,8L64.5,59,58.13,95.22,94.48,89l47.37-47.65C150,34.45,151,26.53,144.78,18.45Z"/><rect class="cls-8" x="85.76" y="20.32" width="33.93" height="60.27" transform="translate(65.76 -57.86) rotate(45)"/><rect class="cls-9" x="99.67" y="26.08" width="17.63" height="60.27" transform="translate(71.53 -60.24) rotate(45)"/><rect class="cls-10" x="95.21" y="20.32" width="15.03" height="60.27" transform="translate(65.76 -57.86) rotate(45)"/><path class="cls-11" d="M112.8,17.26,120.13,11c2.65-2.26,5.89-2.07,9.42-.69l12.7,12.28a12.21,12.21,0,0,1,1.39,10l-7,7.47Z"/><path class="cls-12" d="M137.87,20.91c1.87,3,2.75,6.31,1.45,8.86l-4.85,4.69L128,32.19l6.42,6,7.32-7.39A10.51,10.51,0,0,0,137.87,20.91Z"/><polygon class="cls-13" points="73.86 87.28 65.8 79.21 64.06 89.23 73.86 87.28"/><path class="cls-14" d="M92.48,85.25l49.37-49.39a10.36,10.36,0,0,0,0-14.66l-9.71-9.72a10.36,10.36,0,0,0-14.66,0L68.1,60.86,63,90.34Z"/><line class="cls-14" x1="112.64" y1="17.81" x2="135.61" y2="40.77"/><line class="cls-14" x1="69.78" y1="60.29" x2="92.74" y2="83.25"/><path class="cls-15" d="M207.53,64.94c0-4.8-.07-9.61-.43-14.39-.13-2.39-.39-4.77-.61-7.15s-.59-4.74-1-7.08a72.58,72.58,0,0,0-3.68-13.71,39,39,0,0,0-7.06-12,24.34,24.34,0,0,0-11.55-7.07,29.62,29.62,0,0,0-6.84-1,43.42,43.42,0,0,0-7,.43,78.16,78.16,0,0,0-13.81,3.45c-4.54,1.49-9,3.29-13.53,5.05a81.67,81.67,0,0,1,12.87-6.84A60.88,60.88,0,0,1,169,.55,43.79,43.79,0,0,1,176.4,0a32.62,32.62,0,0,1,7.46,1,26.62,26.62,0,0,1,12.89,7.75,40.36,40.36,0,0,1,7.63,12.82,75.8,75.8,0,0,1,3.76,14.25c1.7,9.65,1.92,19.43,1.73,29.13Z"/><path class="cls-15" d="M208.4,74.26c1.73-4.33,4.65-9.69,7.67-13l-7.4,2.46-7.26-2.85C204.26,64.34,206.89,69.84,208.4,74.26Z"/><rect class="cls-16" x="130.67" y="159.57" width="135.21" height="5.15" rx="2.1"/><rect class="cls-17" x="133.34" y="71.78" width="37.13" height="71.93"/><rect class="cls-1" x="138.03" y="77.23" width="121.08" height="84.52"/><polygon class="cls-16" points="255.06 83.11 253.81 81.86 248.74 86.93 243.67 81.86 242.42 83.11 247.49 88.17 242.42 93.25 243.67 94.49 248.74 89.42 253.81 94.49 255.06 93.25 249.99 88.17 255.06 83.11"/><polyline class="cls-18" points="138.21 161.76 138.21 76.98 259.72 76.98 259.72 161.76"/><line class="cls-19" x1="259.08" y1="99.23" x2="138.8" y2="99.23"/><rect class="cls-20" x="144.3" y="107.1" width="25.31" height="10.88" rx="1.97"/><rect class="cls-21" x="172.55" y="107.1" width="25.31" height="10.88" rx="1.97"/><rect class="cls-22" x="200.79" y="107.1" width="25.31" height="10.88" rx="1.97"/><rect class="cls-23" x="229.04" y="107.1" width="25.31" height="10.88" rx="1.97"/><rect class="cls-24" x="144.3" y="121.61" width="25.31" height="10.88" rx="1.97"/><rect class="cls-25" x="172.55" y="121.61" width="25.31" height="10.88" rx="1.97"/><rect class="cls-26" x="200.79" y="121.61" width="25.31" height="10.88" rx="1.97"/></g></g></svg>