<svg xmlns="http://www.w3.org/2000/svg" xmlns:xlink="http://www.w3.org/1999/xlink" viewBox="0 0 238.37 151.79"><defs><style>.cls-1{fill:#fff;}.cls-15,.cls-2,.cls-3,.cls-6{fill:none;}.cls-2,.cls-3{stroke:#adadad;stroke-miterlimit:47.96;}.cls-2{stroke-width:2.75px;}.cls-3{stroke-width:2.12px;}.cls-4{fill:#666;}.cls-15,.cls-4{stroke:#eaeaea;}.cls-15,.cls-4,.cls-5,.cls-6{stroke-miterlimit:10;}.cls-5{fill:#05778c;stroke:#fff;stroke-width:0.75px;}.cls-6{stroke:#622262;stroke-width:1.09px;}.cls-7{fill:#474747;}.cls-8{fill:url(#linear-gradient);}.cls-9{fill:url(#linear-gradient-2);}.cls-10{fill:#adadad;}.cls-11{fill:#828282;}.cls-12{fill:#ddd;}.cls-13{fill:#757575;}.cls-14{fill:#622262;}.cls-15{stroke-width:1px;}.cls-16{fill:#bbdcb0;}</style><linearGradient id="linear-gradient" x1="178.56" y1="89.2" x2="178.56" y2="69.22" gradientUnits="userSpaceOnUse"><stop offset="0" stop-opacity="0.4"/><stop offset="1" stop-opacity="0"/></linearGradient><linearGradient id="linear-gradient-2" x1="103.68" y1="13.55" x2="123.21" y2="13.55" gradientTransform="matrix(0.54, -0.45, 4.52, 5.41, 28.68, 35.95)" gradientUnits="userSpaceOnUse"><stop offset="0" stop-opacity="0"/><stop offset="1" stop-opacity="0.4"/></linearGradient><symbol id="item" data-name="item" viewBox="0 0 166.92 21.11"><rect class="cls-1" x="1.93" y="0.91" width="163.73" height="19.47"/><rect class="cls-2" x="1.38" y="1.38" width="164.17" height="18.36"/><line class="cls-3" x1="42.03" y1="20.32" x2="42.03" y2="1.35"/><line class="cls-3" x1="14.31" y1="19.76" x2="14.31" y2="0.6"/><line class="cls-3" x1="66.98" y1="20.14" x2="66.98" y2="0.88"/><line class="cls-3" x1="100.86" y1="19.58" x2="100.86" y2="0.6"/><line class="cls-3" x1="119.97" y1="20.14" x2="119.97" y2="0.6"/><line class="cls-3" x1="142.72" y1="19.58" x2="142.72" y2="1.16"/></symbol></defs><g id="Layer_2" data-name="Layer 2"><g id="tooltip"><rect class="cls-4" x="0.5" y="64.81" width="111.07" height="17.21"/><rect class="cls-5" x="3.16" y="67.74" width="11.06" height="10.93" rx="1.28"/><polygon class="cls-1" points="11.43 70.08 7.26 74.25 5.98 72.97 4.64 74.31 7.26 76.93 8.6 75.59 12.77 71.42 11.43 70.08"/><path class="cls-1" d="M200,25.13l-.32-.05c-19.51-1.59-32.31,2.19-38.13,11.24L143.8,8.22,128,18.11l1.36,2.22L116.71,30.87l25.86,30.7a16.51,16.51,0,0,0-1.11,7.32c-.37,5.29.28,9.68,2,13.39L147,122.5a74,74,0,0,0,1.19,8.2c.84,13.51,17.91,21,33.63,21.09h.24c21.07-1.86,32-8.4,33.45-20.05l5-50c.21-.43.39-.84.55-1.22,7.82-2.73,12.76-6.89,15.06-12.71l2-8.84,0-.19C240,46.4,228.84,31.23,200,25.13Z"/><ellipse class="cls-6" cx="181.86" cy="67.59" rx="37.39" ry="21.9"/><path class="cls-7" d="M144.73,66.18c-.57,4,1,9.11,3,14.32C162,92.83,181,94.36,202.59,89.62L214,82l2.14-6.77-24.28-6.7L165.39,55.2S147.25,53.43,144.73,66.18Z"/><path class="cls-8" d="M146.06,62.32c-5.11,13,5,19.77,19.92,25.29,18.44,4.11,34.21,2,46.43-7.64l-23.93-2Z"/><use width="166.92" height="21.11" transform="translate(130.79 22.32) rotate(49.96) scale(0.65)" xlink:href="#item"/><polygon class="cls-9" points="182.58 84.2 172.27 93.08 120.24 31.18 130.84 22.32 182.58 84.2"/><use width="166.92" height="21.11" transform="translate(142.97 11.71) rotate(58.04) scale(0.65)" xlink:href="#item"/><path class="cls-10" d="M144.5,69.52l.19,6.8,1.79,4.86,4.25,46.9c.18,14.11,13.42,19.1,32.05,20.33,15.52-.47,30.05-7.33,29.77-19.44l4.88-47.19,1.19-3.58-5.71,1.59c-7.48,6.3-18.7,9.12-32,9.94C159.29,88.06,147.6,81.09,144.5,69.52Z"/><path class="cls-11" d="M211.32,92.72l.48,1.83L208,133l-.85,1.74,1,0,.66-.48,4.3-41.4s.26-1,.06-1.35-.8-.12-.8-.12Z"/><polygon class="cls-11" points="166.69 99.34 167.94 101.25 170.39 140.28 168.94 140.8 170.63 142.17 171.89 141.5 171.82 139.69 169.9 99.94 169.11 99.22 166.69 99.34"/><path class="cls-11" d="M182.08,101l.64.6a1.08,1.08,0,0,1,.44,1.08l.29,39-2,1,2.33.75,1.11-.74.11-1.62-.26-39.93-.84-.8Z"/><path class="cls-11" d="M198.14,99.25l.72.28A8.64,8.64,0,0,1,199,101l-2.11,38.48a.41.41,0,0,1-.38.42l-.81.27L194,141.71l4.13-1,2.51-41.25c-.28-.75-.65-1.31-1.25-1.36Z"/><polygon class="cls-11" points="155.43 93.97 158.72 135.78 159.46 137.14 160.22 137.37 156.61 94.76 155.43 93.97"/><path class="cls-12" d="M180.39,102.05l-.12,39.57a.84.84,0,0,0,.51.89l3.16.94-3.71,0a1.27,1.27,0,0,1-1.17-1.59l.14-40.3a1.21,1.21,0,0,1,.91-1.09l3.4,0-2.62.88C180.42,101.48,180.42,101.43,180.39,102.05Z"/><path class="cls-12" d="M165.16,100l2.18,39.09a.86.86,0,0,0,.51.9l2.31,1.75-3-.66a1.28,1.28,0,0,1-1.18-1.59l-2-40.25a1.2,1.2,0,0,1,.9-1.08l4.24,1-3.45.12C165.2,99.45,165.2,99.41,165.16,100Z"/><path class="cls-12" d="M152.36,93.57l4.78,39.16a2.53,2.53,0,0,0,.44,1.33l1.77,2.78L157,135.09c-1-.58-1.21-.75-1.35-2l-4.26-40.8c.06-.55-.08-.76.46-.94l4.41,3L152.74,93C152.36,93,152.34,93,152.36,93.57Z"/><path class="cls-12" d="M196.27,100.44,194,139.69c0,.46-.1.63.24.79l1.41-.36-1.93,1.78c-.85-.16-1-.7-.89-1.65l1.82-40.09a1.21,1.21,0,0,1,.9-1.08l3.68-.88-1.13,1-1.28.41A.87.87,0,0,0,196.27,100.44Z"/><path class="cls-12" d="M209.32,95.25l-3.7,38.68c-.1.7-.1.71.21.92l2.09-.23-3.16,2.6c-.85-.16-.67-.34-.54-1.29l3.68-40.79a1.49,1.49,0,0,1,.88-1.31l3.49-2.33a16.86,16.86,0,0,1-2.2,2.45A1.57,1.57,0,0,0,209.32,95.25Z"/><path class="cls-10" d="M161.91,42.9c4.21-12.34,20-17.89,41.88-13.23,20.8,5,33.79,15.94,30.94,29.77-1.38,16-15,21.73-37.55,19.89-21.74-5-37.34-13-36.55-28.64Z"/><path class="cls-11" d="M162.62,51.15c-.73,1.16-1.26,2.51,0,5.91S169,65.69,169,65.69l4.83,5.39-4.35-3.3a33.21,33.21,0,0,1-5.27-5.19,34.84,34.84,0,0,1-3.31-6.65c-.68-3.14-.53-5.75.49-7.81Z"/><path class="cls-12" d="M207.25,45.11l-1.2,4.33a1.4,1.4,0,0,0,.18,1.18l1.61,2a.64.64,0,0,1-.19.84l-.7.91,2.75-1.66-2.28-2.6,1-5.85-10.6-8.6,9.08,8.49A.74.74,0,0,1,207.25,45.11Z"/><path class="cls-12" d="M230.09,68.25c-4.13,5.83-16.25,11-38.47,9.62,14.51,3.39,35,2.93,41.74-11.94l.43-3.09-4,4Z"/><ellipse class="cls-6" cx="198.49" cy="50.62" rx="21.9" ry="37.39" transform="translate(107.96 234.38) rotate(-78.08)"/><path class="cls-6" d="M161.63,44.15l-1.08,5.21c-2.5,11.84,11.85,24.89,32.06,29.16s38.6-1.87,41.1-13.71l1.35-5.72"/><path class="cls-6" d="M213.48,79.27c-6.71,5.85-18.69,10.22-31.62,10.22-20.65,0-37.39-9.8-37.39-21.9a13.47,13.47,0,0,1,1.28-5.7c0-.07.16-.15.21-.2"/><polygon class="cls-13" points="193.33 42.06 196.33 41.11 197.01 39.66 194.79 38.02 193.33 42.06"/><path class="cls-14" d="M191.7,40.57c.72,0,1,.47,1.44.79l0,0c.09.05.09,0,.06,0a.62.62,0,0,0,.11-.17l0,.07.5-2.08.25-1a1,1,0,0,1,.49-.72.76.76,0,0,1,.61,0,1.24,1.24,0,0,1,.35.22l3.21,2.82,3.19,2.81,1.59,1.41.43.39a1.75,1.75,0,0,1,.38.61,2.53,2.53,0,0,1,0,1.3c-.17.75-.35,1.4-.53,2.1l-.26,1a8,8,0,0,0-.21.93.72.72,0,0,0,.3.61l.72.79L205.74,54l.33.36a.18.18,0,0,0,.14,0,.1.1,0,0,0,.07,0l.24-.11.47-.25,1.9-1,.42-.21a.19.19,0,0,0,.07-.12.19.19,0,0,0,0-.13l-.33-.35-1.44-1.57,0,0,0,0a2.07,2.07,0,0,1-.35-.68,1.37,1.37,0,0,1,.06-.91l0,.1.63-3c.11-.49.21-1,.34-1.51,0-.12.05-.23.05-.29s0,0,0,0a2.63,2.63,0,0,0-.48-.39h0l-10.38-8.81h0l.5.11-3.53,1-.11,0h0a.53.53,0,0,0-.22.13.48.48,0,0,0-.16.25v0l-.41,1.55-.21.78a1.45,1.45,0,0,1-.26.59.77.77,0,0,1-.65.26,1,1,0,0,1-.45-.18l0,0,0,0-1.18-1.12,0-.05,0,0s0,0,.07,0a.35.35,0,0,0,.36-.08c.07-.06.07-.12.06-.07l-.05.24-.19,1-1.07-.21.19-.94,0-.24a1,1,0,0,1,.25-.51.77.77,0,0,1,.8-.17,1,1,0,0,1,.43.35l-.06-.08,1.17,1.12-.05,0s0,0-.09,0a.34.34,0,0,0-.29.11c0,.06,0,0,0-.15l.21-.78.42-1.56v0a1.59,1.59,0,0,1,.48-.85,1.55,1.55,0,0,1,.91-.42l-.12,0,3.54-1,.28-.08.22.19h0l10.34,8.85,0,0a3.75,3.75,0,0,1,.71.61,1,1,0,0,1,.2.69,2.74,2.74,0,0,1-.07.48c-.14.51-.23,1-.35,1.51l-.64,3v0l0,.06a.29.29,0,0,0,0,.23,1.41,1.41,0,0,0,.19.36l0,0,1.44,1.57a4.93,4.93,0,0,1,.39.44,1.15,1.15,0,0,1,.21.88,1.2,1.2,0,0,1-.48.76c-.15.09-.22.11-.3.16l-.23.12-1.91,1-.48.24-.24.12a1.11,1.11,0,0,1-.44.12,1.18,1.18,0,0,1-.84-.29c-.2-.2-.26-.28-.4-.43L203.6,53.1l-.71-.79a2,2,0,0,1-.4-.55,1.56,1.56,0,0,1-.14-.73,7.2,7.2,0,0,1,.24-1.14l.26-1c.17-.68.37-1.4.51-2a1.57,1.57,0,0,0,0-.81c-.06-.2-.24-.34-.54-.61L201.22,44,198,41.15l-3.17-2.84c-.11-.11-.12-.05,0-.09s0,0,0,.16l-.27,1L194,41.46l0,0v0a1,1,0,0,1-.47.5.68.68,0,0,1-.44,0,1.13,1.13,0,0,1-.33-.14l0,0v0C192.28,41.52,191.78,41.28,191.7,40.57Z"/><path class="cls-6" d="M144.45,68.87l0,5.32c0,12.1,16.74,21.91,37.39,21.91,18.31,0,33.55-7.72,36.76-17.9"/><path class="cls-6" d="M217.5,80.84l-5,49.78c0,9.91-13.72,17.94-30.63,17.94s-30.63-8-30.63-17.94l-.85-4.4-3.91-45"/><rect class="cls-6" x="178.75" y="100.13" width="6.56" height="43.53" rx="1.44"/><path class="cls-6" d="M192.35,140.92l2-41a1.32,1.32,0,0,1,1-1.21l3.65-1a1.31,1.31,0,0,1,1.65,1.33l-2.13,41a1.32,1.32,0,0,1-1,1.2l-3.53,1A1.31,1.31,0,0,1,192.35,140.92Z"/><path class="cls-6" d="M203.65,136.7l3.84-42.06a.78.78,0,0,1,.34-.58l4.2-3a.8.8,0,0,1,1.26.74L208.86,134a.78.78,0,0,1-.3.55l-3.62,2.83A.8.8,0,0,1,203.65,136.7Z"/><path class="cls-6" d="M171.9,140.92l-2-41a1.33,1.33,0,0,0-1-1.21l-3.65-1a1.31,1.31,0,0,0-1.65,1.33l2.12,41a1.33,1.33,0,0,0,1,1.2l3.53,1A1.31,1.31,0,0,0,171.9,140.92Z"/><path class="cls-6" d="M160.6,136.7l-3.84-42.06a.78.78,0,0,0-.34-.58l-4.21-3a.8.8,0,0,0-1.26.74L155.39,134a.78.78,0,0,0,.3.55l3.62,2.83A.8.8,0,0,0,160.6,136.7Z"/><line class="cls-15" x1="39.06" y1="64.8" x2="39.06" y2="82"/><line class="cls-15" x1="70.97" y1="64.8" x2="70.97" y2="82"/><rect class="cls-4" x="0.5" y="81.97" width="111.07" height="17.21"/><rect class="cls-5" x="3.16" y="84.9" width="11.06" height="10.93" rx="1.28"/><polygon class="cls-1" points="11.43 87.24 7.26 91.41 5.98 90.13 4.64 91.47 7.26 94.09 8.6 92.75 12.77 88.58 11.43 87.24"/><line class="cls-15" x1="39.06" y1="81.97" x2="39.06" y2="99.16"/><line class="cls-15" x1="70.97" y1="81.97" x2="70.97" y2="99.16"/><path class="cls-16" d="M116.86,13.17A47.08,47.08,0,0,0,92.07,2.91a47.85,47.85,0,0,0-6.77-.18A21.45,21.45,0,0,0,78.86,4a27.25,27.25,0,0,0-10.79,7.66A53.71,53.71,0,0,0,60.49,23a94.38,94.38,0,0,0-5.36,12.73,136.78,136.78,0,0,0-3.8,13.37c-1,4.53-1.89,9.08-3.06,13.63a62.76,62.76,0,0,1,1.61-13.94,139.66,139.66,0,0,1,3.46-13.64c2.82-8.92,6.55-17.84,12.89-25.12A29.7,29.7,0,0,1,78,1.59,24.32,24.32,0,0,1,85.15.05a47.91,47.91,0,0,1,7.19.19,46.3,46.3,0,0,1,13.88,3.55,49.06,49.06,0,0,1,12.17,7.52Z"/><path class="cls-16" d="M124.18,18.85c-2-4.23-3.89-10-4.22-14.48l-3.27,7.08-7,3.34C114.11,15.07,119.92,16.92,124.18,18.85Z"/></g></g></svg>