<svg xmlns="http://www.w3.org/2000/svg" viewBox="0 0 282.07 201.72"><defs><style>.cls-1{fill:#aa5b9b;}.cls-2{fill:#8e8e8e;}.cls-3,.cls-5{fill:none;}.cls-3{stroke:#b0b0b0;stroke-width:1px;stroke-dasharray:1.13;}.cls-3,.cls-5,.cls-6{stroke-miterlimit:10;}.cls-4{fill:#bcbcbc;}.cls-5{stroke:#333;}.cls-5,.cls-6{stroke-width:1.36px;}.cls-6{fill:#e4ea00;stroke:#aa5b9b;}.cls-7{fill:#333;}</style></defs><g id="Layer_2" data-name="Layer 2"><g id="Layer_1-2" data-name="Layer 1"><path class="cls-1" d="M11.23,195.53a6.19,6.19,0,0,1-4.8,2.19,6.51,6.51,0,0,1,0-13,6.18,6.18,0,0,1,4.77,2.16l-1.29,1.06a4.71,4.71,0,0,0-3.48-1.56,4.85,4.85,0,0,0,0,9.7A4.58,4.58,0,0,0,10,194.44Z"/><path class="cls-1" d="M12.5,193.21a4.34,4.34,0,0,1,4.5-4.46,4.49,4.49,0,1,1,0,9A4.38,4.38,0,0,1,12.5,193.21Zm7.33,0A2.73,2.73,0,0,0,17,190.39a2.74,2.74,0,0,0-2.84,2.82,2.84,2.84,0,1,0,5.67,0Z"/><path class="cls-1" d="M31.34,192.9v4.64H29.66v-4.88c0-1.42-.73-2.27-1.86-2.27a2.28,2.28,0,0,0-2.39,2.51v4.64H23.73v-8.6h1.68v1.29a3,3,0,0,1,2.38-1.44,4.14,4.14,0,0,1,.94.05A2.74,2.74,0,0,1,31,190.52a3.18,3.18,0,0,1,3-1.77c2.15,0,3.31,1.4,3.31,3.81v5H35.59v-4.86c0-1.42-.73-2.29-2-2.29A2.27,2.27,0,0,0,31.34,192.9Z"/><path class="cls-1" d="M41.63,190.28a3.51,3.51,0,0,1,3-1.53,4.29,4.29,0,0,1,4.31,4.52,4.24,4.24,0,0,1-4.31,4.45,3.42,3.42,0,0,1-3-1.47v5.47H40V188.94h1.67Zm2.84,5.8a2.68,2.68,0,0,0,2.78-2.8,2.8,2.8,0,1,0-5.6,0A2.73,2.73,0,0,0,44.47,196.08Z"/><path class="cls-1" d="M52.84,184.26v13.28H51.17V184.26Z"/><path class="cls-1" d="M63.73,193.87h-7a2.66,2.66,0,0,0,2.78,2.34A2.8,2.8,0,0,0,62,194.89c.44.18,1,.36,1.43.55a4.47,4.47,0,1,1-4-6.69,4.17,4.17,0,0,1,4.28,4.46C63.75,193.41,63.75,193.69,63.73,193.87Zm-1.64-1.31a2.53,2.53,0,0,0-2.62-2.3,2.61,2.61,0,0,0-2.72,2.3Z"/><path class="cls-1" d="M70,188.94v1.42H68.2v7.18H66.52v-7.18H65v-1.42h1.54v-3.25H68.2v3.25Z"/><path class="cls-1" d="M79.88,193.87h-7a2.66,2.66,0,0,0,2.78,2.34,2.77,2.77,0,0,0,2.46-1.32c.45.18,1,.36,1.44.55a4.47,4.47,0,1,1-4-6.69,4.16,4.16,0,0,1,4.27,4.46C79.89,193.41,79.89,193.69,79.88,193.87Zm-1.64-1.31a2.54,2.54,0,0,0-2.62-2.3,2.6,2.6,0,0,0-2.72,2.3Z"/><path class="cls-2" d="M121,190.94a2.82,2.82,0,0,1,3-2.19,2.67,2.67,0,0,1,3,2.43h-1.6a1.25,1.25,0,0,0-1.35-1,1.28,1.28,0,0,0-1.29.77,1,1,0,0,0,0,.68,1.53,1.53,0,0,0,1,.67l1.27.31a2.48,2.48,0,0,1,2.23,2.5c0,1.61-1.54,2.58-3.33,2.58a3,3,0,0,1-3.2-2.76h1.52a1.38,1.38,0,0,0,.7,1,2.27,2.27,0,0,0,1.37.29c.77-.06,1.29-.5,1.3-1.12s-.51-.94-1.14-1.09l-1.18-.28C121.74,193.32,120.85,192.53,121,190.94Z"/><path class="cls-2" d="M128.86,193.21a4.51,4.51,0,0,1,9,0,4.51,4.51,0,1,1-9,0Zm7.33,0a2.84,2.84,0,0,0-5.67,0,2.84,2.84,0,1,0,5.67,0Z"/><path class="cls-2" d="M146.38,192.44V194H140v-1.6Z"/><path class="cls-2" d="M148.69,190.94a2.83,2.83,0,0,1,3-2.19,2.67,2.67,0,0,1,3,2.43h-1.6a1.23,1.23,0,0,0-1.35-1,1.28,1.28,0,0,0-1.29.77,1,1,0,0,0,0,.68,1.53,1.53,0,0,0,1,.67l1.27.31a2.49,2.49,0,0,1,2.23,2.5c0,1.61-1.55,2.58-3.34,2.58a3,3,0,0,1-3.2-2.76H150a1.32,1.32,0,0,0,.7,1,2.24,2.24,0,0,0,1.36.29c.77-.06,1.29-.5,1.31-1.12s-.52-.94-1.15-1.09l-1.17-.28C149.43,193.32,148.55,192.53,148.69,190.94Z"/><path class="cls-2" d="M156.56,193.21a4.5,4.5,0,0,1,9,0,4.5,4.5,0,1,1-9,0Zm7.33,0a2.84,2.84,0,0,0-5.68,0,2.84,2.84,0,1,0,5.68,0Z"/><path class="cls-2" d="M222.3,184.26v13.28h-1.68V184.26Z"/><path class="cls-2" d="M224.53,193.21a4.5,4.5,0,0,1,9,0,4.5,4.5,0,1,1-9,0Zm7.33,0a2.84,2.84,0,0,0-5.67,0,2.84,2.84,0,1,0,5.67,0Z"/><path class="cls-2" d="M243.79,197.54l-2.34-6.32-2.26,6.32h-1.37l-3.28-8.6h1.79l2.15,6,2.16-6h1.62l2.16,6,2.15-6h1.79l-3.19,8.6Z"/><path class="cls-2" d="M256.2,192.44V194h-6.41v-1.6Z"/><path class="cls-2" d="M260.54,197.54h-1.67v-8.6h1.67v1.93c.44-1.51,1.27-2.12,2.4-2.12a3.28,3.28,0,0,1,1.49.33l-.26,1.57a3,3,0,0,0-1.27-.29c-1.66,0-2.36,1.76-2.36,4Z"/><path class="cls-2" d="M274,193.87h-7a2.67,2.67,0,0,0,2.78,2.34,2.79,2.79,0,0,0,2.47-1.32c.44.18,1,.36,1.44.55a4.47,4.47,0,1,1-4-6.69,4.16,4.16,0,0,1,4.27,4.46C274,193.41,274,193.69,274,193.87Zm-1.64-1.31a2.52,2.52,0,0,0-2.61-2.3,2.62,2.62,0,0,0-2.73,2.3Z"/><path class="cls-2" d="M275.81,190.94a2.81,2.81,0,0,1,3-2.19c1.45,0,2.84.68,3,2.43h-1.6a1.23,1.23,0,0,0-1.34-1,1.27,1.27,0,0,0-1.29.77.88.88,0,0,0,0,.68,1.51,1.51,0,0,0,1,.67l1.27.31a2.48,2.48,0,0,1,2.23,2.5c0,1.61-1.55,2.58-3.34,2.58a3,3,0,0,1-3.2-2.76h1.53a1.32,1.32,0,0,0,.7,1,2.25,2.25,0,0,0,1.36.29c.77-.06,1.29-.5,1.31-1.12s-.52-.94-1.14-1.09l-1.18-.28C276.54,193.32,275.66,192.53,275.81,190.94Z"/><line class="cls-3" x1="8.36" y1="5" x2="275.34" y2="5"/><line class="cls-3" x1="8.36" y1="89.54" x2="275.34" y2="89.54"/><rect class="cls-1" x="15.09" y="29.29" width="49.51" height="138.63"/><rect class="cls-2" x="121.22" y="71.85" width="49.51" height="96.06"/><rect class="cls-4" x="222.78" y="155.18" width="49.51" height="12.73"/><line class="cls-5" x1="8.24" y1="176.04" x2="276.35" y2="176.04"/><polygon class="cls-6" points="39.98 2.21 45.48 19.16 63.31 19.16 48.89 29.64 54.4 46.6 39.98 36.12 25.55 46.6 31.06 29.64 16.64 19.16 34.47 19.16 39.98 2.21"/><rect class="cls-7" x="1.89" y="164.55" width="6.47" height="3.68"/><rect class="cls-7" x="1.89" y="3.1" width="6.47" height="3.68"/><rect class="cls-7" x="3.65" y="88.59" width="4.71" height="2.54"/><line class="cls-3" x1="8.36" y1="168" x2="275.34" y2="168"/></g></g></svg>