<svg xmlns="http://www.w3.org/2000/svg" xmlns:xlink="http://www.w3.org/1999/xlink" viewBox="0 0 155.43 120.02"><defs><style>.cls-1,.cls-12{fill:none;}.cls-1{stroke:#515151;stroke-width:0.66px;}.cls-1,.cls-12,.cls-4,.cls-6{stroke-miterlimit:10;}.cls-2{fill:#2d2d2d;}.cls-3{fill:#838589;}.cls-4,.cls-6,.cls-8{fill:#fff;}.cls-12,.cls-4{stroke:#aa30d8;}.cls-4{stroke-width:1.81px;}.cls-5{fill:#d8b6e0;}.cls-6{stroke:#fff;stroke-width:4.64px;}.cls-7{fill:#b47cbf;}.cls-9{fill:url(#linear-gradient);}.cls-10{fill:#4d4d4d;}.cls-11{fill:#e7ce17;}.cls-12{stroke-width:1.4px;}.cls-13{fill:#333;}</style><linearGradient id="linear-gradient" x1="71.74" y1="71.27" x2="56" y2="48.69" gradientUnits="userSpaceOnUse"><stop offset="0" stop-opacity="0.3"/><stop offset="1" stop-opacity="0"/></linearGradient><symbol id="box-hollow" data-name="box-hollow" viewBox="0 0 34.75 40.35"><polyline class="cls-1" points="0.7 8.91 16.94 17.07 17.84 17.06 33.92 9.06"/><polygon class="cls-2" points="26.8 4.53 8.9 13.41 8.86 15.94 6.25 14.5 6.27 12.04 24.1 3.25 26.8 4.53"/><polygon class="cls-1" points="0.33 9.13 0.33 19.25 0.33 31.99 16.94 40.02 17.8 40.02 34.05 32.16 34.41 31.52 34.35 9.52 33.88 8.39 17.96 0.33 16.94 0.33 0.73 8.41 0.33 9.13"/><line class="cls-1" x1="17.39" y1="16.92" x2="17.39" y2="39.87"/><polygon class="cls-3" points="23.53 3.52 6.27 12.04 6.25 14.5 6.64 14.72 6.67 12.26 23.96 3.73 23.53 3.52"/><polygon points="26.15 4.81 8.89 13.32 8.86 15.79 9.25 16.01 9.29 13.55 26.58 5.02 26.15 4.81"/></symbol></defs><g id="Layer_2" data-name="Layer 2"><g id="tooltip"><rect class="cls-4" x="0.9" y="6.86" width="94.96" height="112.26" rx="6.29"/><rect class="cls-5" x="7.67" y="13.85" width="81.45" height="77.79" rx="3.39"/><polygon class="cls-6" points="23.45 33.78 22.69 35.18 22.72 70.98 48.85 83.57 50.4 83.58 75.76 71.29 76.46 70.07 76.3 35.69 75.46 33.69 50.68 21.02 48.73 21 23.45 33.78"/><polygon class="cls-7" points="23.25 35.38 23.48 70.67 48.92 83.06 50.25 83.06 75.22 70.97 75.91 69.7 75.85 35.89 75.11 34.15 50.75 21.93 48.6 21.9 23.96 34.12 23.25 35.38"/><polygon class="cls-7" points="23.75 35.52 23.48 70.67 49.61 82.84 49.49 48.04 23.75 35.52"/><polygon class="cls-8" points="24.65 69.54 24.74 36.94 31.56 40.25 32.37 43.6 32.41 39.78 23.75 35.52 23.74 70.28 47.46 81.84 24.65 69.54"/><use width="34.75" height="40.35" transform="translate(22.71 21.17) scale(1.55)" xlink:href="#box-hollow"/><polygon class="cls-9" points="50.13 82.55 50.1 47.14 75.53 33.78 76.37 35.79 76.46 70.07 75.76 71.29 50.4 83.58 50.13 82.55"/><polygon class="cls-8" points="51.38 49.18 59.87 44.93 59.87 48.54 51.38 52.79 51.38 49.18"/><path class="cls-10" d="M59.51,45.5v2.82l-7.78,3.89V49.4l7.78-3.9m.71-1.14L51,49v4.4l9.2-4.6v-4.4Z"/><polygon class="cls-11" points="52.07 71.25 60.56 67 60.56 70.61 52.07 74.86 52.07 71.25"/><path class="cls-10" d="M60.21,67.57v2.82l-7.79,3.89V71.46l7.79-3.89m.71-1.15L51.71,71v4.4l9.21-4.6V66.42Z"/><polygon class="cls-11" points="52.07 66.1 54.89 64.69 54.89 68.3 52.07 69.71 52.07 66.1"/><path class="cls-10" d="M54.53,65.26v2.82l-2.11,1.06V66.32l2.11-1.06m.71-1.14-3.53,1.76v4.4l3.53-1.76v-4.4Z"/><rect class="cls-12" x="7.26" y="13.44" width="82.24" height="78.31" rx="3.14"/><path class="cls-8" d="M127,56.43a27.82,27.82,0,0,1-22-10.7l-.24-.3L85.47,54.16l15.85-14.53-.14-.32A28,28,0,1,1,127,56.43Z"/><path class="cls-13" d="M127,1a27.47,27.47,0,1,1-21.59,44.43l-.49-.62-.71.32L88.12,52.41,101.4,40.24l.52-.48-.27-.65A27.08,27.08,0,0,1,99.5,28.47,27.5,27.5,0,0,1,127,1m0-1a28.48,28.48,0,0,0-26.25,39.5L82.82,55.9,104.59,46A28.46,28.46,0,1,0,127,0Z"/><rect class="cls-13" x="110.45" y="18.23" width="32.79" height="5.16" rx="2.58"/><rect class="cls-13" x="110.45" y="32.88" width="22.61" height="5.16" rx="2.58"/><rect class="cls-13" x="110.45" y="25.55" width="32.88" height="5.16" rx="2.58"/></g></g></svg>