<svg xmlns="http://www.w3.org/2000/svg" xmlns:xlink="http://www.w3.org/1999/xlink" viewBox="0 0 337.12 176.84"><defs><style>.cls-1{fill:#e0e0e0;}.cls-2{fill:#483f49;}.cls-12,.cls-16,.cls-17,.cls-18,.cls-19,.cls-20,.cls-3{fill:none;}.cls-16,.cls-3,.cls-4,.cls-5{stroke:#483f49;}.cls-16,.cls-17,.cls-18,.cls-19,.cls-20,.cls-3,.cls-4,.cls-5{stroke-miterlimit:10;}.cls-3,.cls-5{stroke-width:0.33px;}.cls-15,.cls-4{fill:#e7ce17;}.cls-4{stroke-width:0.93px;}.cls-5,.cls-6{fill:#fff;}.cls-7{fill:#cecece;}.cls-8{fill:#e5e5e5;}.cls-9{fill:#aaa;}.cls-10{fill:#727272;}.cls-11{fill:#666;}.cls-13{fill:#cc3eb1;opacity:0.6;}.cls-14{fill:#aa30d8;}.cls-16,.cls-17{stroke-width:0.34px;}.cls-17{stroke:#aa30d8;}.cls-18{stroke:#e2dee1;stroke-width:1.57px;}.cls-19,.cls-20{stroke:#666;}.cls-20{stroke-width:0.65px;}</style><symbol id="tag" data-name="tag" viewBox="0 0 15.63 26.24"><path class="cls-4" d="M12.9,25.77H2.73A2.26,2.26,0,0,1,.47,23.5V7.75A2.51,2.51,0,0,1,1.28,5.9L6.8.86a1.49,1.49,0,0,1,2,0l5.52,5a2.51,2.51,0,0,1,.81,1.85V23.5A2.26,2.26,0,0,1,12.9,25.77Z"/><circle class="cls-5" cx="7.99" cy="7.22" r="1.93"/></symbol><symbol id="string" data-name="string" viewBox="0 0 4.85 15.99"><path class="cls-1" d="M1.88,8.24l-.31.52,1.06.89,1,.81A11.25,11.25,0,0,1,1.92,14l-.31.19a1.89,1.89,0,0,0-1.27.08c-.05.79.12,1.3.55,1.48a2.45,2.45,0,0,0,1.85-1l1.73-3.4A1.87,1.87,0,0,0,3.4,8.67c.67-1.53.54-3.75.6-6.85A2.15,2.15,0,0,0,3.21.51S2.64.1,2.38.28s.06.64.06.64l.73,1A17,17,0,0,1,2.6,8Z"/><path class="cls-2" d="M1,14.32c.32.06.51,0,.63-.21l.46-.72c.31-.49.58-1,.85-1.49a4.85,4.85,0,0,0,.58-1.54.75.75,0,0,0-.22-.63,2.49,2.49,0,0,0-.71-.39,1,1,0,0,1,1.31,1,4.91,4.91,0,0,1-.6,1.7,14.34,14.34,0,0,1-.92,1.5l-.51.71a.54.54,0,0,1-.45.26A.5.5,0,0,1,1,14.32Z"/><path class="cls-3" d="M.17,14.15s.16,1.49.72,1.65,1.35-.51,1.35-.51a12.56,12.56,0,0,0,2.43-4.91c.21-1.54-1.85-1.76-1.85-1.76a1.24,1.24,0,0,0-.45.14c-.14.11-.23.61-.23.61"/><path class="cls-3" d="M3.4,8.72a9,9,0,0,0,.53-2.2,27.06,27.06,0,0,0-.07-5.26A2.45,2.45,0,0,0,2.73.19C2.34.06,2.1.51,2.35.86a3.35,3.35,0,0,1,.8,1.23,28,28,0,0,1,0,4.06A5.86,5.86,0,0,1,2.6,8a1.1,1.1,0,0,0-1.15.81"/></symbol></defs><g id="Layer_2" data-name="Layer 2"><g id="tooltip"><rect class="cls-6" width="337.12" height="176.07"/><path class="cls-7" d="M83,66l-.5-.3A12,12,0,0,1,78,60.88a12.78,12.78,0,0,1-.74-5s-.12-1.42.76-2l.23-.14h-.39c-1.89,2.84-1,5.55.26,8.25a12.07,12.07,0,0,0,4.52,4.35l-.31,5.74.54-1.85Z"/><polygon class="cls-8" points="82.33 72.13 81.53 74.88 82.27 73.28 82.33 72.13"/><path class="cls-9" d="M78.44,81.78l4.19,4.33a68.13,68.13,0,0,0,2.2-7.57c1-4.74,3.24-6.28,3.24-6.28l6.87,4.54s-2-6.11-2.72-9.07-.17-10.08-.17-10.08L91.59,56l-1.11.51L88.57,49.8,85.9,52.31l-1.74,5a9.48,9.48,0,0,0,.91,4.24l-.78-.08-1.38-2c-.54-3-.48-6-3.82-6-.08.05-1,.45-1.07.49-.88.53-.76,2-.76,2a12.78,12.78,0,0,0,.74,5,12,12,0,0,0,4.53,4.86l.5.3-.16,4.24-.54,1.85-.06,1.14-.74,1.61L80.6,78Z"/><path class="cls-7" d="M108.3,73.62l4-11L112,56.46l-1.12-2.56-1.28-2.83,2.79-4.28-.06-.34L91.59,56l.46,1.61s-.56,7.11.17,10.08,2.72,9.07,2.72,9.07l-6.87-4.54s-2.27,1.54-3.24,6.28a68.13,68.13,0,0,1-2.2,7.57l-4.19-4.33L80.6,78l.93-3.16L78,82.55l5.09,4.57,7.57,3.74,7.19.59,3.23-3.28L98.8,86,100,81.6l-.27-.12.68-2,4.14-.93a47.72,47.72,0,0,0,4.9-6.41C109.07,72.61,108.69,73.13,108.3,73.62Z"/><polygon class="cls-9" points="99.3 70.61 99.37 70.94 101.67 72.59 105.42 72.68 106.47 71.11 106.58 70.57 99.3 70.61"/><path class="cls-10" d="M78.44,81.78a28.26,28.26,0,0,0,6,4.7A38.44,38.44,0,0,0,92,89.83c4.84,1,6.31-.18,6.31-.18l.34-3.42,2,1.8a5.37,5.37,0,0,1-2,2.58c-1.44.91-6.52-.14-6.52-.14C86.05,88.8,82.28,86.64,78.44,81.78Z"/><polygon class="cls-9" points="89.61 73.9 98.74 84.02 100.21 79.32 89.61 73.9"/><path class="cls-11" d="M87,26.84c-4.25.46-8.18,1.82-11,6.26-2.68,5.83-2.58,12-1.07,18.36-3.2,5.26-5.26,10.68-5.35,16.39a29.2,29.2,0,0,0,3.09,10l-1.39,5.33,6.8-3.57L80.6,78l1.52-4.63,1-7.5c-3.11-1.62-8.27-5.89-5-12.64l2.7.56,1.37,1.81,1,4.23,1.11,1.66,1.35.89-.45-1.07-.43-1.92L85,55.05,86.3,52l2.27-2.17.38,1a36.26,36.26,0,0,1-3,5.06,5.29,5.29,0,0,0,2.95-.75l-1.71,2.33a4.82,4.82,0,0,0,1-.4l1.09-.57a2.46,2.46,0,0,1-.92.68A6.25,6.25,0,0,0,92,56.35L95,54.71l3.53-1.63a16,16,0,0,0,4.65-.84,6.18,6.18,0,0,0,2.6-1.1c0,.38-1.16,1.24-1.54,1.58a4.69,4.69,0,0,0,1.88-.56,9.09,9.09,0,0,0,2.18-1.56,3.71,3.71,0,0,1-.58,1.87,13.77,13.77,0,0,0,3.25-3.3,10.46,10.46,0,0,0,1.46-7.36,21.1,21.1,0,0,0-3.31-7.64q-.93-2.81-4.71-4.44C99.94,25.49,93.88,25.15,87,26.84Z"/><path class="cls-8" d="M113.13,56.87c.91,5.2-.58,10.25-3.69,15.22a31.83,31.83,0,0,0,4.23-8.41l0-11-1.22-6-.07.1,1.09,5.89Z"/><path class="cls-8" d="M110.26,54.33l1.29,2.55a23.83,23.83,0,0,1,.1,6.26c-.46,2.34-3.35,10.48-3.35,10.48.39-.49.77-1,1.14-1.53,3.11-5,4.6-10,3.69-15.22l.31-4.19-1.09-5.89-3.07,4.54Z"/><path class="cls-12" d="M147.88,97.76a1.92,1.92,0,0,0-1.13.41l.68.19Z"/><path class="cls-12" d="M149.12,98.15a3.06,3.06,0,0,1-1.28,1.31L146,98.83c-.84,1.62-.83,2.94.41,3.82a2.72,2.72,0,0,0,2.74-4.5Z"/><path class="cls-12" d="M150.17,92.68c-1.77-.2-1.72,1.06-1.72,1.06l-.25.65.58.9,2.77,0,.83,1.92L152,93.92A2.68,2.68,0,0,0,150.17,92.68Z"/><path class="cls-7" d="M153.84,113.63l.26-11.35a59.56,59.56,0,0,0-1.22-8.88,3.38,3.38,0,0,0-3.26-1.73,1.61,1.61,0,0,0-2,1.84l-.85.63a2.27,2.27,0,0,0-.87,1.35l-1.36.15-3.85,3v-.79l-1.43-1.12-1.52.54.22-1.48c-.51-.72-1.39-.68-2.29-.44l-2.05,1.29-7.9-7.48a2.76,2.76,0,0,0-2.67,2l5.92,6.1-.18.55.54,1.22.81,2.62c-2.6,3.24-3.76,6.45-1.87,9.59l-.57,2.16a1.66,1.66,0,0,0-2.07-.11l-.16-3.4-2.31-8.25L122,94.15c-1.43-3.59-3.19-5.71-5.3-6.41l-7.76-2.56-8.81-4L98.64,86l2.09,2.38L98.22,91.1,91,90.51l-7.57-3.73-5.09-4.57L79.86,79c-3,2.08-6.07,3.82-9.22,4.36a1.3,1.3,0,0,0-.08.17c-14.13,6.11-21.91,15-18,29.17,1.68,24.88,5.53,44.76,16.61,47.89l.17,16.24h55.22l-2.09-24.48c8.7,1.67,11.91-11.9,15.17-27.3l1.61-.38,13.32-20.38-.35,9.55c-.43,2.33-1.74,5.1-2.81,8.09-1.36,5.8-1.54,8.9,2.12,11.35.65.23,1.09.1,1-.59-2.16-2-3.12-4.57-1.62-10.29A49.2,49.2,0,0,0,153.84,113.63Zm-6-15.87-.45.6-.68-.19A1.92,1.92,0,0,1,147.88,97.76Zm1.34,4.06a2.47,2.47,0,0,1-2.84.83c-1.24-.88-1.25-2.2-.41-3.82l1.87.63a3.06,3.06,0,0,0,1.28-1.31A2.47,2.47,0,0,1,149.22,101.82Zm2.33-6.56-2.77,0-.58-.9.25-.65s0-1.26,1.72-1.06A2.68,2.68,0,0,1,152,93.92l.34,3.26Z"/><path class="cls-13" d="M113.52,56.52c1.3,7.45-2.3,14.62-8.59,21.63l-4.14.94-.67,2,.26.12.6-2,4.23-1.16,3.19-4.08,3.67-5.61L114,63.51l-.2-6.74.32-4.44L112.81,46l-.12.06,1.15,6.23Z"/><polygon class="cls-8" points="140.55 118.47 140.55 119.32 136.23 124.97 130.24 130.22 136.77 125.49 141.2 119.55 141.48 118.4 140.65 117.76 140.55 118.47"/><path class="cls-9" d="M76.45,99.37c1.85,6,1,17.07,1,17.07C75.91,106,75.19,96.42,71,92.89,71,92.89,74.74,93.78,76.45,99.37Z"/><path class="cls-9" d="M108.2,131.83s3.35,6.17,3.81,6.69a1.54,1.54,0,0,0,1.22.43l1.12,1.34a2.32,2.32,0,0,1-1.82.31l-.68-.63-2.14-3.59-2.28-4,.09-.45Z"/><path class="cls-8" d="M99.88,82.07a80.9,80.9,0,0,0,9.26,5.67c3.26,1.47,7.35,1.56,9.07,3.49S121.93,102,121.93,102l2.72,8.55.12,3.7.87-.93-.2-3-2.7-8.51s-.86-9.26-3.28-11.81S110,86,110,86l-9.9-4.86Z"/><path class="cls-9" d="M119.58,123.6s3.84.9,5.19,0,12.38-10.5,12.38-10.5l.78-1.43-.58.19-3.85,2.88-9.37,7-2.17.37Z"/><polygon class="cls-9" points="60.89 104.63 69.84 125.46 70.24 135.44 66.55 124.94 60.89 104.63"/><path class="cls-9" d="M66.53,100.62c.94,1.54,3.59,7.35,3.59,7.35,2.53,5.91,6.09,13.65,11.72,19.54,1.87,2,2.33,7.72,2.58,8.63a3.35,3.35,0,0,1-.54,2.16l3.91.28,9.12-5h3.16l-8.44,4.68-6.93,2.28L83.21,140l-1.93.44.4-2.44-3.59-10.29-4.74-7.17-4.08-7.47-5.74-15A8,8,0,0,1,66.53,100.62Z"/><path class="cls-8" d="M138.73,111.84a7.79,7.79,0,0,1-2.51,3l-7.72,7-.16,2.6L129,123l5.09-5,3-2.9,1.7-2.11Z"/><path class="cls-8" d="M141.49,114.25a10.31,10.31,0,0,1-2.05,3l-2.28,3.28-1.49,2.56-5.14,3.67-1,2.35,1.66-1.54,5.19-3.72,1.72-3,2.67-3.94,1.35-1.61Z"/><path class="cls-9" d="M125.28,134.32l-3,10.63.07,7s4.44.4,6.28-2.18a33.41,33.41,0,0,0,3.07-5.44l5.73-18.91Z"/><path class="cls-9" d="M129.47,99l.68,3c-1.39,2-2.46,4-2.54,5.83a8.1,8.1,0,0,0,.67,3.75l-.57,2.32.21,1.15-3,5-2.46,1.72,1.69-.12,1.79-1.42,2.83-5.33,1.41-2.58,6.41-9.86,4.16-3.76-.13-.61-1.22-1-1.61.26.06-1.29a1.72,1.72,0,0,0-2.23-.49L133.19,97l-1.36,1.42a1.92,1.92,0,0,0-2.18-1.1l-.77.49Z"/><path class="cls-9" d="M75.42,81.32l4.35-2.88-1.33,3.34a1.24,1.24,0,0,0-1,.53,3.35,3.35,0,0,0-.65,1.15c-.17.58.66,1,.66,1S83.05,89.32,87,91a47.15,47.15,0,0,0,9.26,2.44,26.93,26.93,0,0,1-9.49-1.14,43.57,43.57,0,0,1-10.41-5.39c-.55-.64-.76-1.2-1.84-.31l-7.82,5.07s-6,1.92-8.93,7.33c-2,3.65-1.67,11.69-1.67,11.69l.39,7.52c1,12.88,1.19,20.57,3.91,28.23,1.89,5,4.54,9.42,7.31,11,0,0,5.17.81,8.41-.13s8.84-2.8,8.84-2.8l23.92-12.73s-3.22-6.49-3.58-7.46a3.51,3.51,0,0,1,.1-2.72,7.72,7.72,0,0,0,.49,2.26c.46,1.15,3.75,6.81,3.75,6.81l2.18,1.88-5.56,3.27L85.52,157l-7.43,2.9a27.34,27.34,0,0,1-11,.37C63.58,158,60.8,154.13,58.63,149a197.17,197.17,0,0,1-5.69-30.31l-.35-6a34.43,34.43,0,0,1-.8-7.73,19.13,19.13,0,0,1,7.43-14.41Z"/><path class="cls-9" d="M113.74,128.72c1.35-1.65,2-6.36,8.64-9.92,1.89-1,4.29-4.52,4.29-4.52l1-.35a1.47,1.47,0,0,0-1.68-.45s-3.7,4.32-4.48,4.52a10.21,10.21,0,0,0-5,2.65,32.22,32.22,0,0,0-4.46,7.16l-4.67,4C107.55,132.7,112.4,130.37,113.74,128.72Z"/><path class="cls-9" d="M101.46,56.62a6.09,6.09,0,0,1,1,3.35,39.27,39.27,0,0,1,.17,4.15l-1,.73a2.33,2.33,0,0,0-.06,2.44,3.81,3.81,0,0,1,2.64-.64c.15,0,.69.45.86.45.43-.74.36-1.66,0-3.16l-.66-.57s0-2.26-.18-4.22a6,6,0,0,0-1.28-3.8c-.8-1.05-2.45-.89-3.87-.61A7.39,7.39,0,0,1,101.46,56.62Z"/><path class="cls-10" d="M106.64,39.94l-.91-.71,0-3.62L105,38.79c-1.5.43-2.51-.12-2.78-2.1a16.57,16.57,0,0,0,1.83-3.34A15.37,15.37,0,0,0,101.22,36l-.31-.23,2-2.86a13,13,0,0,0-2.74,2.3l-.41-.31-3.58.54-2-.28a26.18,26.18,0,0,1,3.49-2.92,12.7,12.7,0,0,0-4.83,2.84l-1.49-1L94.44,31a11.78,11.78,0,0,0-4.07,2.7l-1.28,1.44-.38-1.42a20.35,20.35,0,0,1,3.07-4.4A9.74,9.74,0,0,0,88,33.21l-2.15.2a10.15,10.15,0,0,1,3.26-5.18A9.53,9.53,0,0,0,84.74,33c-1.08.36-1.92.28-2.2-.85A15.21,15.21,0,0,1,87,26.88l-5,2.93a11.87,11.87,0,0,0-2.64,3.91c-1,1.34-1.61,1.42-2,.68a12.25,12.25,0,0,1,1.84-3.28,22.6,22.6,0,0,1,4.1-3.54,16.09,16.09,0,0,0-5,2.82,15.33,15.33,0,0,0-4.28,9c-1.13,5-.14,8.36.94,12.3a65.18,65.18,0,0,1,1-12.42c1-1.75,2-2.09,3-.72a19.94,19.94,0,0,0,4.23,10l.68-.84a28.82,28.82,0,0,1-3.56-9.24c.6-1.32,2.52-2.45,3.08-2a14.2,14.2,0,0,0,.35,5.28c-.05-1.82-.08-3.62.58-4.74l1.12.9a13.21,13.21,0,0,0-.55,4c.54-1.21,1.06-2.82,1.66-3.25l1.61-.29.19,1.2,1.14-.43c-1.39,2.25-4.27,6.89-5.34,8.45C82.37,50.22,78,51.79,78,51.79s5.37-1.2,6.94-3.42c1.35-1.92,3-5.2,5.18-8.35l.25.76c-.74,1.06-.83,2.9-.93,4.73l1.22-3.84c1.62-.14,2.65.66,3,2.55l-1,3.83,1.78-3.19c1.14-.46,1.81-.15,2,1L96,47.05a79.3,79.3,0,0,1-5.63,8.57c2.76-3.31,5.16-6.32,6.49-9.66,2.48-2.58,4.83-3.1,6-1.39A39.74,39.74,0,0,1,96,53.67a26,26,0,0,0,7.7-9.47c.82-.54,1.54-.81,1.86-.17l-.3.94c-.77,2.25-2.65,4.52-4.68,6.79A25.53,25.53,0,0,0,105,47.6a10.11,10.11,0,0,0,1.36-3.68c.9-.73,1.89-1,2.46-.13l-.29,2.31.81-2.48,1.84-.52-1.12-1.38-.7-3.21-.1,3a1.44,1.44,0,0,1-1.55-1l-.5-3.9Z"/><path class="cls-14" d="M123.36,91.48l5.7,6,.61-.3,2,.83.77,3.23a4.55,4.55,0,0,0,1.27,1.22l1.39-.19,1,.42,1.15-1.14-.7-.44,0-1.34L135.7,99l-1.19.74-.79.12c-.74,0-1.1-.6-1.17-1.75l.94-1.47-7.86-7.08A2,2,0,0,0,123.36,91.48Z"/><path class="cls-15" d="M136.55,102.42l8.09-6.26,3.05-.37a2.87,2.87,0,0,1,.34,2,3.37,3.37,0,0,0-2.5,1.73s-.61,2.39.49,3.18c2,1.43,3.75-1.51,3.75-1.51a3.63,3.63,0,0,0-.48-2.86l-.37-2.59,2.53-.1.87,2.08.26,6.94-9.93,15.19-2.2,3.26L139,124.74l-1.82.34,1.83-2.42,2.25-3c.37-.93.37-1.5-.6-2.06l1.61-2.17-1-1.64-1.95.92-1.79,1.62-2.57,3.2-.94,1-4.31,3-.7-.22,3.13-2.9,1.87-1.93,2.8-2.81,1.65-1.79.55-2.15h-1.84l-5.76,4.11-5,3.9,3.11-5.45Z"/><path class="cls-14" d="M112.75,45.51A23.24,23.24,0,0,1,113.6,49c.24,1.16.43,2.34.65,3.51v.1c-.11,1.4-.23,2.8-.41,4.19v-.08h0a25.68,25.68,0,0,1,.32,6.12,15.62,15.62,0,0,1-1.86,5.9,39.5,39.5,0,0,1-3.23,5.19c-1.18,1.66-2.49,3.23-3.78,4.77l-.08.11-.12,0h0a11.59,11.59,0,0,1-4.43.66,12.72,12.72,0,0,1-4.38-1l0,0,0,0c-2.49-1.61-5-3.23-7.35-5-.59-.45-1.18-.91-1.76-1.39a8.53,8.53,0,0,1-1.62-1.66,19,19,0,0,1-1.06-2c-.15-.35-.29-.7-.41-1.06a1.35,1.35,0,0,1-.06-1.15,1.94,1.94,0,0,1,.57,1c.13.34.28.67.44,1a17.55,17.55,0,0,0,1.11,1.86,7.79,7.79,0,0,0,1.54,1.41c.58.44,1.18.86,1.79,1.27,2.41,1.67,4.9,3.26,7.4,4.79l-.07,0a11.81,11.81,0,0,0,4,.89,12.1,12.1,0,0,0,4.07-.43h0l-.21.14c1.3-1.54,2.59-3.07,3.76-4.7a38.07,38.07,0,0,0,3.19-5.06,15.41,15.41,0,0,0,1.81-5.55,27.5,27.5,0,0,0-.13-6h0v-.09c0-1.4.13-2.8.22-4.2v.1c-.2-1.17-.43-2.34-.6-3.52a22.19,22.19,0,0,1-.41-3.55Z"/><path class="cls-14" d="M81.4,54.4a8,8,0,0,0-2-.73,1.71,1.71,0,0,0-.91.06,1.31,1.31,0,0,0-.61.62,5.59,5.59,0,0,0-.46,2,7.74,7.74,0,0,0,.13,2.1,13.08,13.08,0,0,0,1.65,3.93,12.84,12.84,0,0,0,3.12,2.89l0,0a1.42,1.42,0,0,0,.81.2,5.72,5.72,0,0,0,1-.19,2.09,2.09,0,0,1-.9.78,1.73,1.73,0,0,1-1.32,0h0l0,0A9.56,9.56,0,0,1,80,64.57a10.71,10.71,0,0,1-1.53-1.74,13.48,13.48,0,0,1-1.75-4.22,7.87,7.87,0,0,1-.11-2.32A5.43,5.43,0,0,1,77.25,54a2,2,0,0,1,1-.87,2.12,2.12,0,0,1,1.27,0A4.2,4.2,0,0,1,81.4,54.4Z"/><path class="cls-14" d="M82.12,62c-.33-.39-.61-.81-.92-1.11a.76.76,0,0,0-.49-.2,2.09,2.09,0,0,0-.61,0h0l-.23,0-.11-.15a5.64,5.64,0,0,1-.7-1.33,2.91,2.91,0,0,1-.16-1.56,2.15,2.15,0,0,1,.9-1.31,1.65,1.65,0,0,1,1.46-.32c-.41.34-.81.47-1.14.74a1.55,1.55,0,0,0-.6,1,4.07,4.07,0,0,0,.75,2.41l-.33-.12h0a1.92,1.92,0,0,1,.86,0,1.2,1.2,0,0,1,.78.47,2.84,2.84,0,0,1,.37.71A3.78,3.78,0,0,1,82.12,62Z"/><path class="cls-14" d="M107.49,66.63l-.67.14.15-.08a2.19,2.19,0,0,1-.34.46.87.87,0,0,1-.25.21.53.53,0,0,1-.32.07L105,67.5h-.11l0-.06-.59-.63h0l.11,0-1-.2,1-.14h0l.07,0h0l.67.53L105,67h0l1,0a.75.75,0,0,0,.2,0,.77.77,0,0,0,.17-.12,2.22,2.22,0,0,0,.32-.36l.08-.1.07,0Z"/><path class="cls-14" d="M102.52,67.24a1.93,1.93,0,0,1-.47.13.68.68,0,0,1-.91-.47,2,2,0,0,1-.17-.47h0v0a3,3,0,0,1,.25-1.54,1.3,1.3,0,0,1,.6-.58,1.46,1.46,0,0,1,.77-.13c-.42.32-.79.55-.94.93a5.73,5.73,0,0,0-.24,1.33v-.06h0l.13.42a1.09,1.09,0,0,0,.16.31.9.9,0,0,0,.37.11Z"/><path class="cls-14" d="M108,54.45c-.28.43-.56.85-.8,1.28a3.77,3.77,0,0,0-.5,1.31,12,12,0,0,0-.14,1.48c0,.5-.06,1-.11,1.52a8.53,8.53,0,0,1-.27-1.51,8.14,8.14,0,0,1,0-1.56,3.14,3.14,0,0,1,.66-1.47A4.74,4.74,0,0,1,108,54.45Z"/><path class="cls-9" d="M93.9,57.91a3.75,3.75,0,0,1,1.26-2.24,4.41,4.41,0,0,0,.21,2.66Z"/><path class="cls-14" d="M101,58.23a3.66,3.66,0,0,1-1,.47h0a5.62,5.62,0,0,1-3.14.31,8.28,8.28,0,0,1-2.91-1.1,16.48,16.48,0,0,0,3,.52,12.42,12.42,0,0,0,2.92-.22h0A3.93,3.93,0,0,1,101,58.23Z"/><path class="cls-14" d="M112.66,56.55a4.2,4.2,0,0,1-1.08.78,5.14,5.14,0,0,1-1.27.43,4.57,4.57,0,0,1-2.64-.26,22.18,22.18,0,0,0,2.53-.3c.41-.08.81-.18,1.22-.29S112.23,56.66,112.66,56.55Z"/><path class="cls-14" d="M83.11,65.91A1.72,1.72,0,0,1,83.33,67l0,1.05c0,.7-.06,1.4-.09,2.1s-.09,1.4-.16,2.1a9.28,9.28,0,0,1-.13,1.08,5.68,5.68,0,0,1-.33,1.08,31.57,31.57,0,0,1-1.82,3.85c-.67,1.23-1.39,2.44-2.17,3.61l-.3-.16L80,77.87c.54-1.28,1.16-2.54,1.58-3.82A6.75,6.75,0,0,0,82,72.12c.06-.7.16-1.39.24-2.08s.19-1.39.31-2.08l.17-1A1.68,1.68,0,0,1,83.11,65.91Z"/><path class="cls-14" d="M107,32.55a9.41,9.41,0,0,1,2.18,2A17.74,17.74,0,0,1,111,36.87a13.57,13.57,0,0,1,1.94,5.61,10.13,10.13,0,0,1-.15,3,10.58,10.58,0,0,1-1.06,2.81,11.5,11.5,0,0,1-4,4.21,12,12,0,0,0,3.56-4.45,10.39,10.39,0,0,0,.77-2.7,16.37,16.37,0,0,0,0-2.8,13.6,13.6,0,0,0-1.59-5.39,17.64,17.64,0,0,0-1.54-2.42c-.58-.77-1.26-1.45-1.89-2.19Z"/><path class="cls-14" d="M104.05,31.57a18.61,18.61,0,0,0-7.18,3.55A24.57,24.57,0,0,0,91.44,41c-1.41,2.25-1.72,5-2,7.64a15.93,15.93,0,0,1-.34,2,7.78,7.78,0,0,1-.87,1.87,30.52,30.52,0,0,1-2.28,3.36q1.13-1.7,2.07-3.48a7.32,7.32,0,0,0,.74-1.83,16.39,16.39,0,0,0,.25-2,31.34,31.34,0,0,1,.46-4.06A11.17,11.17,0,0,1,91,40.68a25.28,25.28,0,0,1,5.72-5.82A17.61,17.61,0,0,1,104.05,31.57Z"/><path class="cls-14" d="M105.7,32.5a17.82,17.82,0,0,1,.12,4.13,23.6,23.6,0,0,1-.62,4.1,21.29,21.29,0,0,1-1.37,3.93,23.36,23.36,0,0,1-2.11,3.58,27.59,27.59,0,0,1-5.86,5.86c-.55.42-1.11.82-1.68,1.21L92.4,56.37a5.78,5.78,0,0,1-4,.8,6.17,6.17,0,0,0,3.87-1L94,55c.56-.4,1.1-.82,1.63-1.25a30.61,30.61,0,0,0,5.7-5.84,20.86,20.86,0,0,0,3.49-7.32,23.86,23.86,0,0,0,.72-4c.06-.68.07-1.37.11-2A10.14,10.14,0,0,1,105.7,32.5Z"/><path class="cls-14" d="M104.42,31.17a32.09,32.09,0,0,0-4.39.53,15.92,15.92,0,0,0-4.12,1.51,17.28,17.28,0,0,0-6.29,6A44,44,0,0,0,87.4,43a22.4,22.4,0,0,1-2.35,3.82q-.67.9-1.41,1.74A10.67,10.67,0,0,1,82,50.16a8.47,8.47,0,0,1-4.21,1.77h0l.26-.19-1.29,2.47.72-2.69.05-.16.21,0h0a8.53,8.53,0,0,0,3.87-1.67,11,11,0,0,0,1.54-1.51c.49-.55,1-1.11,1.41-1.68a22.64,22.64,0,0,0,2.36-3.71,41.14,41.14,0,0,1,2.3-3.82,17.67,17.67,0,0,1,6.53-6A16,16,0,0,1,104.42,31.17Z"/><path class="cls-14" d="M69.85,84.06a25.58,25.58,0,0,0,1.55-2.91A11.42,11.42,0,0,0,72.17,78h0l0,.18a35.41,35.41,0,0,1-2.5-6.66A24.86,24.86,0,0,1,69.08,68c-.06-.6-.07-1.21-.08-1.81s.08-1.21.18-1.8a27.27,27.27,0,0,1,2-6.84,42.89,42.89,0,0,1,3.37-6.26h0l0,.36a22.5,22.5,0,0,1-1.84-8,19.86,19.86,0,0,1,1.19-8.24A13,13,0,0,1,87,26.69h0l-.1,0a11.94,11.94,0,0,1,4.54-1.54,18.81,18.81,0,0,1,4.8,0,14.29,14.29,0,0,1,4.64,1.34,10.23,10.23,0,0,1,3.77,3h0l-.13-.09a11,11,0,0,1,3.36,1.75,5.91,5.91,0,0,1,1.35,1.46,1.89,1.89,0,0,1,0,2.08l-.32-.12a2.36,2.36,0,0,0-.51-1.42A6.24,6.24,0,0,0,107.21,32a14.72,14.72,0,0,0-1.45-1c-.5-.3-1-.6-1.54-.87l-.1-.05,0,0h0a11,11,0,0,0-3.67-2.55,16.14,16.14,0,0,0-4.33-1.17,22.13,22.13,0,0,0-4.53-.08,19.49,19.49,0,0,0-4.48.79l-.07,0h0a13.44,13.44,0,0,0-7.29,2.64,13.19,13.19,0,0,0-4.48,6.14,20.17,20.17,0,0,0-1.1,7.69,39.21,39.21,0,0,0,1.18,7.82l0,.21-.09.15h0A40.52,40.52,0,0,0,72,57.86a26,26,0,0,0-1.92,6.63,19.41,19.41,0,0,0,.44,6.82,34.61,34.61,0,0,0,2.29,6.55l0,.09V78h0a9.17,9.17,0,0,1-.74,3.42,7.36,7.36,0,0,1-2,2.83Z"/><path class="cls-14" d="M95,54.75a34.31,34.31,0,0,0,5.92-3.56,13.38,13.38,0,0,0,4.38-5,21.28,21.28,0,0,0,1.68-6.56,17.77,17.77,0,0,0,0-3.42c-.06-.57-.16-1.13-.27-1.69s-.26-1.11-.34-1.7A4.75,4.75,0,0,1,107,34.4c.14.56.27,1.14.36,1.72a18,18,0,0,1,.22,3.51A18.89,18.89,0,0,1,106,46.49a9.8,9.8,0,0,1-2,2.95,17.64,17.64,0,0,1-2.71,2.27A25,25,0,0,1,95,54.75Z"/><path class="cls-14" d="M87.26,57.44A8.69,8.69,0,0,0,89,56.56a7.71,7.71,0,0,0,1.4-1.34c.89-1,1.74-2,2.54-3A37.8,37.8,0,0,0,97,45.55c1.15-2.34,2.18-4.74,3.2-7.17a17.08,17.08,0,0,1,2.2-3.32l1.24-1.53A8.74,8.74,0,0,1,105,32.09a10.21,10.21,0,0,1-1.1,1.64l-1.17,1.58a17.43,17.43,0,0,0-2.08,3.26,78.23,78.23,0,0,1-3.19,7.21,37.4,37.4,0,0,1-4.23,6.67A36.69,36.69,0,0,1,90.6,55.4a8.9,8.9,0,0,1-1.53,1.27A8.5,8.5,0,0,1,87.26,57.44Z"/><path class="cls-14" d="M87,27a18.41,18.41,0,0,0-5.51,3.53,8,8,0,0,0-1.85,2.58,10,10,0,0,0-.51,3.16,24.14,24.14,0,0,0,.13,3.29c.06.55.13,1.1.21,1.64A12.24,12.24,0,0,0,80,42.78a17,17,0,0,0,3.37,5.6l-.23.25A16.17,16.17,0,0,1,79.42,43a13.3,13.3,0,0,1-.55-1.65c-.11-.55-.18-1.11-.25-1.67a23.91,23.91,0,0,1-.17-3.39,9.81,9.81,0,0,1,.58-3.4,8.42,8.42,0,0,1,2-2.79,17.14,17.14,0,0,1,5.84-3.38Z"/><polygon class="cls-14" points="108.07 70.47 106.42 69.88 105.01 70.45 103.56 69.76 99.46 70.55 98.17 70.59 103.8 70.78 105.03 71.3 105.94 70.76 108.07 70.47"/><path class="cls-14" d="M106.47,71.11a5.24,5.24,0,0,1,0,.7,3.35,3.35,0,0,1-.15.66l0,0,0,0a4.57,4.57,0,0,1-.44.44.7.7,0,0,1-.18.12.48.48,0,0,1-.18.07l-.07,0-.29,0a7.88,7.88,0,0,1-1.19.13,8.15,8.15,0,0,1-2.36-.27h0l-.12,0,0,0-2-2.12,2.46,1.51-.16-.08h0a8.69,8.69,0,0,0,2.16.19,9.83,9.83,0,0,0,1.08-.09l.27,0,.07,0-.06,0,.06,0a4,4,0,0,0,.38-.35l-.07.11a3,3,0,0,1,.4-.55A4,4,0,0,1,106.47,71.11Z"/><path class="cls-14" d="M101.07,79.14a50,50,0,0,1-1.82,5.16,14.3,14.3,0,0,0-.54,2.62l-.39,2.73c-.07-.92-.11-1.84-.1-2.77a11.31,11.31,0,0,1,.25-2.81,19.81,19.81,0,0,1,2-5.19Z"/><path class="cls-14" d="M63.53,98.11a4.4,4.4,0,0,1,1,1.82l.77,1.93,1.5,3.87,1.47,3.88c.5,1.3.94,2.6,1.52,3.82a71.6,71.6,0,0,0,4,7.19c1.46,2.33,3,4.63,4.58,6.88l0,0,0,0q1.16,3.22,2.27,6.47c.36,1.09.73,2.16,1,3.28a3.26,3.26,0,0,1,.16.9,5.3,5.3,0,0,1-.06.9,9.82,9.82,0,0,1-.46,1.69l-.33-.11a11.75,11.75,0,0,0,.29-1.64,3.28,3.28,0,0,0-.13-1.59c-.34-1.07-.74-2.14-1.13-3.21-.79-2.14-1.61-4.27-2.44-6.39l0,.09q-2.4-3.4-4.6-6.93a69.86,69.86,0,0,1-4.07-7.28c-.61-1.27-1.06-2.6-1.56-3.88L66.06,106l-1.42-3.9-.69-2A4.31,4.31,0,0,1,63.53,98.11Z"/><path class="cls-9" d="M78.72,142.14l-6.88,3.79S69,149,69.16,150.18s2.06,1.07,2.06,1.07l2.14-1.08,1.43-3.66Z"/><path class="cls-14" d="M81.39,141.05a45.71,45.71,0,0,0-4.21,2,34.08,34.08,0,0,0-4,2.39,12.86,12.86,0,0,0-3.32,3.13c-.42.58-.79,1.35-.51,1.82s1.12.69,1.87.89a2.77,2.77,0,0,1-1.22.1,1.59,1.59,0,0,1-1.17-.67,1.62,1.62,0,0,1-.09-1.4,5.11,5.11,0,0,1,.59-1.11,13.47,13.47,0,0,1,3.48-3.3,33.51,33.51,0,0,1,4.11-2.35,35.61,35.61,0,0,1,4.4-1.81Z"/><path class="cls-14" d="M108.23,130.45c-.21.45-.41.84-.55,1.23a1.16,1.16,0,0,0,.08,1.2c.44.82.93,1.62,1.41,2.42,1,1.6,2,3.19,3,4.78l0-.06h0a1.79,1.79,0,0,0,1.09.53,1.88,1.88,0,0,0,1.19-.4h0l0,.24-1.14-1.5.27-.21,1.15,1.5.1.14-.14.1h0a2.22,2.22,0,0,1-1.4.56,2.26,2.26,0,0,1-1.42-.57h0l0,0,0,0c-1-1.61-1.93-3.22-2.87-4.84-.46-.82-.94-1.62-1.37-2.47a2,2,0,0,1-.21-1.5A1.84,1.84,0,0,1,108.23,130.45Z"/><path class="cls-14" d="M83.18,141c1.12-.46,2.25-.85,3.38-1.22s2.24-.8,3.35-1.21a52.48,52.48,0,0,0,6.36-3.19l6.24-3.53,3.1-1.79.78-.45.39-.23a1.86,1.86,0,0,1,.47-.23,1.3,1.3,0,0,1,1.08.25,4.82,4.82,0,0,1,.72.61l-.35.39c-.44-.36-1-.78-1.29-.66a1.22,1.22,0,0,0-.32.18l-.38.23-.77.46-3.09,1.83c-2.06,1.21-4.13,2.42-6.22,3.59-1,.58-2.09,1.17-3.15,1.73a23.47,23.47,0,0,1-3.31,1.5,32.65,32.65,0,0,1-3.45,1.06A21.08,21.08,0,0,1,83.18,141Z"/><path class="cls-14" d="M84.62,140.66a3.53,3.53,0,0,0-1.83-.22,5.52,5.52,0,0,0-1.65.93c-1.09.77-2.13,1.61-3.15,2.48-.51.44-1,.86-1.5,1.32a7.54,7.54,0,0,0-1.26,1.45,30.59,30.59,0,0,0-1.87,3.55,11.94,11.94,0,0,1,1.29-3.9,6.24,6.24,0,0,1,1.28-1.69c.49-.47,1-1,1.52-1.38a32.42,32.42,0,0,1,3.31-2.4,6,6,0,0,1,1.93-.92,3.31,3.31,0,0,1,2.1.48Z"/><path class="cls-14" d="M60.89,104.63a23,23,0,0,1,1.35,3.81l1.16,3.86c.78,2.58,1.53,5.16,2.23,7.75l1,3.89c.33,1.27.77,2.53,1.14,3.81L69,131.59c.4,1.29.91,2.53,1.22,3.85a33.06,33.06,0,0,1-1.87-3.59c-.57-1.22-1.16-2.44-1.68-3.69a37.22,37.22,0,0,1-1.39-3.84l-1-3.9c-.65-2.61-1.26-5.24-1.84-7.86l-.88-3.94A24.1,24.1,0,0,1,60.89,104.63Z"/><path class="cls-14" d="M59.65,115.6A5.31,5.31,0,0,1,60,117l.19,1.41.38,2.83q.36,2.82.63,5.66c.16,1.9.35,3.78.38,5.7,0,1,0,1.9,0,2.85a13.75,13.75,0,0,1-.18,2.86,19.62,19.62,0,0,1-.27-2.84c-.06-.95-.14-1.89-.23-2.84-.16-1.88-.41-3.76-.58-5.65s-.33-3.78-.44-5.68l-.16-2.84L59.62,117A5.29,5.29,0,0,1,59.65,115.6Z"/><path class="cls-14" d="M71,92.89A10.91,10.91,0,0,1,74.63,98c.59,2,.93,4.07,1.32,6.11s.69,4.09,1,6.14a37.91,37.91,0,0,1,.54,6.21,40.26,40.26,0,0,1-1.33-6.08l-1-6.12c-.34-2-.65-4.1-1.16-6a13.74,13.74,0,0,0-3-5.29Z"/><path class="cls-14" d="M121.28,117.79a17.45,17.45,0,0,1-.59-3.18l-.44-3.19c-.32-2.13-.64-4.25-1-6.34a25.54,25.54,0,0,0-.7-3.08l-.92-3.08c-.62-2.06-1.21-4.12-1.76-6.22a53.89,53.89,0,0,1,2.59,5.94c.37,1,.76,2,1.09,3a24.58,24.58,0,0,1,.73,3.2c.35,2.15.58,4.29.76,6.44l.25,3.22A15.25,15.25,0,0,1,121.28,117.79Z"/><path class="cls-14" d="M111.74,91.56A4.77,4.77,0,0,1,112.83,93l.94,1.49c.63,1,1.27,2,1.86,3s1.17,2,1.73,3.08a17.14,17.14,0,0,1,1.43,3.31,67,67,0,0,1,1.56,6.92c.44,2.32.78,4.65,1.1,7l-.34.06-1.47-6.89c-.53-2.29-1-4.59-1.69-6.81a17.84,17.84,0,0,0-1.4-3.14l-1.65-3.11-1.64-3.12-.82-1.56A5.06,5.06,0,0,1,111.74,91.56Z"/><path class="cls-14" d="M100.09,80.85a7,7,0,0,1,2,.87c.63.34,1.26.67,1.9,1a40.71,40.71,0,0,0,3.9,1.7c2.67,1,5.42,1.7,8.19,2.62a10.24,10.24,0,0,1,3.81,2.36,10.13,10.13,0,0,1,2.27,3.85,21.67,21.67,0,0,1,.85,4.3c.17,1.43.29,2.87.37,4.31v-.08c.79,2.78,1.61,5.55,2.37,8.33v.06l.09,3.41h-.34l-.23-3.4v.06c-.9-2.75-1.74-5.51-2.59-8.27v-.08c-.1-1.42-.25-2.84-.44-4.25a21.31,21.31,0,0,0-.9-4.11,8.79,8.79,0,0,0-5.58-5.59c-2.67-.9-5.5-1.59-8.19-2.67a42.71,42.71,0,0,1-3.94-1.83c-.64-.33-1.28-.68-1.9-1a5.62,5.62,0,0,1-1.77-1.26Z"/><path class="cls-14" d="M119.57,122.93a6.48,6.48,0,0,0,.64-.23c.08,0,.31-.26.48-.37l1.15-.78a26.57,26.57,0,0,0,2.19-1.64,15,15,0,0,0,1.7-2.09l1.56-2.28,0,0,.42-.93h0l0,.09a1.39,1.39,0,0,0-.56-1.07,1.21,1.21,0,0,0-.56-.19.81.81,0,0,0-.49.14l0-.05c-1.1,1.33-2.22,2.62-3.44,3.87a4.45,4.45,0,0,1-1.1.87,10.38,10.38,0,0,1-1.24.5,11.58,11.58,0,0,0-2.26,1,10,10,0,0,0-3.22,3.66c-.88,1.45-1.71,3-2.48,4.47l0,.07,0,0c-1.5,1.22-3,2.41-4.54,3.62l-.22-.26c1.45-1.28,2.88-2.59,4.34-3.86l-.08.11a45.41,45.41,0,0,1,2.35-4.61,19.29,19.29,0,0,1,1.45-2.19,7.09,7.09,0,0,1,2-1.8A12.4,12.4,0,0,1,120,118a10,10,0,0,0,1.14-.45,3.88,3.88,0,0,0,.91-.71c1.22-1.16,2.37-2.45,3.53-3.69l0,0h0a1.48,1.48,0,0,1,.94-.23,1.81,1.81,0,0,1,.83.34,1.63,1.63,0,0,1,.55.7,2.32,2.32,0,0,1,.17.83v.05l0,0h0l-.35,1h0l0,0c-.47.8-1,1.6-1.49,2.37a13.09,13.09,0,0,1-1.77,2.24,26.93,26.93,0,0,1-2.3,1.64l-1.17.76a1.87,1.87,0,0,1-.72.31A1.18,1.18,0,0,1,119.57,122.93Z"/><path class="cls-14" d="M129.1,123.13l.71.31-.16,0,4.42-3.11,0,.05h0c.7-.89,1.4-1.78,2.13-2.65a21.31,21.31,0,0,1,2.34-2.52,14.09,14.09,0,0,1,1.35-1.07,4,4,0,0,1,.78-.45,1.22,1.22,0,0,1,.53-.12,1,1,0,0,1,.54.22,2,2,0,0,1,.61.76,1.56,1.56,0,0,1,.14.48.9.9,0,0,1-.08.56,4.64,4.64,0,0,1-1.2,1.35l.05,0-2.93,4.16v0L136.53,124h0v0l0,0c-1,.81-2,1.58-3,2.35s-2,1.5-3.06,2.24l0,0a3.15,3.15,0,0,1-1,.75,3.4,3.4,0,0,1,.63-1.1l0,0,0,0c1-.76,2-1.53,3-2.27s2.06-1.48,3.12-2.17l0,0h0l1.68-3h0l2.87-4.2,0,0,0,0a4.4,4.4,0,0,0,1-1.18.39.39,0,0,0,0-.26,1,1,0,0,0-.1-.33,1.38,1.38,0,0,0-.44-.54c-.26-.31-.76.08-1.22.35a15.87,15.87,0,0,0-1.3,1,19.77,19.77,0,0,0-2.28,2.46l-2.17,2.6h0l0,0,0,0-4.51,3-.08.05-.09,0-.71-.32Z"/><path class="cls-14" d="M140.66,117.43a4,4,0,0,1,.54.37,1,1,0,0,1,.44,1.27,3.78,3.78,0,0,1-.21.62v0L137,125.65l0,0,0,0-6,4.91h0l-3.7,2.5-1.87,1.23a15.66,15.66,0,0,1-2,1.15A30.74,30.74,0,0,1,119.1,137c-1.44.39-2.89.74-4.35,1.07l.1,0a25,25,0,0,1-3,1.62l-.17-.3a28.7,28.7,0,0,1,2.83-1.92l.05,0,.06,0c1.44-.33,2.87-.71,4.29-1.12a35.21,35.21,0,0,0,4.17-1.41,14.48,14.48,0,0,0,1.88-1.09l1.88-1.2,3.72-2.44h0l6.08-4.82,0,0,4.54-5.84,0,0a3.73,3.73,0,0,0,.2-.56,1,1,0,0,0,0-.5,1.08,1.08,0,0,0-.33-.4,3.3,3.3,0,0,0-.49-.34Z"/><path class="cls-14" d="M82.1,141.74c-.75,1-1.48,2-2.16,3.07a11.74,11.74,0,0,0-1.59,3.24,13.57,13.57,0,0,0-.42,3.61,27.59,27.59,0,0,0,.26,3.72,11.92,11.92,0,0,1-.93-3.69,10.68,10.68,0,0,1,.3-3.85,9.48,9.48,0,0,1,1.89-3.39A17.87,17.87,0,0,1,82.1,141.74Z"/><path class="cls-14" d="M86.45,52.06l-.91,2.6a10.88,10.88,0,0,0-.38,1.28c-.08.44-.13.89-.17,1.34A15.33,15.33,0,0,0,85,60a13.15,13.15,0,0,0,.74,2.64,10.24,10.24,0,0,1-1.06-2.58,12.58,12.58,0,0,1-.2-2.8A7.73,7.73,0,0,1,85,54.48c.33-.87.69-1.72,1.1-2.55Z"/><path class="cls-14" d="M80.11,53a8.27,8.27,0,0,1,1.54,1.42,5.65,5.65,0,0,1,1,1.87h0v0l.61,2.81c0,.23.1.47.14.7a3.41,3.41,0,0,0,.24.63c.21.39.45.76.72,1.2a2,2,0,0,1-1.15-1,4.09,4.09,0,0,1-.3-.71c-.06-.24-.1-.47-.15-.71l-.55-2.86v0a8.25,8.25,0,0,0-.93-1.76C81,54.07,80.52,53.53,80.11,53Z"/><path class="cls-14" d="M137.89,125.33a10.12,10.12,0,0,1-.38,2.06l-.53,2-1.08,4c-.74,2.7-1.46,5.39-2.3,8.07a37.46,37.46,0,0,1-3.31,7.84,9.06,9.06,0,0,1-1.42,1.76,5.62,5.62,0,0,1-2,1.18,13.56,13.56,0,0,1-4.35.7v-1.37a13.57,13.57,0,0,0,3.88-.62,4.56,4.56,0,0,0,1.58-.9,7.4,7.4,0,0,0,1.22-1.47,36.79,36.79,0,0,0,3.31-7.48c.87-2.63,1.68-5.3,2.48-8l1.18-4,.58-2a10.82,10.82,0,0,1,.72-2Z"/><path class="cls-2" d="M152.53,105.13a13.9,13.9,0,0,1-1.43,2.63l-1.61,2.49-3.24,5q-3.25,5-6.58,9.9l-.08.12-.19.08a4.11,4.11,0,0,1-1.1.26,2.07,2.07,0,0,1-1.2-.14,2.09,2.09,0,0,1,1-.71,3.71,3.71,0,0,1,1.08-.31l-.27.19c2.14-3.33,4.32-6.65,6.51-9.95l3.32-4.93,1.66-2.47a13.8,13.8,0,0,1,1.85-2.34Z"/><polyline class="cls-16" points="148.67 95.66 151.55 95.5 152.32 97.73"/><path class="cls-17" d="M137.62,97.34s1.46-.61,1.83-.32a13.13,13.13,0,0,1,1.13.93c.21.22.13,1,.13,1"/><polyline class="cls-17" points="135.69 98.86 136.59 99.72 136.64 101.08 137.35 101.53"/><path class="cls-14" d="M135.9,102.83l-.87-.38h.13c-.36.07-.71.16-1.08.21a.75.75,0,0,1-.61-.09,1.45,1.45,0,0,1-.44-.41l0,0-.33-.33a2.28,2.28,0,0,1-.33-.36,3.54,3.54,0,0,1-.38-.87c.2.25.37.51.56.74s.45.4.67.6h0v0a1.32,1.32,0,0,0,.37.3.45.45,0,0,0,.41,0c.34-.09.68-.16,1-.24h.09l0,0,.84.43Z"/><path class="cls-16" d="M146.86,94.3a3.12,3.12,0,0,0-.78.75,1.85,1.85,0,0,0-.13.79"/><path class="cls-2" d="M125.58,120.22a39.59,39.59,0,0,1,2.51-4.62l2.65-4.54c1.76-3,3.53-6,5.34-9l0-.08.06-.05,8.17-6.25.08-.06h.1c.53,0,1.05-.07,1.58-.09l.79,0a1.69,1.69,0,0,1,.8.08l0,.34a1.67,1.67,0,0,1-.78.17l-.79.07c-.53,0-1.06.07-1.58.08l.17-.07-8,6.48.11-.13q-2.65,4.53-5.41,9l-2.72,4.5a38.61,38.61,0,0,1-2.87,4.4Z"/><path class="cls-14" d="M121.57,121.89l2.5-.53-.11,0q6.56-4.92,13.06-9.92l0,0h0a1.75,1.75,0,0,1,1.78.05,1.12,1.12,0,0,1,.46.88,1.68,1.68,0,0,1-.23.9l0,0v0l-1.82,2.19h0l-4,3.86-2,1.93c-.68.63-1.29,1.32-2,1.89h0l0-.06-.89,1.37.51-1.56,0-.06h0c.59-.71,1.31-1.31,1.95-2l2-1.94,4-3.86,0,0,1.81-2.2,0,0c.23-.39.24-.84-.07-1.05a1.24,1.24,0,0,0-1.21,0l.05,0q-6.53,5-13.09,9.89l0,0h-.06l-2.53.37Z"/><path class="cls-16" d="M148.15,97.86a2.74,2.74,0,0,0-2.48,1.6,2.26,2.26,0,1,0,3.93,2,2.56,2.56,0,0,0-.53-3.32"/><path class="cls-16" d="M146.08,99.06l1.6.7a2.41,2.41,0,0,0,1.49-2.05,6.4,6.4,0,0,0-1.07-3.2"/><path class="cls-2" d="M146.57,98.35l.91.22-.13,0a1.54,1.54,0,0,0,.56-.76,2.19,2.19,0,0,0,0-1,7.33,7.33,0,0,0-.24-1c-.08-.34-.27-.65-.34-1l.11-.08a.9.9,0,0,1,.32.46c.08.17.14.34.21.52a6.21,6.21,0,0,1,.27,1.07,2.37,2.37,0,0,1,0,1.15,1.83,1.83,0,0,1-.71.94l-.05,0-.08,0-.91-.22Z"/><path class="cls-14" d="M125.3,134.19a6.32,6.32,0,0,1-.25,2l-.4,1.94c-.28,1.3-.58,2.59-.87,3.89v0c-.28,2.18-.54,4.36-.76,6.55-.11,1.09-.21,2.18-.28,3.28a7.31,7.31,0,0,1-.87,3.33,6.53,6.53,0,0,1-2.47,2.45,11.2,11.2,0,0,1-3.22,1.2,29,29,0,0,1-6.69.52c-2.22,0-4.44-.24-6.6-.27l-6.6,0a124.41,124.41,0,0,1-13.21-.64,124.42,124.42,0,0,1,13.22-.6h6.61c2.25.07,4.43.3,6.61.38a28.47,28.47,0,0,0,6.47-.31c2.06-.39,4.16-1.27,5.19-3.09a6.47,6.47,0,0,0,.84-3c.06-1.1.15-2.2.25-3.3.19-2.2.42-4.39.68-6.59v0c.3-1.29.58-2.59.9-3.88l.48-1.93a6.47,6.47,0,0,1,.63-1.89Z"/><path class="cls-14" d="M122.66,151.63a32.67,32.67,0,0,1,2,6.1,45.74,45.74,0,0,1,1,6.29,23.51,23.51,0,0,1,.17,3.25c0,1.07,0,2.14-.13,3.2a41.46,41.46,0,0,1-.92,6.33h-.34c-.41-2.11-.63-4.21-.83-6.3s-.33-4.16-.58-6.17-.58-4.14-.72-6.24a37.91,37.91,0,0,1,0-6.39Z"/><path class="cls-14" d="M69.38,160.82a3.18,3.18,0,0,1,.68,2l.13,2c.07,1.33.13,2.66.14,4s0,2.67,0,4a13,13,0,0,1-.47,4l-1,0a12.85,12.85,0,0,1-.56-4c0-1.33-.08-2.66-.08-4s0-2.66.06-4l.08-2a3.19,3.19,0,0,1,.64-2Z"/><path class="cls-17" d="M135.68,95.37c1.86-.7,3.11.85,1.6,2.42l-2.88,1.94c-1.78.43-2.37-.89-1.47-2.55Z"/><path class="cls-14" d="M132.29,101.27c-.11-.45-.13-.92-.23-1.38a8.58,8.58,0,0,0-.33-1.35,1.27,1.27,0,0,0-.79-.92,3.38,3.38,0,0,0-1.31-.18l.09,0-.86.54h0l.07-.22.62,1.23h0v0l.92,2.83h0l0,.13-.09.15-1.37,2.21c-.22.37-.45.74-.65,1.1a4.5,4.5,0,0,0-.44,1.12,7,7,0,0,0-.22,2.45,7.44,7.44,0,0,0,.68,2.41h0l0,.07,0,.06-.56,2.42-.33-.08.56-2.42,0,.13h0a6.21,6.21,0,0,1-1.07-2.5,7,7,0,0,1,.09-2.74,4.82,4.82,0,0,1,.51-1.32,12.06,12.06,0,0,1,.69-1.15c.48-.73,1-1.45,1.53-2.14l0,.28h0l-.7-2.89v0l-.53-1.26-.06-.14.12-.08h0l.85-.55,0,0h.05a3.67,3.67,0,0,1,1.46.21,1.59,1.59,0,0,1,.64.45,2,2,0,0,1,.32.69,10.09,10.09,0,0,1,.29,1.41,8.3,8.3,0,0,1,.12,1.41Z"/><path class="cls-14" d="M133.52,96.79l-8-7.15.16.08a2.05,2.05,0,0,0-1.55.34,2.59,2.59,0,0,0-.77,1.44h0l-.08-.29,5.81,6.21-.25.24-6-6-.12-.12,0-.17h0a3.12,3.12,0,0,1,1-1.76,2.6,2.6,0,0,1,2-.45h.09l.07.06,7.82,7.33Z"/><path class="cls-14" d="M80.17,78.14l-1.93,1.75h0l0,0c-3.33,2-6.66,4.08-10.07,6L63,88.83A26.26,26.26,0,0,0,58.31,92a16.79,16.79,0,0,0-5.81,9.45,27.93,27.93,0,0,0,.26,11.47l-.07.18h0s0,.16,0,.26,0,.25,0,.38,0,.53,0,.79c0,.53.09,1.06.14,1.59.11,1,.25,2.11.39,3.16.31,2.11.59,4.22.93,6.32.69,4.2,1.43,8.4,2.3,12.55.44,2.08.91,4.15,1.45,6.19a50.41,50.41,0,0,0,1.86,6,22,22,0,0,0,7.58,9.52h0l-.17-.06a28.65,28.65,0,0,0,5.89.55,14.65,14.65,0,0,0,5.67-1.18h0l0,0a70,70,0,0,0,8.55-3.32c2.76-1.34,5.46-2.85,8.16-4.34,5.4-3,10.75-6.1,16.08-9.22l.08,0h.09a8.07,8.07,0,0,0,2.29-.3,1.37,1.37,0,0,0,.72-.65,4.64,4.64,0,0,0,.42-1l0,.26h0q-.33-.47-.63-1l-.29-.49a1.22,1.22,0,0,1-.21-.55l.28-.19a1.27,1.27,0,0,1,.42.41l.35.46c.22.31.43.62.63,1h0l.09.12,0,.14a4.46,4.46,0,0,1-.49,1.22,2,2,0,0,1-1.06.93,8.45,8.45,0,0,1-2.51.35h0l.17,0c-5.31,3.19-10.62,6.34-16,9.42-2.7,1.53-5.37,3.06-8.17,4.46a68.67,68.67,0,0,1-8.72,3.38l.07,0a15.62,15.62,0,0,1-6,1.31,30.28,30.28,0,0,1-6.1-.52l-.09,0-.08,0h0a16,16,0,0,1-2.73-1.9,19.07,19.07,0,0,1-2.35-2.32,20.32,20.32,0,0,1-3.49-5.61A67.84,67.84,0,0,1,55,138.42c-.78-4.22-1.42-8.45-1.89-12.7-.24-2.13-.48-4.25-.62-6.39-.07-1.06-.14-2.13-.18-3.2,0-.54,0-1.08,0-1.61,0-.27,0-.54,0-.81s0-.28,0-.42a.76.76,0,0,1,0-.21.52.52,0,0,1,.15-.29h0l-.07.18a27,27,0,0,1-.87-11.74,17.49,17.49,0,0,1,5.82-10.34,23.53,23.53,0,0,1,5-3.3l5.17-2.72,5.18-2.71q2.58-1.38,5.19-2.72l0,0L80,77.88Z"/><path class="cls-14" d="M78.41,80.25a2,2,0,0,0-.23.82.62.62,0,0,0,.08.31l.24.33a14.55,14.55,0,0,0,1.13,1.36,22.22,22.22,0,0,0,2.6,2.44,26.88,26.88,0,0,0,6.25,3.42,26,26,0,0,0,6.8,1.82,6.89,6.89,0,0,0,3.23-.48,3.65,3.65,0,0,0,2-2.26h0l.12.33-2.15-2.21.23-.26,2.43,1.9.14.11,0,.21h0A4.13,4.13,0,0,1,99,91.33a7.18,7.18,0,0,1-3.85.66,23.53,23.53,0,0,1-7.12-2.09,28.14,28.14,0,0,1-6.3-3.81,22,22,0,0,1-2.65-2.55A11,11,0,0,1,78,82a2.72,2.72,0,0,1-.21-.45.89.89,0,0,1,0-.58A1.28,1.28,0,0,1,78.41,80.25Z"/><path class="cls-14" d="M104.52,31.93a18.54,18.54,0,0,0-5.29,5.54c-1.48,2.13-2.81,4.36-4.11,6.6s-2.53,4.53-3.74,6.83c-.62,1.14-1.17,2.32-1.86,3.43a18.35,18.35,0,0,1-2.35,3.12c.76-1.05,1.45-2.15,2.11-3.26s1.21-2.29,1.81-3.44c1.2-2.31,2.42-4.6,3.71-6.86s2.65-4.48,4.15-6.61a37.65,37.65,0,0,1,2.42-3.08,16.6,16.6,0,0,1,1.41-1.37A3.52,3.52,0,0,1,104.52,31.93Z"/><path class="cls-14" d="M77.08,52.12a18.44,18.44,0,0,0-2.6,7.21c-.51,2.54-.82,5.12-1.1,7.69s-.49,5.17-.67,7.76c-.11,1.29-.14,2.59-.32,3.89a19.8,19.8,0,0,1-.89,3.8c.27-1.27.46-2.55.61-3.84s.19-2.58.27-3.87c.17-2.6.36-5.19.63-7.78s.62-5.16,1.13-7.72a39,39,0,0,1,1-3.79,14.45,14.45,0,0,1,.74-1.82A3.48,3.48,0,0,1,77.08,52.12Z"/><path class="cls-14" d="M106.53,32.75a11.45,11.45,0,0,1,1.83,2.73,13.34,13.34,0,0,1,1.15,3.09,11.17,11.17,0,0,1-.41,6.52,14.82,14.82,0,0,1-3.63,5.46,9.06,9.06,0,0,1-2.69,1.9,8.54,8.54,0,0,1-3.24.48,8.74,8.74,0,0,0,3.17-.63,5,5,0,0,0,1.35-.88c.42-.34.81-.71,1.2-1.08A14.62,14.62,0,0,0,108.81,45a11.4,11.4,0,0,0,.45-6.36,13.38,13.38,0,0,0-1.09-3C107.71,34.59,107.06,33.72,106.53,32.75Z"/><path class="cls-14" d="M88.57,49.82A12.3,12.3,0,0,1,87,51.6,7.86,7.86,0,0,1,85.13,53a3.46,3.46,0,0,1-1.2.39,5.44,5.44,0,0,1-1.21,0,9.1,9.1,0,0,1-1.18-.22,2.41,2.41,0,0,1-1.09-.5,5.51,5.51,0,0,1,1.16,0,10.67,10.67,0,0,0,1.13,0c.38,0,.75,0,1.11-.06a2.94,2.94,0,0,0,1-.25,11,11,0,0,0,1.92-1.18C87.39,50.83,88,50.33,88.57,49.82Z"/><path class="cls-2" d="M152.64,133c-.21.13-.2,0-.26,0l-.14-.12-.28-.26c-.18-.18-.36-.35-.53-.54a8.77,8.77,0,0,1-1-1.2,3.31,3.31,0,0,1-.55-1.53c0-.52,0-1,0-1.53a20.68,20.68,0,0,1,1-6c.7-1.89,1.49-3.7,2.06-5.59a17.92,17.92,0,0,0,.62-2.85c.11-1,.15-2,.19-3a109.89,109.89,0,0,0-.28-11.9c-.09-1-.2-2-.38-2.93A4.53,4.53,0,0,0,152,93a3,3,0,0,0-2.52-.93,2.92,2.92,0,0,0-1.31.4,1.25,1.25,0,0,0-.29,1.2h0l0,.2h-.21a.88.88,0,0,0-.46.16,1,1,0,0,0-.29.41,1,1,0,0,0-.11.51.66.66,0,0,0,.19.41l-.12,0,.76-.05,0,.34-.76,0h-.07l0,0a1.13,1.13,0,0,1-.19-1.32,1.35,1.35,0,0,1,.41-.56,1.19,1.19,0,0,1,.66-.22l-.16.21h0a1.59,1.59,0,0,1,.38-1.57,3.22,3.22,0,0,1,1.51-.52,3.49,3.49,0,0,1,2.9,1,4.9,4.9,0,0,1,.51.6,3.75,3.75,0,0,1,.35.73,8.77,8.77,0,0,1,.4,1.48c.2,1,.32,2,.43,3a97.64,97.64,0,0,1,.37,12c0,1-.07,2-.18,3a18.56,18.56,0,0,1-.63,3c-.57,1.94-1.39,3.78-2.07,5.62a19.89,19.89,0,0,0-1,5.77,14,14,0,0,0,0,1.45,2.76,2.76,0,0,0,.41,1.27,11.48,11.48,0,0,0,.81,1.2l.47.57.24.27.13.14C152.66,132.8,152.76,132.78,152.64,133Z"/><path class="cls-2" d="M147.37,95.11a.57.57,0,0,1,.11-.68.63.63,0,0,1,.78,0l-.26.06h0l.3-.58,0,.06h0a2.16,2.16,0,0,1,.24-.77.76.76,0,0,1,.35-.31,1.71,1.71,0,0,1,.38-.13,2.65,2.65,0,0,1,1.55,0,2.57,2.57,0,0,1,1.23,1,3.92,3.92,0,0,1,.34,1.52c.18,2,.2,3.95.23,5.92,0,4,0,7.9-.31,11.85a22.89,22.89,0,0,1-1.4,5.79,46.31,46.31,0,0,0-1.9,5.57,11.82,11.82,0,0,0,0,5.76,3,3,0,0,0,.68,1.19,14.39,14.39,0,0,0,1,1.07l.53.51a1.88,1.88,0,0,0,.54.4.86.86,0,0,0,.59,0c.16-.07.17-.19.08-.38l.3-.17a.74.74,0,0,1,.09.48.58.58,0,0,1-.33.38,1.11,1.11,0,0,1-.86,0,1.57,1.57,0,0,1-.37-.22l-.28-.24-.55-.51a13.14,13.14,0,0,1-1-1.08,3.27,3.27,0,0,1-.79-1.34,12.35,12.35,0,0,1,0-6,46.63,46.63,0,0,1,1.92-5.63,22.67,22.67,0,0,0,1.38-5.68c.31-3.91.35-7.86.34-11.8,0-2,0-4-.21-5.9a3.49,3.49,0,0,0-.28-1.35,2.14,2.14,0,0,0-1-.84,2.42,2.42,0,0,0-1.36,0l-.32.11a.41.41,0,0,0-.19.18,1.61,1.61,0,0,0-.2.63h0v0l0,0-.29.57-.11.18-.15-.12a.39.39,0,0,0-.43-.08A.54.54,0,0,0,147.37,95.11Z"/><path class="cls-14" d="M85.93,55.88A5.08,5.08,0,0,0,88.81,55l.14.22A5.32,5.32,0,0,1,85.93,55.88Z"/><path class="cls-14" d="M103.13,52.28a7.15,7.15,0,0,0,3.19-1.63,9.62,9.62,0,0,0,2.27-2.77,10.63,10.63,0,0,0,1.15-3.39,28.78,28.78,0,0,0,.12-3.61,9,9,0,0,1,.14,3.65A10.23,10.23,0,0,1,108.8,48a9.6,9.6,0,0,1-2.38,2.77A6.71,6.71,0,0,1,103.13,52.28Z"/><path class="cls-14" d="M104.19,52.75a6.53,6.53,0,0,0,2.87-1.2,8.45,8.45,0,0,0,2.1-2.28,15.22,15.22,0,0,0,1.37-2.81c.41-1,.57-2,1-3a10.63,10.63,0,0,1-.77,3.08,13.47,13.47,0,0,1-1.42,2.84,8.41,8.41,0,0,1-2.21,2.28A6.1,6.1,0,0,1,104.19,52.75Z"/><path class="cls-9" d="M59.74,110.25s2.86,16,3.07,18.91a88.63,88.63,0,0,1-.28,9.14s1.12,2.65,2.61,2.16,1.93-4.05,1.93-4.05-2.2-5.61-2.79-7.95S59.74,110.25,59.74,110.25Z"/><path class="cls-9" d="M81.21,141.28s-5,3.73-6.13,5.56a13.82,13.82,0,0,0-1.75,5.39c-.24,1.72.58,3.91,1.41,3.72s1.56-.33,1.57-1.74-1.22-4.57,0-6.79A47.9,47.9,0,0,1,81.21,141.28Z"/><polygon class="cls-9" points="172.81 11.79 170.12 42.86 166.77 65.74 207.79 67.55 248.92 65.84 246.02 39.79 243.6 10.95 172.81 11.79"/><path class="cls-7" d="M209.67,14.88c8.33-.49,18.26.95,25.33,7.6s6.84,13.87,6.84,13.87a23.48,23.48,0,0,1-13.68,23.53c-12.19,6-33.16,4.7-43.11-1.26s-8.93-20.23-8.93-20.23,1.95-13.53,12.14-18.28S201.35,15.37,209.67,14.88Z"/><path class="cls-8" d="M205.84,25a26.07,26.07,0,0,0-11.63,6.14c-5.08,10-2,18.88,10.7,22,0,0,7.19,1.23,11.72-1.21,7.88-4.24,15.42-14.24,1.63-24.93A17.73,17.73,0,0,0,205.84,25Z"/><rect class="cls-18" x="206" y="56.04" width="4.88" height="11.44"/><path class="cls-11" d="M248.92,65.85A37.85,37.85,0,0,1,238.62,68c-3.48.3-7,.4-10.45.6q-10.46.57-20.92.65a400.11,400.11,0,0,1-41.82-1.82h0L164,67.3l.31-1.49c.94-4.48,2.09-8.9,3.13-13.37a67.16,67.16,0,0,0,1.86-13.61c.07-2.29.19-4.57.39-6.85s.3-4.56.4-6.84q.28-6.84.05-13.68L170,10.05l1.42-.06c6-.25,12-.49,18-.62s12-.23,18-.28q18.06-.12,36.1.36h0l1.38,0,.07,1.41c.25,4.57.51,9.14.84,13.71s.68,9.14,1.1,13.7.84,9.14,1.28,13.71l.71,6.85a30.42,30.42,0,0,1,.18,3.45,18.55,18.55,0,0,1-.29,3.53,24.49,24.49,0,0,1-2-6.69l-1-6.84c-.69-4.55-1.26-9.13-1.81-13.7s-.93-9.18-1.3-13.78-.59-9.22-.65-13.84l1.45,1.45h0q-18-.51-36-.38-9,.06-18,.27c-6,.15-12,.28-18,.5l1.37-1.47q.18,7-.17,13.9-.18,3.47-.47,6.92a61.16,61.16,0,0,1-.94,6.88c-1,4.54-1.56,9.1-2.12,13.69a108.55,108.55,0,0,1-2.39,13.65l-1.16-1.62h0a400.22,400.22,0,0,0,41.55,2q10.39,0,20.8-.56l5.2-.34c1.72-.16,3.46-.28,5.19-.39A43,43,0,0,1,248.92,65.85Z"/><path class="cls-19" d="M205.35,9.89c-.16-2.07.38-3.8,3-3.84,3.14,0,3.74,1.68,3.67,4"/><path class="cls-9" d="M200.78,176.84c-5.07-9.1-4.07-15.79,3.15-21.84l.27-1.79c-2.4-1.62-3.54-3.26-2.51-4.93-2.8-5.66-3.17-11.3,0-16.91a2.4,2.4,0,0,1,0-3.55c2.39-8.4,3.34-21.4,3.58-36.65-1.47-1.16-1.5-2-.35-2.72.54-4.59-1.16-8.19-5.65-10.57V76.3l5.95-5.72.5-1.87h5.65v1.86l6,5.72v1.58a12.56,12.56,0,0,0-5.58,5.91l0,4.4c1.4,1,1.28,2-.15,3l.7,19.74a47.38,47.38,0,0,0,2.88,16.91c1.56,1.26,1.21,2.42.17,3.55,3.48,5.16,2.86,10.87-.28,16.93,1.15,1.87.12,3.3-1.87,4.54l-.45,1.64c7.29,6.51,7.64,14.17,3.48,22.3Z"/><path class="cls-8" d="M205,149.22a4.67,4.67,0,0,0-.11,1.58,4.5,4.5,0,0,0,1.11,2,2.8,2.8,0,0,1,.2,2.63s-4.29,6.88-4.44,11.14a37.6,37.6,0,0,0,1.15,9.21,21.33,21.33,0,0,1-2.79-9.07c-.14-4.68,5.2-11.62,5.2-11.62a2.13,2.13,0,0,0-.11-2.36,5,5,0,0,1-.93-2A1.9,1.9,0,0,1,205,149.22Z"/><path class="cls-8" d="M203.9,131.71a19.63,19.63,0,0,0-1.81,8.63,13.77,13.77,0,0,0,2.68,7.59,29.85,29.85,0,0,1-1.1-7.42,37.17,37.17,0,0,1,1.59-8.7,4.37,4.37,0,0,1-.5-3.45C203.76,129.17,203.69,130.4,203.9,131.71Z"/><path class="cls-8" d="M206.81,70.86a23.36,23.36,0,0,1-4.48,5.62,6.11,6.11,0,0,0,2.53,3.18,15.23,15.23,0,0,1,2,5.43l.11,3.22-.66.84c-.34.74,0,1.22.5,1.68a1.59,1.59,0,0,1,.55-1.73l.66-.75L208,85a14.3,14.3,0,0,0-1.46-5.39c-.41-1.16-1-2.14-.45-3a9.51,9.51,0,0,1,2-5.8l.06-2.08a3,3,0,0,0-.88.65A4,4,0,0,0,206.81,70.86Z"/><path class="cls-11" d="M205.94,68.72l.08,1.86v.23l-.14.21a22.3,22.3,0,0,1-2.78,3.3,15.71,15.71,0,0,1-3.53,2.53h0l.33-.55,0,1.58h0l-.36-.55a11.36,11.36,0,0,1,3.7,2.41,10.25,10.25,0,0,1,2.24,3.84h0l0,.12v.08L205.33,86c-.07.73-.11,1.47-.21,2.2h-.42c-.12-.74-.18-1.47-.26-2.2l-.21-2.21,0,.2h0a8.9,8.9,0,0,0-1.93-3.39A10.19,10.19,0,0,0,199,78.43l-.37-.16v-.39h0l0-1.58V76l.32-.2h0a14.44,14.44,0,0,0,3.15-2.44,20.18,20.18,0,0,0,2.46-3.17l-.14.44.08-1.86Z"/><path class="cls-11" d="M212.09,68.72l.08,1.86-.13-.44a19.6,19.6,0,0,0,2.46,3.17,14.38,14.38,0,0,0,3.14,2.44h0l.33.2v.35l0,1.58h0v.39l-.36.16a10.09,10.09,0,0,0-3.29,2.17A9.06,9.06,0,0,0,212.35,84h0l0-.2L212.17,86c-.07.73-.13,1.46-.25,2.2h-.42c-.11-.73-.15-1.47-.21-2.2l-.17-2.21V83.7l0-.12h0a10.11,10.11,0,0,1,2.24-3.84,11.32,11.32,0,0,1,3.69-2.41l-.36.55h0l0-1.58.32.55h0a15.88,15.88,0,0,1-3.52-2.53,21.14,21.14,0,0,1-2.78-3.3l-.14-.21v-.23l.07-1.86Z"/><path class="cls-11" d="M206.39,87.91l-1.19.75a3,3,0,0,0-.89.76c-.06.13,0,.08,0,.18a2.25,2.25,0,0,0,.28.32c.24.25.6.51.89.8h0l.26.11,0,.34c.2,3.08.27,6.18.26,9.27s-.1,6.19-.31,9.29-.43,6.19-.94,9.27a45.59,45.59,0,0,1-.95,4.59c-.44,1.48-.69,3.17-2.14,4.23a9.53,9.53,0,0,1,.26-2.34c.19-.72.36-1.46.5-2.2.29-1.49.47-3,.66-4.52.35-3,.63-6.08.82-9.15s.34-6.13.45-9.2l.39-9.24.27.45h0a2.93,2.93,0,0,1-1.35-.84,2,2,0,0,1-.47-.85,1.44,1.44,0,0,1,0-.62,1.22,1.22,0,0,1,.27-.52,2.72,2.72,0,0,1,1.44-.75A5.09,5.09,0,0,1,206.39,87.91Z"/><path class="cls-11" d="M210.45,87.91a5.16,5.16,0,0,1,1.46.13,2.73,2.73,0,0,1,1.43.75,1.35,1.35,0,0,1,.28.52,1.6,1.6,0,0,1,0,.62,1.89,1.89,0,0,1-.47.85,2.93,2.93,0,0,1-1.35.84h0l.27-.45.39,9.24q.18,4.61.45,9.2c.19,3.07.48,6.12.82,9.15.19,1.52.38,3,.66,4.52.14.74.31,1.48.5,2.2a9.53,9.53,0,0,1,.26,2.34c-1.45-1.06-1.7-2.75-2.14-4.23a45.59,45.59,0,0,1-.95-4.59c-.5-3.08-.74-6.18-.94-9.27s-.29-6.19-.31-9.29.06-6.19.26-9.27l0-.34.25-.11h0c.29-.29.65-.55.9-.8a2.08,2.08,0,0,0,.27-.32c0-.1.08,0,0-.18a3,3,0,0,0-.89-.76Z"/><path class="cls-11" d="M201.7,127.82c-.18.4-.37.73-.46,1a1,1,0,0,0,0,.65,2.87,2.87,0,0,0,.3.63c.15.25.34.52.51.86h0l.33.18-.23.47a17.77,17.77,0,0,0-2.23,8.21,15.2,15.2,0,0,0,.66,4.2,24.87,24.87,0,0,0,1.7,4h0l0,.07-.15.42a4.73,4.73,0,0,0-.32,1.24c0,.52-.13.56.15.95a5.45,5.45,0,0,0,1.08,1.06l1.34,1.05a5.83,5.83,0,0,1-1.75-.29,4.41,4.41,0,0,1-1.66-.91,2.13,2.13,0,0,1-.64-1,2.25,2.25,0,0,1-.06-.36,2.42,2.42,0,0,1,0-.27,1.93,1.93,0,0,1,.07-.53,2,2,0,0,1,1.47-1.53l-.13.49v0a15.77,15.77,0,0,1-2.39-4,13,13,0,0,1-1-4.62,12.68,12.68,0,0,1,.73-4.7,14.21,14.21,0,0,1,2.29-4.08l.09.65h0a2.59,2.59,0,0,1-1-.74,2.23,2.23,0,0,1-.56-1.4,1.69,1.69,0,0,1,.69-1.4A1.9,1.9,0,0,1,201.7,127.82Z"/><path class="cls-11" d="M203,152.15c1,.13,2.94,1.65,1.3,3.31a11.79,11.79,0,0,0-2.61,2.14,13.57,13.57,0,0,0-3.09,6,16.8,16.8,0,0,0-.12,6.81,17.39,17.39,0,0,0,.94,3.26,10.78,10.78,0,0,0,.76,1.52,3.22,3.22,0,0,1,.62,1.68,2.13,2.13,0,0,1-1.49-1.14,12.71,12.71,0,0,1-.9-1.61,14.12,14.12,0,0,1-1.08-3.51,18.26,18.26,0,0,1,.25-7.25,14.44,14.44,0,0,1,3.24-6.52,11.26,11.26,0,0,1,2.85-2.32c.15,0,.21-.46.21-1v-.1c0-.09,0,.08,0,0l-.11-.14-.28-.32A5.14,5.14,0,0,1,203,152.15Z"/><path class="cls-11" d="M215.31,127.82a1.9,1.9,0,0,1,1.24.38,1.69,1.69,0,0,1,.69,1.4,2.23,2.23,0,0,1-.56,1.4,2.59,2.59,0,0,1-1,.74h0l.09-.65a14.21,14.21,0,0,1,2.29,4.08,12.68,12.68,0,0,1,.73,4.7,13.17,13.17,0,0,1-1,4.62,15.77,15.77,0,0,1-2.39,4l0,0-.12-.49a2,2,0,0,1,1.47,1.53,3.07,3.07,0,0,1,.07.8,2.25,2.25,0,0,1-.06.36,2.13,2.13,0,0,1-.64,1,4.41,4.41,0,0,1-1.66.91,5.85,5.85,0,0,1-1.76.29l1.35-1.05a5.45,5.45,0,0,0,1.08-1.06c.28-.39.19-.43.15-.95a4.73,4.73,0,0,0-.32-1.24l-.15-.42,0-.07h0a24.87,24.87,0,0,0,1.7-4,15.2,15.2,0,0,0,.66-4.2,17.77,17.77,0,0,0-2.23-8.21l-.23-.47L215,131h0c.17-.34.36-.61.51-.86a2.87,2.87,0,0,0,.3-.63,1,1,0,0,0,0-.65C215.67,128.55,215.49,128.22,215.31,127.82Z"/><path class="cls-11" d="M216.19,176.78a6.33,6.33,0,0,1,.24-.85c.13-.23.28-.45.4-.7a11.25,11.25,0,0,0,.66-1.46,14.8,14.8,0,0,0,.82-3.12,19.33,19.33,0,0,0-.11-6.44,15.76,15.76,0,0,0-2.39-5.87,10.84,10.84,0,0,0-2.14-2.29,6.86,6.86,0,0,0-.64-.46c-.14-.08-.68-.39-.79-.82a2.19,2.19,0,0,1,.32-2l.08-.12,0,0a11.56,11.56,0,0,1,1.76-.88,10.87,10.87,0,0,1-1.29,1.48l.11-.14a3.08,3.08,0,0,0-.05,1.26c0,.12.7.43,1.13.78a10.72,10.72,0,0,1,2.47,2.47,15.14,15.14,0,0,1,2.55,6.38,19,19,0,0,1-.08,6.81,15.76,15.76,0,0,1-1,3.26,12.28,12.28,0,0,1-.79,1.53c-.14.24-.31.47-.47.71A2.16,2.16,0,0,1,216.19,176.78Z"/><path class="cls-11" d="M202.77,131.46c1.92,0,3.77.11,5.63.11s3.71-.06,5.63,0a14.61,14.61,0,0,1-5.64.94A17.38,17.38,0,0,1,202.77,131.46Z"/><path class="cls-11" d="M202.77,148.31c1.92.09,3.77.25,5.63.25s3.71-.1,5.63-.18a13.28,13.28,0,0,1-5.64,1.08A15.25,15.25,0,0,1,202.77,148.31Z"/><path class="cls-11" d="M204.74,152.72c1.25.07,2.45.16,3.66.16.61,0,1.21,0,1.82,0l1.84-.08a7.42,7.42,0,0,1-1.79.55,9.83,9.83,0,0,1-1.87.15A9.93,9.93,0,0,1,204.74,152.72Z"/><path class="cls-11" d="M202.56,128.23a19.9,19.9,0,0,1,5.94-.81,19,19,0,0,1,5.94.81C210.44,128.24,206.56,128.15,202.56,128.23Z"/><path class="cls-11" d="M200.74,76.55a18.73,18.73,0,0,1,3.55-.39c1.19,0,2.37-.07,3.55-.08s2.37,0,3.55,0a9.21,9.21,0,0,1,3.55.44,9,9,0,0,1-3.55.45c-1.18,0-2.36,0-3.55,0s-2.36,0-3.55-.09A17.23,17.23,0,0,1,200.74,76.55Z"/><path class="cls-11" d="M204,79.62a9.39,9.39,0,0,1,2.16-.27l2.16-.06c.72,0,1.44,0,2.16,0a5,5,0,0,1,2.15.32,4.89,4.89,0,0,1-2.15.33c-.72,0-1.44,0-2.16,0l-2.16-.06A8.89,8.89,0,0,1,204,79.62Z"/><path class="cls-11" d="M205.07,89.34a4.23,4.23,0,0,1,1.63-.6,16,16,0,0,1,1.71-.22,9.1,9.1,0,0,1,1.73,0c.56.09,1.22.07,1.64.62a5.28,5.28,0,0,1-1.68,0c-.55,0-1.1,0-1.66,0C207.32,89.18,206.25,89.43,205.07,89.34Z"/><path class="cls-6" d="M208.44,52.48a3.88,3.88,0,0,1-3.86-3.87l-1.19-12a5.06,5.06,0,0,1,5.05-5h0a5.06,5.06,0,0,1,5.05,5l-1.19,12a3.88,3.88,0,0,1-3.86,3.87h0"/><rect class="cls-6" x="207.13" y="51.93" width="2.62" height="3.95"/><line class="cls-20" x1="206.19" y1="70.52" x2="210.41" y2="70.52"/><path class="cls-8" d="M207,91.35a6.31,6.31,0,0,0-.13,1.69c.06.91.34,8.1.34,14.61s-.7,16.28-.7,16.28a5.51,5.51,0,0,1-1.12,2.65,7.26,7.26,0,0,0,2.32-2.72s.75-10.26.8-16-.8-14.39-.89-14.89A8.66,8.66,0,0,0,207,91.35Z"/><use width="15.63" height="26.24" transform="translate(235.08 76) rotate(-25.25)" xlink:href="#tag"/><use width="15.63" height="26.24" transform="translate(234.21 72.11)" xlink:href="#tag"/><use width="15.63" height="26.24" transform="translate(176.71 67.03) rotate(36.24)" xlink:href="#tag"/><use width="15.63" height="26.24" transform="translate(174.06 72.69) rotate(-10.41)" xlink:href="#tag"/><use width="15.63" height="26.24" transform="translate(174.01 74.45) rotate(-23.58)" xlink:href="#tag"/><use width="15.63" height="26.24" transform="translate(207.33 114.95) rotate(21.5)" xlink:href="#tag"/><use width="15.63" height="26.24" transform="translate(205.93 116.56) rotate(3.19)" xlink:href="#tag"/><use width="15.63" height="26.24" transform="translate(205.33 118.75) rotate(-23.58)" xlink:href="#tag"/><use width="4.85" height="15.99" transform="translate(241.11 63.51)" xlink:href="#string"/><use width="4.85" height="15.99" transform="translate(182.16 62.74)" xlink:href="#string"/><g id="string-5" data-name="string"><path class="cls-1" d="M209.68,118.62a1.9,1.9,0,0,0,.69.54l.36-.84.44-1a14.6,14.6,0,0,1,3.11,3.16l.06.36a2,2,0,0,0-.55,1.3,1.61,1.61,0,0,0,1.74-.06,2.05,2.05,0,0,0-.24-2.08c-.53-.73-2.55-2.85-2.55-2.85-.91-.81-1.41-1.34-2.4-.37-1.36-.8-3.09-1-6.43-.3a3.36,3.36,0,0,0-2,.88,2.52,2.52,0,0,0-.22,1.51c.21.7,1.29.87,1.29.87l.26-1.94c1.76-.67,5.05-.76,6.14-.22A2,2,0,0,0,209.68,118.62Z"/><path class="cls-2" d="M214.29,121.48c.17-.28.18-.47,0-.65l-.5-.69c-.34-.46-.7-.89-1.07-1.32a5.15,5.15,0,0,0-1.2-1.1.58.58,0,0,0-.62,0,1.06,1.06,0,0,0-.27.25.25.25,0,0,0,0,.33c-.18,0-.26-.28-.18-.43a1.25,1.25,0,0,1,.28-.41.85.85,0,0,1,1-.07,5.27,5.27,0,0,1,1.33,1.19,12.86,12.86,0,0,1,1,1.38l.48.72a.56.56,0,0,1,.07.52A.51.51,0,0,1,214.29,121.48Z"/><path class="cls-2" d="M213.77,122.07a5.87,5.87,0,0,0,.83.1,1.9,1.9,0,0,0,.77-.09c.16-.06.23-.31.23-.56a3,3,0,0,0-.14-.79v0a15.33,15.33,0,0,0-2.28-3,6.26,6.26,0,0,0-1.48-1.1,1.13,1.13,0,0,0-.81-.14c-.29.07-.38.32-.69.52-.09-.39.27-.67.61-.79a1.43,1.43,0,0,1,1,.13,6.65,6.65,0,0,1,1.59,1.13,14.48,14.48,0,0,1,2.37,3v0a3,3,0,0,1,.16.91,1,1,0,0,1-.46.9,2.23,2.23,0,0,1-.94.1,6.44,6.44,0,0,1-.88-.13Z"/><path class="cls-2" d="M203.13,118.73c-.1.07-.24,0-.29-.1a.6.6,0,0,1-.08-.28,1,1,0,0,1,.1-.53.8.8,0,0,1,.18-.24.65.65,0,0,1,.29-.13l.46-.09a10.77,10.77,0,0,1,1.88-.26c.63,0,1.24-.06,1.89,0a7.46,7.46,0,0,1,1.88.37l.12,0v.14a1.78,1.78,0,0,0,.88,1.47l-.14.3a1.9,1.9,0,0,1-.78-.76,1.86,1.86,0,0,1-.29-1l.11.18a7.29,7.29,0,0,0-1.79-.36c-.6,0-1.24,0-1.85.05a11.34,11.34,0,0,0-1.83.25l-.46.1c-.1,0-.1,0-.14,0a.37.37,0,0,0-.08.14A1.16,1.16,0,0,0,203.13,118.73Z"/><path class="cls-2" d="M210,117.33c.15.26.18.49.32.71a1.76,1.76,0,0,0,.49.49l-.15.3a1.42,1.42,0,0,1-.6-.66A.92.92,0,0,1,210,117.33Z"/><path class="cls-3" d="M203,119.74c-.6-.07-1.2-.24-1.34-1,0,0-.17-1.3.49-1.65a13.32,13.32,0,0,1,5.2-1.1c2.3,0,3,.66,3,.66"/></g></g></g></svg>