<svg xmlns="http://www.w3.org/2000/svg" viewBox="0 0 170.5 125.51"><defs><style>.cls-1{fill:#fff;}.cls-2,.cls-3{fill:#592349;}.cls-2{opacity:0.15;isolation:isolate;}.cls-10,.cls-4,.cls-5,.cls-6,.cls-7,.cls-8{fill:none;}.cls-4,.cls-5,.cls-6{stroke:#adadad;}.cls-4,.cls-5,.cls-6,.cls-7{stroke-miterlimit:47.96;}.cls-4{stroke-width:2.28px;}.cls-5{stroke-width:2.68px;}.cls-6,.cls-7{stroke-width:2.12px;}.cls-7{stroke:#565656;}.cls-10,.cls-8{stroke:#fff;}.cls-8{stroke-miterlimit:10;stroke-width:2.73px;}.cls-9{fill:#da5863;}.cls-10{stroke-linecap:round;stroke-linejoin:round;stroke-width:1.31px;}</style></defs><g id="Layer_2" data-name="Layer 2"><g id="tooltip"><rect class="cls-1" y="20.79" width="170.5" height="104.71" rx="5.31"/><path class="cls-2" d="M19.77,43.08H162.49V29.79a3.55,3.55,0,0,0-3.63-3.47H19.77Z"/><polygon class="cls-3" points="18.88 80.01 18.88 97.5 163.6 97.5 163.6 80.12 18.88 80.01"/><polygon class="cls-3" points="67.43 62.41 62.38 67.17 66.26 69.59 65.41 74.43 54.36 80.41 163.6 80.41 163.6 63.02 67.43 62.41"/><path class="cls-4" d="M159.7,27.11H10.5c-2.17,0-3.93,1-3.93,4v84.77c0,3,1.76,3.34,3.93,3.34H159.7c2.16,0,3.92-.35,3.92-3.34V31.06C163.6,28.07,161.86,27.11,159.7,27.11Z"/><line class="cls-5" x1="6.77" y1="80.04" x2="163.19" y2="80.04"/><line class="cls-5" x1="6.77" y1="98.4" x2="163.19" y2="98.4"/><line class="cls-6" x1="47.43" y1="119.23" x2="47.43" y2="43.98"/><line class="cls-6" x1="19.7" y1="119.3" x2="19.7" y2="44.04"/><line class="cls-7" x1="72.38" y1="60.27" x2="72.38" y2="45.11"/><line class="cls-6" x1="72.38" y1="119.38" x2="72.38" y2="61.68"/><line class="cls-6" x1="106.26" y1="119.45" x2="106.26" y2="44.44"/><line class="cls-6" x1="125.37" y1="119.6" x2="125.37" y2="44.59"/><line class="cls-6" x1="148.12" y1="119.75" x2="148.12" y2="44.74"/><line class="cls-6" x1="47.43" y1="44.21" x2="47.43" y2="27.14"/><line class="cls-6" x1="19.7" y1="44.29" x2="19.7" y2="27.14"/><line class="cls-6" x1="72.38" y1="44.36" x2="72.38" y2="26.84"/><line class="cls-6" x1="106.26" y1="44.44" x2="106.26" y2="26.84"/><line class="cls-6" x1="125.37" y1="44.59" x2="125.37" y2="26.84"/><line class="cls-6" x1="148.12" y1="44.74" x2="148.12" y2="26.84"/><line class="cls-5" x1="6.47" y1="43.83" x2="162.89" y2="43.83"/><line class="cls-5" x1="6.47" y1="61.65" x2="162.89" y2="61.65"/><line class="cls-8" x1="98.31" y1="1.43" x2="124.95" y2="1.43"/><line class="cls-8" x1="137.92" y1="1.43" x2="127.47" y2="1.43"/><line class="cls-8" x1="151.07" y1="1.43" x2="143.23" y2="1.43"/><line class="cls-8" x1="158.99" y1="1.43" x2="153.76" y2="1.43"/><line class="cls-8" x1="164.26" y1="1.43" x2="161.65" y2="1.43"/><path class="cls-9" d="M95.84,1.84,57,40.73c-4.43,5.14-3.64,9.26-2.42,13.79,0,0,11.65,12.59,13.27,13.73s19.31-.14,19.31-.14l38.32-38c.31-1.55.5-3-.25-4.06L101.55,1.84A4.71,4.71,0,0,0,95.84,1.84Z"/><path class="cls-10" d="M66.74,67.66,57,57.86a12.11,12.11,0,0,1,0-17.13L95.84,1.84a4,4,0,0,1,5.71,0l23.23,23.22a4,4,0,0,1,0,5.71L87.9,67.66a3.9,3.9,0,0,1-2.74,1.13H69.48A3.9,3.9,0,0,1,66.74,67.66Z"/><line class="cls-10" x1="65.01" y1="32.8" x2="87.34" y2="55.14"/><polygon class="cls-1" points="62.49 69.48 48.55 71.28 51.97 79.4 62.49 69.48"/><polygon class="cls-9" points="59.02 71.04 50.69 72.32 52.48 76.29 59.02 71.04"/><polygon class="cls-1" points="58.47 68.02 46.11 61.86 43.61 69.67 58.47 68.02"/><polygon class="cls-9" points="54.87 67.29 46.9 63.77 45.56 68.2 54.87 67.29"/></g></g></svg>