<svg xmlns="http://www.w3.org/2000/svg" xmlns:xlink="http://www.w3.org/1999/xlink" viewBox="0 0 337.12 198.43"><defs><style>.cls-1{fill:#e7ce17;stroke:#483f49;stroke-width:0.93px;}.cls-1,.cls-11,.cls-12,.cls-13,.cls-20,.cls-21,.cls-22,.cls-23,.cls-6{stroke-miterlimit:10;}.cls-13,.cls-2,.cls-21,.cls-22,.cls-23{fill:#fff;}.cls-3{fill:#cecece;}.cls-4{fill:#aa30d8;}.cls-5{fill:#aaa;}.cls-11,.cls-12,.cls-20,.cls-6{fill:none;}.cls-6{stroke:#aa30d8;stroke-width:1.47px;}.cls-7{fill:#7a7a7a;}.cls-8{fill:#898989;}.cls-9{fill:#e5e5e5;}.cls-10{fill:#3d3d3d;}.cls-11,.cls-12{stroke:#3d3d3d;}.cls-11{stroke-width:0.37px;}.cls-12{stroke-width:0.36px;}.cls-13,.cls-21,.cls-22,.cls-23{stroke:#4d4d4d;}.cls-13{stroke-width:2.95px;}.cls-14{fill:#b3b3b3;}.cls-15{fill:#999;}.cls-16{font-size:8.44px;}.cls-16,.cls-19{fill:#4f4852;font-family:SofiaProRegular, Sofia Pro;}.cls-17{letter-spacing:-0.03em;}.cls-18{letter-spacing:-0.02em;}.cls-19{font-size:10.67px;}.cls-20{stroke:#4f4852;}.cls-21{stroke-width:2.33px;}.cls-22{stroke-width:2.09px;}.cls-23{stroke-width:1.6px;}.cls-24{fill:#545454;}</style><symbol id="tag" data-name="tag" viewBox="0 0 15.63 26.24"><path class="cls-1" d="M14.35,5.9,8.83.86a1.49,1.49,0,0,0-2,0l-5.52,5A2.51,2.51,0,0,0,.47,7.75V23.5a2.26,2.26,0,0,0,2.26,2.27H12.9a2.26,2.26,0,0,0,2.26-2.27V7.75A2.51,2.51,0,0,0,14.35,5.9ZM8,9.15A1.93,1.93,0,1,1,9.92,7.22,1.93,1.93,0,0,1,8,9.15Z"/></symbol></defs><g id="Layer_2" data-name="Layer 2"><g id="tooltip"><rect class="cls-2" width="337.12" height="198.2"/><path class="cls-3" d="M258.79,180.92c-1.65,3.59-2.12,10.33-2.56,17.14l-68.32-.12L177.29,179c-.15-5.51.92-10.44,3.59-14.62l3.22-7,1.57-7.72L187.86,133c-4.57,7.71-10.32,13.13-17.77,15.22-2.23.66-5.33.56-8.58.33L157.4,156l-2.16-5.33.51-3.42a14,14,0,0,0-4.28-4.31l-9.08,2.28.42-1.66,5.25-4.89,5,.25,7.77-6.06,1.2-3,3.18-5.75,4.72-6.87c3.44-10.08,7.38-19.55,13.23-26.7l8.55-5.74L199.31,78c1.75-2.76,3.59-5.65,5.78-7.56l-.51-4.77a49.18,49.18,0,0,1-3.18-19.59l0-8.22a7.57,7.57,0,0,1,1.39-6.38,3.36,3.36,0,0,1,.29-2.31l.14-2,2.49-1.5,1.93-.43,1.21-.83,1.1.32c3.07-1.44,6.42-1.16,10,.37l8,5,3.87,6.1c0,.79-.14,1.33-.5,1.54l-.12,2.65a3.13,3.13,0,0,1,.31,2.43,2.45,2.45,0,0,1-.31,2.8A2.06,2.06,0,0,1,230.8,48l-.07.54c4.36.74,1.21,7.52-1.92,11.66l-.16,7.56L233.71,71l2.53,2.46L252.12,79l4.13.78.74,1.68,3.15,1.27,32.34,29.63-8.62,28.62Z"/><path class="cls-4" d="M184.33,159.74a46.46,46.46,0,0,0-2.82,4.28,23.9,23.9,0,0,0-2.07,4.62,48.65,48.65,0,0,0-1.29,5.06c-.33,1.73-.61,3.49-.86,5.29a23.54,23.54,0,0,1-.52-5.43,24.88,24.88,0,0,1,.66-5.48,17.63,17.63,0,0,1,.86-2.7,20.46,20.46,0,0,1,1.31-2.5,16.51,16.51,0,0,1,3.71-4.2Z"/><path class="cls-5" d="M227.26,86.14,223,90.63a2.49,2.49,0,0,0-1.2,2.59l.5,9.54s-3.4-1-4.16-.08-2.17,4-1.92,5.68,2.72,3.11,2.72,3.11l6,54-.76,6.35s.27,5.37,2.79,7.88a12.79,12.79,0,0,0,6.48,3.07l23.35,3.28,1.72-4.76L258,168.43l-15.9-68.16Z"/><path class="cls-6" d="M256.19,198.18s.58-7.08.68-10.21a30.45,30.45,0,0,1,1.43-7.12"/><path class="cls-5" d="M188.68,118.32s3.76-5,4.52-4.33-6.41,17.88-6.41,17.88c-.56-3.76-1.84-6.46-4.35-7.37,2,2.19,2.75,5.44,2.79,9.31l-4.9,4.37a18.21,18.21,0,0,1-2.68,3.27,5.83,5.83,0,0,0-.63.77c-.37,1.63-3.25,3.19-3.35.84,0,0,.05-2.05,0-3.09a2.85,2.85,0,0,0-.95-1.82l-.39,5.51-2.93,1.07-6.28,1.17-1.21-2.56-1.07,3.49-5.14,4.86,2.44,2.53,3.65-5.66,1.49.2c4.19,2.37,11.93-.17,13-2.79a10.61,10.61,0,0,1,2.45-2.27A58.36,58.36,0,0,0,188,132.78c3.31-6,5.84-13.82,8-22.6-3,1.23-5.7,2.91-6.91,5.36A3.71,3.71,0,0,0,188.68,118.32Z"/><path class="cls-5" d="M181.91,91.09c-4,6.36-8.43,16.64-12.84,27.39l-4.36,6.59c-2,2.77-3.83,5.47-3.59,7.22l-8.78,6.9-4.12-.35-2.7,2.36.44,2,2.49-3.38s3.22.81,3.93.61,2.27-.78,2.27-.78l9.49-6.45a15.12,15.12,0,0,1,6.12,1.93,6.87,6.87,0,0,0,.76-4.67c-.45-2.86-2.82-3.28-2.4-5.34a45.87,45.87,0,0,1,2.41-5.44,5.91,5.91,0,0,0,2.64,4.82,41.55,41.55,0,0,1,1.41-12.93c3.72-7.22,7.95-15,9.51-16.69,3-3.32,13.47-8,13.47-8l.9-9A97.05,97.05,0,0,1,181.91,91.09Z"/><path class="cls-4" d="M144.68,144.64c.47-.93,1-1.8,1.56-2.66.14-.21.28-.43.39-.63s.26-.45.41-.66a8.21,8.21,0,0,1,1-1.22,7.74,7.74,0,0,1-.56,1.46c-.11.23-.23.45-.35.68a7.07,7.07,0,0,1-.44.67A17.41,17.41,0,0,1,144.68,144.64Z"/><path class="cls-4" d="M157.53,141.36a13.3,13.3,0,0,0-2.17-1.23,8.1,8.1,0,0,0-2.36-.59c-.82-.13-1.65-.21-2.48-.31l-2.46-.29h0l.21-.08-1.68,1.5c-.55.5-1.13,1-1.7,1.47a19.42,19.42,0,0,0-1.62,1.5,7.7,7.7,0,0,0-1.09,1.87l-.34-.12A7.07,7.07,0,0,1,142.9,143a17.51,17.51,0,0,1,1.64-1.59c.57-.5,1.12-1,1.67-1.51l1.64-1.52.09-.08h.12a23.3,23.3,0,0,1,2.55.2c.84.1,1.67.24,2.5.4a7.71,7.71,0,0,1,2.44.85A9,9,0,0,1,157.53,141.36Z"/><use width="15.63" height="26.24" transform="translate(108.08 144.99) rotate(-49.6) scale(1.13)" xlink:href="#tag"/><use width="15.63" height="26.24" transform="matrix(1.21, -0.24, 0.24, 1.21, 124.83, 134.82)" xlink:href="#tag"/><use width="15.63" height="26.24" transform="translate(116.96 148.84) rotate(-31.51) scale(1.23)" xlink:href="#tag"/><use width="15.63" height="26.24" transform="matrix(0.54, -1.11, 1.11, 0.54, 103.77, 161.65)" xlink:href="#tag"/><use width="15.63" height="26.24" transform="matrix(0.78, -0.95, 0.95, 0.78, 81.21, 164.64)" xlink:href="#tag"/><use width="15.63" height="26.24" transform="translate(77.56 194.16) rotate(-104.61) scale(1.23)" xlink:href="#tag"/><use width="15.63" height="26.24" transform="translate(89.44 175.55) rotate(-54.55) scale(1.23)" xlink:href="#tag"/><use width="15.63" height="26.24" transform="matrix(0.96, -0.77, 0.77, 0.96, 96.17, 163.06)" xlink:href="#tag"/><use width="15.63" height="26.24" transform="translate(83.41 191.81) rotate(-77.69) scale(1.23)" xlink:href="#tag"/><use width="15.63" height="26.24" transform="matrix(-0.09, 1.23, -1.23, -0.09, 137.49, 166.89)" xlink:href="#tag"/><use width="15.63" height="26.24" transform="translate(89.15 191.07) rotate(-85.26) scale(1.23)" xlink:href="#tag"/><path class="cls-7" d="M186.56,198.41c1.77-3.54,2.74-6.46,2.68-8.34l-4-3.29-1.77-.2-18.15-24.64-1.23-.72c-.8-1.52-1.72-2.7-3-3a10.84,10.84,0,0,0-4.07-4.35l-1.95-3.11a5.23,5.23,0,0,0,.36-3.83l-3.39-4.17s-14.39,1.73-30.19,15.61c-7.08,6.22-18.27,21.72-18.27,21.72a42,42,0,0,0-6.82,18.3Z"/><path class="cls-8" d="M151.62,198.4h19.61a10,10,0,0,0-2.6-6.73C165.91,188.16,149.2,172,149.2,172l-4.72-7.43,3.37-3.13-7-10.09a132.93,132.93,0,0,0-16.14,11.36l7.52,12.08L148.43,192Z"/><path class="cls-5" d="M210.53,45.42a7.39,7.39,0,0,1,.4,2.95,8.54,8.54,0,0,0,.42,2.51c-.44-.61-.84.11-1.25.84l.07,1.41.48-.2c0-.91.59-1.92,1.12-1.84l.35-3.67.23-2.5-.73-1.51-.91-.63-1-.08-.34,2S210.27,45,210.53,45.42Z"/><path class="cls-9" d="M214.54,43.35A2.08,2.08,0,0,0,214,45l.17,3.88a4.11,4.11,0,0,1,.62,2.59c1.66-.17,2.11.06,2.53,1.1.61.37.7-.07,1-.71.57.12-.15-2.54-1.62-4.52-.66-.89-.34-3.18-.34-3.18Z"/><path class="cls-9" d="M257,81.42l-.74-1.68-3.36-.6L236.2,73.26l-3.8-3L228.53,68l.28-7.8c2.05-.61,3.53-4.74,4.43-8.59-.17-2-1.09-3.07-2.5-3.23a3.15,3.15,0,0,0,.36-2.64,2.61,2.61,0,0,0,.32-2.87,3.6,3.6,0,0,0-.31-2.43,3.89,3.89,0,0,0,0-2.63l.62-1.56c-1.36-3.59-3.42-6.5-6.78-8.15l-7.83-3.88a33.9,33.9,0,0,0,5.29,6.43l3.12,2.64-1.36.23,1.12.79-.45.44.32.7-.39,1,.9,1.72-.32.69,1,1.7L226,41.77l-1.15,1.36-.24,3.07,2,1.08c1.33,3.14-1.8,13.08-1.8,13.08s-1.14,4.89-2.07,6.09S218,69.33,218,69.33c2.05.06,4,.16,4.46.59L224.6,68c1.34,2.78,2.93,6.14,1.57,11.27L223,86.62l3.51-3.72c1.11-1.19,2.23-1.35,3.35-.68,2,.89,2.56,4.19,2.65,10.54L235,80.55l7.86,4.13,12.61,2,9.87,8.71c2.68-1.49,5.5-2.86,8.25-4.37l-13.3-8.75Z"/><path class="cls-4" d="M222.47,69.92a5.74,5.74,0,0,1,.72-1.32,11.67,11.67,0,0,1,.8-1.22c.58-.77,1.14-1.56,1.67-2.36a18.84,18.84,0,0,0,1.39-2.53,26.44,26.44,0,0,0,1-2.69v0c.18-1,.32-2,.48-3.06,0,1,0,2.06.08,3.09v0a10.72,10.72,0,0,1-.83,2.9,24.88,24.88,0,0,1-1.33,2.69A19.05,19.05,0,0,1,224.78,68a6.25,6.25,0,0,1-1.05,1.07A4.46,4.46,0,0,1,222.47,69.92Z"/><path class="cls-5" d="M213.76,69.29c-3.15.47-4.87-1.11-6.75-3.33a36.77,36.77,0,0,1-2.36-7.24c-.31-2.31-.37-6.17-.37-6.17l.44-4-1-1.12.81-1.35-1-1.89L205,41.94l-1.31-3,1.17-4.23a6.59,6.59,0,0,0-2.2-3,8.13,8.13,0,0,0-1.3,2.91c-.17,1.3,0,5.65,0,5.65a111.78,111.78,0,0,0,.73,15.8,44.08,44.08,0,0,0,1.36,5.88l0,0a40,40,0,0,1,1.23,3.82,96.91,96.91,0,0,1,.9,11.39c1.57-1.63,7.57-2.86,9.87-3.43l4.92-4.21C218.17,69.44,216.65,69.33,213.76,69.29Z"/><path class="cls-5" d="M208.1,74.59l-2.34,2.24.66,1.08,1.13,1.46,3.31,3.46a9.65,9.65,0,0,1,2.81,4.79l-4.46-5.19c-1.42-1.65-3.7-3.11-4.35-4.42a6.26,6.26,0,0,1-.52-3.74,11,11,0,0,1,1.39-3.55Z"/><path class="cls-4" d="M203.73,35c-.54.87-1.16,1.5-1.55,2.27a5.86,5.86,0,0,0-.68,2.55c0,1.87.1,3.79.15,5.68s.06,3.82.2,5.68a52.67,52.67,0,0,0,.67,5.61,27,27,0,0,0,3.84,10.46A12.75,12.75,0,0,0,210.29,71a9.52,9.52,0,0,0,2.52,1c.43.12.88.2,1.34.28l.7.13a1.18,1.18,0,0,1,.7.24,1.08,1.08,0,0,1-.72.23l-.73,0a6.77,6.77,0,0,1-1.48-.12,10.15,10.15,0,0,1-2.76-1.1,13.6,13.6,0,0,1-4.23-4,27.81,27.81,0,0,1-4-10.79,52.38,52.38,0,0,1-.71-5.71c-.17-1.93-.11-3.82-.12-5.73l0-5.73a6.56,6.56,0,0,1,.62-3A3.77,3.77,0,0,1,203.73,35Z"/><path class="cls-4" d="M229.57,49.09a1.53,1.53,0,0,1,1.4-.91,2.52,2.52,0,0,1,1.6.64,2.83,2.83,0,0,1,.82,1.5,5.32,5.32,0,0,1,.1,1.64,11.57,11.57,0,0,1-.86,3.06,28.18,28.18,0,0,1-1.39,2.81l0,0a7.56,7.56,0,0,1-1,1.78,2,2,0,0,1-.9.66,1.65,1.65,0,0,1-1.1,0l.09-.36a1.63,1.63,0,0,0,.81-.11,1.91,1.91,0,0,0,.62-.53,8.15,8.15,0,0,0,.87-1.63v0a23.86,23.86,0,0,0,1.35-2.73,10.82,10.82,0,0,0,.82-2.88,3.31,3.31,0,0,0-.74-2.61,2.18,2.18,0,0,0-1.19-.54A10.76,10.76,0,0,0,229.57,49.09Z"/><path class="cls-4" d="M229.91,50.24a1,1,0,0,1,.55-.66,1,1,0,0,1,.91-.06h0l0,0a2.42,2.42,0,0,1,.8,1.88,5.5,5.5,0,0,1-.17,1,2.92,2.92,0,0,1-.37.92c-.05-.69.21-1.3.17-1.92a2.41,2.41,0,0,0-.69-1.63l.07,0h0a1,1,0,0,0-.66,0C230.37,50,230.21,50.15,229.91,50.24Z"/><path class="cls-4" d="M229.63,52.9a1.59,1.59,0,0,1,.76.39,1.08,1.08,0,0,1,.34.9,1.61,1.61,0,0,1-.38.81,1.49,1.49,0,0,1-.68.53,7.37,7.37,0,0,1,.34-.74,6.24,6.24,0,0,0,.24-.68C230.39,53.72,230,53.27,229.63,52.9Z"/><path class="cls-4" d="M217.4,46a14.46,14.46,0,0,1,.34-1.74h0v0a.89.89,0,0,1,.38-.39.66.66,0,0,1,.28-.09l.22,0a8.72,8.72,0,0,1,.88-.08,6.43,6.43,0,0,1,1.8.09,3.32,3.32,0,0,1,1.56.93,5.34,5.34,0,0,1,.59.67,1.56,1.56,0,0,1,.4.8,2.47,2.47,0,0,1-.62-.63,5.67,5.67,0,0,0-.58-.62,3,3,0,0,0-1.43-.81,6.34,6.34,0,0,0-1.69-.07l-.87.08-.22,0a.34.34,0,0,0-.12.06.81.81,0,0,0-.21.24v0A13.69,13.69,0,0,1,217.4,46Z"/><path class="cls-4" d="M210.29,47.12a2.61,2.61,0,0,1-.54-.24h0l0,0c-.26-.61-.5-1.24-.7-1.87l.16.12h0a9.67,9.67,0,0,0-3.19.26,3,3,0,0,0-1.3.8c-.36.38-.57.86-1,1.3a3,3,0,0,1,2.11-2.51,8.15,8.15,0,0,1,3.36-.21h.12l0,.13c.21.63.38,1.27.53,1.93l0-.05A5.34,5.34,0,0,1,210.29,47.12Z"/><path class="cls-4" d="M211.35,50.88c-.11-.15-.29-.26-.41-.18a1.29,1.29,0,0,0-.32.39,2.71,2.71,0,0,0-.4.92,2.92,2.92,0,0,0,.07,1c0,.33.46.4.79.53a1.59,1.59,0,0,1-.57,0,.78.78,0,0,1-.29-.12.82.82,0,0,1-.2-.27,1.9,1.9,0,0,1-.23-1.18,2.08,2.08,0,0,1,.6-1,1.44,1.44,0,0,1,.5-.35A.4.4,0,0,1,211.35,50.88Z"/><path class="cls-4" d="M211.22,53a.63.63,0,0,1,.21-.3.51.51,0,0,1,.41-.12.75.75,0,0,1,.34.22c.06.11.21.15.14.35-.21,0-.21-.12-.31-.17a1.15,1.15,0,0,0-.24-.18C211.63,52.73,211.39,52.86,211.22,53Z"/><path class="cls-4" d="M212.15,53.52a1.71,1.71,0,0,0,1.41.4l.37-.07a1.68,1.68,0,0,1,.27-.06,1.1,1.1,0,0,0,.53-.5,1.33,1.33,0,0,1-.3.81.62.62,0,0,1-.21.15.8.8,0,0,1-.25,0l-.41,0A1.88,1.88,0,0,1,212.15,53.52Z"/><path class="cls-4" d="M214.58,52.93a.52.52,0,0,1,.2-.54.86.86,0,0,1,.56-.24.92.92,0,0,1,.93.55.92.92,0,0,0-.9-.29,1.14,1.14,0,0,0-.4.19C214.84,52.69,214.78,52.82,214.58,52.93Z"/><path class="cls-4" d="M217.12,53.29c.35-.32.63-.53.69-.92a3.56,3.56,0,0,0,0-1.22.83.83,0,0,0-.7-.74,1.78,1.78,0,0,0-1.15.29,2,2,0,0,1,.49-.46,1,1,0,0,1,.72-.17,1.18,1.18,0,0,1,.68.33,1.31,1.31,0,0,1,.33.68,3.26,3.26,0,0,1,0,1.39A1,1,0,0,1,217.12,53.29Z"/><path class="cls-4" d="M211.62,43.41a2.26,2.26,0,0,1,.86,1.81,17.91,17.91,0,0,1-.21,2,15.9,15.9,0,0,0-.24,1.93,14.84,14.84,0,0,1-.26,2,16.51,16.51,0,0,1-.16-2,8.27,8.27,0,0,1,.14-2c.09-.65.27-1.3.33-1.91A3.77,3.77,0,0,0,211.62,43.41Z"/><path class="cls-4" d="M214.54,43.35a3.85,3.85,0,0,0-.5,1.3,4.56,4.56,0,0,0,.07,1.37,11,11,0,0,1,0,2.86c-.18-.94-.28-1.88-.37-2.82a5.51,5.51,0,0,1,0-1.46A2.5,2.5,0,0,1,214.54,43.35Z"/><path class="cls-2" d="M210.2,57.22l.24,1.12s2,.1,3.58.1,5.06-.37,5.06-.37l.36-.92-4.36-.47-1.32.88-1.44-.74Z"/><path class="cls-4" d="M208.4,57.47a2.74,2.74,0,0,1,.95-.41l1-.22c.66-.13,1.32-.25,2-.32h.08l0,0,1.36.7h-.18l1.31-.83,0,0H215c1,0,1.93.1,2.89.2a9.74,9.74,0,0,1,2.85.52,10.06,10.06,0,0,1-2.9,0c-1-.09-1.92-.19-2.87-.34l.11,0-1.3.83-.09.06-.1,0-1.36-.71.12,0c-.64.19-1.3.32-2,.45l-1,.16A2.56,2.56,0,0,1,208.4,57.47Z"/><path class="cls-4" d="M219.94,57.35a1.51,1.51,0,0,1-.13,1.17,1.63,1.63,0,0,1-.94.81h-.08c-1.68.1-3.37.18-5.06.25l-2.53.09c-.11,0-.21,0-.35,0a.82.82,0,0,1-.42-.19A2.27,2.27,0,0,1,210,59a3.66,3.66,0,0,1-.27-.61.83.83,0,0,1-.07-.66,1.07,1.07,0,0,1,.42.49c.11.18.22.35.34.51a2.16,2.16,0,0,0,.35.42.27.27,0,0,0,.15.07h.28l2.53-.1c1.69-.07,3.37-.14,5.06-.19l-.08,0h0a1.7,1.7,0,0,0,.75-.59C219.66,58.05,219.67,57.68,219.94,57.35Z"/><path class="cls-4" d="M209.45,60.6a2.32,2.32,0,0,1,.78.45,2,2,0,0,0,.72.34,10.9,10.9,0,0,0,1.73,0l1.82,0,.9,0a1.94,1.94,0,0,1,.92.1,2.05,2.05,0,0,1-.89.22l-.91.09-1.81.16a7.5,7.5,0,0,1-1.89,0,2.54,2.54,0,0,1-.9-.45A1,1,0,0,1,209.45,60.6Z"/><path class="cls-4" d="M218.05,46.33a3.58,3.58,0,0,1,1.2-.22c.41,0,.82,0,1.22,0s.82,0,1.23,0a3.34,3.34,0,0,1,1.2.21,5,5,0,0,1-1.22,0c-.4,0-.8,0-1.2,0s-.81,0-1.21,0A4.16,4.16,0,0,1,218.05,46.33Z"/><path class="cls-4" d="M204.89,48a9.71,9.71,0,0,1,2.38-.56,8.39,8.39,0,0,1,2.45.05c-.81.16-1.61.22-2.41.3S205.71,48,204.89,48Z"/><path class="cls-4" d="M206.44,45.76a1.34,1.34,0,0,0,.49.88,1.13,1.13,0,0,0,1.56,0,1,1,0,0,0,.5-.83c0-.69-.16-.77-.16-.77h-2.37S206.34,45.14,206.44,45.76Z"/><path class="cls-4" d="M219.9,44.64a1.69,1.69,0,0,0,.65,1,1.25,1.25,0,0,0,1.51,0,1.14,1.14,0,0,0,.45-1l-.89-.69h-1.7S219.8,44,219.9,44.64Z"/><path class="cls-4" d="M203.55,44.2a14.7,14.7,0,0,1,3.36-1.52,26.13,26.13,0,0,1,3.8.1c.24-.53.63-1.39.23-1.82a27.58,27.58,0,0,0-4.85.1C204.85,41.36,203.55,44.2,203.55,44.2Z"/><path class="cls-4" d="M215.46,40.71c-.73.41-.47,1.26,0,1.7a37.74,37.74,0,0,1,5.43-.72,11.88,11.88,0,0,1,3.17,1s-1.29-2.59-3.07-2.74A24.65,24.65,0,0,0,215.46,40.71Z"/><path class="cls-4" d="M210.88,25.37a8.62,8.62,0,0,1,2.51-.83,4.17,4.17,0,0,1,2.79.15,9.53,9.53,0,0,1,1.93,1.93l1.65,2a13.75,13.75,0,0,0,3.7,3.37,20.2,20.2,0,0,0,4.74,1.95,12.57,12.57,0,0,1-5.11-1.25A12.24,12.24,0,0,1,219,29.23c-.56-.68-1.07-1.38-1.6-2.06a9.14,9.14,0,0,0-1.66-1.81,4.37,4.37,0,0,0-2.31-.26C212.61,25.13,211.78,25.35,210.88,25.37Z"/><path class="cls-4" d="M210.15,31.68c-.23-.07-.31-.24-.45-.38l-.38-.43c-.27-.27-.52-.55-.8-.78a1.11,1.11,0,0,0-.4-.23,2.53,2.53,0,0,0-.5,0l-1.14,0a5.15,5.15,0,0,1-1.22-.1,2.13,2.13,0,0,1-1.16-.64A4.29,4.29,0,0,1,203,27a14.22,14.22,0,0,0,1.53,1.63,3.23,3.23,0,0,0,1.93.52c.38,0,.76,0,1.16.09a3,3,0,0,1,.63.12,1.55,1.55,0,0,1,.57.39,5.92,5.92,0,0,1,.75.92l.32.49A1,1,0,0,1,210.15,31.68Z"/><path class="cls-4" d="M214.71,29.94c-.23-.07-.31-.25-.44-.39l-.39-.42a9.67,9.67,0,0,0-.79-.78,1.2,1.2,0,0,0-.4-.23,2.53,2.53,0,0,0-.5,0l-1.15,0a5.65,5.65,0,0,1-1.21-.1,2.22,2.22,0,0,1-1.17-.64,4.49,4.49,0,0,1-1.06-2.15,14.39,14.39,0,0,0,1.54,1.64,3.11,3.11,0,0,0,1.92.51c.38,0,.76.05,1.16.09a3.31,3.31,0,0,1,.64.13,1.72,1.72,0,0,1,.56.38,5.53,5.53,0,0,1,.76.93l.31.49A.88.88,0,0,1,214.71,29.94Z"/><path class="cls-4" d="M216.83,31.09a2,2,0,0,1-.34-.62c-.09-.21-.19-.41-.29-.62a11.26,11.26,0,0,0-.67-1.18,3.49,3.49,0,0,0-.85-1,2.9,2.9,0,0,0-1.17-.44c-.43-.07-.89-.1-1.37-.19a3.42,3.42,0,0,1-.73-.23,2.41,2.41,0,0,1-.65-.41,10.77,10.77,0,0,1-1.95-2c.84.44,1.6,1,2.36,1.46a7.61,7.61,0,0,0,2.49.76,3.56,3.56,0,0,1,1.35.67,4.13,4.13,0,0,1,.91,1.15,7.84,7.84,0,0,1,.58,1.29c.09.22.16.44.23.66A1.52,1.52,0,0,1,216.83,31.09Z"/><path class="cls-4" d="M211.53,30.8c-.23-.1-.26-.29-.37-.44a5.27,5.27,0,0,0-.31-.46,3.28,3.28,0,0,0-.69-.77,2.58,2.58,0,0,0-1-.18c-.37,0-.75,0-1.14-.1a3.25,3.25,0,0,1-2.16-1.12,1.93,1.93,0,0,1-.46-1.18,1.7,1.7,0,0,1,.38-1.13,1.88,1.88,0,0,0,.54,1.88,3.51,3.51,0,0,0,1.83.8l1.1.2a3,3,0,0,1,1.19.4,3.13,3.13,0,0,1,.72,1c.08.18.16.36.23.54S211.6,30.56,211.53,30.8Z"/><path class="cls-4" d="M208.58,32.4c-.21,0-.31-.08-.45-.15l-.38-.22c-.27-.13-.52-.29-.78-.41-.47-.28-1-.14-1.65-.18a2.37,2.37,0,0,1-1.78-.88,2.92,2.92,0,0,1-.62-1.78A7.4,7.4,0,0,0,204,30.1a2.51,2.51,0,0,0,1.38.6l.88.11a2.16,2.16,0,0,1,.94.37,6.68,6.68,0,0,1,.74.54l.34.3C208.41,32.13,208.55,32.19,208.58,32.4Z"/><path class="cls-4" d="M206.54,33.31c-.21-.06-.18-.18-.28-.25a1.55,1.55,0,0,0-.25-.21,1.23,1.23,0,0,0-.55-.22,7.62,7.62,0,0,1-1.49,0,2,2,0,0,1-1.34-1.07,2.42,2.42,0,0,1-.14-1.56,4.91,4.91,0,0,0,.66,1.25,1.73,1.73,0,0,0,1,.62c.36.12.83,0,1.44.15a1.53,1.53,0,0,1,.74.46,1.36,1.36,0,0,1,.21.37C206.56,33,206.7,33.13,206.54,33.31Z"/><path class="cls-4" d="M204.81,65.38a5.78,5.78,0,0,1,.28,1.41c.07.48.14.95.19,1.43.1,1,.15,1.91.21,2.86q.19,2.86.27,5.75-.49-2.83-.87-5.69c-.12-1-.26-1.9-.35-2.85,0-.48-.06-1-.1-1.43a5.87,5.87,0,0,1,0-1.45Z"/><path class="cls-4" d="M229,60.17c-.11,2-.21,4.1-.27,6.15,0,1-.08,2,0,3.06,0,.52.06,1,.06,1.54s.1,1-.27,1.55c-.4-.5-.28-1-.35-1.53s0-1,0-1.54c0-1,0-2.08,0-3.1.12-2.06.29-4.11.47-6.16Z"/><path class="cls-4" d="M228.34,67.55c1.16.55,2.27,1.19,3.37,1.85a21.52,21.52,0,0,1,3.2,2.24,6.41,6.41,0,0,1,1.93,3.52,4.71,4.71,0,0,1-.35,2,14,14,0,0,1-.76,1.78c.14-.63.3-1.24.4-1.87a4.55,4.55,0,0,0,.09-1.78,6.63,6.63,0,0,0-1.92-3c-.91-.76-2-1.45-3.05-2.18s-2.1-1.46-3.1-2.26Z"/><path class="cls-4" d="M199.7,91.81a16.89,16.89,0,0,1-1.49-2.74,11.15,11.15,0,0,1-.55-1.47,6.12,6.12,0,0,1-.14-1.67,22.75,22.75,0,0,1,.31-3.11c.16-1,.34-2,.55-3.06v.06a8.58,8.58,0,0,1,.82-2.93,16.1,16.1,0,0,1,1.54-2.56,19.65,19.65,0,0,1,1.92-2.25c.34-.35.69-.69,1.06-1a2.93,2.93,0,0,1,1.26-.78l.24.28a3.93,3.93,0,0,1-.91,1.13q-.51.5-1,1a23.63,23.63,0,0,0-1.81,2.19,10.37,10.37,0,0,0-2.2,5V80a47.84,47.84,0,0,0-.8,6,5.71,5.71,0,0,0,.07,1.4c.11.47.26,1,.39,1.45C199.19,89.8,199.53,90.77,199.7,91.81Z"/><path class="cls-5" d="M201.72,89.59c1.15-.68,2.95-2.26,4-1.88.78.29,7.1,8,7.34,9.09a19.41,19.41,0,0,1-.21,4.2l1.27-2.75,1.36-2.73s-6.71-8.54-7.62-9.66-3.24-1.06-3.24-1.06a6.26,6.26,0,0,0-4.8,2.75l.67,4A2.64,2.64,0,0,1,201.72,89.59Z"/><path class="cls-4" d="M215.47,95.8l-3.41-4.45-1.7-2.24c-.57-.72-1.12-1.54-1.69-2.17a10.64,10.64,0,0,0-2.1-1.67,3.63,3.63,0,0,0-2.42-.21,9.58,9.58,0,0,0-2.51.87c-.74.42-1.54,1-1.66,1.71h0v-.08a18,18,0,0,1,.38,1.94,7.38,7.38,0,0,1,.12,2,7.56,7.56,0,0,1-.67-1.88,18.68,18.68,0,0,1-.43-1.94v-.09h0a2.37,2.37,0,0,1,.7-1.44,4.75,4.75,0,0,1,1.19-.92,8.4,8.4,0,0,1,2.74-1,6.67,6.67,0,0,1,1.49-.12,3,3,0,0,1,1.53.47,12,12,0,0,1,2.23,1.86c.66.78,1.12,1.54,1.69,2.29L212.55,91l3.22,4.59Z"/><path class="cls-4" d="M228.59,69.65a3.9,3.9,0,0,1,1.2,1.79,1.29,1.29,0,0,1,0,.62,5,5,0,0,1-.2.53c-.14.32-.3.63-.46.93-.66,1.22-1.41,2.36-2.17,3.5-1.52,2.27-3.12,4.47-4.72,6.67A46.47,46.47,0,0,0,218,90.56c-1.13,2.41-2,5.06-3.26,7.49a23.47,23.47,0,0,0-2.67,7.56,77.67,77.67,0,0,0-.73,8.09c-.12,2.7-.13,5.42-.13,8.14V130l0,8.17c0,2.73,0,5.44,0,8.16.16,5.43.52,10.86.91,16.29s.9,10.85,1.17,16.3a55,55,0,0,1-.19,8.21,50.35,50.35,0,0,1-1.47,8.19h0l-.12.41-.47.09a104.71,104.71,0,0,1-10.71,1.58,49.26,49.26,0,0,1-5.45.23,14.49,14.49,0,0,1-2.77-.3,11.51,11.51,0,0,1-1.36-.38,2,2,0,0,1-1.16-1l.23-.29a14.87,14.87,0,0,1,2.52.39q1.28.18,2.58.24a32.24,32.24,0,0,0,5.27-.29,106.09,106.09,0,0,0,10.49-1.86l-.6.5h0a28.09,28.09,0,0,0,2.29-7.66,37.72,37.72,0,0,0,.37-8.09c-.26-5.43-.71-10.85-1.14-16.28s-.84-10.86-1.05-16.31c-.11-2.73-.09-5.46-.11-8.18l-.09-8.16c-.08-5.45-.14-10.89.15-16.35a77.65,77.65,0,0,1,.81-8.17,25.71,25.71,0,0,1,1-4A33.43,33.43,0,0,1,214,97.69c1.23-2.41,2-5,3.14-7.53a37.59,37.59,0,0,1,4.35-7c1.62-2.19,3.27-4.35,4.85-6.55.79-1.11,1.56-2.22,2.23-3.38.18-.29.33-.59.48-.88a1.16,1.16,0,0,0,.2-.81,3.94,3.94,0,0,0-1-1.62Z"/><path class="cls-4" d="M255.66,82.63a14.78,14.78,0,0,0-1.15,1.59,10.47,10.47,0,0,0-.93,1.67,12.91,12.91,0,0,0-.79,3.78c-.33,2.63-.56,5.29-.85,7.94h0v-.07l1.54,4.72-.35.12-1.54-4.72v-.07h0c0-2.68.16-5.34.44-8,.08-.66.16-1.33.28-2a7.89,7.89,0,0,1,.58-2A4.83,4.83,0,0,1,255.66,82.63Z"/><path class="cls-4" d="M257,81.29a13,13,0,0,1,3.24.79,6.52,6.52,0,0,1,.79.4l.21.14.22.2a2.27,2.27,0,0,1,.27.44,3.56,3.56,0,0,1,.3,1.8h0l-.11-.27c3.19,3.2,6.4,6.4,9.75,9.42a28.68,28.68,0,0,0,2.59,2.13,17.64,17.64,0,0,1,2.6,2.26,57.42,57.42,0,0,1,4.41,5.2L281,104a56.68,56.68,0,0,0-4.45-5.09A17.36,17.36,0,0,0,274,96.77a29.56,29.56,0,0,1-2.68-2.14c-3.41-3-6.67-6.14-9.91-9.31l-.11-.11V85h0a4,4,0,0,0-.36-1.37,1.21,1.21,0,0,0-.17-.25l-.08-.07-.13-.1a5.83,5.83,0,0,0-.66-.34c-1-.4-1.95-.91-2.95-1.36Z"/><path class="cls-4" d="M217.39,93.48a18,18,0,0,1,2.13-2.31L221.75,89c1.47-1.46,3-2.89,4.42-4.38.1-.09.15-.17.23-.25s.19-.24.29-.35a2.71,2.71,0,0,1,.8-.55,2.4,2.4,0,0,1,1.9.11,3.94,3.94,0,0,1,1.35,1.14,4.38,4.38,0,0,1,.6,1.65,38.43,38.43,0,0,1,.52,6.3h0l0-.11c.07.22.18.3.29.26s.29-.24.36-.48v.07a48.53,48.53,0,0,1,.49-6.12,19.59,19.59,0,0,1,.77-3,8.92,8.92,0,0,1,1.51-2.71c-.29,1-.55,2-.8,2.93s-.48,1.93-.64,2.92a42.92,42.92,0,0,0-.72,6v.07a1.28,1.28,0,0,1-.76.91.81.81,0,0,1-.72-.11,1.09,1.09,0,0,1-.4-.51l0,0v-.07h0a44.23,44.23,0,0,0-.71-6.13,3.75,3.75,0,0,0-.45-1.26,3.26,3.26,0,0,0-1-.83,1.51,1.51,0,0,0-1.13-.1,1.62,1.62,0,0,0-.49.31l-.53.57c-1.51,1.48-3,2.87-4.61,4.25l-2.34,2.07A17.33,17.33,0,0,1,217.39,93.48Z"/><path class="cls-4" d="M235.82,73c3.77,1.17,7.5,2.45,11.23,3.72,1.85.63,3.72,1.35,5.56,1.93a18.47,18.47,0,0,0,2.89.4,2.43,2.43,0,0,1,.85.25,1.41,1.41,0,0,1,.58.76,2.64,2.64,0,0,1,.08,1.57c-.29-.45-.5-.89-.73-1.26A1.19,1.19,0,0,0,256,80a1.82,1.82,0,0,0-.57-.14,21.36,21.36,0,0,1-3-.41c-1.92-.61-3.75-1.29-5.62-1.95-3.71-1.35-7.43-2.7-11.1-4.15Z"/><use width="15.63" height="26.24" transform="translate(269.86 74.95) rotate(0.42) scale(1.13)" xlink:href="#tag"/><use width="15.63" height="26.24" transform="translate(288.42 81.26) rotate(38.87) scale(1.23)" xlink:href="#tag"/><use width="15.63" height="26.24" transform="translate(272.62 84.23) rotate(18.51) scale(1.23)" xlink:href="#tag"/><use width="15.63" height="26.24" transform="matrix(1.19, -0.3, 0.3, 1.19, 254.33, 82.35)" xlink:href="#tag"/><use width="15.63" height="26.24" transform="translate(234.47 80.31) rotate(-4.53) scale(1.23)" xlink:href="#tag"/><use width="15.63" height="26.24" transform="translate(248.37 77.44) rotate(11.02) scale(1.23)" xlink:href="#tag"/><use width="15.63" height="26.24" transform="translate(222.61 81.56) rotate(-4.53) scale(1.23)" xlink:href="#tag"/><use width="15.63" height="26.24" transform="translate(271.98 111.56) rotate(144.02) scale(1.23)" xlink:href="#tag"/><use width="15.63" height="26.24" transform="translate(224.98 86.84) rotate(-12.1) scale(1.23)" xlink:href="#tag"/><path class="cls-7" d="M221.84,108.35l8.32,57.71-1.77,1.33.36,4.54,1.43,2.25c17.27,9.11,37.95,9.22,47.08.36l1.08-5-1.69-1.08,5.07-19.08,11.46-40.15.72-.24a3.15,3.15,0,0,0,1.08-2.35,2.51,2.51,0,0,0-2.55-1.5l-1.94,2.45c-12.46.7-44.39-.64-65.45-1.49l-.38-2-4.55.33a5.58,5.58,0,0,0-.54,3.56Z"/><path class="cls-8" d="M278.12,110l-1.86,12.14-4.61,0-1.7,8.63s1,23.24.53,27.66-2.22,6.22-5.76,10.22-9.3,6-9.3,6l.74,1.33a8.75,8.75,0,0,1-.2,3.29l-.61,1.26-7.93-.62,1-5.86.51-9.79,6.7-19.54.09-23.63,1.64-10.66Z"/><path class="cls-10" d="M249.11,110a6.69,6.69,0,0,1,2.79,2.27s-.11,5.29,0,7.19a18.62,18.62,0,0,0,1.78,6.1,8.29,8.29,0,0,0-.68,1.64,9.07,9.07,0,0,0,0,2.87l.26.38a5.77,5.77,0,0,0-1.84,2.43c-.32,1.23-.58,2.44-.58,2.44s-1.43,1-1.63,1.91a3,3,0,0,0,.48,1.95,52.6,52.6,0,0,1,.31,10.09c-.45,4.3-4.34,14.2-4.71,17.54a13.13,13.13,0,0,0,1.34,6.6v4.22a.87.87,0,0,1-.91,1l-2.44.27,3.26.72,1,0,.92-6-.7-5.91,6-17-.81-9.37,1-6,.82-4.27.87-1.07-.67-5.54-.07-14.25Z"/><path class="cls-3" d="M254,110s-.68,8.3-.38,11.07A13.25,13.25,0,0,0,255,125.7l-.65,1.48-.16,2.11,1.18.79-1,1,2.77.13-1.25-1.13,1-.81-.1-2.05-.88-1.54,2.18-5.13,2.51-10.28Z"/><path class="cls-3" d="M121.58,165.52s7,8.93,9.15,10.73a13.51,13.51,0,0,0,4.18,2.43l.54,1.52,1.34,1.64,1.4-.25.55,2.47,2.17-2.42-2.36-.38.18-1.28-1.61-1.8-1.31-.33-2.23-5-7.25-11.72Z"/><path class="cls-11" d="M224.48,122.73c18.83,4,39.39,3.74,63.2.92"/><path class="cls-11" d="M224.48,127c18.83,4,39.39,3.74,63.2.92"/><path class="cls-12" d="M225.72,132.5c18.62,3.95,38.42,3.74,62,1"/><path class="cls-12" d="M226.51,136.47c18.63,4,37.63,3.36,61.17.58"/><path class="cls-3" d="M267.83,122.87a15.49,15.49,0,0,1-5.33,4.94l1.82,1.72,2.12.62,3.56-1.32,1.61-1.06,2.27-.51c1.11.59,1.2,1.53.8,2.65l-3.09,1.4-3.73.45-5.92.51-6.72-1c-1.79-.07-2.69.77-2.64,2.59l2,1.71c-1.47,0-2.77.14-3.51.88a3.26,3.26,0,0,0,0,3.47l7.21,1.33a4.16,4.16,0,0,0,.37,4.21l5,1.76c-.23,1.5.77,2.6,2.16,3.57l8.43.77,3.26-.9,4.56-1.79c9.5-3.81,16.43-8.47,18.75-14.67,1.17-7.7.66-11.39-1.82-16.23-1.6-3.12-4.55-5.79-6.54-5.67l-2.26,5.38-4,10-7.95-4.84A14.91,14.91,0,0,0,267.83,122.87Z"/><path class="cls-5" d="M292.78,112.56l-2.94,12.27-.1,4.54a8.17,8.17,0,0,1-3-1.38L288,124.8l-.11-.93.75-.8Z"/><path class="cls-5" d="M275.71,129.25a4.36,4.36,0,0,0-.47-2.46c-.61-.84-1.79-.75-3-.42s-5.57,2.51-6.32,2.49a22.84,22.84,0,0,1-3.13-.72s1.95,2.06,3.6,1.83,5.2-2.2,5.2-2.2l2.35-.66c.64.46.46,1.65.77,2.48Z"/><path class="cls-5" d="M258,142.79s7.16,2.1,8.88,2.5a23.74,23.74,0,0,0,3.77.2l2.62.67a3.62,3.62,0,0,0-1.43-1.15c-.82-.3-13.58-3.74-13.58-3.74Z"/><path class="cls-5" d="M254.46,137.29s6.75,3.09,8.47,3.49a22,22,0,0,0,3.33.3l6.46-2s-6.26.72-7.56.74c-.88,0-9.49-3.33-9.49-3.33l-1.33-.91a4.45,4.45,0,0,0-3.24,1Z"/><path class="cls-9" d="M293.63,112.73a84.1,84.1,0,0,1,.37,16.82s-2.05,2.11-6.09.83c-2.43-.76-9.11-5.91-9.11-5.91l-5.06-1.5,9,5.61c-.18,3.68-3.2,5.49-8.11,6.08l-9.31,1.26a2.8,2.8,0,0,0-.91,3.38l9.09-.47a4.29,4.29,0,0,1,1.17,2.09c.05,1-1.64,1.61-1.64,1.61l-6.43-.55c-.58.65-.44,1.19.57,1.61l5.65.74a3.39,3.39,0,0,1,1.5,2.3c0,1.32-.56,1.15-.63,2.41s1.51,2.5,1.51,2.5a94.07,94.07,0,0,0,18.48-8.88c2-1.15,3.18-3.06,4.48-4.62,1.92-2.33,3.52-4.57,3.48-7.91a20.28,20.28,0,0,0-3.14-12.53C297.47,116,296.46,112.53,293.63,112.73Z"/><path class="cls-4" d="M292.82,112.27a6.68,6.68,0,0,1,4,1.48,7.68,7.68,0,0,1,2.23,3.73l-.47-.4h0a2.18,2.18,0,0,1,1.53,1.11,7.61,7.61,0,0,1,.71,1.43,18.11,18.11,0,0,1,.85,2.93,33.61,33.61,0,0,1,.67,6,19.44,19.44,0,0,1-.67,6A6.45,6.45,0,0,1,301,136a4,4,0,0,1-.52.67,4.21,4.21,0,0,1-.65.5,8.86,8.86,0,0,0-2,2,27.46,27.46,0,0,1-1.93,2.31,19.86,19.86,0,0,1-2.3,2,33.47,33.47,0,0,1-5.23,3c-3.6,1.72-7.27,3.23-11,4.65h0l.13-.08a3.88,3.88,0,0,1-1.24.68,4.27,4.27,0,0,1-1.36.23,14.67,14.67,0,0,1-2.59-.25h0l-6.74-.61h-.11l-.1,0a4.81,4.81,0,0,1-.93-.74,3.58,3.58,0,0,1-.71-1,2.74,2.74,0,0,1-.28-1.19,2.53,2.53,0,0,1,.29-1.17l.34.14a2.54,2.54,0,0,0,.08.95,2.74,2.74,0,0,0,.36.84,3.7,3.7,0,0,0,.61.71,7,7,0,0,0,.75.6l-.21-.07h0l6.73.7h0a14.49,14.49,0,0,0,2.42.28A3.22,3.22,0,0,0,276,151a3.26,3.26,0,0,0,1-.51l.07-.06.06,0h0c3.68-1.42,7.35-2.94,10.9-4.65a33.31,33.31,0,0,0,5.08-2.91,18.65,18.65,0,0,0,4.05-4.17,9.65,9.65,0,0,1,2.21-2.16,3.66,3.66,0,0,0,1.46-2.17,18.91,18.91,0,0,0,.58-5.74,32.47,32.47,0,0,0-.7-5.81,17.18,17.18,0,0,0-.81-2.76,7.07,7.07,0,0,0-.62-1.23c-.23-.37-.57-.65-.75-.64h0l-.42-.17-.05-.23a6.76,6.76,0,0,0-1.69-3.46,6,6,0,0,0-3.55-1.63Z"/><path class="cls-3" d="M252.51,140.38a23.55,23.55,0,0,1,.23,8.54c-.75,4.51-5.11,16-5.53,17.8s1,8,1,8l-.81,4.86a2,2,0,0,0,1.22-.83,23.1,23.1,0,0,0,.7-4s-.43-6.69.07-8.34c.91-3,7.58-14,7.78-17.58a37.94,37.94,0,0,0-.63-7.88Z"/><path class="cls-4" d="M262.2,132.35a4.57,4.57,0,0,1-2.09-.13l-2-.31a28,28,0,0,0-4.07-.31h.06a1.53,1.53,0,0,0-1.19,1.06,1.5,1.5,0,0,0,.39,1.56l0,0c.69.55,1.41,1.09,2.13,1.59a7.05,7.05,0,0,0,1.11.66c.39.17.81.33,1.22.48,1.67.61,3.39,1.11,5.1,1.62h0l.06,0a3.69,3.69,0,0,0,1.36.39,3.48,3.48,0,0,0,1.32-.09l.06,0h.07c1.48-.13,3-.31,4.44-.39.74-.06,1.48-.07,2.23-.1a2,2,0,0,1,1.28.39,1.44,1.44,0,0,1,.54,1.12,1.76,1.76,0,0,0-1.74-.56c-.74.1-1.47.22-2.21.3-1.47.18-2.95.27-4.43.41l.13,0a3.78,3.78,0,0,1-1.86,0,5.54,5.54,0,0,1-1.65-.66l.1,0c-1.7-.59-3.38-1.2-5.07-1.83-.42-.16-.84-.33-1.26-.52a9.94,9.94,0,0,1-1.2-.7c-.76-.5-1.48-1-2.2-1.58h0v0a2.25,2.25,0,0,1-.64-2.31,2.33,2.33,0,0,1,1.79-1.64H254a24.42,24.42,0,0,1,4.19.33,20.31,20.31,0,0,1,2.06.42A3.77,3.77,0,0,1,262.2,132.35Z"/><path class="cls-4" d="M261.14,132.73a4.55,4.55,0,0,1,2.25-1c.82-.08,1.61-.12,2.41-.18,1.59-.13,3.2-.19,4.75-.39s2.87-1,4.31-1.69a13.17,13.17,0,0,1,2.26-1,7.24,7.24,0,0,1,1.21-.19,3,3,0,0,1,1.22.06,4.51,4.51,0,0,1-1.16.34c-.38.1-.77.17-1.13.3a12.36,12.36,0,0,0-2.07,1.07c-.69.41-1.4.79-2.13,1.15a8.46,8.46,0,0,1-1.15.49,7.61,7.61,0,0,1-1.25.24,43.57,43.57,0,0,1-4.83.27c-.8,0-1.61,0-2.39.05A12.44,12.44,0,0,0,261.14,132.73Z"/><path class="cls-10" d="M286.39,127.87a1.59,1.59,0,0,1,.12-.85l.22-.82c.15-.55.3-1.09.49-1.62l0,.15-.05-.94v-.15l.1-.12.7-.86-.08.12c.8-2.33,1.65-4.64,2.53-6.94l1.35-3.43.69-1.71a2.66,2.66,0,0,1,1.1-1.56,2.66,2.66,0,0,1-.22,1.89l-.63,1.74-1.3,3.46c-.88,2.29-1.79,4.58-2.75,6.85l0,.08,0,0-.78.8.09-.28.12.94v.07l0,.08c-.15.55-.34,1.08-.54,1.61l-.28.8a1.6,1.6,0,0,1-.4.76Z"/><path class="cls-4" d="M274.46,125.88a2.05,2.05,0,0,1-.25.93,2.26,2.26,0,0,1-.26.42,1.24,1.24,0,0,1-.41.38,2.31,2.31,0,0,1-1,.29,4.41,4.41,0,0,1-1,0h0l.08,0h0a24,24,0,0,1-2.34,1.39,13.93,13.93,0,0,1-2.53,1.07,3.91,3.91,0,0,1-2.76-.71c-.4-.24-.77-.51-1.14-.78l-.26-.21c-.08-.09-.18-.1-.33-.34a1.06,1.06,0,0,1,.09-.93h0l0-.07.07,0,1.48-1a13.6,13.6,0,0,0,1.42-1,7.9,7.9,0,0,0,2.08-2.63h0l.07-.14.14,0a21.8,21.8,0,0,1,6.88-1,11.55,11.55,0,0,1,3.42.82,21.3,21.3,0,0,1,3,1.71q2.91,1.84,5.77,3.74a9.89,9.89,0,0,0,3,1.44,4.21,4.21,0,0,0,3.21-.48,4.24,4.24,0,0,1-3.31,1,8.82,8.82,0,0,1-3.27-1.31c-2-1.19-3.85-2.5-5.76-3.75a21.76,21.76,0,0,0-2.91-1.72,10.83,10.83,0,0,0-3.22-.82,11.74,11.74,0,0,0-3.34.19,30.66,30.66,0,0,0-3.31.79l.2-.18h0a8.73,8.73,0,0,1-2.26,2.85,13.85,13.85,0,0,1-1.48,1l-1.49.95.11-.12h0a.72.72,0,0,0-.08.36l.41.33a10.87,10.87,0,0,0,1.07.75,3.34,3.34,0,0,0,2.31.66,14.92,14.92,0,0,0,2.45-.92,25,25,0,0,0,2.34-1.26h0l.09,0h0a12.13,12.13,0,0,0,1.69-.47,1.74,1.74,0,0,0,.64-.51A3.67,3.67,0,0,0,274.46,125.88Z"/><path class="cls-4" d="M273.94,126.92a2.3,2.3,0,0,1,.77.58,1.57,1.57,0,0,1,.39.95,2.92,2.92,0,0,1-.18,1,3.87,3.87,0,0,1-.38.83l-.33-.16a4.79,4.79,0,0,0,.36-1.6,2.15,2.15,0,0,0-.82-1.24Z"/><path class="cls-4" d="M254.56,135.77a10.62,10.62,0,0,0-1.89.24,2.45,2.45,0,0,0-1.46.7,2.37,2.37,0,0,0-.32,1.54c0,.53.32,1.17.55,1.21l7.71,1.28h.08c2.69,1,5.37,2.13,8.08,3.13h0l3.4.52c.29,0,.57.12.85.18a2.67,2.67,0,0,1,.88.34,3,3,0,0,1,1,1.45,8.87,8.87,0,0,0-1.31-1,7.15,7.15,0,0,0-1.57-.42c-1.11-.26-2.22-.51-3.35-.69h0c-2.72-1-5.48-1.81-8.22-2.72l.07,0-3.9-.56c-1.33-.2-2.55-.35-4-.59a1.63,1.63,0,0,1-1-.94,3.51,3.51,0,0,1-.29-1.11,2.52,2.52,0,0,1,2.66-3,7.75,7.75,0,0,1,2,.11Z"/><path class="cls-4" d="M271.71,149.33a6.58,6.58,0,0,0-1.49-.58c-.57-.08-1.14-.17-1.7-.28-1.13-.21-2.25-.46-3.36-.74-2.23-.56-4.42-1.21-6.59-2h0l-.07,0-.07-.07a4.7,4.7,0,0,1-.79-1,3,3,0,0,1-.44-1.31,3.82,3.82,0,0,1,.22-1.35,1.5,1.5,0,0,1,.95-1.05l.19.32-.32,1a3.35,3.35,0,0,0-.17,1,4.79,4.79,0,0,0,.83,2l-.13-.09h0c2.18.64,4.37,1.27,6.57,1.86,1.09.29,2.19.58,3.3.83.55.12,1.11.23,1.67.32A1.78,1.78,0,0,1,271.71,149.33Z"/><path class="cls-4" d="M199.4,77.73A14.49,14.49,0,0,1,196.63,81c-1,1-2.08,1.92-3.18,2.83a64.31,64.31,0,0,1-7.06,4.77A31.77,31.77,0,0,0,183,91a12.19,12.19,0,0,0-2.38,3.24c-.7,1.21-1.36,2.44-2,3.69l-.95,1.87-.23.47c-.07.14-.13.3-.2.46l-.41,1c-2.22,5.19-4.42,10.37-6.8,15.49-.31.64-.6,1.27-1,1.92a14.31,14.31,0,0,1-1.28,1.75,12.38,12.38,0,0,0-2.28,3.37,3.51,3.51,0,0,0-.23.9,2.2,2.2,0,0,0,.15.89,7.07,7.07,0,0,0,1,1.74,23.09,23.09,0,0,0,2.79,3.07h0l.24.22-.32.11a5.09,5.09,0,0,1-2.45.12,6.75,6.75,0,0,1-1.19-.33,1.82,1.82,0,0,1-1-.76,2.28,2.28,0,0,1,1.21.11,10.38,10.38,0,0,0,1.1.27,10.57,10.57,0,0,0,2.26.22l-.09.33h0a18.79,18.79,0,0,1-3.1-3,7.49,7.49,0,0,1-1.14-1.89,3,3,0,0,1-.23-1.18,3.89,3.89,0,0,1,.26-1.14,13.4,13.4,0,0,1,2.37-3.63,12.44,12.44,0,0,0,1.2-1.66c.32-.57.62-1.23.92-1.85,2.31-5.11,4.47-10.32,6.63-15.52l.41-1c.07-.16.13-.34.22-.51l.23-.48.94-1.9c.64-1.26,1.3-2.51,2-3.75.36-.62.72-1.23,1.12-1.83a9.07,9.07,0,0,1,1.44-1.73,33.39,33.39,0,0,1,3.44-2.6,76.39,76.39,0,0,0,6.83-4.82L195.7,80a17.13,17.13,0,0,1,3.44-2.48Z"/><path class="cls-4" d="M187.86,133a39.37,39.37,0,0,0,2-4c.58-1.38,1.07-2.81,1.53-4.26.95-2.88,1.8-5.82,2.73-8.74.46-1.46.94-2.92,1.45-4.37a4.66,4.66,0,0,0,.22-1c0-.15,0-.27,0-.24s-.07,0-.21,0a15.86,15.86,0,0,0-1.91,1.15,25.38,25.38,0,0,0-3.47,2.86,5.13,5.13,0,0,0-1.5,4,3.47,3.47,0,0,1-.2-2.34,4.73,4.73,0,0,1,1.17-2.12,18,18,0,0,1,3.63-2.9,19,19,0,0,1,2-1.2.9.9,0,0,1,.88,0,1,1,0,0,1,.35.81,3.39,3.39,0,0,1-.22,1.25c-.46,1.45-.9,2.91-1.31,4.38-.83,2.93-1.59,5.89-2.51,8.83-.48,1.46-1,2.91-1.64,4.34a10.73,10.73,0,0,1-1.17,2A4.76,4.76,0,0,1,187.86,133Z"/><path class="cls-4" d="M188.68,151.14a10.56,10.56,0,0,1,1.93-3.58l2.47-3.11,4.95-6.21c.8-1,1.6-2.09,2.35-3.17a25.2,25.2,0,0,0,2.05-3.32,30.51,30.51,0,0,0,2.25-7.55,22.46,22.46,0,0,1-1.42,7.91,23.62,23.62,0,0,1-1.88,3.6c-.7,1.16-1.44,2.27-2.18,3.38-1.5,2.23-3.1,4.36-4.76,6.45-.83,1-1.7,2.06-2.56,3.07A9.69,9.69,0,0,1,188.68,151.14Z"/><path class="cls-4" d="M265.68,126a5.37,5.37,0,0,1,1.14.43l.15.08-.07.16a3.19,3.19,0,0,1-.55.79,2.22,2.22,0,0,1-.81.54,4.72,4.72,0,0,1-1.8.44c.56-.28,1.15-.41,1.68-.7a1.9,1.9,0,0,0,.67-.5,4.1,4.1,0,0,0,.48-.72l.07.23A5.66,5.66,0,0,1,265.68,126Z"/><path class="cls-10" d="M282.27,148.93a6.71,6.71,0,0,1-.32,2.76l-.68,2.66-1.38,5.31c-1,3.53-1.91,7.07-3,10.58l-.05.14-.07.07h0a14.07,14.07,0,0,1-5.34,3.08,31.25,31.25,0,0,1-5.93,1.36,57.52,57.52,0,0,1-12.09.27,67,67,0,0,1-11.93-1.95,35.72,35.72,0,0,1-11.18-4.72h0l-.18-.12,0-.23c-1.6-10.21-3.13-20.43-4.65-30.65l0-.18.07-.17.38-.92,0,.6-.73-1.17-.08-.13,0-.16-.17-1.65,0-.16.06-.15.37-1,.06.6-.65-1-.08-.13,0-.14-.46-3.12,0-.14,0-.14.36-1.28.09.57-.72-1-.1-.13,0-.16-.38-2.59,0-.18.07-.17.33-.88V123l-.7-1.59,0-.08,0-.1-.94-6.35-.47-3.17a12.33,12.33,0,0,1-.26-3.21l1-.15a12.3,12.3,0,0,1,.67,3.15l.46,3.18.91,6.35-.05-.17.69,1.58.11.26-.1.27-.33.88,0-.35.38,2.59-.12-.29.72,1,.19.27-.09.31-.36,1.28,0-.28.44,3.12-.09-.27.64,1,.18.28-.12.32-.37,1,0-.31.16,1.66-.09-.29.73,1.19.18.29-.13.31-.39.92,0-.35Q229,152.64,231.14,168l-.21-.35h0a34.75,34.75,0,0,0,10.84,4.59,66.61,66.61,0,0,0,11.74,2,56.91,56.91,0,0,0,11.89-.24,30.42,30.42,0,0,0,5.76-1.3,13.3,13.3,0,0,0,5-2.85h0L276,170c.82-3.57,1.74-7.11,2.65-10.66l1.43-5.3.72-2.65a6.73,6.73,0,0,1,1.09-2.55Z"/><path class="cls-10" d="M164.21,161.38a185.65,185.65,0,0,0-19.66,16.72,104.39,104.39,0,0,0-8.52,9.68c-1.32,1.7-2.58,3.45-3.79,5.22-.59.91-1.19,1.8-1.76,2.71l-.84,1.37-.42.69c-.15.23-.24.49-.56.61a1.16,1.16,0,0,1,.27-.78l.42-.69.84-1.38c.57-.92,1.18-1.81,1.76-2.72,1.21-1.79,2.46-3.55,3.78-5.26a105.23,105.23,0,0,1,8.53-9.74A170.17,170.17,0,0,1,164,161.06Z"/><path class="cls-10" d="M161.21,158.41a98.67,98.67,0,0,0-21.62,17.37,99.74,99.74,0,0,0-8.74,10.81c-1.34,1.9-2.59,3.85-3.79,5.83-.61,1-1.16,2-1.75,3-.29.5-.55,1-.83,1.53l-.4.77a1.45,1.45,0,0,1-.57.69,1.45,1.45,0,0,1,.26-.85l.41-.77c.27-.51.53-1,.82-1.54.59-1,1.13-2,1.75-3,1.2-2,2.45-4,3.79-5.87a99.1,99.1,0,0,1,8.74-10.88A95.75,95.75,0,0,1,149.5,166,97.38,97.38,0,0,1,161,158.07Z"/><path class="cls-10" d="M157.12,154.42A117.65,117.65,0,0,0,134,173.53a97,97,0,0,0-9.31,11.78c-.7,1-1.35,2.11-2,3.16l-1.91,3.24L119,195l-.82,1.69-.42.84a2.26,2.26,0,0,1-.52.79,53.57,53.57,0,0,1,3.3-6.77l1.9-3.25c.68-1.06,1.34-2.13,2-3.18a97.57,97.57,0,0,1,9.31-11.84,118.74,118.74,0,0,1,23.13-19.22Z"/><path class="cls-10" d="M153.8,150.83a116.76,116.76,0,0,0-25.05,20.32A90.6,90.6,0,0,0,119,184c-.74,1.13-1.41,2.29-2.07,3.47S115.6,189.84,115,191s-1.16,2.43-1.74,3.65c-.3.6-.53,1.24-.79,1.86l-.39.93a2.44,2.44,0,0,1-.53.88,2.37,2.37,0,0,1,.24-1l.39-.94c.27-.62.5-1.26.79-1.87.58-1.22,1.1-2.48,1.74-3.67s1.21-2.42,1.9-3.59,1.33-2.35,2.07-3.49a91.11,91.11,0,0,1,9.8-12.92A113.24,113.24,0,0,1,153.6,150.5Z"/><path class="cls-4" d="M160.16,141.3a4.53,4.53,0,0,1,1,1.41,14.87,14.87,0,0,1,.7,1.58,6.45,6.45,0,0,1,.35,3.52,10,10,0,0,1-1.37,3.22c-.62,1-1.41,1.82-2.08,2.73h0l.08-.21-.25,1.5-.37,0-.11-1.51v-.1l.08-.11h0l1.07-1.3a8.83,8.83,0,0,0,.94-1.35,10.33,10.33,0,0,0,1.19-3,6.37,6.37,0,0,0-.2-3.14,12.74,12.74,0,0,0-.5-1.59A11.65,11.65,0,0,1,160.16,141.3Z"/><path class="cls-10" d="M151.15,146.37a6.25,6.25,0,0,1,2.26,2l0,0,0,.06.87,1.63-.37-.31,1,.3.15,0,.12.13c.65.66,1.27,1.35,1.9,2l.11.11,0,.13.38,1.31-.35-.39,1.3.57.12,0,.08.09,2.27,2.47.08.09,0,.1.42,1.22-.33-.33,1,.34.12,0,.08.08,1.27,1.24.08.09,0,.1.5,1.39-.33-.31,1,.29.17,0,.1.15,10.46,14.39L186.26,190l.19.26-.12.29a40.95,40.95,0,0,1-4.57,7.64l1.81-4c.62-1.33,1.16-2.69,1.72-4l.06.55-10.41-14.43-10.38-14.45.27.19-1-.29-.25-.07-.08-.24L163,160l.12.19-1.28-1.22.2.12-1.06-.32-.24-.08-.09-.25-.44-1.21.12.19L158,155l.2.14-1.31-.53-.26-.1-.09-.28-.41-1.29.14.24c-.64-.67-1.29-1.33-1.92-2l.27.17-.95-.31-.25-.08-.12-.22-.86-1.63.07.1a6.54,6.54,0,0,1-1.61-2.57Z"/><path class="cls-10" d="M230.36,166.29a1.85,1.85,0,0,1-.65,1l-.88.67.23-.46c0,1.55,0,3.09-.06,4.64l-.11-.33,1.46,2-.1-.1a24.12,24.12,0,0,0,5.2,2.74,46,46,0,0,0,5.65,1.84,66.65,66.65,0,0,0,11.75,1.91,55.28,55.28,0,0,0,11.86-.33,30.37,30.37,0,0,0,5.72-1.36,13.32,13.32,0,0,0,4.91-2.83l0,0,0,0,1.89-1.5-.25.44.69-5.08.16.57-.64-.74a1.89,1.89,0,0,1-.48-.88l.77-.66a1.81,1.81,0,0,1,.8.6l.64.75.21.25-.05.31-.74,5.08,0,.28-.22.16-1.9,1.48.06,0a14.59,14.59,0,0,1-5.44,3.09,31.69,31.69,0,0,1-6,1.31,59.8,59.8,0,0,1-12.11.18,67.74,67.74,0,0,1-11.92-2,37.35,37.35,0,0,1-11.17-4.72l-.05,0-.06-.07-1.56-2-.1-.14v-.2c0-1.54-.05-3.09,0-4.64v-.3l.22-.16.89-.66a1.76,1.76,0,0,1,1.12-.35Z"/><path class="cls-10" d="M186.62,198.22a4.21,4.21,0,0,1,.32-1.49c.17-.47.39-.9.59-1.34a15.1,15.1,0,0,0,1-2.64l-.05.32-.08-3,.28.62L184.54,187l.67.23-1,.07a1.61,1.61,0,0,1-.49,0,1.44,1.44,0,0,1-.5-.18l-.09-1.26a1.43,1.43,0,0,1,.47-.25,2,2,0,0,1,.48-.08l1-.07.38,0,.28.26,4.09,3.76.28.26v.37l.06,3v.19l-.06.13a22,22,0,0,1-1.58,2.61c-.28.4-.55.81-.86,1.19A4.72,4.72,0,0,1,186.62,198.22Z"/><path class="cls-10" d="M225,104.18c0,.2,0,.23,0,.24l0,0a.22.22,0,0,1-.08,0h-.14a1.43,1.43,0,0,1-.29,0l-.58,0c-.38,0-.76,0-1.14-.06a6.87,6.87,0,0,0-2.07.09.31.31,0,0,0-.19.13,3.09,3.09,0,0,0-.15.33,5.85,5.85,0,0,0-.22,1,7,7,0,0,0-.05,1,2.4,2.4,0,0,0,.16.84h0l-.12-.16-.1-.07h0l.11,0,.24.07.54.12c.37.07.75.13,1.12.18.77.12,1.52.2,2.28.25l4.63.31c3.1.17,6.19.33,9.29.47q9.3.41,18.59.61c6.2.12,12.4.16,18.6.07s12.4-.28,18.56-.93l-.16.06h0a3.59,3.59,0,0,0,.79-1,1.7,1.7,0,0,0,.17-1.14v0a1.5,1.5,0,0,0-.91-.9,3.25,3.25,0,0,0-.71-.21l-.4-.06a.89.89,0,0,1-.42-.26l.23-.29c.12.08.18.12.26.12h.39a3.56,3.56,0,0,1,.84.16,2.12,2.12,0,0,1,1.33,1.21v0h0a2.23,2.23,0,0,1-.2,1.61,3.6,3.6,0,0,1-1,1.19h0l-.08,0H294c-6.2.6-12.41.86-18.61,1s-12.42.16-18.63.09-12.42-.24-18.62-.46c-3.1-.11-6.2-.25-9.31-.4l-4.65-.26c-.79-.06-1.58-.12-2.36-.23q-.59-.08-1.17-.18l-.6-.12-.32-.08-.17,0-.11,0-.06,0a.7.7,0,0,1-.17-.12l-.07-.06,0-.1h0a3.48,3.48,0,0,1-.28-1.36,7.2,7.2,0,0,1,.08-1.23,6.11,6.11,0,0,1,.3-1.21,2.17,2.17,0,0,1,.37-.67,1.39,1.39,0,0,1,.78-.41,7,7,0,0,1,2.43.18c.37.06.73.14,1.1.17l.56,0,.27,0,.14,0s0,0,.06,0a.08.08,0,0,1,0,0A.73.73,0,0,1,225,104.18Z"/><path class="cls-10" d="M225.36,105.45c-.08.19-.15.19-.21.28l-.13.13s0,0,0,0-.05-.11,0-.08.52.12.88.18c.71.11,1.41.22,2.11.27l4.28.17,8.59.36c5.72.25,11.45.47,17.17.63,11.45.32,22.92.4,34.36-.09h0a1.37,1.37,0,0,0,.56-.3.36.36,0,0,0,.07-.46.73.73,0,0,0-.5-.25l-.37,0a1,1,0,0,1-.41-.18l.21-.3a1.1,1.1,0,0,0,.25.12l.38,0a1.07,1.07,0,0,1,.75.43.74.74,0,0,1-.11.9,1.65,1.65,0,0,1-.73.4h0c-11.46.54-22.93.5-34.39.23-5.73-.13-11.46-.33-17.18-.55l-8.59-.33-4.31-.16c-.73,0-1.45-.16-2.15-.26l-.53-.07a1.47,1.47,0,0,1-.66-.22.59.59,0,0,1-.26-.54.56.56,0,0,1,.32-.43.52.52,0,0,1,.36-.07C225.15,105.29,225.26,105.28,225.36,105.45Z"/><path class="cls-4" d="M209.77,24.67a5.62,5.62,0,0,1,1.76-.67c.6-.16,1.21-.31,1.83-.42a8.08,8.08,0,0,1,1.92-.15,10.88,10.88,0,0,1,1.88.33,21,21,0,0,1,3.54,1.35,33.27,33.27,0,0,1,3.3,1.83l0,0a29.84,29.84,0,0,1,2.63,1.66A13.71,13.71,0,0,1,229,30.64a8.55,8.55,0,0,1,1.65,2.71,9.93,9.93,0,0,1,1.09,2.86,4.92,4.92,0,0,1-1-1.2,13.43,13.43,0,0,1-.78-1.34,7.89,7.89,0,0,0-1.59-2.46,16.8,16.8,0,0,0-2.27-1.9c-.82-.58-1.68-1.13-2.54-1.62h0a30.17,30.17,0,0,0-3.16-1.87A20.69,20.69,0,0,0,217,24.39a11,11,0,0,0-1.76-.42,8.3,8.3,0,0,0-1.79.05c-.61.08-1.22.19-1.82.32A8,8,0,0,1,209.77,24.67Z"/><path class="cls-4" d="M224.58,33.73a10.39,10.39,0,0,1,1.17.71c.39.24.77.48,1.14.73a6,6,0,0,0,1.13.65c.4.2.82.36,1.24.55a4.58,4.58,0,0,1-1.38-.17,4.43,4.43,0,0,1-1.29-.59,7.5,7.5,0,0,1-1.06-.88A6,6,0,0,1,224.58,33.73Z"/><path class="cls-4" d="M225.16,35.41c.65.5,1.16,1.08,1.71,1.52.26.21.6.39.92.61a7,7,0,0,1,1,.71,4.58,4.58,0,0,1-1.18-.24,4,4,0,0,1-1.12-.55A3.8,3.8,0,0,1,225.16,35.41Z"/><path class="cls-4" d="M225.67,38.15a5.51,5.51,0,0,0,.74.71c.26.21.56.39.82.57a3.92,3.92,0,0,0,.83.48,4.23,4.23,0,0,1,.93.46,2.24,2.24,0,0,1-1.06-.1,3.34,3.34,0,0,1-1-.44,4.47,4.47,0,0,1-.72-.79A5.47,5.47,0,0,1,225.67,38.15Z"/><path class="cls-4" d="M226.36,40.54c.46.33.88.7,1.31,1.05a2.45,2.45,0,0,0,.66.44l.36.19a.67.67,0,0,1,.33.3.58.58,0,0,1-.46,0,2.35,2.35,0,0,1-.42-.15,2.09,2.09,0,0,1-.68-.57C227.09,41.4,226.7,41,226.36,40.54Z"/><path class="cls-4" d="M231.73,36.21a1.89,1.89,0,0,1-.41,1.78l.09-.29a7,7,0,0,1,.09,1.38,4.81,4.81,0,0,1-.25,1.37h0l0-.14a2.32,2.32,0,0,1,.66,1.22,1.83,1.83,0,0,1-.34,1.36h0v-.11a4.36,4.36,0,0,1,.53,1.52,1.27,1.27,0,0,1-.2.92,1.45,1.45,0,0,1-.68.55h0l.07-.19a3.49,3.49,0,0,1,.4,1.28,1.17,1.17,0,0,1-.19.77,1.57,1.57,0,0,1-.56.47h0L231,48l-.07.55-.36-.05.07-.54h0l.08-.12h0a3.1,3.1,0,0,0,.31-.46.78.78,0,0,0,.09-.45c0-.38-.1-.8-.14-1.22v-.07l.07-.11h0a3.14,3.14,0,0,0,.38-.57,1.06,1.06,0,0,0,.1-.57c0-.47-.14-1-.22-1.48v-.11h0a3.84,3.84,0,0,0,.07-1.15,6.47,6.47,0,0,0-.37-1.13l0-.09,0,0h0a3.18,3.18,0,0,0,.17-1.25c0-.42-.28-.84-.33-1.26l0-.2.12-.09A3.62,3.62,0,0,0,231.73,36.21Z"/><path class="cls-4" d="M226.63,41.58a4.65,4.65,0,0,0,.28.8c.11.21.32.48.45.75a12.2,12.2,0,0,1,.77,1.63,11.61,11.61,0,0,1,.3,1.78c.16.53.28,1.14.4,1.71h0v.07c-.05.67-.12,1.34-.22,2a9.49,9.49,0,0,1-.43,2h0l-.18-.22c.29-.07.53-.12.79-.21a5.34,5.34,0,0,0,.79-.4,1.35,1.35,0,0,1-1.59,1l-.17-.05v-.16h0a9.57,9.57,0,0,1,.22-2c.11-.66.26-1.32.43-2v.07h0c-.13-.59-.25-1.13-.42-1.73a11.57,11.57,0,0,0-.28-1.73A11.66,11.66,0,0,0,227,43.3c-.13-.27-.31-.46-.45-.78A1.07,1.07,0,0,1,226.63,41.58Z"/><path class="cls-4" d="M217.75,45.15a1.24,1.24,0,0,1,.21.45,2.66,2.66,0,0,1,.1.49,3,3,0,0,1-.3-.4,1.22,1.22,0,0,1-.22-.44Z"/><path class="cls-4" d="M210.08,52.67a5.5,5.5,0,0,0-2,2.09A15.11,15.11,0,0,0,207,57.6a7.49,7.49,0,0,1,.65-3.07,4,4,0,0,1,2.31-2.2Z"/><path class="cls-4" d="M218.2,51.78a3.66,3.66,0,0,1,1.32.79,3.91,3.91,0,0,1,.86,1.27,7.58,7.58,0,0,1,.51,2.91,17.1,17.1,0,0,0-1-2.69,4.8,4.8,0,0,0-.79-1.1,5.58,5.58,0,0,0-1.08-.84Z"/><path class="cls-4" d="M202.88,31.59a7.57,7.57,0,0,0-1.46,2.9,7.32,7.32,0,0,0-.07,1.63c0,.55.1,1.12.19,1.67l-.35.1a6.88,6.88,0,0,1-.43-3.52,5,5,0,0,1,.7-1.69,6,6,0,0,1,1.16-1.35Z"/><path class="cls-4" d="M195.24,105.7a13.17,13.17,0,0,1-2.2,1.73c-.76.51-1.49,1-2.21,1.59-1.4,1.12-2.84,2.28-3.35,3.87a24.23,24.23,0,0,0-.87,5.33c-.07.91-.11,1.83-.14,2.76a17.4,17.4,0,0,1-.15,2.78,11.41,11.41,0,0,1-.38-2.77c-.05-.93-.1-1.86-.1-2.8a26.46,26.46,0,0,1,.09-2.81,12.75,12.75,0,0,1,.5-2.83A6.25,6.25,0,0,1,188,110a12.91,12.91,0,0,1,2.19-1.87,21.29,21.29,0,0,1,2.42-1.46A7.73,7.73,0,0,1,195.24,105.7Z"/><path class="cls-4" d="M187.86,133a20.29,20.29,0,0,1-2.11,3.68c-.79,1.17-1.59,2.34-2.48,3.45a27.85,27.85,0,0,1-2.89,3.17,26.54,26.54,0,0,1-3.51,2.47h0l.24-.36a5.06,5.06,0,0,1-2.81,3.25,14.85,14.85,0,0,1-3.86,1.24,13.79,13.79,0,0,1-4,.26,8.6,8.6,0,0,1-2-.37,7,7,0,0,1-1-.38,1.32,1.32,0,0,1-.78-.71l.14-.16a2.56,2.56,0,0,1,.9.27,5.19,5.19,0,0,0,.88.24,8.85,8.85,0,0,0,1.85.17,16.72,16.72,0,0,0,3.72-.49,14.33,14.33,0,0,0,3.52-1.2,6.75,6.75,0,0,0,1.45-1,3.74,3.74,0,0,0,.92-1.28l.1-.28.14-.09h0a39.11,39.11,0,0,0,3.4-2.34,28,28,0,0,0,2.9-3c.9-1.06,1.79-2.14,2.64-3.26A40.9,40.9,0,0,1,187.86,133Z"/><path class="cls-5" d="M193.4,99s3.93-.46,5.67.81c1,.75,1.45,1.72,1,3.58s-3.2,3.2-3.2,3.2l1.29-3.94-.8-1.85Z"/><path class="cls-4" d="M193.4,99a13.63,13.63,0,0,1,2.54.74,4.24,4.24,0,0,1,2.15,1.73,3.72,3.72,0,0,1,0,2.78,7.59,7.59,0,0,1-1.27,2.34,20,20,0,0,0,.75-2.48,3.77,3.77,0,0,0-.1-2.34,4.41,4.41,0,0,0-1.79-1.58C195,99.8,194.17,99.47,193.4,99Z"/><path class="cls-4" d="M206.42,77.91a6.6,6.6,0,0,1,1.14,1L208.63,80c.71.72,1.46,1.42,2.15,2.19a15.31,15.31,0,0,1,1.77,2.53,14.8,14.8,0,0,1,.69,1.38,3.48,3.48,0,0,1,.43,1.49,4.83,4.83,0,0,1-.78-1.32q-.31-.69-.69-1.35a15.6,15.6,0,0,0-1.75-2.45c-.65-.77-1.38-1.48-2.08-2.22l-1.05-1.12A5.6,5.6,0,0,1,206.42,77.91Z"/><path class="cls-4" d="M165,124.76a6.07,6.07,0,0,1-1,2.1c-.39.66-.81,1.3-1.23,1.93a15.79,15.79,0,0,0-1.11,1.92,11,11,0,0,0-.67,2.11h-.37a6.21,6.21,0,0,1,.29-2.38,11.14,11.14,0,0,1,1-2.14c.38-.68.78-1.33,1.22-2a5.81,5.81,0,0,1,1.53-1.76Z"/><path class="cls-4" d="M207,66a2.36,2.36,0,0,1,.79.7c.22.26.45.51.67.76a7.85,7.85,0,0,0,1.39,1.29,5.13,5.13,0,0,0,1.84.43c.68.08,1.36.11,2.06.15a9,9,0,0,1-2.06.37,4.7,4.7,0,0,1-2.19-.27,4.59,4.59,0,0,1-1.6-1.52c-.2-.29-.38-.59-.56-.89A2.13,2.13,0,0,1,207,66Z"/><path class="cls-10" d="M155.06,150.59l.36-2.17a2.74,2.74,0,0,0-.09-1,1.89,1.89,0,0,0-.42-.81h0l0,0c-.93-1.07-1.88-2.11-2.79-3.19l0,.05a.59.59,0,0,0-.3-.1,1.59,1.59,0,0,0-.48.08,13.17,13.17,0,0,1-1.31.26c-.85.14-1.69.29-2.53.47a36.13,36.13,0,0,0-4.9,1.42,47.08,47.08,0,0,0-9.11,4.64,87,87,0,0,0-15.61,13.33c-2.35,2.51-4.67,5.06-6.79,7.76a92.87,92.87,0,0,0-6.09,8.29,70.6,70.6,0,0,0-5,9,43.07,43.07,0,0,0-1.84,4.77c-.26.81-.48,1.63-.69,2.46a8.9,8.9,0,0,1-.82,2.46l-.36-.05a6.22,6.22,0,0,1,.07-2.65c.18-.87.38-1.72.62-2.57a43.65,43.65,0,0,1,1.71-5,55.69,55.69,0,0,1,4.85-9.32,93.4,93.4,0,0,1,6.12-8.5c2.18-2.73,4.56-5.28,7-7.8A83.19,83.19,0,0,1,132.75,149a47.2,47.2,0,0,1,9.46-4.58,34.45,34.45,0,0,1,5.09-1.37c.86-.17,1.73-.3,2.58-.43l1.25-.2a2.52,2.52,0,0,1,.8-.08,1.64,1.64,0,0,1,.88.38l0,0,0,0c.88,1.11,1.71,2.25,2.57,3.37l0,0a2.34,2.34,0,0,1,.52,1.15,3.08,3.08,0,0,1,0,1.21l-.52,2.16Z"/><path class="cls-4" d="M188,132.78a19.58,19.58,0,0,1,.19,5.45c-.06,1.81-.2,3.62-.34,5.43a39.78,39.78,0,0,1-.86,5.46c-.42,1.79-.9,3.53-1.44,5.3l0-.17c-.15.92-.25,1.84-.43,2.76s-.41,1.81-.66,2.72c-.5,1.8-1.06,3.59-1.74,5.36a55.8,55.8,0,0,1,0-5.64c0-.93.09-1.87.23-2.79s.31-1.83.47-2.75v-.09l0-.07c.57-1.67,1.09-3.39,1.55-5.11a38.43,38.43,0,0,0,1.12-5.17l.73-5.35a23.18,23.18,0,0,1,1-5.34Z"/><path class="cls-4" d="M181.24,166.37c1.06.61,2.06,1.24,3.06,1.79a9.4,9.4,0,0,0,2.93,1.21,4.87,4.87,0,0,0,2.89-.49,11.89,11.89,0,0,0,2.66-1.91,27.6,27.6,0,0,0,2.38-2.46,30.31,30.31,0,0,0,2-2.81c1.26-2,2.42-4,3.54-6.11a37.7,37.7,0,0,1-2.57,6.66,24.17,24.17,0,0,1-1.84,3.13,23.66,23.66,0,0,1-2.38,2.79,12,12,0,0,1-3,2.28,6.2,6.2,0,0,1-4,.67,5.63,5.63,0,0,1-1.87-.78,9,9,0,0,1-1.51-1.13A11.25,11.25,0,0,1,181.24,166.37Z"/><path class="cls-10" d="M154,147.51a4.09,4.09,0,0,0-.9-.77,1.73,1.73,0,0,0-1-.27h0l.12,0a84,84,0,0,0-16.92,8.62,93.55,93.55,0,0,0-14.8,11.9,91,91,0,0,0-12.09,14.61,77.22,77.22,0,0,0-4.75,8.22q-1.05,2.13-2,4.32c-.31.73-.57,1.47-.89,2.2a6.74,6.74,0,0,1-1.26,2.08,6.67,6.67,0,0,1,.35-2.42c.27-.76.57-1.5.87-2.25q.93-2.22,2-4.38a80.06,80.06,0,0,1,4.78-8.35,88.62,88.62,0,0,1,12.23-14.81,94.48,94.48,0,0,1,15-11.93,85.31,85.31,0,0,1,17.23-8.4l.07,0h.06a2.23,2.23,0,0,1,1.17.66A3.85,3.85,0,0,1,154,147.51Z"/><path class="cls-4" d="M161.52,148.32a18.82,18.82,0,0,0,4.79-.66c.77-.2,1.5-.57,2.29-.86a4.26,4.26,0,0,0,1.94-1.12,7.08,7.08,0,0,0,1-2.08,12.25,12.25,0,0,0,.52-2.31,10.93,10.93,0,0,0,.07-2.35,2,2,0,0,0-.3-1,2.9,2.9,0,0,0-.7-.78h0l-.11-.08,0-.08a10.61,10.61,0,0,0-2.16-3.2,14.54,14.54,0,0,0-3.4-1.93l0,0a3.62,3.62,0,0,0-1.4-.27,3,3,0,0,0-1.33.47c-.9.49-1.75,1.22-2.65,1.79l0,0-5.32,4h0l-2.4,1.49-.21-.3,2.26-1.69h0l5.07-4.25h0l0,0c.44-.3.91-.58,1.37-.86s.9-.59,1.4-.86a3.9,3.9,0,0,1,1.71-.57,4.51,4.51,0,0,1,1.75.33h0a14.37,14.37,0,0,1,3.59,2.08,11,11,0,0,1,2.34,3.46l-.15-.16h0a3.59,3.59,0,0,1,1,1,2.92,2.92,0,0,1,.47,1.35,10.47,10.47,0,0,1-.09,2.57,12.46,12.46,0,0,1-.64,2.47,7.68,7.68,0,0,1-1.23,2.28,5,5,0,0,1-2.29,1.27l-1.14.42c-.4.14-.8.28-1.21.38a17.72,17.72,0,0,1-5,.45Z"/><ellipse class="cls-2" cx="220.27" cy="44.58" rx="0.6" ry="0.55"/><ellipse class="cls-2" cx="206.65" cy="45.73" rx="0.44" ry="0.45"/><path class="cls-13" d="M32.75,29.41a31.85,31.85,0,0,1,3.15-.62C34.5,18,46.1,7.38,62,4.91c13.18-2,25.22,2.16,30.08,9.71,4.4-3.87,11.61-5.47,19-3.65s13.13,6.66,15.2,12.19c11.47,1.55,21.07,9,23.77,19.86C153,54.68,147,66.69,136.16,73.21a24.69,24.69,0,0,1-18.9,24.52A25,25,0,0,1,98.89,95.3a31.16,31.16,0,0,1-16.18,10A30.64,30.64,0,0,1,47,88C30.58,91.9,14.12,82.18,10.12,66.14S16.22,33.53,32.75,29.41Z"/><use width="15.63" height="26.24" transform="translate(62.92 61.66) rotate(17.53) scale(1.92)" xlink:href="#tag"/><use width="15.63" height="26.24" transform="translate(64.31 70.11) rotate(-18.88) scale(1.92)" xlink:href="#tag"/><use width="15.63" height="26.24" transform="translate(68.28 77.09) rotate(-49.94) scale(1.92)" xlink:href="#tag"/><path class="cls-4" d="M251.52,137a9.63,9.63,0,0,1,1.31-.1,5.18,5.18,0,0,1,1.34.14.6.6,0,0,1,.36.26,1.08,1.08,0,0,1,.12.39,2.28,2.28,0,0,1-.07.7,2.88,2.88,0,0,1-.57,1.21c0-.45.15-.86.21-1.28s.12-.88-.17-.94a4.34,4.34,0,0,0-1.23-.27C252.39,137,252,137,251.52,137Z"/><path class="cls-4" d="M253.77,132a6.92,6.92,0,0,1,1.18.26,3.24,3.24,0,0,1,1.15.54.9.9,0,0,1,.2.72,2,2,0,0,1-.23.62,2.45,2.45,0,0,1-.84.91c.16-.39.36-.73.51-1.07s.26-.73.08-.92a3.5,3.5,0,0,0-.95-.59Z"/><path class="cls-14" d="M81.73,62.32a4,4,0,0,1-.5-1.89c.09-.8,1.82-3.09.72-6.32-1.21-3.59-5.86-1.66-5.86-1.66l-3.72-.81a.73.73,0,0,1,.89-.86l3.09.56s5.74-1.65,7,1.79c1.1,2.95-.63,7.08-.72,7.65a4,4,0,0,0,.19,1.44Z"/><path class="cls-15" d="M84.23,62.48c-4.75-2.53-7.82,1.32-6.15,3a5.48,5.48,0,0,1,1-.78c-.31-1.1,2.5-2.14,3.93-1s3.76,7.32,3.78,9.1a3.87,3.87,0,0,1-1.2,2.68,3.11,3.11,0,0,0,1.06,1.5,5.14,5.14,0,0,0,2-4.48C88.49,70.12,87.07,64,84.23,62.48Z"/><path class="cls-14" d="M80.93,63.18a1.39,1.39,0,0,1-1.16-1.46c0-.89,1.93-1.82,1.93-1.82L82,58.48A10.51,10.51,0,0,0,79.1,59.8c-1.29.9-1.68,2.9-.82,3.64a2.06,2.06,0,0,0,2.21.69,13.21,13.21,0,0,0,2.23-.68,4.18,4.18,0,0,0-.63-.23A2.34,2.34,0,0,0,80.93,63.18Z"/><path class="cls-15" d="M80.73,58.93l1.2-.43c-.24.64-.44,1.1-.6,1.59a3.37,3.37,0,0,0-.6.37A1.45,1.45,0,0,0,80.73,58.93Z"/><text class="cls-16" transform="translate(83.94 85.17) rotate(39.26)">HEIGH<tspan class="cls-17" x="25.48" y="0">T</tspan></text><text class="cls-16" transform="translate(73.2 87.74) rotate(68.54)">WI<tspan class="cls-18" x="9.98" y="0">D</tspan><tspan x="15.93" y="0">TH</tspan></text><text class="cls-19" transform="translate(46.98 33.5)">DIMENSIONS</text><text class="cls-16" transform="translate(60.88 81.7) rotate(108.27)">DEPTH</text><path class="cls-20" d="M40.47,62v-7.8A5.27,5.27,0,0,1,45.74,49h26a5.06,5.06,0,0,0,4.67-3.13l1-2.45L78.64,46A5.07,5.07,0,0,0,83.23,49h26.38a5.27,5.27,0,0,1,5.27,5.27V62"/><line class="cls-20" x1="77.38" y1="37.58" x2="77.38" y2="43.77"/><path class="cls-4" d="M212,193.26a7,7,0,0,0,1.24,1,9.7,9.7,0,0,0,1.52.84,15.29,15.29,0,0,0,3.39,1.1c1.19.26,2.41.43,3.64.6s2.46.31,3.7.42a39.25,39.25,0,0,1-7.51,0,14.23,14.23,0,0,1-3.76-.86,8.59,8.59,0,0,1-3.38-2.24Z"/><path class="cls-10" d="M147,198.43h4.53l-.28-.77-7-6.23-3.41-5-2.35-3.67-.11-1.37-4.3-3.55-12.45-12.34-4.31,3.79a7.42,7.42,0,0,1,5.68.59s4,5.09,5.43,6.4a18.73,18.73,0,0,0,5.49,3.2,8.6,8.6,0,0,0,.63,1.65,9.19,9.19,0,0,0,2,2.08l.45.09a5.83,5.83,0,0,0,.33,3c.63,1.11,1.26,2.17,1.26,2.17a4.32,4.32,0,0,0,.14,2.5,3.08,3.08,0,0,0,1.69,1.09A45.41,45.41,0,0,1,147,198.43Z"/><path class="cls-4" d="M169.63,130a13.62,13.62,0,0,1,3.5,1.74,11.53,11.53,0,0,1,2.87,2.75,7.71,7.71,0,0,1,1.48,3.76,7.62,7.62,0,0,1-.46,3.93c-.15-1.32-.16-2.57-.4-3.8a8.48,8.48,0,0,0-1.32-3.4,13.88,13.88,0,0,0-2.5-2.81A16.17,16.17,0,0,0,169.63,130Z"/><ellipse class="cls-21" cx="152.28" cy="77.01" rx="9.64" ry="9.03"/><ellipse class="cls-22" cx="173.83" cy="75.14" rx="7.22" ry="6.77"/><ellipse class="cls-23" cx="187.11" cy="65.01" rx="5.53" ry="5.18"/><path class="cls-24" d="M81.93,58.5a4.89,4.89,0,0,1-1.24.83,12.52,12.52,0,0,0-1.19.82,3,3,0,0,0-1.43,2.19,1.44,1.44,0,0,0,.54,1.08,2.22,2.22,0,0,0,1.23.34c.93,0,1.85-.26,2.88-.31a4.84,4.84,0,0,1-2.9.9,2.64,2.64,0,0,1-1.57-.47,2.07,2.07,0,0,1-.72-1.51,2.41,2.41,0,0,1,.55-1.54,5.4,5.4,0,0,1,1.12-1.07A9.48,9.48,0,0,1,80.49,59,3,3,0,0,1,81.93,58.5Z"/><path class="cls-24" d="M73.26,50.78c1.12.1,2.25.23,3.37.37h-.06a7.74,7.74,0,0,1,4.11-.23,4.55,4.55,0,0,1,1.9.95,4.42,4.42,0,0,1,1.21,1.75,6.49,6.49,0,0,1,.08,4.15c-.38,1.34-.91,2.53-1.19,3.86-.34-1.41.34-2.74.62-4a6.12,6.12,0,0,0,0-3.81,3.87,3.87,0,0,0-2.73-2.43,8.7,8.7,0,0,0-3.9,0h-.06C75.48,51.21,74.36,51,73.26,50.78Z"/><path class="cls-24" d="M72.37,51.64c1.27.16,2.51.4,3.76.65H76a5.62,5.62,0,0,1,3.62-.41,3.37,3.37,0,0,1,1.61,1,4.75,4.75,0,0,1,.93,1.63,6.77,6.77,0,0,1,.18,3.65,12,12,0,0,1-.52,1.73l-.28.82a3.24,3.24,0,0,0-.13.41c0,.14-.09.28,0,.41-.27-.22-.21-.6-.22-.89a4.46,4.46,0,0,1,.16-.9c.17-.57.32-1.13.43-1.7a6.49,6.49,0,0,0-.12-3.36,3.27,3.27,0,0,0-2.16-2.3,5.34,5.34,0,0,0-3.34.24l-.06,0h0C74.82,52.33,73.59,52,72.37,51.64Z"/><path class="cls-24" d="M79.81,61.87a4.16,4.16,0,0,1,2.63-.31,5.6,5.6,0,0,1,2.45,1.09,6.7,6.7,0,0,1,1.69,2.1,16.43,16.43,0,0,1,1.09,2.42A22.78,22.78,0,0,1,89,72.31,5.72,5.72,0,0,1,88.5,75a4.52,4.52,0,0,1-1.67,2.09c.37-.83.83-1.52,1.13-2.31a5.67,5.67,0,0,0,.45-2.43,22.07,22.07,0,0,0-1.23-5,17.86,17.86,0,0,0-1-2.37,6.35,6.35,0,0,0-1.52-2,5.13,5.13,0,0,0-2.26-1.06A10.39,10.39,0,0,0,79.81,61.87Z"/><path class="cls-24" d="M80.77,63.19a1.79,1.79,0,0,1,1.91.15,4.71,4.71,0,0,1,1.42,1.39,21,21,0,0,1,1.81,3.45,17.8,17.8,0,0,1,1.21,3.72,3.79,3.79,0,0,1-.24,2,2.71,2.71,0,0,1-1.25,1.53,16.73,16.73,0,0,0,.86-1.68,4.09,4.09,0,0,0,.22-1.8,17.32,17.32,0,0,0-1.16-3.62,23.21,23.21,0,0,0-1.73-3.41A3.19,3.19,0,0,0,80.77,63.19Z"/><path class="cls-24" d="M81.33,60.09a1.41,1.41,0,0,1-.43.35,3.39,3.39,0,0,0-.42.33,1.74,1.74,0,0,0-.54.85,1.18,1.18,0,0,0,.19.93c.18.29.48.38.8.63a1,1,0,0,1-1.08-.43,1.5,1.5,0,0,1-.21-1.2,1.83,1.83,0,0,1,.66-1,3.08,3.08,0,0,1,.48-.32A.76.76,0,0,1,81.33,60.09Z"/><path class="cls-24" d="M77.9,63.37a3.81,3.81,0,0,0-.1,1,1.54,1.54,0,0,0,.13.49c.06.17.18.26.15.53-.28,0-.36-.23-.45-.4a2.09,2.09,0,0,1-.13-.59,2,2,0,0,1,0-.6A.75.75,0,0,1,77.9,63.37Z"/><path class="cls-24" d="M79.21,64.26a.5.5,0,0,0,0,.17.37.37,0,0,0,0,.18l-.17.09a.65.65,0,0,1-.12-.25.52.52,0,0,1,.07-.27Z"/></g></g></svg>