<svg xmlns="http://www.w3.org/2000/svg" xmlns:xlink="http://www.w3.org/1999/xlink" viewBox="0 0 370.4 223.43"><defs><style>.cls-1,.cls-10,.cls-17,.cls-18,.cls-2,.cls-22,.cls-23,.cls-24,.cls-25,.cls-26,.cls-27{fill:none;}.cls-1{clip-rule:evenodd;}.cls-3,.cls-7{fill:#622262;}.cls-28,.cls-29,.cls-3,.cls-30,.cls-31,.cls-32{fill-rule:evenodd;}.cls-4{clip-path:url(#clip-path);}.cls-19,.cls-33,.cls-5{fill:#fff;}.cls-6{clip-path:url(#clip-path-2);}.cls-8{fill:#c1d7de;}.cls-9{fill:#dce4e5;}.cls-10{stroke:#333;}.cls-10,.cls-18,.cls-19,.cls-24,.cls-25,.cls-27{stroke-miterlimit:10;}.cls-10,.cls-18{stroke-width:1.17px;}.cls-11{fill:#a1b3b7;}.cls-12{fill:#333;}.cls-13{fill:#d8a7ce;}.cls-14{fill:#aa5b9b;}.cls-15{fill:#e8dae6;}.cls-16{fill:#931d74;}.cls-17,.cls-18{stroke:#931d74;}.cls-17,.cls-26,.cls-33{stroke-linecap:round;stroke-linejoin:round;}.cls-17{stroke-width:1.24px;}.cls-19,.cls-24,.cls-26,.cls-33{stroke:#8e98a7;}.cls-19,.cls-24{stroke-width:3.64px;}.cls-20,.cls-21{fill:#592349;}.cls-20{opacity:0.15;isolation:isolate;}.cls-22,.cls-23{stroke:#622262;stroke-miterlimit:47.96;}.cls-22{stroke-width:1.26px;}.cls-23{stroke-width:1.49px;}.cls-25{stroke:#aa5b9b;stroke-width:1.36px;}.cls-26,.cls-33{stroke-width:3.64px;}.cls-27{stroke:#939393;stroke-width:2.38px;}.cls-28{fill:#aebc29;}.cls-29{fill:#bbdcb0;}.cls-30{fill:#592248;}.cls-31{fill:#9a5ba1;}.cls-32{fill:#e7ce17;}.cls-34{fill:url(#linear-gradient);}.cls-35{fill:url(#linear-gradient-2);}.cls-36{fill:url(#linear-gradient-3);}</style><clipPath id="clip-path"><polygon class="cls-1" points="24.08 54.24 24.16 56.73 24.4 58.5 25.6 58.5 25.84 56.73 25.84 54.24 24.08 54.24"/></clipPath><clipPath id="clip-path-2"><rect class="cls-2" x="24.08" y="59.7" width="1.77" height="1.61"/></clipPath><linearGradient id="linear-gradient" x1="115.43" y1="137.29" x2="104.42" y2="98.66" gradientUnits="userSpaceOnUse"><stop offset="0" stop-opacity="0.5"/><stop offset="1" stop-opacity="0"/></linearGradient><linearGradient id="linear-gradient-2" x1="-12581.07" y1="121.65" x2="-12589.08" y2="93.56" gradientTransform="matrix(-1, 0, 0, 1, -12363.89, 0)" xlink:href="#linear-gradient"/><linearGradient id="linear-gradient-3" x1="167.18" y1="154.91" x2="167.18" y2="99.5" xlink:href="#linear-gradient"/></defs><g id="Layer_2" data-name="Layer 2"><g id="Layer_1-2" data-name="Layer 1"><path class="cls-3" d="M24.08,51.26,17.89,62a1.07,1.07,0,0,0,1,1.61H31.23a1.1,1.1,0,0,0,1-1.61L25.93,51.26a1.06,1.06,0,0,0-1.85,0"/><g class="cls-4"><rect class="cls-5" x="20.06" y="50.22" width="9.8" height="12.29"/></g><g class="cls-6"><rect class="cls-5" x="20.06" y="55.68" width="9.8" height="9.64"/></g><circle class="cls-7" cx="24.51" cy="21.96" r="6.78"/><polygon class="cls-5" points="23.36 25.85 20.4 22.93 21.11 22.21 23.33 24.39 28.25 19.09 29 19.79 23.36 25.85"/><circle class="cls-7" cx="51.12" cy="56.99" r="6.78"/><polygon class="cls-5" points="49.98 60.89 47.01 57.97 47.73 57.24 49.95 59.43 54.87 54.13 55.61 54.83 49.98 60.89"/><polygon class="cls-8" points="76.85 109.48 96.99 130.28 95.85 186.89 142.37 222.37 227.54 201.46 228.19 140.62 249.87 119.1 249.54 116.81 166.99 134.12 144.53 156.37 115.39 125.23 78.33 107.67 76.85 109.48"/><polygon class="cls-9" points="76.85 109.48 96.99 130.28 95.85 186.89 142.37 222.37 143.39 156.16 142.12 153.75 115.39 125.23 78.33 107.67 76.85 109.48"/><polyline class="cls-10" points="90.21 112.92 85.48 98.91 174.32 87.82 189.97 116.02 189.32 118.14 191.27 118.79 190.95 128.98"/><path class="cls-11" d="M204.67,98.48l8.07-11.8,35,19.29c-8.75,8-27.32,8.61-32.13,18l-1.87.35-2.38-1.11C210.15,113.88,208.26,105.3,204.67,98.48Z"/><polyline class="cls-10" points="191.27 118.79 193.23 116.89 192.85 115.48 212.74 86.68 247.75 105.97 248.49 107.03 240.34 118.61"/><path class="cls-12" d="M119.63,127.11c5.77-1.34,11.6-2.27,17.43-3.23L154.54,121l17.49-2.9,17.5-2.79.23,1.45-17.51,2.75-17.52,2.64-17.52,2.65C131.36,125.68,125.53,126.59,119.63,127.11Z"/><path class="cls-12" d="M143.4,159a5.79,5.79,0,0,1,.76,3.69l-.06,3.68-.14,7.36c-.1,4.9-.15,9.81-.3,14.71l-.43,14.71c-.2,4.91-.35,9.81-.6,14.71-.13-4.9-.15-9.81-.22-14.72l0-14.72c0-4.9.06-9.81.09-14.71l0-7.36,0-3.68A5.87,5.87,0,0,1,143.4,159Z"/><path class="cls-12" d="M228.3,141.19l-19,3.59-19,3.48-19,3.48-9.5,1.74a65.43,65.43,0,0,1-9.58,1.39,65.63,65.63,0,0,1,9.43-2.16l9.49-1.83,19-3.65,19-3.65,19-3.54Z"/><path class="cls-12" d="M98.44,131.75a6.77,6.77,0,0,1,2.68,1l2.47,1.4,5,2.79,9.9,5.59,9.85,5.69,4.92,2.84a23.89,23.89,0,0,1,4.75,3.15,23.15,23.15,0,0,1-5.13-2.48l-5-2.78L118,143.44l-9.86-5.66-4.93-2.84-2.46-1.41A6.76,6.76,0,0,1,98.44,131.75Z"/><path class="cls-12" d="M194.15,117.19a8.57,8.57,0,0,1,2.59.51l2.47.84,4.93,1.66c3.28,1.15,6.56,2.29,9.81,3.52l-.4,1.1c-3.28-1.13-6.54-2.35-9.79-3.56l-4.86-1.87-2.43-.94A8.61,8.61,0,0,1,194.15,117.19Z"/><path class="cls-13" d="M107,20.36c-1.54,21.71,1.82,37.52,14.21,45.23l7.17,72.55,14.25,15.58.73,2.44,1.14.21L167,134.12,191,129l20.36-4.42c-.67-9.26-3.6-21.2-9.18-29.23C195.06,85.14,176.9,79.05,163,58.16c4.76-8.69,6.33-18.52,4.62-29.51l2.09-27.52c-5.78.7-11.64,3.43-17.58,7.79-5.65-4.41-20.46-4.46-28.22-.17-6.76-4.24-11.87-7.13-17.18-7Z"/><path class="cls-14" d="M160.59,17.06a5.93,5.93,0,0,1,5.62,1.88,47,47,0,0,1,2-14.25A18.88,18.88,0,0,0,160.59,17.06Z"/><path class="cls-14" d="M116.83,16.94a5.91,5.91,0,0,0-5.62,1.87,47,47,0,0,0-2-14.25A18.9,18.9,0,0,1,116.83,16.94Z"/><path class="cls-15" d="M123.27,64.92c1.15,14.47,2.47,26.58,6.66,37.93l3.62,42,8.25,8.07,2.16,3.52,4.51-4,3.42-48.31c1.92-13.68,2.62-26.49.77-37.45l6.41-5.39c-.46-2.93-2.16-5.53-5.9-7.62-4.95,5.3-10.07,4.94-15.28,1.55-5.85,4.2-11.39,4.26-16.47-1.59l-2.82,8.9Z"/><polygon class="cls-14" points="166.81 64.45 167.06 79.93 173.54 71.17 166.81 64.45"/><polygon class="cls-14" points="176.14 73.14 176.4 88.63 182.87 79.87 176.14 73.14"/><polygon class="cls-14" points="187.66 82.1 188.5 97.56 194.64 88.57 187.66 82.1"/><polygon class="cls-14" points="199.68 93.5 196.1 108.57 204.53 101.68 199.68 93.5"/><path class="cls-16" d="M107.55,27.19a70.45,70.45,0,0,0,1.5,14.51,54.51,54.51,0,0,0,1.72,6.91,28.15,28.15,0,0,0,3,6.3,23.18,23.18,0,0,0,10.46,8.72A42.85,42.85,0,0,0,138,66.72h-.22a45.91,45.91,0,0,0,13.62-2.82,23.79,23.79,0,0,0,10.77-8.12,28.07,28.07,0,0,0,4.67-12.88,58.64,58.64,0,0,0-.16-14.13v-.2l1.37-13.95L169.5.68l.69.63h0a39.34,39.34,0,0,0-17.66,8.07l-.57.45-.32-.65a2.86,2.86,0,0,0-1.12-1,9.21,9.21,0,0,0-1.59-.73,22.59,22.59,0,0,0-3.51-.91,42.44,42.44,0,0,0-7.3-.66,38.67,38.67,0,0,0-7.3.58,19.31,19.31,0,0,0-3.49,1,8.49,8.49,0,0,0-3,1.76l-.33.33-.4-.25c-2.72-1.7-5.38-3.48-8.19-4.91a20.26,20.26,0,0,0-8.93-2.48h0l.59-.6c0,4.33,0,8.65.1,13,0,2.16.12,4.32.17,6.48Zm-1.44,0,0-6.47c0-2.16,0-4.32,0-6.48,0-4.32-.08-8.63-.23-12.95l0-.62.62,0h0A21.48,21.48,0,0,1,116,3.28c2.9,1.49,5.57,3.28,8.29,5l-.73.09a9.6,9.6,0,0,1,3.38-2,22.21,22.21,0,0,1,3.69-1,40.48,40.48,0,0,1,7.53-.6,45.2,45.2,0,0,1,7.51.68,24.13,24.13,0,0,1,3.69,1,10.65,10.65,0,0,1,1.79.82,3.91,3.91,0,0,1,1.56,1.5l-.89-.19A40.54,40.54,0,0,1,170,.16h0l.74-.16-.06.78-1,14-1.07,14v-.2A61.56,61.56,0,0,1,169,43.15a30.28,30.28,0,0,1-4.81,14.05,26.37,26.37,0,0,1-11.74,9.27,48.73,48.73,0,0,1-14.44,3.32h-.22a45.55,45.55,0,0,1-14.94-3.16,25.78,25.78,0,0,1-12-9.92,32.34,32.34,0,0,1-3.31-7.05A36.87,36.87,0,0,1,106,42.18C105.37,37.13,105.85,32.08,106.11,27.17Z"/><path class="cls-16" d="M168.37,4.85a34.09,34.09,0,0,0-2.7,2.51,19.25,19.25,0,0,0-2.22,2.82,16.62,16.62,0,0,0-1.6,3.18,22.42,22.42,0,0,0-1,3.51h0a.59.59,0,0,1-1.16-.09,12.75,12.75,0,0,1,.44-4,13.16,13.16,0,0,1,1.65-3.69,14.26,14.26,0,0,1,2.64-3,15.59,15.59,0,0,1,3.27-2.22.59.59,0,0,1,.79.27.58.58,0,0,1-.14.7Z"/><path class="cls-16" d="M109.06,4.36a9.94,9.94,0,0,1,3.57,1.76,11.21,11.21,0,0,1,2.76,2.94,10.35,10.35,0,0,1,1.53,3.77,8.58,8.58,0,0,1-.12,4c-.55-1.24-1-2.38-1.52-3.48a33.38,33.38,0,0,0-1.72-3.11c-.64-1-1.35-1.94-2.1-2.91S109.87,5.43,109.06,4.36Z"/><path class="cls-5" d="M113.46,28.83C119,34.59,124.86,38,131.18,37c0,0-.42-9.84-6.24-11S113.46,28.83,113.46,28.83Z"/><path class="cls-5" d="M163.16,29.64c-5.56,5.76-11.39,9.19-17.72,8.21,0,0,.42-9.84,6.24-11S163.16,29.64,163.16,29.64Z"/><path class="cls-17" d="M131.18,37c.35-10.8-7.43-14.61-17.72-8.21"/><path class="cls-17" d="M145.2,37.73c-.35-10.8,7.43-14.61,17.72-8.21"/><path class="cls-16" d="M123.84,26.28c0,3.54.84,7.89,2.57,10.59,1.15-1.87,2.85-4.85,3-6.74C127.84,27.46,126,26.17,123.84,26.28Z"/><path class="cls-16" d="M154.93,26.5a12.93,12.93,0,0,0,2.39,8.14c1.28-1.71,3.27-4.16,3.44-6.06A7.18,7.18,0,0,0,154.93,26.5Z"/><path class="cls-16" d="M132.18,45.15l1.73-2.22c3.14-.57,5.85-.69,8.11.12l1.55,1.86-5.68,7.5Z"/><path class="cls-16" d="M122,65c1,6.16,1.8,12.34,2.47,18.54s1.19,12.4,1.77,18.6l.84,9.31.75,9.31q.76,9.32,1.34,18.65l-1.17.11c-.8-6.18-1.56-12.37-2.24-18.56l-1-9.29-1-9.29c-.62-6.2-1.29-12.39-1.82-18.6s-.92-12.43-1.11-18.67Z"/><polygon class="cls-16" points="138.4 99.67 142.68 103.76 142.89 103.97 142.89 104.44 142.49 153.32 141.32 153.32 140.44 104.45 140.65 105.14 138.4 99.67"/><path class="cls-16" d="M157.85,142.45c0-3.37.08-6.74.21-10.1s.29-6.73.49-10.09.44-6.71.7-10.07a32,32,0,0,1,1.85-10,32.23,32.23,0,0,1,.52,10.15q-.27,5-.64,10.07c-.24,3.36-.51,6.71-.84,10.06s-.67,6.7-1.12,10.05Z"/><path class="cls-16" d="M171.43,133.32a24.46,24.46,0,0,1,1-7,21.34,21.34,0,0,1,3.11-6.49,17.15,17.15,0,0,1,5.35-4.86,15.49,15.49,0,0,1,6.76-2,23.35,23.35,0,0,0-6,3.21,19.6,19.6,0,0,0-4.44,4.83,26.72,26.72,0,0,0-2.87,5.94,55.23,55.23,0,0,0-1.74,6.52Z"/><path class="cls-16" d="M163.51,57.84a85.25,85.25,0,0,0,14.12,15.65c2.68,2.27,5.53,4.31,8.44,6.34s5.91,4,8.76,6.28a39.26,39.26,0,0,1,7.66,7.94,41.15,41.15,0,0,1,5.09,9.77A81.9,81.9,0,0,1,211.79,125l-1.16.15c-.72-3.48-1.35-7-2.28-10.38a75.56,75.56,0,0,0-3.22-10,41.54,41.54,0,0,0-4.95-9A39.68,39.68,0,0,0,193,88.33c-5.41-4.33-11.68-8.07-17-13a69.2,69.2,0,0,1-7.41-7.91,83.52,83.52,0,0,1-6.11-8.9Z"/><path class="cls-18" d="M121.42,53.55c4.37,5.59,9.82,6.8,16.47,1.59V51.47"/><path class="cls-18" d="M137.89,55.14c5.48,3.81,10.51,4.74,15.28-1.55"/><polygon class="cls-10" points="145.47 155.31 166.99 134.12 249.54 116.81 249.87 119.1 228.19 140.62 227.54 201.46 142.21 222.8 95.26 187.26 96.73 130.04 76.35 109.5 78.06 107.55 115.39 125.23 142.78 154.17 143.33 156.45 144.53 156.37 145.47 155.31"/><path class="cls-12" d="M169.29,135.69a18.1,18.1,0,0,1,4.93-1.45l5-1.09,10-2.17,20-4.36,20-4.35,20-4.23.25,1.14-20,4.31-20.05,4.19-20.06,4.19-10,2.09-5,1A18,18,0,0,1,169.29,135.69Z"/><path class="cls-13" d="M215.69,123.53c.63-4.24,4.13-7,18.06-14.5,12.72-6.79,25-22.06,28.5-34,1.68-10.36-6.35-16.64-17.46-17.7-6.34.37-11,5.63-14.6,14.13-5.16,3.26-8.4.79-10.14-6.2,4.5-11.55,11.34-18.87,21.49-20.2,9.48-.15,18.7,3,27.6,10.64,6,7.26,10.54,10.92,7.09,24.36-3.9,11-15.77,22.73-27.83,30.77Z"/><path class="cls-15" d="M224.66,62.48S231,51,244.39,48.74c8.33-1.38,19.92,7.65,23.39,11.71s5.37,12.09,3.7,18.64-10.32,16.42-18.24,23.37-36.67,20.83-36.67,20.83L240,118.08l25.72-22.75c11.69-11.58,16.29-23.48,5.66-37.41a41.6,41.6,0,0,0-25.84-12.67c-11.26-.41-21.62,9.35-25.44,19.25Z"/><polygon class="cls-14" points="239.78 58.6 234.54 54.01 235.69 61.59 239.78 58.6"/><polygon class="cls-14" points="249.39 57.42 247.89 50.61 244.33 57.4 249.39 57.42"/><polygon class="cls-14" points="256.13 61.07 257.89 55.18 252.34 58.87 256.13 61.07"/><polygon class="cls-14" points="261.29 66.08 263.95 61.38 258.47 63.45 261.29 66.08"/><polygon class="cls-14" points="262.41 74.34 267.63 72.92 262.3 70.49 262.41 74.34"/><polygon class="cls-14" points="259.29 82.82 264.56 84.03 261.01 79.37 259.29 82.82"/><path class="cls-16" d="M214.61,123.48a15.66,15.66,0,0,1,4.25-6.39,24.18,24.18,0,0,1,6.41-4.08,90.18,90.18,0,0,0,12.66-7.7,82.1,82.1,0,0,0,11.17-9.73A59.79,59.79,0,0,0,258,83.8a34.09,34.09,0,0,0,2.92-6.71,16.85,16.85,0,0,0,.77-7.12,9,9,0,0,0-1.09-3.31A11.43,11.43,0,0,0,258.24,64a29.82,29.82,0,0,0-5.84-4.38,14.13,14.13,0,0,0-6.82-2A11.22,11.22,0,0,0,239,59.89,20.32,20.32,0,0,0,234,65.17a31.88,31.88,0,0,0-3.3,6.51h0v0l-.19.23A7,7,0,0,1,227,74.34a4.42,4.42,0,0,1-2.47,0,4.83,4.83,0,0,1-2.1-1.28,9.36,9.36,0,0,1-2.16-3.69,16.7,16.7,0,0,1-.81-3.91h0l0-.17.05-.16a38.77,38.77,0,0,1,3.33-7,35.38,35.38,0,0,1,4.67-6.24A26.31,26.31,0,0,1,233.65,47a21.67,21.67,0,0,1,7.47-2.57c5.28-.81,10.63.43,15.38,2.5A60.35,60.35,0,0,1,269.69,55l0,0,0,0a24.32,24.32,0,0,1,6,8.18,19.87,19.87,0,0,1,1.4,10.07A30.16,30.16,0,0,1,274.18,83a53.86,53.86,0,0,1-5.23,8.5A108,108,0,0,1,255.58,106c-2.42,2.24-4.9,4.4-7.42,6.51q-1.89,1.58-3.81,3.12a9.38,9.38,0,0,1-4.35,2.42,9.82,9.82,0,0,1,3.34-3.67q1.91-1.55,3.78-3.12,3.75-3.15,7.32-6.47a106.12,106.12,0,0,0,13.11-14.38,52,52,0,0,0,5-8.24,28.24,28.24,0,0,0,2.74-9.06A18.39,18.39,0,0,0,274,64a22.47,22.47,0,0,0-5.5-7.58l.05,0a59.12,59.12,0,0,0-12.77-8A27,27,0,0,0,241.35,46,22,22,0,0,0,228.5,52.8a37.16,37.16,0,0,0-7.9,12.68v-.33h0c.54,1.17,1,2.32,1.58,3.4a10,10,0,0,0,1.91,2.78,2.89,2.89,0,0,0,2.47.82A12.51,12.51,0,0,0,229.83,71l-.2.27h0a33.24,33.24,0,0,1,3.44-6.78,21.42,21.42,0,0,1,5.21-5.58,12.33,12.33,0,0,1,7.3-2.45,15.39,15.39,0,0,1,7.38,2.1A30.92,30.92,0,0,1,259,63.14c.46.44.91.85,1.36,1.33a8.48,8.48,0,0,1,1.19,1.61,10.21,10.21,0,0,1,1.24,3.73,18.07,18.07,0,0,1-.81,7.61,35.22,35.22,0,0,1-3,7,61.13,61.13,0,0,1-9.06,12,83.68,83.68,0,0,1-11.32,9.87,91.57,91.57,0,0,1-12.83,7.79,23.29,23.29,0,0,0-6.14,3.89,14.57,14.57,0,0,0-3.93,5.92Z"/><path class="cls-19" d="M1.82,13.32V99.78A3.16,3.16,0,0,0,5,102.94H62.79A3.16,3.16,0,0,0,66,99.78V31L44.56,10.16H5A3.17,3.17,0,0,0,1.82,13.32Z"/><path class="cls-20" d="M19.15,53.62H56.27V46.26a1.92,1.92,0,0,0-1.92-1.92H19.15Z"/><path class="cls-21" d="M18.16,53.5H55.3a.56.56,0,0,1,.56.56v9.6a0,0,0,0,1,0,0H18.16a0,0,0,0,1,0,0V53.5A0,0,0,0,1,18.16,53.5Z"/><path class="cls-22" d="M54.1,44.78H14A2,2,0,0,0,11.84,47V81.19c0,1.66,1,1.85,2.17,1.85H54.1c1.2,0,2.17-.19,2.17-1.85V47A1.94,1.94,0,0,0,54.1,44.78Z"/><line class="cls-23" x1="11.79" y1="54.04" x2="56.34" y2="54.04"/><line class="cls-23" x1="11.79" y1="63.9" x2="56.34" y2="63.9"/><line class="cls-23" x1="11.79" y1="74.07" x2="56.34" y2="74.07"/><line class="cls-23" x1="31.25" y1="83.68" x2="31.25" y2="44.79"/><line class="cls-23" x1="19.11" y1="83.68" x2="19.11" y2="44.79"/><line class="cls-23" x1="43.86" y1="83.68" x2="43.86" y2="44.53"/><path class="cls-24" d="M66,32H46.41a2.3,2.3,0,0,1-2.29-2.29V10.16"/><line class="cls-25" x1="127.01" y1="45.19" x2="119.27" y2="42.76"/><line class="cls-25" x1="126.84" y1="49.33" x2="119.29" y2="51.78"/><line class="cls-25" x1="126.66" y1="47.29" x2="118.13" y2="47.29"/><line class="cls-25" x1="148.04" y1="44.51" x2="155.77" y2="42.08"/><line class="cls-25" x1="148.21" y1="48.65" x2="155.75" y2="51.1"/><line class="cls-25" x1="148.38" y1="46.61" x2="156.92" y2="46.61"/><path class="cls-24" d="M33.58,106.72v49.65A12.43,12.43,0,0,0,46,168.8h63"/><polyline class="cls-26" points="101.66 158.51 111.75 168.61 101.66 178.71"/><path class="cls-24" d="M207.26,168.6H312.67a12.44,12.44,0,0,0,12.43-12.43V104.34"/><polyline class="cls-26" points="314.81 113.09 324.91 102.99 335.01 113.09"/><circle class="cls-5" cx="327.42" cy="58.64" r="41.8"/><circle class="cls-27" cx="327.42" cy="58.64" r="41.8"/><path class="cls-28" d="M314.4,35c1.57-.4,3.12-.85,4.7-1.23,1.45,1.48,2.92,2.93,4.38,4.4,1.33,1.3,2.62,2.65,4,3.93l0,0c-5.5,5.5-11,11-16.51,16.5-2.79-2.76-5.55-5.56-8.34-8.32,1.14-4.36,2.31-8.72,3.46-13.08L314.4,35Z"/><path class="cls-29" d="M335.76,33.77c4.36,1.13,8.71,2.3,13.07,3.46q1.55,5.79,3.08,11.6c.11.49.27,1,.37,1.47-2.77,2.77-5.54,5.55-8.32,8.31l0,0c-2.33-2.38-4.71-4.72-7.06-7.08l-8.14-8.15c-.44-.42-.86-.88-1.32-1.29l0,0,8.32-8.33Z"/><path class="cls-30" d="M310.9,58.62c5.52-5.48,11-11,16.51-16.5.46.41.88.87,1.32,1.29l8.14,8.15c2.35,2.36,4.73,4.7,7.06,7.08L328.87,73.7c-.49.47-.94,1-1.47,1.43q-8.23-8.25-16.48-16.49l0,0Z"/><path class="cls-31" d="M343.93,58.64l0,0c1,1.1,2.13,2.14,3.18,3.22,1.72,1.71,3.42,3.43,5.14,5.13-1.11,4.36-2.31,8.71-3.44,13.07q-6.54,1.74-13.09,3.46c-2.76-2.78-5.55-5.55-8.33-8.33l0,0c.53-.43,1-1,1.47-1.43l15.06-15.06Z"/><path class="cls-32" d="M310.16,59.37c.26-.24.48-.51.76-.73q8.24,8.27,16.48,16.49l0,0-7.51,7.51c-.29.28-.55.58-.85.83-4.34-1.17-8.7-2.3-13-3.46-1.16-4.35-2.3-8.7-3.47-13.05,2.52-2.56,5.08-5.08,7.61-7.62Z"/><circle class="cls-33" cx="33.72" cy="105.97" r="4.19"/><circle class="cls-33" cx="203.07" cy="168.81" r="4.19"/><polygon class="cls-11" points="90.61 113.15 86.09 99.29 123.03 94.68 127.79 137.9 115.39 125.23 90.61 113.15"/><polygon class="cls-34" points="84.8 98.72 89.47 112.39 115.39 125.23 127.79 137.9 122.6 93.58 84.8 98.72"/><path class="cls-35" d="M242.09,102.2c-3.47,2.2-9.14,7.11-14.64,9.71a38.46,38.46,0,0,0-8.14,4.78,14.23,14.23,0,0,0-4.63,6.82l-.82.19-2.27-.92c-1.33-9.77-3.28-18.67-6.88-25.26L212.62,86Z"/><path class="cls-36" d="M127.79,137.9,122.6,89.49l78.74,3.43c6.47,7.38,8.83,18.91,10.41,31.24l-45.07,9.54-21.13,20.69-1.28,1.44h-.48l-.51-2Z"/></g></g></svg>